<?xml version="1.0" encoding="utf-8"?>
<!-- Generator: Adobe Illustrator 24.0.0, SVG Export Plug-In . SVG Version: 6.00 Build 0)  -->
<svg version="1.1" id="Layer_1" xmlns="http://www.w3.org/2000/svg" xmlns:xlink="http://www.w3.org/1999/xlink" x="0px" y="0px"
	 viewBox="0 0 838.3 241.1" style="enable-background:new 0 0 838.3 241.1;" xml:space="preserve">
<style type="text/css">
	.st0{enable-background:new    ;}
	.st1{fill:#231F20;}
	.st2{fill:none;}
	.st3{fill:#0231CE;}
	.st4{fill-rule:evenodd;clip-rule:evenodd;fill:#0231CE;}
</style>
<g class="st0">
	<path class="st1" d="M16.6,137.7v6h-3.5v-17.1h6.7c1.3,0,2.4,0.2,3.4,0.7s1.7,1.1,2.2,2s0.8,1.8,0.8,2.9c0,1.7-0.6,3-1.7,4
		s-2.7,1.4-4.8,1.4H16.6z M16.6,134.8h3.1c0.9,0,1.6-0.2,2.1-0.7s0.7-1.1,0.7-1.9c0-0.8-0.2-1.5-0.7-2s-1.2-0.8-2-0.8h-3.2V134.8z"
		/>
	<path class="st1" d="M36.1,140.2h-6.2l-1.2,3.5H25l6.4-17.1h3.3l6.4,17.1h-3.7L36.1,140.2z M30.9,137.3h4.3l-2.1-6.4L30.9,137.3z"
		/>
	<path class="st1" d="M48.9,137.4h-2.8v6.2h-3.5v-17.1h6.3c2,0,3.6,0.4,4.7,1.3s1.6,2.2,1.6,3.8c0,1.2-0.3,2.1-0.8,2.9
		s-1.3,1.4-2.3,1.9l3.7,7v0.2h-3.8L48.9,137.4z M46.1,134.6H49c0.9,0,1.6-0.2,2.1-0.7s0.7-1.1,0.7-1.9c0-0.8-0.2-1.4-0.7-1.9
		s-1.2-0.7-2.1-0.7h-2.8V134.6z"/>
	<path class="st1" d="M70.2,129.5H65v14.2h-3.5v-14.2h-5.2v-2.8h13.9V129.5z"/>
	<path class="st1" d="M86.1,143.7h-3.5l-6.8-11.2v11.2h-3.5v-17.1h3.5l6.9,11.2v-11.2h3.5V143.7z"/>
	<path class="st1" d="M99.4,136.3h-6.8v4.6h7.9v2.8H89.1v-17.1h11.4v2.8h-7.9v4.1h6.8V136.3z"/>
	<path class="st1" d="M108.9,137.4h-2.8v6.2h-3.5v-17.1h6.3c2,0,3.6,0.4,4.7,1.3s1.6,2.2,1.6,3.8c0,1.2-0.3,2.1-0.8,2.9
		s-1.3,1.4-2.3,1.9l3.7,7v0.2h-3.8L108.9,137.4z M106.1,134.6h2.8c0.9,0,1.6-0.2,2.1-0.7s0.7-1.1,0.7-1.9c0-0.8-0.2-1.4-0.7-1.9
		s-1.2-0.7-2.1-0.7h-2.8V134.6z"/>
	<path class="st1" d="M126.8,139.2c0-0.7-0.2-1.2-0.7-1.5s-1.3-0.7-2.5-1.1s-2.2-0.8-2.9-1.2c-1.9-1-2.9-2.5-2.9-4.2
		c0-0.9,0.3-1.7,0.8-2.5s1.3-1.3,2.2-1.7s2.1-0.6,3.3-0.6c1.2,0,2.3,0.2,3.3,0.7s1.7,1.1,2.2,1.9s0.8,1.7,0.8,2.7h-3.5
		c0-0.8-0.2-1.4-0.7-1.8s-1.2-0.7-2.1-0.7c-0.9,0-1.5,0.2-2,0.5s-0.7,0.8-0.7,1.4c0,0.6,0.3,1,0.8,1.4s1.4,0.7,2.5,1.1
		c2,0.6,3.5,1.3,4.4,2.2s1.4,2,1.4,3.3c0,1.5-0.6,2.6-1.7,3.5s-2.6,1.3-4.5,1.3c-1.3,0-2.5-0.2-3.6-0.7s-1.9-1.1-2.5-2
		s-0.8-1.8-0.8-2.9h3.5c0,1.9,1.1,2.8,3.4,2.8c0.8,0,1.5-0.2,2-0.5S126.8,139.8,126.8,139.2z"/>
</g>
<rect x="4.7" y="159.2" class="st2" width="140.3" height="79.8"/>
<g class="st0">
	<path d="M10.8,167.2v4.7H9.2v-12.1h4.5c1.3,0,2.4,0.3,3.1,1c0.8,0.7,1.1,1.6,1.1,2.7c0,1.2-0.4,2.1-1.1,2.7c-0.7,0.6-1.8,1-3.2,1
		H10.8z M10.8,165.9h2.9c0.9,0,1.5-0.2,2-0.6c0.5-0.4,0.7-1,0.7-1.7c0-0.7-0.2-1.3-0.7-1.7s-1.1-0.7-1.9-0.7h-3V165.9z"/>
	<path d="M24,164.4c-0.2,0-0.5-0.1-0.8-0.1c-1,0-1.7,0.4-2.1,1.3v6.4h-1.5v-9h1.5l0,1c0.5-0.8,1.2-1.2,2.1-1.2c0.3,0,0.5,0,0.7,0.1
		V164.4z"/>
	<path d="M24.8,167.4c0-0.9,0.2-1.7,0.5-2.4c0.3-0.7,0.8-1.2,1.4-1.6c0.6-0.4,1.3-0.6,2.1-0.6c1.2,0,2.2,0.4,3,1.3
		c0.8,0.8,1.1,2,1.1,3.4v0.1c0,0.9-0.2,1.7-0.5,2.4c-0.3,0.7-0.8,1.2-1.4,1.6c-0.6,0.4-1.3,0.6-2.1,0.6c-1.2,0-2.2-0.4-3-1.3
		c-0.8-0.8-1.1-2-1.1-3.4V167.4z M26.4,167.6c0,1,0.2,1.8,0.7,2.4c0.5,0.6,1.1,0.9,1.9,0.9c0.8,0,1.4-0.3,1.9-0.9s0.7-1.5,0.7-2.6
		c0-1-0.2-1.8-0.7-2.4c-0.5-0.6-1.1-0.9-1.9-0.9c-0.8,0-1.4,0.3-1.8,0.9C26.6,165.6,26.4,166.5,26.4,167.6z"/>
	<path d="M37.8,169.9L40,163h1.6l-3.2,9h-1.2l-3.3-9h1.6L37.8,169.9z"/>
	<path d="M43,160.6c0-0.2,0.1-0.5,0.2-0.6c0.2-0.2,0.4-0.3,0.7-0.3s0.5,0.1,0.7,0.3c0.2,0.2,0.2,0.4,0.2,0.6c0,0.2-0.1,0.5-0.2,0.6
		s-0.4,0.2-0.7,0.2s-0.5-0.1-0.7-0.2C43.1,161.1,43,160.9,43,160.6z M44.7,172h-1.5v-9h1.5V172z"/>
	<path d="M46.8,167.4c0-1.4,0.3-2.5,1-3.3c0.7-0.8,1.5-1.3,2.6-1.3c1.1,0,1.9,0.4,2.5,1.1v-4.7h1.5V172H53l-0.1-1
		c-0.6,0.8-1.5,1.1-2.6,1.1c-1,0-1.9-0.4-2.5-1.3c-0.7-0.9-1-2-1-3.3V167.4z M48.3,167.6c0,1,0.2,1.8,0.6,2.4c0.4,0.6,1,0.9,1.7,0.9
		c1,0,1.7-0.4,2.1-1.3v-4.1c-0.5-0.8-1.2-1.3-2.1-1.3c-0.8,0-1.3,0.3-1.8,0.9S48.3,166.4,48.3,167.6z"/>
	<path d="M60.5,172.1c-1.2,0-2.2-0.4-3-1.2s-1.1-1.9-1.1-3.2v-0.3c0-0.9,0.2-1.7,0.5-2.4c0.3-0.7,0.8-1.2,1.4-1.6
		c0.6-0.4,1.3-0.6,2-0.6c1.2,0,2.1,0.4,2.7,1.2c0.6,0.8,1,1.9,1,3.3v0.6h-6.1c0,0.9,0.3,1.6,0.8,2.1c0.5,0.5,1.1,0.8,1.9,0.8
		c0.5,0,1-0.1,1.4-0.3c0.4-0.2,0.7-0.5,1-0.9l0.9,0.7C63.1,171.6,62,172.1,60.5,172.1z M60.3,164.1c-0.6,0-1.1,0.2-1.6,0.7
		s-0.7,1.1-0.8,1.9h4.5v-0.1c0-0.8-0.3-1.4-0.6-1.8S60.9,164.1,60.3,164.1z"/>
	<path d="M72.1,160.8v2.2h1.7v1.2h-1.7v5.6c0,0.4,0.1,0.6,0.2,0.8s0.4,0.3,0.8,0.3c0.2,0,0.4,0,0.7-0.1v1.2
		c-0.4,0.1-0.8,0.2-1.2,0.2c-0.7,0-1.2-0.2-1.6-0.6c-0.3-0.4-0.5-1-0.5-1.8v-5.6h-1.6V163h1.6v-2.2H72.1z"/>
	<path d="M77.1,164.1c0.7-0.8,1.6-1.3,2.7-1.3c1.9,0,2.9,1.1,2.9,3.2v5.9H81V166c0-0.6-0.2-1.1-0.4-1.4c-0.3-0.3-0.7-0.5-1.4-0.5
		c-0.5,0-0.9,0.1-1.3,0.4s-0.7,0.6-0.9,1v6.4h-1.5v-12.8h1.5V164.1z"/>
	<path d="M88.6,172.1c-1.2,0-2.2-0.4-3-1.2s-1.1-1.9-1.1-3.2v-0.3c0-0.9,0.2-1.7,0.5-2.4c0.3-0.7,0.8-1.2,1.4-1.6
		c0.6-0.4,1.3-0.6,2-0.6c1.2,0,2.1,0.4,2.7,1.2c0.6,0.8,1,1.9,1,3.3v0.6H86c0,0.9,0.3,1.6,0.8,2.1c0.5,0.5,1.1,0.8,1.9,0.8
		c0.5,0,1-0.1,1.4-0.3c0.4-0.2,0.7-0.5,1-0.9l0.9,0.7C91.2,171.6,90.1,172.1,88.6,172.1z M88.4,164.1c-0.6,0-1.1,0.2-1.6,0.7
		s-0.7,1.1-0.8,1.9h4.5v-0.1c0-0.8-0.3-1.4-0.6-1.8S89.1,164.1,88.4,164.1z"/>
	<path d="M103.6,172c-0.1-0.2-0.2-0.5-0.2-0.9c-0.7,0.7-1.6,1.1-2.6,1.1c-0.9,0-1.6-0.2-2.2-0.8c-0.6-0.5-0.9-1.1-0.9-1.9
		c0-0.9,0.4-1.7,1.1-2.2c0.7-0.5,1.7-0.8,3-0.8h1.5v-0.7c0-0.5-0.2-1-0.5-1.3s-0.8-0.5-1.4-0.5c-0.5,0-1,0.1-1.4,0.4
		c-0.4,0.3-0.6,0.6-0.6,1H98c0-0.4,0.2-0.9,0.5-1.3c0.3-0.4,0.8-0.7,1.3-1c0.5-0.2,1.1-0.4,1.8-0.4c1,0,1.8,0.3,2.4,0.8
		s0.9,1.2,0.9,2.1v4.1c0,0.8,0.1,1.5,0.3,2v0.1H103.6z M101.1,170.8c0.5,0,0.9-0.1,1.4-0.4s0.7-0.6,0.9-1v-1.8h-1.2
		c-1.9,0-2.8,0.5-2.8,1.7c0,0.5,0.2,0.9,0.5,1.1S100.6,170.8,101.1,170.8z"/>
	<path d="M114.9,167.6c0,1.4-0.3,2.5-0.9,3.3s-1.5,1.2-2.5,1.2c-1.1,0-2-0.4-2.6-1.2l-0.1,1h-1.4v-12.8h1.5v4.8
		c0.6-0.8,1.5-1.2,2.6-1.2s1.9,0.4,2.6,1.2c0.6,0.8,0.9,2,0.9,3.4V167.6z M113.4,167.4c0-1-0.2-1.9-0.6-2.4s-1-0.9-1.7-0.9
		c-1,0-1.7,0.5-2.2,1.4v3.9c0.5,0.9,1.2,1.4,2.2,1.4c0.7,0,1.3-0.3,1.7-0.9C113.2,169.4,113.4,168.6,113.4,167.4z"/>
	<path d="M116.9,160.6c0-0.2,0.1-0.5,0.2-0.6c0.2-0.2,0.4-0.3,0.7-0.3s0.5,0.1,0.7,0.3c0.2,0.2,0.2,0.4,0.2,0.6
		c0,0.2-0.1,0.5-0.2,0.6s-0.4,0.2-0.7,0.2s-0.5-0.1-0.7-0.2S116.9,160.9,116.9,160.6z M118.6,172H117v-9h1.5V172z"/>
	<path d="M122.7,172h-1.5v-12.8h1.5V172z"/>
	<path d="M125.1,160.6c0-0.2,0.1-0.5,0.2-0.6c0.2-0.2,0.4-0.3,0.7-0.3s0.5,0.1,0.7,0.3c0.2,0.2,0.2,0.4,0.2,0.6
		c0,0.2-0.1,0.5-0.2,0.6s-0.4,0.2-0.7,0.2s-0.5-0.1-0.7-0.2S125.1,160.9,125.1,160.6z M126.8,172h-1.5v-9h1.5V172z"/>
	<path d="M131.3,160.8v2.2h1.7v1.2h-1.7v5.6c0,0.4,0.1,0.6,0.2,0.8s0.4,0.3,0.8,0.3c0.2,0,0.4,0,0.7-0.1v1.2
		c-0.4,0.1-0.8,0.2-1.2,0.2c-0.7,0-1.2-0.2-1.6-0.6c-0.3-0.4-0.5-1-0.5-1.8v-5.6h-1.6V163h1.6v-2.2H131.3z"/>
	<path d="M137.8,169.7l2.1-6.7h1.6l-3.6,10.4c-0.6,1.5-1.4,2.2-2.7,2.2l-0.3,0l-0.6-0.1v-1.2l0.4,0c0.5,0,0.9-0.1,1.2-0.3
		c0.3-0.2,0.5-0.6,0.7-1.2l0.3-0.9l-3.2-8.9h1.7L137.8,169.7z"/>
</g>
<g class="st0">
	<path d="M27.9,181.2v2.2h1.7v1.2h-1.7v5.6c0,0.4,0.1,0.6,0.2,0.8s0.4,0.3,0.8,0.3c0.2,0,0.4,0,0.7-0.1v1.2
		c-0.4,0.1-0.8,0.2-1.2,0.2c-0.7,0-1.2-0.2-1.6-0.6c-0.3-0.4-0.5-1-0.5-1.8v-5.6h-1.6v-1.2h1.6v-2.2H27.9z"/>
	<path d="M30.8,187.8c0-0.9,0.2-1.7,0.5-2.4c0.3-0.7,0.8-1.2,1.4-1.6c0.6-0.4,1.3-0.6,2.1-0.6c1.2,0,2.2,0.4,3,1.3
		c0.8,0.8,1.1,2,1.1,3.4v0.1c0,0.9-0.2,1.7-0.5,2.4c-0.3,0.7-0.8,1.2-1.4,1.6c-0.6,0.4-1.3,0.6-2.1,0.6c-1.2,0-2.2-0.4-3-1.3
		c-0.8-0.8-1.1-2-1.1-3.4V187.8z M32.3,188c0,1,0.2,1.8,0.7,2.4c0.5,0.6,1.1,0.9,1.9,0.9c0.8,0,1.4-0.3,1.9-0.9s0.7-1.5,0.7-2.6
		c0-1-0.2-1.8-0.7-2.4c-0.5-0.6-1.1-0.9-1.9-0.9c-0.8,0-1.4,0.3-1.8,0.9C32.6,186,32.3,186.9,32.3,188z"/>
	<path d="M48.7,191.3c0.5,0,1-0.2,1.4-0.5s0.6-0.7,0.7-1.2h1.5c0,0.5-0.2,1-0.5,1.5s-0.8,0.8-1.3,1.1c-0.5,0.3-1.1,0.4-1.7,0.4
		c-1.2,0-2.2-0.4-2.9-1.2c-0.7-0.8-1.1-1.9-1.1-3.3v-0.3c0-0.9,0.2-1.7,0.5-2.3c0.3-0.7,0.8-1.2,1.4-1.6c0.6-0.4,1.3-0.6,2.1-0.6
		c1,0,1.8,0.3,2.5,0.9c0.7,0.6,1,1.4,1.1,2.3h-1.5c0-0.6-0.3-1.1-0.7-1.4c-0.4-0.4-0.9-0.6-1.5-0.6c-0.8,0-1.4,0.3-1.8,0.8
		c-0.4,0.6-0.6,1.4-0.6,2.4v0.3c0,1,0.2,1.8,0.6,2.4S47.9,191.3,48.7,191.3z"/>
	<path d="M53.6,187.8c0-0.9,0.2-1.7,0.5-2.4c0.3-0.7,0.8-1.2,1.4-1.6c0.6-0.4,1.3-0.6,2.1-0.6c1.2,0,2.2,0.4,3,1.3
		c0.8,0.8,1.1,2,1.1,3.4v0.1c0,0.9-0.2,1.7-0.5,2.4c-0.3,0.7-0.8,1.2-1.4,1.6c-0.6,0.4-1.3,0.6-2.1,0.6c-1.2,0-2.2-0.4-3-1.3
		c-0.8-0.8-1.1-2-1.1-3.4V187.8z M55.2,188c0,1,0.2,1.8,0.7,2.4c0.5,0.6,1.1,0.9,1.9,0.9c0.8,0,1.4-0.3,1.9-0.9s0.7-1.5,0.7-2.6
		c0-1-0.2-1.8-0.7-2.4c-0.5-0.6-1.1-0.9-1.9-0.9c-0.8,0-1.4,0.3-1.8,0.9C55.4,186,55.2,186.9,55.2,188z"/>
	<path d="M63.3,187.8c0-0.9,0.2-1.7,0.5-2.4c0.3-0.7,0.8-1.2,1.4-1.6c0.6-0.4,1.3-0.6,2.1-0.6c1.2,0,2.2,0.4,3,1.3
		c0.8,0.8,1.1,2,1.1,3.4v0.1c0,0.9-0.2,1.7-0.5,2.4c-0.3,0.7-0.8,1.2-1.4,1.6c-0.6,0.4-1.3,0.6-2.1,0.6c-1.2,0-2.2-0.4-3-1.3
		c-0.8-0.8-1.1-2-1.1-3.4V187.8z M64.8,188c0,1,0.2,1.8,0.7,2.4c0.5,0.6,1.1,0.9,1.9,0.9c0.8,0,1.4-0.3,1.9-0.9s0.7-1.5,0.7-2.6
		c0-1-0.2-1.8-0.7-2.4c-0.5-0.6-1.1-0.9-1.9-0.9c-0.8,0-1.4,0.3-1.8,0.9C65.1,186,64.8,186.9,64.8,188z"/>
	<path d="M77.7,184.8c-0.2,0-0.5-0.1-0.8-0.1c-1,0-1.7,0.4-2.1,1.3v6.4h-1.5v-9h1.5l0,1c0.5-0.8,1.2-1.2,2.1-1.2
		c0.3,0,0.5,0,0.7,0.1V184.8z"/>
	<path d="M78.6,187.8c0-1.4,0.3-2.5,1-3.3c0.7-0.8,1.5-1.3,2.6-1.3c1.1,0,1.9,0.4,2.5,1.1v-4.7h1.5v12.8h-1.4l-0.1-1
		c-0.6,0.8-1.5,1.1-2.6,1.1c-1,0-1.9-0.4-2.5-1.3c-0.7-0.9-1-2-1-3.3V187.8z M80.2,188c0,1,0.2,1.8,0.6,2.4c0.4,0.6,1,0.9,1.7,0.9
		c1,0,1.7-0.4,2.1-1.3v-4.1c-0.5-0.8-1.2-1.3-2.1-1.3c-0.8,0-1.3,0.3-1.8,0.9S80.2,186.8,80.2,188z"/>
	<path d="M88.6,181c0-0.2,0.1-0.5,0.2-0.6c0.2-0.2,0.4-0.3,0.7-0.3s0.5,0.1,0.7,0.3c0.2,0.2,0.2,0.4,0.2,0.6c0,0.2-0.1,0.5-0.2,0.6
		s-0.4,0.2-0.7,0.2s-0.5-0.1-0.7-0.2C88.7,181.5,88.6,181.3,88.6,181z M90.3,192.4h-1.5v-9h1.5V192.4z"/>
	<path d="M94.2,183.4l0,1.1c0.7-0.9,1.6-1.3,2.7-1.3c1.9,0,2.9,1.1,2.9,3.2v5.9h-1.5v-5.9c0-0.6-0.2-1.1-0.4-1.4
		c-0.3-0.3-0.7-0.5-1.4-0.5c-0.5,0-0.9,0.1-1.3,0.4s-0.7,0.6-0.9,1v6.4h-1.5v-9H94.2z"/>
	<path d="M107.6,192.4c-0.1-0.2-0.2-0.5-0.2-0.9c-0.7,0.7-1.6,1.1-2.6,1.1c-0.9,0-1.6-0.2-2.2-0.8c-0.6-0.5-0.9-1.1-0.9-1.9
		c0-0.9,0.4-1.7,1.1-2.2c0.7-0.5,1.7-0.8,3-0.8h1.5v-0.7c0-0.5-0.2-1-0.5-1.3s-0.8-0.5-1.4-0.5c-0.5,0-1,0.1-1.4,0.4
		c-0.4,0.3-0.6,0.6-0.6,1H102c0-0.4,0.2-0.9,0.5-1.3c0.3-0.4,0.8-0.7,1.3-1c0.5-0.2,1.1-0.4,1.8-0.4c1,0,1.8,0.3,2.4,0.8
		s0.9,1.2,0.9,2.1v4.1c0,0.8,0.1,1.5,0.3,2v0.1H107.6z M105.1,191.2c0.5,0,0.9-0.1,1.4-0.4s0.7-0.6,0.9-1V188h-1.2
		c-1.9,0-2.8,0.5-2.8,1.7c0,0.5,0.2,0.9,0.5,1.1S104.6,191.2,105.1,191.2z"/>
	<path d="M113.4,181.2v2.2h1.7v1.2h-1.7v5.6c0,0.4,0.1,0.6,0.2,0.8s0.4,0.3,0.8,0.3c0.2,0,0.4,0,0.7-0.1v1.2
		c-0.4,0.1-0.8,0.2-1.2,0.2c-0.7,0-1.2-0.2-1.6-0.6c-0.3-0.4-0.5-1-0.5-1.8v-5.6h-1.6v-1.2h1.6v-2.2H113.4z"/>
	<path d="M120.6,192.5c-1.2,0-2.2-0.4-3-1.2s-1.1-1.9-1.1-3.2v-0.3c0-0.9,0.2-1.7,0.5-2.4c0.3-0.7,0.8-1.2,1.4-1.6
		c0.6-0.4,1.3-0.6,2-0.6c1.2,0,2.1,0.4,2.7,1.2c0.6,0.8,1,1.9,1,3.3v0.6H118c0,0.9,0.3,1.6,0.8,2.1c0.5,0.5,1.1,0.8,1.9,0.8
		c0.5,0,1-0.1,1.4-0.3c0.4-0.2,0.7-0.5,1-0.9l0.9,0.7C123.3,192,122.1,192.5,120.6,192.5z M120.4,184.5c-0.6,0-1.1,0.2-1.6,0.7
		s-0.7,1.1-0.8,1.9h4.5v-0.1c0-0.8-0.3-1.4-0.6-1.8S121.1,184.5,120.4,184.5z"/>
</g>
<g class="st0">
	<path d="M24.2,210.7l1.7-6.9h1.5l-2.6,9h-1.2l-2.2-6.8l-2.1,6.8H18l-2.6-9h1.5l1.8,6.7l2.1-6.7H22L24.2,210.7z"/>
	<path d="M28.6,208.2c0-0.9,0.2-1.7,0.5-2.4c0.3-0.7,0.8-1.2,1.4-1.6c0.6-0.4,1.3-0.6,2.1-0.6c1.2,0,2.2,0.4,3,1.3
		c0.8,0.8,1.1,2,1.1,3.4v0.1c0,0.9-0.2,1.7-0.5,2.4c-0.3,0.7-0.8,1.2-1.4,1.6c-0.6,0.4-1.3,0.6-2.1,0.6c-1.2,0-2.2-0.4-3-1.3
		c-0.8-0.8-1.1-2-1.1-3.4V208.2z M30.1,208.4c0,1,0.2,1.8,0.7,2.4c0.5,0.6,1.1,0.9,1.9,0.9c0.8,0,1.4-0.3,1.9-0.9s0.7-1.5,0.7-2.6
		c0-1-0.2-1.8-0.7-2.4c-0.5-0.6-1.1-0.9-1.9-0.9c-0.8,0-1.4,0.3-1.8,0.9C30.4,206.4,30.1,207.3,30.1,208.4z"/>
	<path d="M43,205.2c-0.2,0-0.5-0.1-0.8-0.1c-1,0-1.7,0.4-2.1,1.3v6.4h-1.5v-9h1.5l0,1c0.5-0.8,1.2-1.2,2.1-1.2c0.3,0,0.5,0,0.7,0.1
		V205.2z"/>
	<path d="M47,208.6l-1,1v3.2h-1.5V200H46v7.7l0.8-1l2.8-3h1.9l-3.5,3.8l3.9,5.2h-1.8L47,208.6z"/>
	<path d="M52.7,208.2c0-0.9,0.2-1.7,0.5-2.4c0.3-0.7,0.8-1.2,1.4-1.6c0.6-0.4,1.3-0.6,2.1-0.6c1.2,0,2.2,0.4,3,1.3
		c0.8,0.8,1.1,2,1.1,3.4v0.1c0,0.9-0.2,1.7-0.5,2.4c-0.3,0.7-0.8,1.2-1.4,1.6c-0.6,0.4-1.3,0.6-2.1,0.6c-1.2,0-2.2-0.4-3-1.3
		c-0.8-0.8-1.1-2-1.1-3.4V208.2z M54.2,208.4c0,1,0.2,1.8,0.7,2.4c0.5,0.6,1.1,0.9,1.9,0.9c0.8,0,1.4-0.3,1.9-0.9s0.7-1.5,0.7-2.6
		c0-1-0.2-1.8-0.7-2.4c-0.5-0.6-1.1-0.9-1.9-0.9c-0.8,0-1.4,0.3-1.8,0.9C54.4,206.4,54.2,207.3,54.2,208.4z"/>
	<path d="M68.3,211.9c-0.6,0.7-1.5,1.1-2.6,1.1c-1,0-1.7-0.3-2.2-0.8c-0.5-0.6-0.8-1.4-0.8-2.5v-5.8h1.5v5.8c0,1.4,0.6,2,1.7,2
		c1.2,0,2-0.4,2.3-1.3v-6.5h1.5v9h-1.5L68.3,211.9z"/>
	<path d="M74.2,201.6v2.2h1.7v1.2h-1.7v5.6c0,0.4,0.1,0.6,0.2,0.8s0.4,0.3,0.8,0.3c0.2,0,0.4,0,0.7-0.1v1.2
		c-0.4,0.1-0.8,0.2-1.2,0.2c-0.7,0-1.2-0.2-1.6-0.6c-0.3-0.4-0.5-1-0.5-1.8V205H71v-1.2h1.6v-2.2H74.2z"/>
	<path d="M82.9,210.4c0-0.4-0.2-0.7-0.5-1c-0.3-0.2-0.9-0.4-1.6-0.6c-0.8-0.2-1.4-0.4-1.9-0.6c-0.5-0.2-0.8-0.5-1-0.8
		c-0.2-0.3-0.3-0.7-0.3-1.1c0-0.7,0.3-1.4,0.9-1.9c0.6-0.5,1.4-0.8,2.4-0.8c1,0,1.8,0.3,2.5,0.8c0.6,0.5,1,1.2,1,2h-1.5
		c0-0.4-0.2-0.8-0.5-1.1c-0.4-0.3-0.8-0.5-1.3-0.5c-0.6,0-1,0.1-1.3,0.4s-0.5,0.6-0.5,1c0,0.4,0.1,0.7,0.4,0.8s0.8,0.4,1.6,0.5
		c0.8,0.2,1.4,0.4,1.9,0.6c0.5,0.2,0.8,0.5,1.1,0.9c0.2,0.3,0.3,0.7,0.3,1.2c0,0.8-0.3,1.4-1,1.9s-1.5,0.7-2.5,0.7
		c-0.7,0-1.4-0.1-1.9-0.4s-1-0.6-1.3-1.1c-0.3-0.5-0.5-1-0.5-1.5h1.5c0,0.5,0.2,0.9,0.6,1.2c0.4,0.3,0.9,0.5,1.5,0.5
		c0.6,0,1-0.1,1.4-0.4C82.7,211.1,82.9,210.8,82.9,210.4z"/>
	<path d="M98.6,210.7l1.7-6.9h1.5l-2.6,9H98l-2.2-6.8l-2.1,6.8h-1.2l-2.6-9h1.5l1.8,6.7l2.1-6.7h1.2L98.6,210.7z"/>
	<path d="M103.4,201.4c0-0.2,0.1-0.5,0.2-0.6c0.2-0.2,0.4-0.3,0.7-0.3s0.5,0.1,0.7,0.3c0.2,0.2,0.2,0.4,0.2,0.6
		c0,0.2-0.1,0.5-0.2,0.6s-0.4,0.2-0.7,0.2s-0.5-0.1-0.7-0.2C103.5,201.9,103.4,201.7,103.4,201.4z M105.1,212.8h-1.5v-9h1.5V212.8z"
		/>
	<path d="M109.6,201.6v2.2h1.7v1.2h-1.7v5.6c0,0.4,0.1,0.6,0.2,0.8s0.4,0.3,0.8,0.3c0.2,0,0.4,0,0.7-0.1v1.2
		c-0.4,0.1-0.8,0.2-1.2,0.2c-0.7,0-1.2-0.2-1.6-0.6c-0.3-0.4-0.5-1-0.5-1.8V205h-1.6v-1.2h1.6v-2.2H109.6z"/>
	<path d="M114.6,204.9c0.7-0.8,1.6-1.3,2.7-1.3c1.9,0,2.9,1.1,2.9,3.2v5.9h-1.5v-5.9c0-0.6-0.2-1.1-0.4-1.4
		c-0.3-0.3-0.7-0.5-1.4-0.5c-0.5,0-0.9,0.1-1.3,0.4c-0.4,0.3-0.7,0.6-0.9,1v6.4h-1.5V200h1.5V204.9z"/>
	<path d="M132.2,212.8c-0.1-0.2-0.2-0.5-0.2-0.9c-0.7,0.7-1.6,1.1-2.6,1.1c-0.9,0-1.6-0.2-2.2-0.8s-0.9-1.1-0.9-1.9
		c0-0.9,0.4-1.7,1.1-2.2s1.7-0.8,3-0.8h1.5v-0.7c0-0.5-0.2-1-0.5-1.3c-0.3-0.3-0.8-0.5-1.4-0.5c-0.5,0-1,0.1-1.4,0.4
		c-0.4,0.3-0.6,0.6-0.6,1h-1.5c0-0.4,0.2-0.9,0.5-1.3s0.8-0.7,1.3-1s1.1-0.4,1.8-0.4c1,0,1.8,0.3,2.4,0.8s0.9,1.2,0.9,2.1v4.1
		c0,0.8,0.1,1.5,0.3,2v0.1H132.2z M129.7,211.6c0.5,0,0.9-0.1,1.4-0.4s0.7-0.6,0.9-1v-1.8h-1.2c-1.9,0-2.8,0.5-2.8,1.7
		c0,0.5,0.2,0.9,0.5,1.1S129.2,211.6,129.7,211.6z"/>
</g>
<g class="st0">
	<path d="M56.5,228.8c0,1.4-0.3,2.5-0.9,3.3c-0.6,0.8-1.5,1.3-2.5,1.3c-1.1,0-1.9-0.3-2.6-1v4.3h-1.5v-12.4h1.4l0.1,1
		c0.6-0.8,1.5-1.2,2.6-1.2c1.1,0,1.9,0.4,2.6,1.2c0.6,0.8,0.9,1.9,0.9,3.4V228.8z M55,228.6c0-1-0.2-1.8-0.6-2.4
		c-0.4-0.6-1-0.9-1.8-0.9c-0.9,0-1.6,0.4-2.1,1.2v4.3c0.5,0.8,1.2,1.2,2.1,1.2c0.7,0,1.3-0.3,1.8-0.9C54.8,230.6,55,229.8,55,228.6z
		"/>
	<path d="M64,233.2c-0.1-0.2-0.2-0.5-0.2-0.9c-0.7,0.7-1.6,1.1-2.6,1.1c-0.9,0-1.6-0.2-2.2-0.8c-0.6-0.5-0.9-1.1-0.9-1.9
		c0-0.9,0.4-1.7,1.1-2.2c0.7-0.5,1.7-0.8,3-0.8h1.5V227c0-0.5-0.2-1-0.5-1.3s-0.8-0.5-1.4-0.5c-0.5,0-1,0.1-1.4,0.4
		c-0.4,0.3-0.6,0.6-0.6,1h-1.5c0-0.4,0.2-0.9,0.5-1.3c0.3-0.4,0.8-0.7,1.3-1c0.5-0.2,1.1-0.4,1.8-0.4c1,0,1.8,0.3,2.4,0.8
		s0.9,1.2,0.9,2.1v4.1c0,0.8,0.1,1.5,0.3,2v0.1H64z M61.5,232c0.5,0,0.9-0.1,1.4-0.4s0.7-0.6,0.9-1v-1.8h-1.2
		c-1.9,0-2.8,0.5-2.8,1.7c0,0.5,0.2,0.9,0.5,1.1S61,232,61.5,232z"/>
	<path d="M72.1,225.6c-0.2,0-0.5-0.1-0.8-0.1c-1,0-1.7,0.4-2.1,1.3v6.4h-1.5v-9h1.5l0,1c0.5-0.8,1.2-1.2,2.1-1.2
		c0.3,0,0.5,0,0.7,0.1V225.6z"/>
	<path d="M76,222v2.2h1.7v1.2H76v5.6c0,0.4,0.1,0.6,0.2,0.8s0.4,0.3,0.8,0.3c0.2,0,0.4,0,0.7-0.1v1.2c-0.4,0.1-0.8,0.2-1.2,0.2
		c-0.7,0-1.2-0.2-1.6-0.6c-0.3-0.4-0.5-1-0.5-1.8v-5.6h-1.6v-1.2h1.6V222H76z"/>
	<path d="M80.9,224.2l0,1.1c0.7-0.9,1.6-1.3,2.7-1.3c1.9,0,2.9,1.1,2.9,3.2v5.9H85v-5.9c0-0.6-0.2-1.1-0.4-1.4
		c-0.3-0.3-0.7-0.5-1.4-0.5c-0.5,0-0.9,0.1-1.3,0.4s-0.7,0.6-0.9,1v6.4h-1.5v-9H80.9z"/>
	<path d="M92.5,233.3c-1.2,0-2.2-0.4-3-1.2s-1.1-1.9-1.1-3.2v-0.3c0-0.9,0.2-1.7,0.5-2.4c0.3-0.7,0.8-1.2,1.4-1.6
		c0.6-0.4,1.3-0.6,2-0.6c1.2,0,2.1,0.4,2.7,1.2c0.6,0.8,1,1.9,1,3.3v0.6H90c0,0.9,0.3,1.6,0.8,2.1c0.5,0.5,1.1,0.8,1.9,0.8
		c0.5,0,1-0.1,1.4-0.3c0.4-0.2,0.7-0.5,1-0.9l0.9,0.7C95.2,232.8,94,233.3,92.5,233.3z M92.3,225.3c-0.6,0-1.1,0.2-1.6,0.7
		s-0.7,1.1-0.8,1.9h4.5v-0.1c0-0.8-0.3-1.4-0.6-1.8S93,225.3,92.3,225.3z"/>
	<path d="M102.2,225.6c-0.2,0-0.5-0.1-0.8-0.1c-1,0-1.7,0.4-2.1,1.3v6.4h-1.5v-9h1.5l0,1c0.5-0.8,1.2-1.2,2.1-1.2
		c0.3,0,0.5,0,0.7,0.1V225.6z"/>
</g>
<g class="st0">
	<path class="st1" d="M234.5,139.2c0-0.7-0.2-1.2-0.7-1.5s-1.3-0.7-2.5-1.1s-2.2-0.8-2.9-1.2c-1.9-1-2.9-2.5-2.9-4.2
		c0-0.9,0.3-1.7,0.8-2.5s1.3-1.3,2.2-1.7s2.1-0.6,3.3-0.6c1.2,0,2.3,0.2,3.3,0.7s1.7,1.1,2.2,1.9s0.8,1.7,0.8,2.7h-3.5
		c0-0.8-0.2-1.4-0.7-1.8s-1.2-0.7-2.1-0.7c-0.9,0-1.5,0.2-2,0.5s-0.7,0.8-0.7,1.4c0,0.6,0.3,1,0.8,1.4s1.4,0.7,2.5,1.1
		c2,0.6,3.5,1.3,4.4,2.2s1.4,2,1.4,3.3c0,1.5-0.6,2.6-1.7,3.5s-2.6,1.3-4.5,1.3c-1.3,0-2.5-0.2-3.6-0.7s-1.9-1.1-2.5-2
		s-0.8-1.8-0.8-2.9h3.5c0,1.9,1.1,2.8,3.4,2.8c0.8,0,1.5-0.2,2-0.5S234.5,139.8,234.5,139.2z"/>
	<path class="st1" d="M253.8,138c-0.1,1.8-0.8,3.3-2,4.3s-2.8,1.6-4.8,1.6c-2.2,0-3.9-0.7-5.2-2.2s-1.9-3.5-1.9-6.1v-1
		c0-1.6,0.3-3.1,0.9-4.3s1.4-2.2,2.5-2.9s2.3-1,3.7-1c2,0,3.6,0.5,4.8,1.6s1.9,2.5,2.1,4.4h-3.5c-0.1-1.1-0.4-1.9-0.9-2.4
		s-1.3-0.7-2.4-0.7c-1.2,0-2,0.4-2.6,1.3s-0.9,2.1-0.9,3.9v1.3c0,1.8,0.3,3.2,0.8,4s1.4,1.3,2.6,1.3c1.1,0,1.9-0.2,2.4-0.7
		s0.8-1.3,0.9-2.3H253.8z"/>
	<path class="st1" d="M270,143.7h-3.5v-7.3h-6.9v7.3h-3.5v-17.1h3.5v6.9h6.9v-6.9h3.5V143.7z"/>
	<path class="st1" d="M283.3,136.3h-6.8v4.6h7.9v2.8h-11.4v-17.1h11.4v2.8h-7.9v4.1h6.8V136.3z"/>
	<path class="st1" d="M286.6,143.7v-17.1h5.2c1.5,0,2.8,0.3,4,1s2.1,1.6,2.8,2.9s1,2.7,1,4.2v0.8c0,1.6-0.3,3-1,4.2
		s-1.6,2.2-2.8,2.9s-2.5,1-4,1H286.6z M290.1,129.5v11.4h1.7c1.4,0,2.4-0.4,3.2-1.3s1.1-2.2,1.1-3.9v-0.9c0-1.7-0.4-3-1.1-3.9
		s-1.8-1.3-3.2-1.3H290.1z"/>
	<path class="st1" d="M315.1,126.6v11.2c0,1.9-0.6,3.3-1.8,4.4s-2.8,1.6-4.8,1.6c-2,0-3.6-0.5-4.7-1.6s-1.8-2.5-1.8-4.3v-11.4h3.5
		v11.3c0,1.1,0.3,1.9,0.8,2.4s1.3,0.8,2.2,0.8c2,0,3-1,3-3.1v-11.4H315.1z"/>
	<path class="st1" d="M321.5,140.9h7.5v2.8h-11v-17.1h3.5V140.9z"/>
	<path class="st1" d="M334.7,143.7h-3.5v-17.1h3.5V143.7z"/>
	<path class="st1" d="M351.8,143.7h-3.5l-6.8-11.2v11.2H338v-17.1h3.5l6.9,11.2v-11.2h3.5V143.7z"/>
	<path class="st1" d="M368.4,141.5c-0.6,0.8-1.5,1.3-2.7,1.8s-2.4,0.6-3.8,0.6c-1.5,0-2.8-0.3-3.9-1s-2-1.6-2.6-2.8
		s-0.9-2.7-0.9-4.3v-1.2c0-1.7,0.3-3.2,0.9-4.4s1.4-2.2,2.5-2.9s2.3-1,3.8-1c2,0,3.6,0.5,4.7,1.4s1.8,2.4,2,4.2H365
		c-0.2-1-0.5-1.7-1-2.1s-1.3-0.7-2.2-0.7c-1.2,0-2.1,0.4-2.7,1.3s-0.9,2.2-0.9,4v1.1c0,1.8,0.3,3.1,1,4.1s1.7,1.4,3,1.4
		c1.3,0,2.3-0.3,2.8-0.8v-2.9h-3.2v-2.6h6.7V141.5z"/>
</g>
<rect x="215.7" y="159.2" class="st2" width="168" height="110.4"/>
<g class="st0">
	<path d="M235.3,168.1c-0.1,1.3-0.6,2.3-1.4,3c-0.8,0.7-1.9,1-3.2,1c-1.4,0-2.6-0.5-3.4-1.5c-0.9-1-1.3-2.4-1.3-4.1v-1.2
		c0-1.1,0.2-2.1,0.6-3c0.4-0.9,1-1.5,1.7-2c0.7-0.5,1.6-0.7,2.6-0.7c1.3,0,2.3,0.4,3.1,1.1s1.2,1.7,1.4,3h-1.6
		c-0.1-1-0.4-1.7-0.9-2.1c-0.5-0.4-1.1-0.6-1.9-0.6c-1,0-1.8,0.4-2.4,1.1c-0.6,0.8-0.9,1.8-0.9,3.2v1.2c0,1.3,0.3,2.4,0.8,3.1
		s1.3,1.2,2.3,1.2c0.9,0,1.6-0.2,2-0.6c0.5-0.4,0.8-1.1,0.9-2.1H235.3z"/>
	<path d="M241.6,164.4c-0.2,0-0.5-0.1-0.8-0.1c-1,0-1.7,0.4-2.1,1.3v6.4h-1.5v-9h1.5l0,1c0.5-0.8,1.2-1.2,2.1-1.2
		c0.3,0,0.5,0,0.7,0.1V164.4z"/>
	<path d="M246.5,172.1c-1.2,0-2.2-0.4-3-1.2s-1.1-1.9-1.1-3.2v-0.3c0-0.9,0.2-1.7,0.5-2.4c0.3-0.7,0.8-1.2,1.4-1.6
		c0.6-0.4,1.3-0.6,2-0.6c1.2,0,2.1,0.4,2.7,1.2c0.6,0.8,1,1.9,1,3.3v0.6H244c0,0.9,0.3,1.6,0.8,2.1c0.5,0.5,1.1,0.8,1.9,0.8
		c0.5,0,1-0.1,1.4-0.3c0.4-0.2,0.7-0.5,1-0.9l0.9,0.7C249.2,171.6,248,172.1,246.5,172.1z M246.4,164.1c-0.6,0-1.1,0.2-1.6,0.7
		s-0.7,1.1-0.8,1.9h4.5v-0.1c0-0.8-0.3-1.4-0.6-1.8S247,164.1,246.4,164.1z"/>
	<path d="M257.4,172c-0.1-0.2-0.2-0.5-0.2-0.9c-0.7,0.7-1.6,1.1-2.6,1.1c-0.9,0-1.6-0.2-2.2-0.8c-0.6-0.5-0.9-1.1-0.9-1.9
		c0-0.9,0.4-1.7,1.1-2.2c0.7-0.5,1.7-0.8,3-0.8h1.5v-0.7c0-0.5-0.2-1-0.5-1.3s-0.8-0.5-1.4-0.5c-0.5,0-1,0.1-1.4,0.4
		c-0.4,0.3-0.6,0.6-0.6,1h-1.5c0-0.4,0.2-0.9,0.5-1.3c0.3-0.4,0.8-0.7,1.3-1c0.5-0.2,1.1-0.4,1.8-0.4c1,0,1.8,0.3,2.4,0.8
		s0.9,1.2,0.9,2.1v4.1c0,0.8,0.1,1.5,0.3,2v0.1H257.4z M254.8,170.8c0.5,0,0.9-0.1,1.4-0.4s0.7-0.6,0.9-1v-1.8h-1.2
		c-1.9,0-2.8,0.5-2.8,1.7c0,0.5,0.2,0.9,0.5,1.1S254.3,170.8,254.8,170.8z"/>
	<path d="M263.2,160.8v2.2h1.7v1.2h-1.7v5.6c0,0.4,0.1,0.6,0.2,0.8s0.4,0.3,0.8,0.3c0.2,0,0.4,0,0.7-0.1v1.2
		c-0.4,0.1-0.8,0.2-1.2,0.2c-0.7,0-1.2-0.2-1.6-0.6c-0.3-0.4-0.5-1-0.5-1.8v-5.6H260V163h1.6v-2.2H263.2z"/>
	<path d="M270.3,172.1c-1.2,0-2.2-0.4-3-1.2s-1.1-1.9-1.1-3.2v-0.3c0-0.9,0.2-1.7,0.5-2.4c0.3-0.7,0.8-1.2,1.4-1.6
		c0.6-0.4,1.3-0.6,2-0.6c1.2,0,2.1,0.4,2.7,1.2c0.6,0.8,1,1.9,1,3.3v0.6h-6.1c0,0.9,0.3,1.6,0.8,2.1c0.5,0.5,1.1,0.8,1.9,0.8
		c0.5,0,1-0.1,1.4-0.3c0.4-0.2,0.7-0.5,1-0.9l0.9,0.7C273,171.6,271.9,172.1,270.3,172.1z M270.2,164.1c-0.6,0-1.1,0.2-1.6,0.7
		s-0.7,1.1-0.8,1.9h4.5v-0.1c0-0.8-0.3-1.4-0.6-1.8S270.8,164.1,270.2,164.1z"/>
	<path d="M285.4,172c-0.1-0.2-0.2-0.5-0.2-0.9c-0.7,0.7-1.6,1.1-2.6,1.1c-0.9,0-1.6-0.2-2.2-0.8c-0.6-0.5-0.9-1.1-0.9-1.9
		c0-0.9,0.4-1.7,1.1-2.2c0.7-0.5,1.7-0.8,3-0.8h1.5v-0.7c0-0.5-0.2-1-0.5-1.3s-0.8-0.5-1.4-0.5c-0.5,0-1,0.1-1.4,0.4
		c-0.4,0.3-0.6,0.6-0.6,1h-1.5c0-0.4,0.2-0.9,0.5-1.3c0.3-0.4,0.8-0.7,1.3-1c0.5-0.2,1.1-0.4,1.8-0.4c1,0,1.8,0.3,2.4,0.8
		s0.9,1.2,0.9,2.1v4.1c0,0.8,0.1,1.5,0.3,2v0.1H285.4z M282.8,170.8c0.5,0,0.9-0.1,1.4-0.4s0.7-0.6,0.9-1v-1.8h-1.2
		c-1.9,0-2.8,0.5-2.8,1.7c0,0.5,0.2,0.9,0.5,1.1S282.3,170.8,282.8,170.8z"/>
	<path d="M298.5,169.6c0-0.4-0.2-0.7-0.5-1c-0.3-0.2-0.9-0.4-1.6-0.6c-0.8-0.2-1.4-0.4-1.9-0.6c-0.5-0.2-0.8-0.5-1-0.8
		c-0.2-0.3-0.3-0.7-0.3-1.1c0-0.7,0.3-1.4,0.9-1.9c0.6-0.5,1.4-0.8,2.4-0.8c1,0,1.8,0.3,2.5,0.8c0.6,0.5,1,1.2,1,2h-1.5
		c0-0.4-0.2-0.8-0.5-1.1c-0.4-0.3-0.8-0.5-1.3-0.5c-0.6,0-1,0.1-1.3,0.4s-0.5,0.6-0.5,1c0,0.4,0.1,0.7,0.4,0.8s0.8,0.4,1.6,0.5
		c0.8,0.2,1.4,0.4,1.9,0.6c0.5,0.2,0.8,0.5,1.1,0.9c0.2,0.3,0.3,0.7,0.3,1.2c0,0.8-0.3,1.4-1,1.9s-1.5,0.7-2.5,0.7
		c-0.7,0-1.4-0.1-1.9-0.4s-1-0.6-1.3-1.1c-0.3-0.5-0.5-1-0.5-1.5h1.5c0,0.5,0.2,0.9,0.6,1.2c0.4,0.3,0.9,0.5,1.5,0.5
		c0.6,0,1-0.1,1.4-0.4C298.3,170.3,298.5,170,298.5,169.6z"/>
	<path d="M305.7,170.9c0.5,0,1-0.2,1.4-0.5s0.6-0.7,0.7-1.2h1.5c0,0.5-0.2,1-0.5,1.5s-0.8,0.8-1.3,1.1c-0.5,0.3-1.1,0.4-1.7,0.4
		c-1.2,0-2.2-0.4-2.9-1.2c-0.7-0.8-1.1-1.9-1.1-3.3v-0.3c0-0.9,0.2-1.7,0.5-2.3c0.3-0.7,0.8-1.2,1.4-1.6c0.6-0.4,1.3-0.6,2.1-0.6
		c1,0,1.8,0.3,2.5,0.9c0.7,0.6,1,1.4,1.1,2.3h-1.5c0-0.6-0.3-1.1-0.7-1.4c-0.4-0.4-0.9-0.6-1.5-0.6c-0.8,0-1.4,0.3-1.8,0.8
		c-0.4,0.6-0.6,1.4-0.6,2.4v0.3c0,1,0.2,1.8,0.6,2.4S304.9,170.9,305.7,170.9z"/>
	<path d="M312.5,164.1c0.7-0.8,1.6-1.3,2.7-1.3c1.9,0,2.9,1.1,2.9,3.2v5.9h-1.5V166c0-0.6-0.2-1.1-0.4-1.4c-0.3-0.3-0.7-0.5-1.4-0.5
		c-0.5,0-0.9,0.1-1.3,0.4s-0.7,0.6-0.9,1v6.4H311v-12.8h1.5V164.1z"/>
	<path d="M324,172.1c-1.2,0-2.2-0.4-3-1.2s-1.1-1.9-1.1-3.2v-0.3c0-0.9,0.2-1.7,0.5-2.4c0.3-0.7,0.8-1.2,1.4-1.6
		c0.6-0.4,1.3-0.6,2-0.6c1.2,0,2.1,0.4,2.7,1.2c0.6,0.8,1,1.9,1,3.3v0.6h-6.1c0,0.9,0.3,1.6,0.8,2.1c0.5,0.5,1.1,0.8,1.9,0.8
		c0.5,0,1-0.1,1.4-0.3c0.4-0.2,0.7-0.5,1-0.9l0.9,0.7C326.7,171.6,325.6,172.1,324,172.1z M323.9,164.1c-0.6,0-1.1,0.2-1.6,0.7
		s-0.7,1.1-0.8,1.9h4.5v-0.1c0-0.8-0.3-1.4-0.6-1.8S324.5,164.1,323.9,164.1z"/>
	<path d="M329,167.4c0-1.4,0.3-2.5,1-3.3c0.7-0.8,1.5-1.3,2.6-1.3c1.1,0,1.9,0.4,2.5,1.1v-4.7h1.5V172h-1.4l-0.1-1
		c-0.6,0.8-1.5,1.1-2.6,1.1c-1,0-1.9-0.4-2.5-1.3c-0.7-0.9-1-2-1-3.3V167.4z M330.5,167.6c0,1,0.2,1.8,0.6,2.4
		c0.4,0.6,1,0.9,1.7,0.9c1,0,1.7-0.4,2.1-1.3v-4.1c-0.5-0.8-1.2-1.3-2.1-1.3c-0.8,0-1.3,0.3-1.8,0.9S330.5,166.4,330.5,167.6z"/>
	<path d="M344.5,171.1c-0.6,0.7-1.5,1.1-2.6,1.1c-1,0-1.7-0.3-2.2-0.8c-0.5-0.6-0.8-1.4-0.8-2.5V163h1.5v5.8c0,1.4,0.6,2,1.7,2
		c1.2,0,2-0.4,2.3-1.3V163h1.5v9h-1.5L344.5,171.1z"/>
	<path d="M350,172h-1.5v-12.8h1.5V172z"/>
	<path d="M352.4,160.6c0-0.2,0.1-0.5,0.2-0.6c0.2-0.2,0.4-0.3,0.7-0.3s0.5,0.1,0.7,0.3c0.2,0.2,0.2,0.4,0.2,0.6
		c0,0.2-0.1,0.5-0.2,0.6s-0.4,0.2-0.7,0.2s-0.5-0.1-0.7-0.2S352.4,160.9,352.4,160.6z M354.1,172h-1.5v-9h1.5V172z"/>
	<path d="M358,163l0,1.1c0.7-0.9,1.6-1.3,2.7-1.3c1.9,0,2.9,1.1,2.9,3.2v5.9h-1.5V166c0-0.6-0.2-1.1-0.4-1.4
		c-0.3-0.3-0.7-0.5-1.4-0.5c-0.5,0-0.9,0.1-1.3,0.4c-0.4,0.3-0.7,0.6-0.9,1v6.4h-1.5v-9H358z"/>
	<path d="M365.5,167.4c0-1.4,0.3-2.5,1-3.3c0.6-0.8,1.5-1.2,2.6-1.2c1.1,0,2,0.4,2.6,1.2l0.1-1h1.4v8.8c0,1.2-0.3,2.1-1,2.7
		c-0.7,0.7-1.6,1-2.8,1c-0.6,0-1.3-0.1-1.9-0.4s-1.1-0.7-1.4-1.1l0.8-0.9c0.7,0.8,1.5,1.2,2.4,1.2c0.7,0,1.3-0.2,1.7-0.6
		c0.4-0.4,0.6-1,0.6-1.8v-0.8c-0.6,0.7-1.5,1.1-2.5,1.1c-1.1,0-1.9-0.4-2.6-1.3C365.9,170,365.5,168.9,365.5,167.4z M367.1,167.6
		c0,1,0.2,1.8,0.6,2.4c0.4,0.6,1,0.9,1.7,0.9c1,0,1.7-0.4,2.1-1.3v-4.1c-0.5-0.9-1.2-1.3-2.1-1.3c-0.7,0-1.3,0.3-1.8,0.9
		S367.1,166.4,367.1,167.6z"/>
</g>
<g class="st0">
	<path d="M225.3,192.4v-7.8h-1.4v-1.2h1.4v-0.9c0-1,0.3-1.7,0.8-2.2s1.2-0.8,2.2-0.8c0.4,0,0.7,0,1.1,0.1l-0.1,1.2
		c-0.3,0-0.5-0.1-0.8-0.1c-0.5,0-0.9,0.1-1.2,0.4c-0.3,0.3-0.4,0.7-0.4,1.3v0.9h1.9v1.2h-1.9v7.8H225.3z"/>
	<path d="M234,192.5c-1.2,0-2.2-0.4-3-1.2s-1.1-1.9-1.1-3.2v-0.3c0-0.9,0.2-1.7,0.5-2.4c0.3-0.7,0.8-1.2,1.4-1.6
		c0.6-0.4,1.3-0.6,2-0.6c1.2,0,2.1,0.4,2.7,1.2c0.6,0.8,1,1.9,1,3.3v0.6h-6.1c0,0.9,0.3,1.6,0.8,2.1c0.5,0.5,1.1,0.8,1.9,0.8
		c0.5,0,1-0.1,1.4-0.3c0.4-0.2,0.7-0.5,1-0.9l0.9,0.7C236.6,192,235.5,192.5,234,192.5z M233.8,184.5c-0.6,0-1.1,0.2-1.6,0.7
		s-0.7,1.1-0.8,1.9h4.5v-0.1c0-0.8-0.3-1.4-0.6-1.8S234.4,184.5,233.8,184.5z"/>
	<path d="M244.8,192.4c-0.1-0.2-0.2-0.5-0.2-0.9c-0.7,0.7-1.6,1.1-2.6,1.1c-0.9,0-1.6-0.2-2.2-0.8c-0.6-0.5-0.9-1.1-0.9-1.9
		c0-0.9,0.4-1.7,1.1-2.2c0.7-0.5,1.7-0.8,3-0.8h1.5v-0.7c0-0.5-0.2-1-0.5-1.3s-0.8-0.5-1.4-0.5c-0.5,0-1,0.1-1.4,0.4
		c-0.4,0.3-0.6,0.6-0.6,1h-1.5c0-0.4,0.2-0.9,0.5-1.3c0.3-0.4,0.8-0.7,1.3-1c0.5-0.2,1.1-0.4,1.8-0.4c1,0,1.8,0.3,2.4,0.8
		s0.9,1.2,0.9,2.1v4.1c0,0.8,0.1,1.5,0.3,2v0.1H244.8z M242.3,191.2c0.5,0,0.9-0.1,1.4-0.4s0.7-0.6,0.9-1V188h-1.2
		c-1.9,0-2.8,0.5-2.8,1.7c0,0.5,0.2,0.9,0.5,1.1S241.8,191.2,242.3,191.2z"/>
	<path d="M250.6,181.2v2.2h1.7v1.2h-1.7v5.6c0,0.4,0.1,0.6,0.2,0.8s0.4,0.3,0.8,0.3c0.2,0,0.4,0,0.7-0.1v1.2
		c-0.4,0.1-0.8,0.2-1.2,0.2c-0.7,0-1.2-0.2-1.6-0.6c-0.3-0.4-0.5-1-0.5-1.8v-5.6h-1.6v-1.2h1.6v-2.2H250.6z"/>
	<path d="M259.6,191.5c-0.6,0.7-1.5,1.1-2.6,1.1c-1,0-1.7-0.3-2.2-0.8c-0.5-0.6-0.8-1.4-0.8-2.5v-5.8h1.5v5.8c0,1.4,0.6,2,1.7,2
		c1.2,0,2-0.4,2.3-1.3v-6.5h1.5v9h-1.5L259.6,191.5z"/>
	<path d="M267.8,184.8c-0.2,0-0.5-0.1-0.8-0.1c-1,0-1.7,0.4-2.1,1.3v6.4h-1.5v-9h1.5l0,1c0.5-0.8,1.2-1.2,2.1-1.2
		c0.3,0,0.5,0,0.7,0.1V184.8z"/>
	<path d="M272.8,192.5c-1.2,0-2.2-0.4-3-1.2s-1.1-1.9-1.1-3.2v-0.3c0-0.9,0.2-1.7,0.5-2.4c0.3-0.7,0.8-1.2,1.4-1.6
		c0.6-0.4,1.3-0.6,2-0.6c1.2,0,2.1,0.4,2.7,1.2c0.6,0.8,1,1.9,1,3.3v0.6h-6.1c0,0.9,0.3,1.6,0.8,2.1c0.5,0.5,1.1,0.8,1.9,0.8
		c0.5,0,1-0.1,1.4-0.3c0.4-0.2,0.7-0.5,1-0.9l0.9,0.7C275.4,192,274.3,192.5,272.8,192.5z M272.6,184.5c-0.6,0-1.1,0.2-1.6,0.7
		s-0.7,1.1-0.8,1.9h4.5v-0.1c0-0.8-0.3-1.4-0.6-1.8S273.2,184.5,272.6,184.5z"/>
	<path d="M284.3,181.2v2.2h1.7v1.2h-1.7v5.6c0,0.4,0.1,0.6,0.2,0.8s0.4,0.3,0.8,0.3c0.2,0,0.4,0,0.7-0.1v1.2
		c-0.4,0.1-0.8,0.2-1.2,0.2c-0.7,0-1.2-0.2-1.6-0.6c-0.3-0.4-0.5-1-0.5-1.8v-5.6h-1.6v-1.2h1.6v-2.2H284.3z"/>
	<path d="M289.3,184.5c0.7-0.8,1.6-1.3,2.7-1.3c1.9,0,2.9,1.1,2.9,3.2v5.9h-1.5v-5.9c0-0.6-0.2-1.1-0.4-1.4
		c-0.3-0.3-0.7-0.5-1.4-0.5c-0.5,0-0.9,0.1-1.3,0.4s-0.7,0.6-0.9,1v6.4h-1.5v-12.8h1.5V184.5z"/>
	<path d="M302.7,192.4c-0.1-0.2-0.2-0.5-0.2-0.9c-0.7,0.7-1.6,1.1-2.6,1.1c-0.9,0-1.6-0.2-2.2-0.8c-0.6-0.5-0.9-1.1-0.9-1.9
		c0-0.9,0.4-1.7,1.1-2.2c0.7-0.5,1.7-0.8,3-0.8h1.5v-0.7c0-0.5-0.2-1-0.5-1.3s-0.8-0.5-1.4-0.5c-0.5,0-1,0.1-1.4,0.4
		c-0.4,0.3-0.6,0.6-0.6,1h-1.5c0-0.4,0.2-0.9,0.5-1.3c0.3-0.4,0.8-0.7,1.3-1c0.5-0.2,1.1-0.4,1.8-0.4c1,0,1.8,0.3,2.4,0.8
		s0.9,1.2,0.9,2.1v4.1c0,0.8,0.1,1.5,0.3,2v0.1H302.7z M300.2,191.2c0.5,0,0.9-0.1,1.4-0.4s0.7-0.6,0.9-1V188h-1.2
		c-1.9,0-2.8,0.5-2.8,1.7c0,0.5,0.2,0.9,0.5,1.1S299.7,191.2,300.2,191.2z"/>
	<path d="M308.5,181.2v2.2h1.7v1.2h-1.7v5.6c0,0.4,0.1,0.6,0.2,0.8s0.4,0.3,0.8,0.3c0.2,0,0.4,0,0.7-0.1v1.2
		c-0.4,0.1-0.8,0.2-1.2,0.2c-0.7,0-1.2-0.2-1.6-0.6c-0.3-0.4-0.5-1-0.5-1.8v-5.6h-1.6v-1.2h1.6v-2.2H308.5z"/>
	<path d="M317.7,184.5c0.7-0.8,1.6-1.3,2.7-1.3c1.9,0,2.9,1.1,2.9,3.2v5.9h-1.5v-5.9c0-0.6-0.2-1.1-0.4-1.4
		c-0.3-0.3-0.7-0.5-1.4-0.5c-0.5,0-0.9,0.1-1.3,0.4s-0.7,0.6-0.9,1v6.4h-1.5v-12.8h1.5V184.5z"/>
	<path d="M329.3,192.5c-1.2,0-2.2-0.4-3-1.2s-1.1-1.9-1.1-3.2v-0.3c0-0.9,0.2-1.7,0.5-2.4c0.3-0.7,0.8-1.2,1.4-1.6s1.3-0.6,2-0.6
		c1.2,0,2.1,0.4,2.7,1.2c0.6,0.8,1,1.9,1,3.3v0.6h-6.1c0,0.9,0.3,1.6,0.8,2.1s1.1,0.8,1.9,0.8c0.5,0,1-0.1,1.4-0.3
		c0.4-0.2,0.7-0.5,1-0.9l0.9,0.7C331.9,192,330.8,192.5,329.3,192.5z M329.1,184.5c-0.6,0-1.1,0.2-1.6,0.7s-0.7,1.1-0.8,1.9h4.5
		v-0.1c0-0.8-0.3-1.4-0.6-1.8S329.7,184.5,329.1,184.5z"/>
	<path d="M336.2,192.4h-1.5v-12.8h1.5V192.4z"/>
	<path d="M346.3,188c0,1.4-0.3,2.5-0.9,3.3c-0.6,0.8-1.5,1.3-2.5,1.3c-1.1,0-1.9-0.3-2.6-1v4.3h-1.5v-12.4h1.4l0.1,1
		c0.6-0.8,1.5-1.2,2.6-1.2c1.1,0,1.9,0.4,2.6,1.2c0.6,0.8,0.9,1.9,0.9,3.4V188z M344.7,187.8c0-1-0.2-1.8-0.6-2.4
		c-0.4-0.6-1-0.9-1.8-0.9c-0.9,0-1.6,0.4-2.1,1.2v4.3c0.5,0.8,1.2,1.2,2.1,1.2c0.7,0,1.3-0.3,1.8-0.9S344.7,189,344.7,187.8z"/>
	<path d="M353.4,190c0-0.4-0.2-0.7-0.5-1s-0.9-0.4-1.6-0.6s-1.4-0.4-1.9-0.6c-0.5-0.2-0.8-0.5-1-0.8c-0.2-0.3-0.3-0.7-0.3-1.1
		c0-0.7,0.3-1.4,0.9-1.9c0.6-0.5,1.4-0.8,2.4-0.8c1,0,1.8,0.3,2.5,0.8c0.6,0.5,1,1.2,1,2h-1.5c0-0.4-0.2-0.8-0.5-1.1
		c-0.4-0.3-0.8-0.5-1.3-0.5c-0.6,0-1,0.1-1.3,0.4s-0.5,0.6-0.5,1c0,0.4,0.1,0.7,0.4,0.8s0.8,0.4,1.6,0.5c0.8,0.2,1.4,0.4,1.9,0.6
		c0.5,0.2,0.8,0.5,1.1,0.9s0.3,0.7,0.3,1.2c0,0.8-0.3,1.4-1,1.9c-0.6,0.5-1.5,0.7-2.5,0.7c-0.7,0-1.4-0.1-1.9-0.4s-1-0.6-1.3-1.1
		c-0.3-0.5-0.5-1-0.5-1.5h1.5c0,0.5,0.2,0.9,0.6,1.2s0.9,0.5,1.5,0.5c0.6,0,1-0.1,1.4-0.4S353.4,190.4,353.4,190z"/>
	<path d="M361.9,192.4v-7.8h-1.4v-1.2h1.4v-0.9c0-1,0.3-1.7,0.8-2.2s1.2-0.8,2.2-0.8c0.4,0,0.7,0,1.1,0.1l-0.1,1.2
		c-0.3,0-0.5-0.1-0.8-0.1c-0.5,0-0.9,0.1-1.2,0.4c-0.3,0.3-0.4,0.7-0.4,1.3v0.9h1.9v1.2h-1.9v7.8H361.9z"/>
	<path d="M367.1,181c0-0.2,0.1-0.5,0.2-0.6c0.2-0.2,0.4-0.3,0.7-0.3s0.5,0.1,0.7,0.3c0.2,0.2,0.2,0.4,0.2,0.6c0,0.2-0.1,0.5-0.2,0.6
		s-0.4,0.2-0.7,0.2s-0.5-0.1-0.7-0.2S367.1,181.3,367.1,181z M368.7,192.4h-1.5v-9h1.5V192.4z"/>
	<path d="M373.3,181.2v2.2h1.7v1.2h-1.7v5.6c0,0.4,0.1,0.6,0.2,0.8s0.4,0.3,0.8,0.3c0.2,0,0.4,0,0.7-0.1v1.2
		c-0.4,0.1-0.8,0.2-1.2,0.2c-0.7,0-1.2-0.2-1.6-0.6c-0.3-0.4-0.5-1-0.5-1.8v-5.6h-1.6v-1.2h1.6v-2.2H373.3z"/>
</g>
<g class="st0">
	<path d="M230.5,210.7l1.7-6.9h1.5l-2.6,9h-1.2l-2.2-6.8l-2.1,6.8h-1.2l-2.6-9h1.5l1.8,6.7l2.1-6.7h1.2L230.5,210.7z"/>
	<path d="M234.9,208.2c0-0.9,0.2-1.7,0.5-2.4c0.3-0.7,0.8-1.2,1.4-1.6c0.6-0.4,1.3-0.6,2.1-0.6c1.2,0,2.2,0.4,3,1.3
		c0.8,0.8,1.1,2,1.1,3.4v0.1c0,0.9-0.2,1.7-0.5,2.4c-0.3,0.7-0.8,1.2-1.4,1.6c-0.6,0.4-1.3,0.6-2.1,0.6c-1.2,0-2.2-0.4-3-1.3
		c-0.8-0.8-1.1-2-1.1-3.4V208.2z M236.5,208.4c0,1,0.2,1.8,0.7,2.4c0.5,0.6,1.1,0.9,1.9,0.9c0.8,0,1.4-0.3,1.9-0.9s0.7-1.5,0.7-2.6
		c0-1-0.2-1.8-0.7-2.4c-0.5-0.6-1.1-0.9-1.9-0.9c-0.8,0-1.4,0.3-1.8,0.9C236.7,206.4,236.5,207.3,236.5,208.4z"/>
	<path d="M249.4,205.2c-0.2,0-0.5-0.1-0.8-0.1c-1,0-1.7,0.4-2.1,1.3v6.4H245v-9h1.5l0,1c0.5-0.8,1.2-1.2,2.1-1.2
		c0.3,0,0.5,0,0.7,0.1V205.2z"/>
	<path d="M253.3,208.6l-1,1v3.2h-1.5V200h1.5v7.7l0.8-1l2.8-3h1.9l-3.5,3.8l3.9,5.2h-1.8L253.3,208.6z"/>
	<path d="M259,208.2c0-0.9,0.2-1.7,0.5-2.4c0.3-0.7,0.8-1.2,1.4-1.6c0.6-0.4,1.3-0.6,2.1-0.6c1.2,0,2.2,0.4,3,1.3
		c0.8,0.8,1.1,2,1.1,3.4v0.1c0,0.9-0.2,1.7-0.5,2.4c-0.3,0.7-0.8,1.2-1.4,1.6c-0.6,0.4-1.3,0.6-2.1,0.6c-1.2,0-2.2-0.4-3-1.3
		c-0.8-0.8-1.1-2-1.1-3.4V208.2z M260.5,208.4c0,1,0.2,1.8,0.7,2.4c0.5,0.6,1.1,0.9,1.9,0.9c0.8,0,1.4-0.3,1.9-0.9s0.7-1.5,0.7-2.6
		c0-1-0.2-1.8-0.7-2.4c-0.5-0.6-1.1-0.9-1.9-0.9c-0.8,0-1.4,0.3-1.8,0.9C260.8,206.4,260.5,207.3,260.5,208.4z"/>
	<path d="M274.6,211.9c-0.6,0.7-1.5,1.1-2.6,1.1c-1,0-1.7-0.3-2.2-0.8c-0.5-0.6-0.8-1.4-0.8-2.5v-5.8h1.5v5.8c0,1.4,0.6,2,1.7,2
		c1.2,0,2-0.4,2.3-1.3v-6.5h1.5v9h-1.5L274.6,211.9z"/>
	<path d="M280.5,201.6v2.2h1.7v1.2h-1.7v5.6c0,0.4,0.1,0.6,0.2,0.8s0.4,0.3,0.8,0.3c0.2,0,0.4,0,0.7-0.1v1.2
		c-0.4,0.1-0.8,0.2-1.2,0.2c-0.7,0-1.2-0.2-1.6-0.6c-0.3-0.4-0.5-1-0.5-1.8V205h-1.6v-1.2h1.6v-2.2H280.5z"/>
	<path d="M289.2,210.4c0-0.4-0.2-0.7-0.5-1c-0.3-0.2-0.9-0.4-1.6-0.6c-0.8-0.2-1.4-0.4-1.9-0.6c-0.5-0.2-0.8-0.5-1-0.8
		c-0.2-0.3-0.3-0.7-0.3-1.1c0-0.7,0.3-1.4,0.9-1.9c0.6-0.5,1.4-0.8,2.4-0.8c1,0,1.8,0.3,2.5,0.8c0.6,0.5,1,1.2,1,2h-1.5
		c0-0.4-0.2-0.8-0.5-1.1c-0.4-0.3-0.8-0.5-1.3-0.5c-0.6,0-1,0.1-1.3,0.4s-0.5,0.6-0.5,1c0,0.4,0.1,0.7,0.4,0.8s0.8,0.4,1.6,0.5
		c0.8,0.2,1.4,0.4,1.9,0.6c0.5,0.2,0.8,0.5,1.1,0.9c0.2,0.3,0.3,0.7,0.3,1.2c0,0.8-0.3,1.4-1,1.9s-1.5,0.7-2.5,0.7
		c-0.7,0-1.4-0.1-1.9-0.4s-1-0.6-1.3-1.1c-0.3-0.5-0.5-1-0.5-1.5h1.5c0,0.5,0.2,0.9,0.6,1.2c0.4,0.3,0.9,0.5,1.5,0.5
		c0.6,0,1-0.1,1.4-0.4C289.1,211.1,289.2,210.8,289.2,210.4z"/>
	<path d="M297,201.4c0-0.2,0.1-0.5,0.2-0.6c0.2-0.2,0.4-0.3,0.7-0.3s0.5,0.1,0.7,0.3c0.2,0.2,0.2,0.4,0.2,0.6c0,0.2-0.1,0.5-0.2,0.6
		s-0.4,0.2-0.7,0.2s-0.5-0.1-0.7-0.2C297.1,201.9,297,201.7,297,201.4z M298.7,212.8h-1.5v-9h1.5V212.8z"/>
	<path d="M302.6,203.8l0,1.1c0.7-0.9,1.6-1.3,2.7-1.3c1.9,0,2.9,1.1,2.9,3.2v5.9h-1.5v-5.9c0-0.6-0.2-1.1-0.4-1.4
		c-0.3-0.3-0.7-0.5-1.4-0.5c-0.5,0-0.9,0.1-1.3,0.4s-0.7,0.6-0.9,1v6.4h-1.5v-9H302.6z"/>
	<path d="M312.6,201.6v2.2h1.7v1.2h-1.7v5.6c0,0.4,0.1,0.6,0.2,0.8s0.4,0.3,0.8,0.3c0.2,0,0.4,0,0.7-0.1v1.2
		c-0.4,0.1-0.8,0.2-1.2,0.2c-0.7,0-1.2-0.2-1.6-0.6c-0.3-0.4-0.5-1-0.5-1.8V205h-1.6v-1.2h1.6v-2.2H312.6z"/>
	<path d="M315.5,208.2c0-0.9,0.2-1.7,0.5-2.4c0.3-0.7,0.8-1.2,1.4-1.6c0.6-0.4,1.3-0.6,2.1-0.6c1.2,0,2.2,0.4,3,1.3
		c0.8,0.8,1.1,2,1.1,3.4v0.1c0,0.9-0.2,1.7-0.5,2.4c-0.3,0.7-0.8,1.2-1.4,1.6c-0.6,0.4-1.3,0.6-2.1,0.6c-1.2,0-2.2-0.4-3-1.3
		c-0.8-0.8-1.1-2-1.1-3.4V208.2z M317,208.4c0,1,0.2,1.8,0.7,2.4c0.5,0.6,1.1,0.9,1.9,0.9c0.8,0,1.4-0.3,1.9-0.9
		c0.5-0.6,0.7-1.5,0.7-2.6c0-1-0.2-1.8-0.7-2.4c-0.5-0.6-1.1-0.9-1.9-0.9c-0.8,0-1.4,0.3-1.8,0.9C317.2,206.4,317,207.3,317,208.4z"
		/>
	<path d="M335.3,212.8c-0.1-0.2-0.2-0.5-0.2-0.9c-0.7,0.7-1.6,1.1-2.6,1.1c-0.9,0-1.6-0.2-2.2-0.8s-0.9-1.1-0.9-1.9
		c0-0.9,0.4-1.7,1.1-2.2s1.7-0.8,3-0.8h1.5v-0.7c0-0.5-0.2-1-0.5-1.3c-0.3-0.3-0.8-0.5-1.4-0.5c-0.5,0-1,0.1-1.4,0.4
		c-0.4,0.3-0.6,0.6-0.6,1h-1.5c0-0.4,0.2-0.9,0.5-1.3s0.8-0.7,1.3-1s1.1-0.4,1.8-0.4c1,0,1.8,0.3,2.4,0.8s0.9,1.2,0.9,2.1v4.1
		c0,0.8,0.1,1.5,0.3,2v0.1H335.3z M332.8,211.6c0.5,0,0.9-0.1,1.4-0.4s0.7-0.6,0.9-1v-1.8h-1.2c-1.9,0-2.8,0.5-2.8,1.7
		c0,0.5,0.2,0.9,0.5,1.1S332.3,211.6,332.8,211.6z"/>
	<path d="M350.8,208.4c0,1.4-0.3,2.5-0.9,3.3s-1.5,1.2-2.5,1.2c-1.1,0-2-0.4-2.6-1.2l-0.1,1h-1.4V200h1.5v4.8
		c0.6-0.8,1.5-1.2,2.6-1.2s1.9,0.4,2.6,1.2c0.6,0.8,0.9,2,0.9,3.4V208.4z M349.3,208.2c0-1-0.2-1.9-0.6-2.4s-1-0.9-1.7-0.9
		c-1,0-1.7,0.5-2.2,1.4v3.9c0.5,0.9,1.2,1.4,2.2,1.4c0.7,0,1.3-0.3,1.7-0.9C349.1,210.2,349.3,209.4,349.3,208.2z"/>
	<path d="M358.3,211.9c-0.6,0.7-1.5,1.1-2.6,1.1c-1,0-1.7-0.3-2.2-0.8c-0.5-0.6-0.8-1.4-0.8-2.5v-5.8h1.5v5.8c0,1.4,0.6,2,1.7,2
		c1.2,0,2-0.4,2.3-1.3v-6.5h1.5v9h-1.5L358.3,211.9z"/>
	<path d="M367.4,210.4c0-0.4-0.2-0.7-0.5-1s-0.9-0.4-1.6-0.6s-1.4-0.4-1.9-0.6c-0.5-0.2-0.8-0.5-1-0.8c-0.2-0.3-0.3-0.7-0.3-1.1
		c0-0.7,0.3-1.4,0.9-1.9c0.6-0.5,1.4-0.8,2.4-0.8c1,0,1.8,0.3,2.5,0.8c0.6,0.5,1,1.2,1,2h-1.5c0-0.4-0.2-0.8-0.5-1.1
		c-0.4-0.3-0.8-0.5-1.3-0.5c-0.6,0-1,0.1-1.3,0.4s-0.5,0.6-0.5,1c0,0.4,0.1,0.7,0.4,0.8s0.8,0.4,1.6,0.5c0.8,0.2,1.4,0.4,1.9,0.6
		c0.5,0.2,0.8,0.5,1.1,0.9s0.3,0.7,0.3,1.2c0,0.8-0.3,1.4-1,1.9c-0.6,0.5-1.5,0.7-2.5,0.7c-0.7,0-1.4-0.1-1.9-0.4s-1-0.6-1.3-1.1
		c-0.3-0.5-0.5-1-0.5-1.5h1.5c0,0.5,0.2,0.9,0.6,1.2s0.9,0.5,1.5,0.5c0.6,0,1-0.1,1.4-0.4S367.4,210.8,367.4,210.4z"/>
	<path d="M373.9,210.5l2.1-6.7h1.6l-3.6,10.4c-0.6,1.5-1.4,2.2-2.7,2.2l-0.3,0l-0.6-0.1V215l0.4,0c0.5,0,0.9-0.1,1.2-0.3
		c0.3-0.2,0.5-0.6,0.7-1.2l0.3-0.9l-3.2-8.9h1.7L373.9,210.5z"/>
</g>
<g class="st0">
	<path d="M273.2,233.2h-1.5v-12.8h1.5V233.2z"/>
	<path d="M275.7,221.8c0-0.2,0.1-0.5,0.2-0.6c0.2-0.2,0.4-0.3,0.7-0.3s0.5,0.1,0.7,0.3c0.2,0.2,0.2,0.4,0.2,0.6
		c0,0.2-0.1,0.5-0.2,0.6s-0.4,0.2-0.7,0.2s-0.5-0.1-0.7-0.2C275.8,222.3,275.7,222.1,275.7,221.8z M277.3,233.2h-1.5v-9h1.5V233.2z"
		/>
	<path d="M280.6,233.2v-7.8h-1.4v-1.2h1.4v-0.9c0-1,0.3-1.7,0.8-2.2s1.2-0.8,2.2-0.8c0.4,0,0.7,0,1.1,0.1l-0.1,1.2
		c-0.3,0-0.5-0.1-0.8-0.1c-0.5,0-0.9,0.1-1.2,0.4c-0.3,0.3-0.4,0.7-0.4,1.3v0.9h1.9v1.2h-1.9v7.8H280.6z"/>
	<path d="M289.2,233.3c-1.2,0-2.2-0.4-3-1.2s-1.1-1.9-1.1-3.2v-0.3c0-0.9,0.2-1.7,0.5-2.4c0.3-0.7,0.8-1.2,1.4-1.6
		c0.6-0.4,1.3-0.6,2-0.6c1.2,0,2.1,0.4,2.7,1.2c0.6,0.8,1,1.9,1,3.3v0.6h-6.1c0,0.9,0.3,1.6,0.8,2.1c0.5,0.5,1.1,0.8,1.9,0.8
		c0.5,0,1-0.1,1.4-0.3c0.4-0.2,0.7-0.5,1-0.9l0.9,0.7C291.9,232.8,290.7,233.3,289.2,233.3z M289,225.3c-0.6,0-1.1,0.2-1.6,0.7
		s-0.7,1.1-0.8,1.9h4.5v-0.1c0-0.8-0.3-1.4-0.6-1.8S289.7,225.3,289,225.3z"/>
	<path d="M299.7,230.8c0-0.4-0.2-0.7-0.5-1c-0.3-0.2-0.9-0.4-1.6-0.6c-0.8-0.2-1.4-0.4-1.9-0.6c-0.5-0.2-0.8-0.5-1-0.8
		c-0.2-0.3-0.3-0.7-0.3-1.1c0-0.7,0.3-1.4,0.9-1.9c0.6-0.5,1.4-0.8,2.4-0.8c1,0,1.8,0.3,2.5,0.8c0.6,0.5,1,1.2,1,2h-1.5
		c0-0.4-0.2-0.8-0.5-1.1c-0.4-0.3-0.8-0.5-1.3-0.5c-0.6,0-1,0.1-1.3,0.4s-0.5,0.6-0.5,1c0,0.4,0.1,0.7,0.4,0.8s0.8,0.4,1.6,0.5
		c0.8,0.2,1.4,0.4,1.9,0.6c0.5,0.2,0.8,0.5,1.1,0.9c0.2,0.3,0.3,0.7,0.3,1.2c0,0.8-0.3,1.4-1,1.9s-1.5,0.7-2.5,0.7
		c-0.7,0-1.4-0.1-1.9-0.4s-1-0.6-1.3-1.1c-0.3-0.5-0.5-1-0.5-1.5h1.5c0,0.5,0.2,0.9,0.6,1.2c0.4,0.3,0.9,0.5,1.5,0.5
		c0.6,0,1-0.1,1.4-0.4C299.6,231.5,299.7,231.2,299.7,230.8z"/>
	<path d="M305.4,222v2.2h1.7v1.2h-1.7v5.6c0,0.4,0.1,0.6,0.2,0.8s0.4,0.3,0.8,0.3c0.2,0,0.4,0,0.7-0.1v1.2c-0.4,0.1-0.8,0.2-1.2,0.2
		c-0.7,0-1.2-0.2-1.6-0.6c-0.3-0.4-0.5-1-0.5-1.8v-5.6h-1.6v-1.2h1.6V222H305.4z"/>
	<path d="M311.8,230.9l2.1-6.7h1.6l-3.6,10.4c-0.6,1.5-1.4,2.2-2.7,2.2l-0.3,0l-0.6-0.1v-1.2l0.4,0c0.5,0,0.9-0.1,1.2-0.3
		c0.3-0.2,0.5-0.6,0.7-1.2l0.3-0.9l-3.2-8.9h1.7L311.8,230.9z"/>
	<path d="M318.5,233.2H317v-12.8h1.5V233.2z"/>
	<path d="M324.7,233.3c-1.2,0-2.2-0.4-3-1.2s-1.1-1.9-1.1-3.2v-0.3c0-0.9,0.2-1.7,0.5-2.4c0.3-0.7,0.8-1.2,1.4-1.6
		c0.6-0.4,1.3-0.6,2-0.6c1.2,0,2.1,0.4,2.7,1.2c0.6,0.8,1,1.9,1,3.3v0.6h-6.1c0,0.9,0.3,1.6,0.8,2.1c0.5,0.5,1.1,0.8,1.9,0.8
		c0.5,0,1-0.1,1.4-0.3c0.4-0.2,0.7-0.5,1-0.9l0.9,0.7C327.4,232.8,326.2,233.3,324.7,233.3z M324.5,225.3c-0.6,0-1.1,0.2-1.6,0.7
		s-0.7,1.1-0.8,1.9h4.5v-0.1c0-0.8-0.3-1.4-0.6-1.8S325.2,225.3,324.5,225.3z"/>
</g>
<g class="st0">
	<path class="st1" d="M432.5,140.2h-6.2l-1.2,3.5h-3.7l6.4-17.1h3.3l6.4,17.1h-3.7L432.5,140.2z M427.2,137.3h4.3l-2.1-6.4
		L427.2,137.3z"/>
	<path class="st1" d="M452.1,138c-0.1,1.8-0.8,3.3-2,4.3s-2.8,1.6-4.8,1.6c-2.2,0-3.9-0.7-5.2-2.2s-1.9-3.5-1.9-6.1v-1
		c0-1.6,0.3-3.1,0.9-4.3s1.4-2.2,2.5-2.9s2.3-1,3.7-1c2,0,3.6,0.5,4.8,1.6s1.9,2.5,2.1,4.4h-3.5c-0.1-1.1-0.4-1.9-0.9-2.4
		s-1.3-0.7-2.4-0.7c-1.2,0-2,0.4-2.6,1.3s-0.9,2.1-0.9,3.9v1.3c0,1.8,0.3,3.2,0.8,4s1.4,1.3,2.6,1.3c1.1,0,1.9-0.2,2.4-0.7
		s0.8-1.3,0.9-2.3H452.1z"/>
	<path class="st1" d="M467.8,138c-0.1,1.8-0.8,3.3-2,4.3s-2.8,1.6-4.8,1.6c-2.2,0-3.9-0.7-5.2-2.2s-1.9-3.5-1.9-6.1v-1
		c0-1.6,0.3-3.1,0.9-4.3s1.4-2.2,2.5-2.9s2.3-1,3.7-1c2,0,3.6,0.5,4.8,1.6s1.9,2.5,2.1,4.4h-3.5c-0.1-1.1-0.4-1.9-0.9-2.4
		s-1.3-0.7-2.4-0.7c-1.2,0-2,0.4-2.6,1.3s-0.9,2.1-0.9,3.9v1.3c0,1.8,0.3,3.2,0.8,4s1.4,1.3,2.6,1.3c1.1,0,1.9-0.2,2.4-0.7
		s0.8-1.3,0.9-2.3H467.8z"/>
	<path class="st1" d="M484.1,135.5c0,1.7-0.3,3.2-0.9,4.4s-1.4,2.2-2.5,2.9s-2.4,1-3.8,1c-1.4,0-2.7-0.3-3.8-1s-2-1.7-2.6-2.9
		s-0.9-2.7-0.9-4.4v-0.8c0-1.7,0.3-3.2,0.9-4.4s1.5-2.3,2.6-2.9s2.4-1,3.8-1s2.7,0.3,3.8,1s2,1.7,2.6,2.9s0.9,2.8,0.9,4.4V135.5z
		 M480.6,134.8c0-1.8-0.3-3.1-1-4.1s-1.6-1.4-2.7-1.4c-1.2,0-2.1,0.5-2.7,1.4s-1,2.3-1,4v0.8c0,1.7,0.3,3.1,1,4.1s1.6,1.4,2.8,1.4
		c1.2,0,2.1-0.5,2.7-1.4s1-2.3,1-4V134.8z"/>
	<path class="st1" d="M499.6,126.6v11.2c0,1.9-0.6,3.3-1.8,4.4s-2.8,1.6-4.8,1.6c-2,0-3.6-0.5-4.7-1.6s-1.8-2.5-1.8-4.3v-11.4h3.5
		v11.3c0,1.1,0.3,1.9,0.8,2.4s1.3,0.8,2.2,0.8c2,0,3-1,3-3.1v-11.4H499.6z"/>
	<path class="st1" d="M516.4,143.7h-3.5l-6.8-11.2v11.2h-3.5v-17.1h3.5l6.9,11.2v-11.2h3.5V143.7z"/>
	<path class="st1" d="M531.9,129.5h-5.2v14.2h-3.5v-14.2H518v-2.8h13.9V129.5z"/>
	<path class="st1" d="M542.2,140.2H536l-1.2,3.5h-3.7l6.4-17.1h3.3l6.4,17.1h-3.7L542.2,140.2z M537,137.3h4.3l-2.1-6.4L537,137.3z"
		/>
	<path class="st1" d="M548.7,143.7v-17.1h6c2.1,0,3.6,0.4,4.7,1.2s1.6,2,1.6,3.5c0,0.8-0.2,1.6-0.6,2.2s-1,1.1-1.8,1.4
		c0.9,0.2,1.6,0.7,2.1,1.3s0.8,1.5,0.8,2.4c0,1.6-0.5,2.9-1.6,3.7s-2.5,1.3-4.5,1.3H548.7z M552.2,133.8h2.6c1.8,0,2.7-0.7,2.7-2.1
		c0-0.8-0.2-1.3-0.7-1.7s-1.2-0.5-2.1-0.5h-2.5V133.8z M552.2,136.3v4.6h3c0.8,0,1.5-0.2,1.9-0.6s0.7-0.9,0.7-1.6
		c0-1.6-0.8-2.4-2.4-2.4H552.2z"/>
	<path class="st1" d="M567.7,143.7h-3.5v-17.1h3.5V143.7z"/>
	<path class="st1" d="M574.5,140.9h7.5v2.8h-11v-17.1h3.5V140.9z"/>
	<path class="st1" d="M587.7,143.7h-3.5v-17.1h3.5V143.7z"/>
	<path class="st1" d="M603.5,129.5h-5.2v14.2h-3.5v-14.2h-5.2v-2.8h13.9V129.5z"/>
	<path class="st1" d="M611.6,134.3l3.6-7.7h3.8l-5.6,10.9v6.2h-3.6v-6.2l-5.6-10.9h3.9L611.6,134.3z"/>
</g>
<rect x="441.2" y="159.2" class="st2" width="168" height="79.8"/>
<g class="st0">
	<path d="M456.6,168.8h-5.1l-1.1,3.2h-1.6l4.6-12.1h1.4l4.6,12.1h-1.6L456.6,168.8z M452,167.5h4.1l-2.1-5.7L452,167.5z"/>
	<path d="M460.4,167.4c0-1.4,0.3-2.5,1-3.3c0.7-0.8,1.5-1.3,2.6-1.3c1.1,0,1.9,0.4,2.5,1.1v-4.7h1.5V172h-1.4l-0.1-1
		c-0.6,0.8-1.5,1.1-2.6,1.1c-1,0-1.9-0.4-2.5-1.3c-0.7-0.9-1-2-1-3.3V167.4z M461.9,167.6c0,1,0.2,1.8,0.6,2.4
		c0.4,0.6,1,0.9,1.7,0.9c1,0,1.7-0.4,2.1-1.3v-4.1c-0.5-0.8-1.2-1.3-2.1-1.3c-0.8,0-1.3,0.3-1.8,0.9
		C462.1,165.6,461.9,166.4,461.9,167.6z"/>
	<path d="M470,167.4c0-1.4,0.3-2.5,1-3.3c0.7-0.8,1.5-1.3,2.6-1.3c1.1,0,1.9,0.4,2.5,1.1v-4.7h1.5V172h-1.4l-0.1-1
		c-0.6,0.8-1.5,1.1-2.6,1.1c-1,0-1.9-0.4-2.5-1.3c-0.7-0.9-1-2-1-3.3V167.4z M471.5,167.6c0,1,0.2,1.8,0.6,2.4
		c0.4,0.6,1,0.9,1.7,0.9c1,0,1.7-0.4,2.1-1.3v-4.1c-0.5-0.8-1.2-1.3-2.1-1.3c-0.8,0-1.3,0.3-1.8,0.9
		C471.7,165.6,471.5,166.4,471.5,167.6z"/>
	<path d="M484.1,160.6c0-0.2,0.1-0.5,0.2-0.6c0.2-0.2,0.4-0.3,0.7-0.3s0.5,0.1,0.7,0.3c0.2,0.2,0.2,0.4,0.2,0.6
		c0,0.2-0.1,0.5-0.2,0.6c-0.2,0.2-0.4,0.2-0.7,0.2s-0.5-0.1-0.7-0.2C484.2,161.1,484.1,160.9,484.1,160.6z M485.8,172h-1.5v-9h1.5
		V172z"/>
	<path d="M489.7,163l0,1.1c0.7-0.9,1.6-1.3,2.7-1.3c1.9,0,2.9,1.1,2.9,3.2v5.9h-1.5V166c0-0.6-0.2-1.1-0.4-1.4
		c-0.3-0.3-0.7-0.5-1.4-0.5c-0.5,0-0.9,0.1-1.3,0.4c-0.4,0.3-0.7,0.6-0.9,1v6.4h-1.5v-9H489.7z"/>
	<path d="M507.4,172c-0.1-0.2-0.2-0.5-0.2-0.9c-0.7,0.7-1.6,1.1-2.6,1.1c-0.9,0-1.6-0.2-2.2-0.8s-0.9-1.1-0.9-1.9
		c0-0.9,0.4-1.7,1.1-2.2s1.7-0.8,3-0.8h1.5v-0.7c0-0.5-0.2-1-0.5-1.3c-0.3-0.3-0.8-0.5-1.4-0.5c-0.5,0-1,0.1-1.4,0.4
		c-0.4,0.3-0.6,0.6-0.6,1h-1.5c0-0.4,0.2-0.9,0.5-1.3c0.3-0.4,0.8-0.7,1.3-1c0.5-0.2,1.1-0.4,1.8-0.4c1,0,1.8,0.3,2.4,0.8
		c0.6,0.5,0.9,1.2,0.9,2.1v4.1c0,0.8,0.1,1.5,0.3,2v0.1H507.4z M504.9,170.8c0.5,0,0.9-0.1,1.4-0.4s0.7-0.6,0.9-1v-1.8H506
		c-1.9,0-2.8,0.5-2.8,1.7c0,0.5,0.2,0.9,0.5,1.1C503.9,170.7,504.3,170.8,504.9,170.8z"/>
	<path d="M516.1,172v-7.8h-1.4V163h1.4v-0.9c0-1,0.3-1.7,0.8-2.2s1.2-0.8,2.2-0.8c0.4,0,0.7,0,1.1,0.1l-0.1,1.2
		c-0.3,0-0.5-0.1-0.8-0.1c-0.5,0-0.9,0.1-1.2,0.4c-0.3,0.3-0.4,0.7-0.4,1.3v0.9h1.9v1.2h-1.9v7.8H516.1z"/>
	<path d="M524.7,172.1c-1.2,0-2.2-0.4-3-1.2s-1.1-1.9-1.1-3.2v-0.3c0-0.9,0.2-1.7,0.5-2.4c0.3-0.7,0.8-1.2,1.4-1.6
		c0.6-0.4,1.3-0.6,2-0.6c1.2,0,2.1,0.4,2.7,1.2c0.6,0.8,1,1.9,1,3.3v0.6h-6.1c0,0.9,0.3,1.6,0.8,2.1s1.1,0.8,1.9,0.8
		c0.5,0,1-0.1,1.4-0.3c0.4-0.2,0.7-0.5,1-0.9l0.9,0.7C527.4,171.6,526.2,172.1,524.7,172.1z M524.5,164.1c-0.6,0-1.1,0.2-1.6,0.7
		c-0.4,0.5-0.7,1.1-0.8,1.9h4.5v-0.1c0-0.8-0.3-1.4-0.6-1.8C525.7,164.3,525.2,164.1,524.5,164.1z"/>
	<path d="M535.6,172c-0.1-0.2-0.2-0.5-0.2-0.9c-0.7,0.7-1.6,1.1-2.6,1.1c-0.9,0-1.6-0.2-2.2-0.8c-0.6-0.5-0.9-1.1-0.9-1.9
		c0-0.9,0.4-1.7,1.1-2.2c0.7-0.5,1.7-0.8,3-0.8h1.5v-0.7c0-0.5-0.2-1-0.5-1.3c-0.3-0.3-0.8-0.5-1.4-0.5c-0.5,0-1,0.1-1.4,0.4
		c-0.4,0.3-0.6,0.6-0.6,1h-1.5c0-0.4,0.2-0.9,0.5-1.3s0.8-0.7,1.3-1s1.1-0.4,1.8-0.4c1,0,1.8,0.3,2.4,0.8c0.6,0.5,0.9,1.2,0.9,2.1
		v4.1c0,0.8,0.1,1.5,0.3,2v0.1H535.6z M533,170.8c0.5,0,0.9-0.1,1.4-0.4s0.7-0.6,0.9-1v-1.8h-1.2c-1.9,0-2.8,0.5-2.8,1.7
		c0,0.5,0.2,0.9,0.5,1.1C532.1,170.7,532.5,170.8,533,170.8z"/>
	<path d="M541.3,160.8v2.2h1.7v1.2h-1.7v5.6c0,0.4,0.1,0.6,0.2,0.8s0.4,0.3,0.8,0.3c0.2,0,0.4,0,0.7-0.1v1.2
		c-0.4,0.1-0.8,0.2-1.2,0.2c-0.7,0-1.2-0.2-1.6-0.6c-0.3-0.4-0.5-1-0.5-1.8v-5.6h-1.6V163h1.6v-2.2H541.3z"/>
	<path d="M550.4,171.1c-0.6,0.7-1.5,1.1-2.6,1.1c-1,0-1.7-0.3-2.2-0.8c-0.5-0.6-0.8-1.4-0.8-2.5V163h1.5v5.8c0,1.4,0.6,2,1.7,2
		c1.2,0,2-0.4,2.3-1.3V163h1.5v9h-1.5L550.4,171.1z"/>
	<path d="M558.5,164.4c-0.2,0-0.5-0.1-0.8-0.1c-1,0-1.7,0.4-2.1,1.3v6.4h-1.5v-9h1.5l0,1c0.5-0.8,1.2-1.2,2.1-1.2
		c0.3,0,0.5,0,0.7,0.1V164.4z"/>
	<path d="M563.5,172.1c-1.2,0-2.2-0.4-3-1.2s-1.1-1.9-1.1-3.2v-0.3c0-0.9,0.2-1.7,0.5-2.4c0.3-0.7,0.8-1.2,1.4-1.6s1.3-0.6,2-0.6
		c1.2,0,2.1,0.4,2.7,1.2c0.6,0.8,1,1.9,1,3.3v0.6h-6.1c0,0.9,0.3,1.6,0.8,2.1s1.1,0.8,1.9,0.8c0.5,0,1-0.1,1.4-0.3
		c0.4-0.2,0.7-0.5,1-0.9l0.9,0.7C566.1,171.6,565,172.1,563.5,172.1z M563.3,164.1c-0.6,0-1.1,0.2-1.6,0.7s-0.7,1.1-0.8,1.9h4.5
		v-0.1c0-0.8-0.3-1.4-0.6-1.8S564,164.1,563.3,164.1z"/>
	<path d="M575.1,160.8v2.2h1.7v1.2h-1.7v5.6c0,0.4,0.1,0.6,0.2,0.8s0.4,0.3,0.8,0.3c0.2,0,0.4,0,0.7-0.1v1.2
		c-0.4,0.1-0.8,0.2-1.2,0.2c-0.7,0-1.2-0.2-1.6-0.6c-0.3-0.4-0.5-1-0.5-1.8v-5.6h-1.6V163h1.6v-2.2H575.1z"/>
	<path d="M580.1,164.1c0.7-0.8,1.6-1.3,2.7-1.3c1.9,0,2.9,1.1,2.9,3.2v5.9h-1.5V166c0-0.6-0.2-1.1-0.4-1.4c-0.3-0.3-0.7-0.5-1.4-0.5
		c-0.5,0-0.9,0.1-1.3,0.4c-0.4,0.3-0.7,0.6-0.9,1v6.4h-1.5v-12.8h1.5V164.1z"/>
	<path d="M593.5,172c-0.1-0.2-0.2-0.5-0.2-0.9c-0.7,0.7-1.6,1.1-2.6,1.1c-0.9,0-1.6-0.2-2.2-0.8s-0.9-1.1-0.9-1.9
		c0-0.9,0.4-1.7,1.1-2.2s1.7-0.8,3-0.8h1.5v-0.7c0-0.5-0.2-1-0.5-1.3c-0.3-0.3-0.8-0.5-1.4-0.5c-0.5,0-1,0.1-1.4,0.4
		c-0.4,0.3-0.6,0.6-0.6,1h-1.5c0-0.4,0.2-0.9,0.5-1.3s0.8-0.7,1.3-1s1.1-0.4,1.8-0.4c1,0,1.8,0.3,2.4,0.8s0.9,1.2,0.9,2.1v4.1
		c0,0.8,0.1,1.5,0.3,2v0.1H593.5z M590.9,170.8c0.5,0,0.9-0.1,1.4-0.4s0.7-0.6,0.9-1v-1.8H592c-1.9,0-2.8,0.5-2.8,1.7
		c0,0.5,0.2,0.9,0.5,1.1S590.4,170.8,590.9,170.8z"/>
	<path d="M599.2,160.8v2.2h1.7v1.2h-1.7v5.6c0,0.4,0.1,0.6,0.2,0.8s0.4,0.3,0.8,0.3c0.2,0,0.4,0,0.7-0.1v1.2
		c-0.4,0.1-0.8,0.2-1.2,0.2c-0.7,0-1.2-0.2-1.6-0.6c-0.3-0.4-0.5-1-0.5-1.8v-5.6h-1.6V163h1.6v-2.2H599.2z"/>
</g>
<g class="st0">
	<path d="M473.5,184.5c0.7-0.8,1.6-1.3,2.7-1.3c1.9,0,2.9,1.1,2.9,3.2v5.9h-1.5v-5.9c0-0.6-0.2-1.1-0.4-1.4
		c-0.3-0.3-0.7-0.5-1.4-0.5c-0.5,0-0.9,0.1-1.3,0.4c-0.4,0.3-0.7,0.6-0.9,1v6.4H472v-12.8h1.5V184.5z"/>
	<path d="M480.9,187.8c0-0.9,0.2-1.7,0.5-2.4c0.3-0.7,0.8-1.2,1.4-1.6c0.6-0.4,1.3-0.6,2.1-0.6c1.2,0,2.2,0.4,3,1.3
		c0.8,0.8,1.1,2,1.1,3.4v0.1c0,0.9-0.2,1.7-0.5,2.4s-0.8,1.2-1.4,1.6c-0.6,0.4-1.3,0.6-2.1,0.6c-1.2,0-2.2-0.4-3-1.3
		c-0.8-0.8-1.1-2-1.1-3.4V187.8z M482.5,188c0,1,0.2,1.8,0.7,2.4c0.5,0.6,1.1,0.9,1.9,0.9c0.8,0,1.4-0.3,1.9-0.9
		c0.5-0.6,0.7-1.5,0.7-2.6c0-1-0.2-1.8-0.7-2.4c-0.5-0.6-1.1-0.9-1.9-0.9c-0.8,0-1.4,0.3-1.8,0.9C482.7,186,482.5,186.9,482.5,188z"
		/>
	<path d="M492.7,192.4h-1.5v-12.8h1.5V192.4z"/>
	<path d="M494.8,187.8c0-1.4,0.3-2.5,1-3.3c0.7-0.8,1.5-1.3,2.6-1.3c1.1,0,1.9,0.4,2.5,1.1v-4.7h1.5v12.8h-1.4l-0.1-1
		c-0.6,0.8-1.5,1.1-2.6,1.1c-1,0-1.9-0.4-2.5-1.3c-0.7-0.9-1-2-1-3.3V187.8z M496.3,188c0,1,0.2,1.8,0.6,2.4c0.4,0.6,1,0.9,1.7,0.9
		c1,0,1.7-0.4,2.1-1.3v-4.1c-0.5-0.8-1.2-1.3-2.1-1.3c-0.8,0-1.3,0.3-1.8,0.9C496.5,186,496.3,186.8,496.3,188z"/>
	<path d="M510,190c0-0.4-0.2-0.7-0.5-1s-0.9-0.4-1.6-0.6c-0.8-0.2-1.4-0.4-1.9-0.6c-0.5-0.2-0.8-0.5-1-0.8c-0.2-0.3-0.3-0.7-0.3-1.1
		c0-0.7,0.3-1.4,0.9-1.9c0.6-0.5,1.4-0.8,2.4-0.8c1,0,1.8,0.3,2.5,0.8c0.6,0.5,1,1.2,1,2h-1.5c0-0.4-0.2-0.8-0.5-1.1
		c-0.4-0.3-0.8-0.5-1.3-0.5c-0.6,0-1,0.1-1.3,0.4s-0.5,0.6-0.5,1c0,0.4,0.1,0.7,0.4,0.8c0.3,0.2,0.8,0.4,1.6,0.5
		c0.8,0.2,1.4,0.4,1.9,0.6c0.5,0.2,0.8,0.5,1.1,0.9s0.3,0.7,0.3,1.2c0,0.8-0.3,1.4-1,1.9c-0.6,0.5-1.5,0.7-2.5,0.7
		c-0.7,0-1.4-0.1-1.9-0.4c-0.6-0.3-1-0.6-1.3-1.1c-0.3-0.5-0.5-1-0.5-1.5h1.5c0,0.5,0.2,0.9,0.6,1.2c0.4,0.3,0.9,0.5,1.5,0.5
		c0.6,0,1-0.1,1.4-0.4C509.8,190.7,510,190.4,510,190z"/>
	<path d="M525.3,188c0,1.4-0.3,2.5-0.9,3.3c-0.6,0.8-1.5,1.3-2.5,1.3c-1.1,0-1.9-0.3-2.6-1v4.3h-1.5v-12.4h1.4l0.1,1
		c0.6-0.8,1.5-1.2,2.6-1.2c1.1,0,1.9,0.4,2.6,1.2c0.6,0.8,0.9,1.9,0.9,3.4V188z M523.8,187.8c0-1-0.2-1.8-0.6-2.4
		c-0.4-0.6-1-0.9-1.8-0.9c-0.9,0-1.6,0.4-2.1,1.2v4.3c0.5,0.8,1.2,1.2,2.1,1.2c0.7,0,1.3-0.3,1.8-0.9S523.8,189,523.8,187.8z"/>
	<path d="M532.8,192.4c-0.1-0.2-0.2-0.5-0.2-0.9c-0.7,0.7-1.6,1.1-2.6,1.1c-0.9,0-1.6-0.2-2.2-0.8s-0.9-1.1-0.9-1.9
		c0-0.9,0.4-1.7,1.1-2.2s1.7-0.8,3-0.8h1.5v-0.7c0-0.5-0.2-1-0.5-1.3c-0.3-0.3-0.8-0.5-1.4-0.5c-0.5,0-1,0.1-1.4,0.4
		c-0.4,0.3-0.6,0.6-0.6,1h-1.5c0-0.4,0.2-0.9,0.5-1.3c0.3-0.4,0.8-0.7,1.3-1c0.5-0.2,1.1-0.4,1.8-0.4c1,0,1.8,0.3,2.4,0.8
		c0.6,0.5,0.9,1.2,0.9,2.1v4.1c0,0.8,0.1,1.5,0.3,2v0.1H532.8z M530.2,191.2c0.5,0,0.9-0.1,1.4-0.4s0.7-0.6,0.9-1V188h-1.2
		c-1.9,0-2.8,0.5-2.8,1.7c0,0.5,0.2,0.9,0.5,1.1C529.3,191.1,529.7,191.2,530.2,191.2z"/>
	<path d="M540.8,184.8c-0.2,0-0.5-0.1-0.8-0.1c-1,0-1.7,0.4-2,1.3v6.4h-1.5v-9h1.5l0,1c0.5-0.8,1.2-1.2,2.1-1.2c0.3,0,0.5,0,0.7,0.1
		V184.8z"/>
	<path d="M544.7,181.2v2.2h1.7v1.2h-1.7v5.6c0,0.4,0.1,0.6,0.2,0.8s0.4,0.3,0.8,0.3c0.2,0,0.4,0,0.7-0.1v1.2
		c-0.4,0.1-0.8,0.2-1.2,0.2c-0.7,0-1.2-0.2-1.6-0.6c-0.3-0.4-0.5-1-0.5-1.8v-5.6h-1.6v-1.2h1.6v-2.2H544.7z"/>
	<path d="M549.7,183.4l0,1.1c0.7-0.9,1.6-1.3,2.7-1.3c1.9,0,2.9,1.1,2.9,3.2v5.9h-1.5v-5.9c0-0.6-0.2-1.1-0.4-1.4
		c-0.3-0.3-0.7-0.5-1.4-0.5c-0.5,0-0.9,0.1-1.3,0.4c-0.4,0.3-0.7,0.6-0.9,1v6.4h-1.5v-9H549.7z"/>
	<path d="M561.3,192.5c-1.2,0-2.2-0.4-3-1.2s-1.1-1.9-1.1-3.2v-0.3c0-0.9,0.2-1.7,0.5-2.4c0.3-0.7,0.8-1.2,1.4-1.6
		c0.6-0.4,1.3-0.6,2-0.6c1.2,0,2.1,0.4,2.7,1.2c0.6,0.8,1,1.9,1,3.3v0.6h-6.1c0,0.9,0.3,1.6,0.8,2.1s1.1,0.8,1.9,0.8
		c0.5,0,1-0.1,1.4-0.3c0.4-0.2,0.7-0.5,1-0.9l0.9,0.7C564,192,562.8,192.5,561.3,192.5z M561.1,184.5c-0.6,0-1.1,0.2-1.6,0.7
		c-0.4,0.5-0.7,1.1-0.8,1.9h4.5v-0.1c0-0.8-0.3-1.4-0.6-1.8C562.3,184.7,561.8,184.5,561.1,184.5z"/>
	<path d="M570.9,184.8c-0.2,0-0.5-0.1-0.8-0.1c-1,0-1.7,0.4-2.1,1.3v6.4h-1.5v-9h1.5l0,1c0.5-0.8,1.2-1.2,2.1-1.2
		c0.3,0,0.5,0,0.7,0.1V184.8z"/>
	<path d="M577.6,190c0-0.4-0.2-0.7-0.5-1s-0.9-0.4-1.6-0.6s-1.4-0.4-1.9-0.6c-0.5-0.2-0.8-0.5-1-0.8c-0.2-0.3-0.3-0.7-0.3-1.1
		c0-0.7,0.3-1.4,0.9-1.9c0.6-0.5,1.4-0.8,2.4-0.8c1,0,1.8,0.3,2.5,0.8c0.6,0.5,1,1.2,1,2h-1.5c0-0.4-0.2-0.8-0.5-1.1
		c-0.4-0.3-0.8-0.5-1.3-0.5c-0.6,0-1,0.1-1.3,0.4s-0.5,0.6-0.5,1c0,0.4,0.1,0.7,0.4,0.8s0.8,0.4,1.6,0.5c0.8,0.2,1.4,0.4,1.9,0.6
		c0.5,0.2,0.8,0.5,1.1,0.9s0.3,0.7,0.3,1.2c0,0.8-0.3,1.4-1,1.9c-0.6,0.5-1.5,0.7-2.5,0.7c-0.7,0-1.4-0.1-1.9-0.4s-1-0.6-1.3-1.1
		c-0.3-0.5-0.5-1-0.5-1.5h1.5c0,0.5,0.2,0.9,0.6,1.2s0.9,0.5,1.5,0.5c0.6,0,1-0.1,1.4-0.4S577.6,190.4,577.6,190z"/>
</g>
<g class="st0">
	<path d="M472.6,212.8c-0.1-0.2-0.2-0.5-0.2-0.9c-0.7,0.7-1.6,1.1-2.6,1.1c-0.9,0-1.6-0.2-2.2-0.8c-0.6-0.5-0.9-1.1-0.9-1.9
		c0-0.9,0.4-1.7,1.1-2.2c0.7-0.5,1.7-0.8,3-0.8h1.5v-0.7c0-0.5-0.2-1-0.5-1.3s-0.8-0.5-1.4-0.5c-0.5,0-1,0.1-1.4,0.4
		c-0.4,0.3-0.6,0.6-0.6,1H467c0-0.4,0.2-0.9,0.5-1.3c0.3-0.4,0.8-0.7,1.3-1c0.5-0.2,1.1-0.4,1.8-0.4c1,0,1.8,0.3,2.4,0.8
		c0.6,0.5,0.9,1.2,0.9,2.1v4.1c0,0.8,0.1,1.5,0.3,2v0.1H472.6z M470.1,211.6c0.5,0,0.9-0.1,1.4-0.4s0.7-0.6,0.9-1v-1.8h-1.2
		c-1.9,0-2.8,0.5-2.8,1.7c0,0.5,0.2,0.9,0.5,1.1C469.1,211.5,469.6,211.6,470.1,211.6z"/>
	<path d="M479.9,211.7c0.5,0,1-0.2,1.4-0.5s0.6-0.7,0.7-1.2h1.5c0,0.5-0.2,1-0.5,1.5c-0.3,0.5-0.8,0.8-1.3,1.1
		c-0.5,0.3-1.1,0.4-1.7,0.4c-1.2,0-2.2-0.4-2.9-1.2c-0.7-0.8-1.1-1.9-1.1-3.3v-0.3c0-0.9,0.2-1.7,0.5-2.3c0.3-0.7,0.8-1.2,1.4-1.6
		c0.6-0.4,1.3-0.6,2.1-0.6c1,0,1.8,0.3,2.5,0.9c0.7,0.6,1,1.4,1.1,2.3H482c0-0.6-0.3-1.1-0.7-1.4c-0.4-0.4-0.9-0.6-1.5-0.6
		c-0.8,0-1.4,0.3-1.8,0.8c-0.4,0.6-0.6,1.4-0.6,2.4v0.3c0,1,0.2,1.8,0.6,2.4C478.5,211.4,479.1,211.7,479.9,211.7z"/>
	<path d="M488.8,211.7c0.5,0,1-0.2,1.4-0.5s0.6-0.7,0.7-1.2h1.5c0,0.5-0.2,1-0.5,1.5c-0.3,0.5-0.8,0.8-1.3,1.1
		c-0.5,0.3-1.1,0.4-1.7,0.4c-1.2,0-2.2-0.4-2.9-1.2c-0.7-0.8-1.1-1.9-1.1-3.3v-0.3c0-0.9,0.2-1.7,0.5-2.3c0.3-0.7,0.8-1.2,1.4-1.6
		c0.6-0.4,1.3-0.6,2.1-0.6c1,0,1.8,0.3,2.5,0.9c0.7,0.6,1,1.4,1.1,2.3h-1.5c0-0.6-0.3-1.1-0.7-1.4c-0.4-0.4-0.9-0.6-1.5-0.6
		c-0.8,0-1.4,0.3-1.8,0.8c-0.4,0.6-0.6,1.4-0.6,2.4v0.3c0,1,0.2,1.8,0.6,2.4C487.4,211.4,488,211.7,488.8,211.7z"/>
	<path d="M493.7,208.2c0-0.9,0.2-1.7,0.5-2.4c0.3-0.7,0.8-1.2,1.4-1.6c0.6-0.4,1.3-0.6,2.1-0.6c1.2,0,2.2,0.4,3,1.3
		c0.8,0.8,1.1,2,1.1,3.4v0.1c0,0.9-0.2,1.7-0.5,2.4c-0.3,0.7-0.8,1.2-1.4,1.6c-0.6,0.4-1.3,0.6-2.1,0.6c-1.2,0-2.2-0.4-3-1.3
		c-0.8-0.8-1.1-2-1.1-3.4V208.2z M495.2,208.4c0,1,0.2,1.8,0.7,2.4c0.5,0.6,1.1,0.9,1.9,0.9c0.8,0,1.4-0.3,1.9-0.9
		c0.5-0.6,0.7-1.5,0.7-2.6c0-1-0.2-1.8-0.7-2.4c-0.5-0.6-1.1-0.9-1.9-0.9c-0.8,0-1.4,0.3-1.8,0.9
		C495.5,206.4,495.2,207.3,495.2,208.4z"/>
	<path d="M509.4,211.9c-0.6,0.7-1.5,1.1-2.6,1.1c-1,0-1.7-0.3-2.2-0.8c-0.5-0.6-0.8-1.4-0.8-2.5v-5.8h1.5v5.8c0,1.4,0.6,2,1.7,2
		c1.2,0,2-0.4,2.3-1.3v-6.5h1.5v9h-1.5L509.4,211.9z"/>
	<path d="M514.6,203.8l0,1.1c0.7-0.9,1.6-1.3,2.7-1.3c1.9,0,2.9,1.1,2.9,3.2v5.9h-1.5v-5.9c0-0.6-0.2-1.1-0.4-1.4
		c-0.3-0.3-0.7-0.5-1.4-0.5c-0.5,0-0.9,0.1-1.3,0.4c-0.4,0.3-0.7,0.6-0.9,1v6.4h-1.5v-9H514.6z"/>
	<path d="M524.6,201.6v2.2h1.7v1.2h-1.7v5.6c0,0.4,0.1,0.6,0.2,0.8s0.4,0.3,0.8,0.3c0.2,0,0.4,0,0.7-0.1v1.2
		c-0.4,0.1-0.8,0.2-1.2,0.2c-0.7,0-1.2-0.2-1.6-0.6c-0.3-0.4-0.5-1-0.5-1.8V205h-1.6v-1.2h1.6v-2.2H524.6z"/>
	<path d="M533.7,212.8c-0.1-0.2-0.2-0.5-0.2-0.9c-0.7,0.7-1.6,1.1-2.6,1.1c-0.9,0-1.6-0.2-2.2-0.8c-0.6-0.5-0.9-1.1-0.9-1.9
		c0-0.9,0.4-1.7,1.1-2.2s1.7-0.8,3-0.8h1.5v-0.7c0-0.5-0.2-1-0.5-1.3s-0.8-0.5-1.4-0.5c-0.5,0-1,0.1-1.4,0.4c-0.4,0.3-0.6,0.6-0.6,1
		H528c0-0.4,0.2-0.9,0.5-1.3s0.8-0.7,1.3-1s1.1-0.4,1.8-0.4c1,0,1.8,0.3,2.4,0.8c0.6,0.5,0.9,1.2,0.9,2.1v4.1c0,0.8,0.1,1.5,0.3,2
		v0.1H533.7z M531.1,211.6c0.5,0,0.9-0.1,1.4-0.4s0.7-0.6,0.9-1v-1.8h-1.2c-1.9,0-2.8,0.5-2.8,1.7c0,0.5,0.2,0.9,0.5,1.1
		C530.2,211.5,530.6,211.6,531.1,211.6z"/>
	<path d="M545,208.4c0,1.4-0.3,2.5-0.9,3.3s-1.5,1.2-2.5,1.2c-1.1,0-2-0.4-2.6-1.2l-0.1,1h-1.4V200h1.5v4.8c0.6-0.8,1.5-1.2,2.6-1.2
		c1.1,0,1.9,0.4,2.6,1.2c0.6,0.8,0.9,2,0.9,3.4V208.4z M543.4,208.2c0-1-0.2-1.9-0.6-2.4c-0.4-0.6-1-0.9-1.7-0.9
		c-1,0-1.7,0.5-2.2,1.4v3.9c0.5,0.9,1.2,1.4,2.2,1.4c0.7,0,1.3-0.3,1.7-0.9S543.4,209.4,543.4,208.2z"/>
	<path d="M548.6,212.8H547V200h1.5V212.8z"/>
	<path d="M554.7,212.9c-1.2,0-2.2-0.4-3-1.2s-1.1-1.9-1.1-3.2v-0.3c0-0.9,0.2-1.7,0.5-2.4c0.3-0.7,0.8-1.2,1.4-1.6
		c0.6-0.4,1.3-0.6,2-0.6c1.2,0,2.1,0.4,2.7,1.2c0.6,0.8,1,1.9,1,3.3v0.6h-6.1c0,0.9,0.3,1.6,0.8,2.1c0.5,0.5,1.1,0.8,1.9,0.8
		c0.5,0,1-0.1,1.4-0.3c0.4-0.2,0.7-0.5,1-0.9l0.9,0.7C557.4,212.4,556.3,212.9,554.7,212.9z M554.6,204.9c-0.6,0-1.1,0.2-1.6,0.7
		c-0.4,0.5-0.7,1.1-0.8,1.9h4.5v-0.1c0-0.8-0.3-1.4-0.6-1.8C555.7,205.1,555.2,204.9,554.6,204.9z"/>
	<path d="M565,212.8V205h-1.4v-1.2h1.4v-0.9c0-1,0.3-1.7,0.8-2.2c0.5-0.5,1.2-0.8,2.2-0.8c0.4,0,0.7,0,1.1,0.1l-0.1,1.2
		c-0.3,0-0.5-0.1-0.8-0.1c-0.5,0-0.9,0.1-1.2,0.4c-0.3,0.3-0.4,0.7-0.4,1.3v0.9h1.9v1.2h-1.9v7.8H565z"/>
	<path d="M569.7,208.2c0-0.9,0.2-1.7,0.5-2.4c0.3-0.7,0.8-1.2,1.4-1.6c0.6-0.4,1.3-0.6,2.1-0.6c1.2,0,2.2,0.4,3,1.3
		c0.8,0.8,1.1,2,1.1,3.4v0.1c0,0.9-0.2,1.7-0.5,2.4c-0.3,0.7-0.8,1.2-1.4,1.6s-1.3,0.6-2.1,0.6c-1.2,0-2.2-0.4-3-1.3
		c-0.8-0.8-1.1-2-1.1-3.4V208.2z M571.3,208.4c0,1,0.2,1.8,0.7,2.4c0.5,0.6,1.1,0.9,1.9,0.9c0.8,0,1.4-0.3,1.9-0.9s0.7-1.5,0.7-2.6
		c0-1-0.2-1.8-0.7-2.4c-0.5-0.6-1.1-0.9-1.9-0.9c-0.8,0-1.4,0.3-1.8,0.9C571.5,206.4,571.3,207.3,571.3,208.4z"/>
	<path d="M584.2,205.2c-0.2,0-0.5-0.1-0.8-0.1c-1,0-1.7,0.4-2.1,1.3v6.4h-1.5v-9h1.5l0,1c0.5-0.8,1.2-1.2,2.1-1.2
		c0.3,0,0.5,0,0.7,0.1V205.2z"/>
</g>
<g class="st0">
	<path d="M460.2,230.8c0-0.4-0.2-0.7-0.5-1s-0.9-0.4-1.6-0.6c-0.8-0.2-1.4-0.4-1.9-0.6c-0.5-0.2-0.8-0.5-1-0.8
		c-0.2-0.3-0.3-0.7-0.3-1.1c0-0.7,0.3-1.4,0.9-1.9c0.6-0.5,1.4-0.8,2.4-0.8c1,0,1.8,0.3,2.5,0.8c0.6,0.5,1,1.2,1,2h-1.5
		c0-0.4-0.2-0.8-0.5-1.1c-0.4-0.3-0.8-0.5-1.3-0.5c-0.6,0-1,0.1-1.3,0.4s-0.5,0.6-0.5,1c0,0.4,0.1,0.7,0.4,0.8
		c0.3,0.2,0.8,0.4,1.6,0.5c0.8,0.2,1.4,0.4,1.9,0.6c0.5,0.2,0.8,0.5,1.1,0.9s0.3,0.7,0.3,1.2c0,0.8-0.3,1.4-1,1.9
		c-0.6,0.5-1.5,0.7-2.5,0.7c-0.7,0-1.4-0.1-1.9-0.4c-0.6-0.3-1-0.6-1.3-1.1c-0.3-0.5-0.5-1-0.5-1.5h1.5c0,0.5,0.2,0.9,0.6,1.2
		c0.4,0.3,0.9,0.5,1.5,0.5c0.6,0,1-0.1,1.4-0.4C460,231.5,460.2,231.2,460.2,230.8z"/>
	<path d="M466.2,229l-1,1v3.2h-1.5v-12.8h1.5v7.7l0.8-1l2.8-3h1.9l-3.5,3.8l3.9,5.2h-1.8L466.2,229z"/>
	<path d="M472.4,221.8c0-0.2,0.1-0.5,0.2-0.6c0.2-0.2,0.4-0.3,0.7-0.3s0.5,0.1,0.7,0.3c0.2,0.2,0.2,0.4,0.2,0.6
		c0,0.2-0.1,0.5-0.2,0.6c-0.2,0.2-0.4,0.2-0.7,0.2s-0.5-0.1-0.7-0.2C472.4,222.3,472.4,222.1,472.4,221.8z M474,233.2h-1.5v-9h1.5
		V233.2z"/>
	<path d="M484.1,228.8c0,1.4-0.3,2.5-0.9,3.3c-0.6,0.8-1.5,1.3-2.5,1.3c-1.1,0-1.9-0.3-2.6-1v4.3h-1.5v-12.4h1.4l0.1,1
		c0.6-0.8,1.5-1.2,2.6-1.2c1.1,0,1.9,0.4,2.6,1.2c0.6,0.8,0.9,1.9,0.9,3.4V228.8z M482.5,228.6c0-1-0.2-1.8-0.6-2.4
		c-0.4-0.6-1-0.9-1.8-0.9c-0.9,0-1.6,0.4-2.1,1.2v4.3c0.5,0.8,1.2,1.2,2.1,1.2c0.7,0,1.3-0.3,1.8-0.9S482.5,229.8,482.5,228.6z"/>
	<path d="M493.6,228.8c0,1.4-0.3,2.5-0.9,3.3c-0.6,0.8-1.5,1.3-2.5,1.3c-1.1,0-1.9-0.3-2.6-1v4.3H486v-12.4h1.4l0.1,1
		c0.6-0.8,1.5-1.2,2.6-1.2c1.1,0,1.9,0.4,2.6,1.2c0.6,0.8,0.9,1.9,0.9,3.4V228.8z M492.1,228.6c0-1-0.2-1.8-0.6-2.4
		c-0.4-0.6-1-0.9-1.8-0.9c-0.9,0-1.6,0.4-2.1,1.2v4.3c0.5,0.8,1.2,1.2,2.1,1.2c0.7,0,1.3-0.3,1.8-0.9
		C491.8,230.6,492.1,229.8,492.1,228.6z"/>
	<path d="M495.6,221.8c0-0.2,0.1-0.5,0.2-0.6c0.2-0.2,0.4-0.3,0.7-0.3s0.5,0.1,0.7,0.3c0.2,0.2,0.2,0.4,0.2,0.6
		c0,0.2-0.1,0.5-0.2,0.6c-0.2,0.2-0.4,0.2-0.7,0.2s-0.5-0.1-0.7-0.2S495.6,222.1,495.6,221.8z M497.2,233.2h-1.5v-9h1.5V233.2z"/>
	<path d="M501.1,224.2l0,1.1c0.7-0.9,1.6-1.3,2.7-1.3c1.9,0,2.9,1.1,2.9,3.2v5.9h-1.5v-5.9c0-0.6-0.2-1.1-0.4-1.4
		c-0.3-0.3-0.7-0.5-1.4-0.5c-0.5,0-0.9,0.1-1.3,0.4c-0.4,0.3-0.7,0.6-0.9,1v6.4h-1.5v-9H501.1z"/>
	<path d="M508.7,228.6c0-1.4,0.3-2.5,1-3.3s1.5-1.2,2.6-1.2c1.1,0,2,0.4,2.6,1.2l0.1-1h1.4v8.8c0,1.2-0.3,2.1-1,2.7
		c-0.7,0.7-1.6,1-2.8,1c-0.6,0-1.3-0.1-1.9-0.4c-0.6-0.3-1.1-0.7-1.4-1.1l0.8-0.9c0.7,0.8,1.5,1.2,2.4,1.2c0.7,0,1.3-0.2,1.7-0.6
		c0.4-0.4,0.6-1,0.6-1.8v-0.8c-0.6,0.7-1.5,1.1-2.5,1.1c-1.1,0-1.9-0.4-2.6-1.3C509,231.2,508.7,230.1,508.7,228.6z M510.2,228.8
		c0,1,0.2,1.8,0.6,2.4s1,0.9,1.7,0.9c1,0,1.7-0.4,2.1-1.3v-4.1c-0.5-0.9-1.2-1.3-2.1-1.3c-0.7,0-1.3,0.3-1.8,0.9
		C510.4,226.8,510.2,227.6,510.2,228.8z"/>
	<path d="M528.3,233.2c-0.1-0.2-0.2-0.5-0.2-0.9c-0.7,0.7-1.6,1.1-2.6,1.1c-0.9,0-1.6-0.2-2.2-0.8s-0.9-1.1-0.9-1.9
		c0-0.9,0.4-1.7,1.1-2.2s1.7-0.8,3-0.8h1.5V227c0-0.5-0.2-1-0.5-1.3c-0.3-0.3-0.8-0.5-1.4-0.5c-0.5,0-1,0.1-1.4,0.4
		c-0.4,0.3-0.6,0.6-0.6,1h-1.5c0-0.4,0.2-0.9,0.5-1.3c0.3-0.4,0.8-0.7,1.3-1c0.5-0.2,1.1-0.4,1.8-0.4c1,0,1.8,0.3,2.4,0.8
		c0.6,0.5,0.9,1.2,0.9,2.1v4.1c0,0.8,0.1,1.5,0.3,2v0.1H528.3z M525.8,232c0.5,0,0.9-0.1,1.4-0.4s0.7-0.6,0.9-1v-1.8h-1.2
		c-1.9,0-2.8,0.5-2.8,1.7c0,0.5,0.2,0.9,0.5,1.1C524.9,231.9,525.3,232,525.8,232z"/>
	<path d="M544.2,231.1l1.7-6.9h1.5l-2.6,9h-1.2l-2.2-6.8l-2.1,6.8h-1.2l-2.6-9h1.5l1.8,6.7l2.1-6.7h1.2L544.2,231.1z"/>
	<path d="M548.6,228.6c0-0.9,0.2-1.7,0.5-2.4c0.3-0.7,0.8-1.2,1.4-1.6c0.6-0.4,1.3-0.6,2.1-0.6c1.2,0,2.2,0.4,3,1.3
		c0.8,0.8,1.1,2,1.1,3.4v0.1c0,0.9-0.2,1.7-0.5,2.4s-0.8,1.2-1.4,1.6c-0.6,0.4-1.3,0.6-2.1,0.6c-1.2,0-2.2-0.4-3-1.3
		c-0.8-0.8-1.1-2-1.1-3.4V228.6z M550.2,228.8c0,1,0.2,1.8,0.7,2.4c0.5,0.6,1.1,0.9,1.9,0.9c0.8,0,1.4-0.3,1.9-0.9s0.7-1.5,0.7-2.6
		c0-1-0.2-1.8-0.7-2.4s-1.1-0.9-1.9-0.9c-0.8,0-1.4,0.3-1.8,0.9C550.4,226.8,550.2,227.7,550.2,228.8z"/>
	<path d="M563.1,225.6c-0.2,0-0.5-0.1-0.8-0.1c-1,0-1.7,0.4-2.1,1.3v6.4h-1.5v-9h1.5l0,1c0.5-0.8,1.2-1.2,2.1-1.2
		c0.3,0,0.5,0,0.7,0.1V225.6z"/>
	<path d="M567,229l-1,1v3.2h-1.5v-12.8h1.5v7.7l0.8-1l2.8-3h1.9l-3.5,3.8l3.9,5.2h-1.8L567,229z"/>
	<path d="M572.7,228.6c0-0.9,0.2-1.7,0.5-2.4c0.3-0.7,0.8-1.2,1.4-1.6c0.6-0.4,1.3-0.6,2.1-0.6c1.2,0,2.2,0.4,3,1.3
		c0.8,0.8,1.1,2,1.1,3.4v0.1c0,0.9-0.2,1.7-0.5,2.4s-0.8,1.2-1.4,1.6c-0.6,0.4-1.3,0.6-2.1,0.6c-1.2,0-2.2-0.4-3-1.3
		c-0.8-0.8-1.1-2-1.1-3.4V228.6z M574.2,228.8c0,1,0.2,1.8,0.7,2.4s1.1,0.9,1.9,0.9c0.8,0,1.4-0.3,1.9-0.9s0.7-1.5,0.7-2.6
		c0-1-0.2-1.8-0.7-2.4s-1.1-0.9-1.9-0.9c-0.8,0-1.4,0.3-1.8,0.9C574.5,226.8,574.2,227.7,574.2,228.8z"/>
	<path d="M588.3,232.3c-0.6,0.7-1.5,1.1-2.6,1.1c-1,0-1.7-0.3-2.2-0.8c-0.5-0.6-0.8-1.4-0.8-2.5v-5.8h1.5v5.8c0,1.4,0.6,2,1.7,2
		c1.2,0,2-0.4,2.3-1.3v-6.5h1.5v9h-1.5L588.3,232.3z"/>
	<path d="M594.2,222v2.2h1.7v1.2h-1.7v5.6c0,0.4,0.1,0.6,0.2,0.8s0.4,0.3,0.8,0.3c0.2,0,0.4,0,0.7-0.1v1.2c-0.4,0.1-0.8,0.2-1.2,0.2
		c-0.7,0-1.2-0.2-1.6-0.6c-0.3-0.4-0.5-1-0.5-1.8v-5.6h-1.6v-1.2h1.6V222H594.2z"/>
</g>
<g class="st0">
	<path class="st1" d="M681.7,138c-0.1,1.8-0.8,3.3-2,4.3s-2.8,1.6-4.8,1.6c-2.2,0-3.9-0.7-5.2-2.2s-1.9-3.5-1.9-6.1v-1
		c0-1.6,0.3-3.1,0.9-4.3s1.4-2.2,2.5-2.9s2.3-1,3.7-1c2,0,3.6,0.5,4.8,1.6s1.9,2.5,2.1,4.4h-3.5c-0.1-1.1-0.4-1.9-0.9-2.4
		s-1.3-0.7-2.4-0.7c-1.2,0-2,0.4-2.6,1.3s-0.9,2.1-0.9,3.9v1.3c0,1.8,0.3,3.2,0.8,4s1.4,1.3,2.6,1.3c1.1,0,1.9-0.2,2.4-0.7
		s0.8-1.3,0.9-2.3H681.7z"/>
	<path class="st1" d="M698,135.5c0,1.7-0.3,3.2-0.9,4.4s-1.4,2.2-2.5,2.9s-2.4,1-3.8,1c-1.4,0-2.7-0.3-3.8-1s-2-1.7-2.6-2.9
		s-0.9-2.7-0.9-4.4v-0.8c0-1.7,0.3-3.2,0.9-4.4s1.5-2.3,2.6-2.9s2.4-1,3.8-1s2.7,0.3,3.8,1s2,1.7,2.6,2.9s0.9,2.8,0.9,4.4V135.5z
		 M694.4,134.8c0-1.8-0.3-3.1-1-4.1s-1.6-1.4-2.7-1.4c-1.2,0-2.1,0.5-2.7,1.4s-1,2.3-1,4v0.8c0,1.7,0.3,3.1,1,4.1s1.6,1.4,2.8,1.4
		c1.2,0,2.1-0.5,2.7-1.4s1-2.3,1-4V134.8z"/>
	<path class="st1" d="M705.1,126.6l4.4,12.4l4.4-12.4h4.6v17.1H715V139l0.4-8.1l-4.6,12.7h-2.4l-4.6-12.7l0.4,8v4.7h-3.5v-17.1
		H705.1z"/>
	<path class="st1" d="M725.1,137.7v6h-3.5v-17.1h6.7c1.3,0,2.4,0.2,3.4,0.7s1.7,1.1,2.2,2s0.8,1.8,0.8,2.9c0,1.7-0.6,3-1.7,4
		s-2.7,1.4-4.8,1.4H725.1z M725.1,134.8h3.1c0.9,0,1.6-0.2,2.1-0.7s0.7-1.1,0.7-1.9c0-0.8-0.2-1.5-0.7-2s-1.2-0.8-2-0.8h-3.2V134.8z
		"/>
	<path class="st1" d="M747.3,136.3h-6.8v4.6h7.9v2.8h-11.4v-17.1h11.4v2.8h-7.9v4.1h6.8V136.3z"/>
	<path class="st1" d="M763.6,129.5h-5.2v14.2h-3.5v-14.2h-5.2v-2.8h13.9V129.5z"/>
	<path class="st1" d="M769.4,143.7h-3.5v-17.1h3.5V143.7z"/>
	<path class="st1" d="M785.1,129.5h-5.2v14.2h-3.5v-14.2h-5.2v-2.8h13.9V129.5z"/>
	<path class="st1" d="M790.9,143.7h-3.5v-17.1h3.5V143.7z"/>
	<path class="st1" d="M808.2,135.5c0,1.7-0.3,3.2-0.9,4.4s-1.4,2.2-2.5,2.9s-2.4,1-3.8,1c-1.4,0-2.7-0.3-3.8-1s-2-1.7-2.6-2.9
		s-0.9-2.7-0.9-4.4v-0.8c0-1.7,0.3-3.2,0.9-4.4s1.5-2.3,2.6-2.9s2.4-1,3.8-1s2.7,0.3,3.8,1s2,1.7,2.6,2.9s0.9,2.8,0.9,4.4V135.5z
		 M804.6,134.8c0-1.8-0.3-3.1-1-4.1s-1.6-1.4-2.7-1.4c-1.2,0-2.1,0.5-2.7,1.4s-1,2.3-1,4v0.8c0,1.7,0.3,3.1,1,4.1s1.6,1.4,2.8,1.4
		c1.2,0,2.1-0.5,2.7-1.4s1-2.3,1-4V134.8z"/>
	<path class="st1" d="M824.6,143.7h-3.5l-6.8-11.2v11.2h-3.5v-17.1h3.5l6.9,11.2v-11.2h3.5V143.7z"/>
</g>
<rect x="665.6" y="159.2" class="st2" width="168" height="79.8"/>
<g class="st0">
	<path d="M685.2,167.2v4.7h-1.6v-12.1h4.5c1.3,0,2.4,0.3,3.1,1c0.8,0.7,1.1,1.6,1.1,2.7c0,1.2-0.4,2.1-1.1,2.7s-1.8,1-3.2,1H685.2z
		 M685.2,165.9h2.9c0.9,0,1.5-0.2,2-0.6c0.5-0.4,0.7-1,0.7-1.7c0-0.7-0.2-1.3-0.7-1.7c-0.5-0.4-1.1-0.7-1.9-0.7h-3V165.9z"/>
	<path d="M699.5,172c-0.1-0.2-0.2-0.5-0.2-0.9c-0.7,0.7-1.6,1.1-2.6,1.1c-0.9,0-1.6-0.2-2.2-0.8c-0.6-0.5-0.9-1.1-0.9-1.9
		c0-0.9,0.4-1.7,1.1-2.2c0.7-0.5,1.7-0.8,3-0.8h1.5v-0.7c0-0.5-0.2-1-0.5-1.3c-0.3-0.3-0.8-0.5-1.4-0.5c-0.5,0-1,0.1-1.4,0.4
		c-0.4,0.3-0.6,0.6-0.6,1h-1.5c0-0.4,0.2-0.9,0.5-1.3s0.8-0.7,1.3-1s1.1-0.4,1.8-0.4c1,0,1.8,0.3,2.4,0.8c0.6,0.5,0.9,1.2,0.9,2.1
		v4.1c0,0.8,0.1,1.5,0.3,2v0.1H699.5z M697,170.8c0.5,0,0.9-0.1,1.4-0.4s0.7-0.6,0.9-1v-1.8h-1.2c-1.9,0-2.8,0.5-2.8,1.7
		c0,0.5,0.2,0.9,0.5,1.1C696.1,170.7,696.5,170.8,697,170.8z"/>
	<path d="M707.6,164.4c-0.2,0-0.5-0.1-0.8-0.1c-1,0-1.7,0.4-2.1,1.3v6.4h-1.5v-9h1.5l0,1c0.5-0.8,1.2-1.2,2.1-1.2
		c0.3,0,0.5,0,0.7,0.1V164.4z"/>
	<path d="M711.5,160.8v2.2h1.7v1.2h-1.7v5.6c0,0.4,0.1,0.6,0.2,0.8s0.4,0.3,0.8,0.3c0.2,0,0.4,0,0.7-0.1v1.2
		c-0.4,0.1-0.8,0.2-1.2,0.2c-0.7,0-1.2-0.2-1.6-0.6c-0.3-0.4-0.5-1-0.5-1.8v-5.6h-1.6V163h1.6v-2.2H711.5z"/>
	<path d="M716.4,163l0,1.1c0.7-0.9,1.6-1.3,2.7-1.3c1.9,0,2.9,1.1,2.9,3.2v5.9h-1.5V166c0-0.6-0.2-1.1-0.4-1.4
		c-0.3-0.3-0.7-0.5-1.4-0.5c-0.5,0-0.9,0.1-1.3,0.4c-0.4,0.3-0.7,0.6-0.9,1v6.4h-1.5v-9H716.4z"/>
	<path d="M728.1,172.1c-1.2,0-2.2-0.4-3-1.2s-1.1-1.9-1.1-3.2v-0.3c0-0.9,0.2-1.7,0.5-2.4c0.3-0.7,0.8-1.2,1.4-1.6s1.3-0.6,2-0.6
		c1.2,0,2.1,0.4,2.7,1.2c0.6,0.8,1,1.9,1,3.3v0.6h-6.1c0,0.9,0.3,1.6,0.8,2.1c0.5,0.5,1.1,0.8,1.9,0.8c0.5,0,1-0.1,1.4-0.3
		c0.4-0.2,0.7-0.5,1-0.9l0.9,0.7C730.7,171.6,729.6,172.1,728.1,172.1z M727.9,164.1c-0.6,0-1.1,0.2-1.6,0.7
		c-0.4,0.5-0.7,1.1-0.8,1.9h4.5v-0.1c0-0.8-0.3-1.4-0.6-1.8C729,164.3,728.5,164.1,727.9,164.1z"/>
	<path d="M737.7,164.4c-0.2,0-0.5-0.1-0.8-0.1c-1,0-1.7,0.4-2,1.3v6.4h-1.5v-9h1.5l0,1c0.5-0.8,1.2-1.2,2.1-1.2c0.3,0,0.5,0,0.7,0.1
		V164.4z"/>
	<path d="M744.3,169.6c0-0.4-0.2-0.7-0.5-1c-0.3-0.2-0.9-0.4-1.6-0.6s-1.4-0.4-1.9-0.6c-0.5-0.2-0.8-0.5-1-0.8
		c-0.2-0.3-0.3-0.7-0.3-1.1c0-0.7,0.3-1.4,0.9-1.9c0.6-0.5,1.4-0.8,2.4-0.8c1,0,1.8,0.3,2.5,0.8c0.6,0.5,1,1.2,1,2h-1.5
		c0-0.4-0.2-0.8-0.5-1.1c-0.4-0.3-0.8-0.5-1.3-0.5c-0.6,0-1,0.1-1.3,0.4s-0.5,0.6-0.5,1c0,0.4,0.1,0.7,0.4,0.8
		c0.3,0.2,0.8,0.4,1.6,0.5c0.8,0.2,1.4,0.4,1.9,0.6c0.5,0.2,0.8,0.5,1.1,0.9c0.2,0.3,0.3,0.7,0.3,1.2c0,0.8-0.3,1.4-1,1.9
		c-0.6,0.5-1.5,0.7-2.5,0.7c-0.7,0-1.4-0.1-1.9-0.4c-0.6-0.3-1-0.6-1.3-1.1c-0.3-0.5-0.5-1-0.5-1.5h1.5c0,0.5,0.2,0.9,0.6,1.2
		s0.9,0.5,1.5,0.5c0.6,0,1-0.1,1.4-0.4S744.3,170,744.3,169.6z"/>
	<path d="M760,169.9l1.7-6.9h1.5l-2.6,9h-1.2l-2.2-6.8l-2.1,6.8h-1.2l-2.6-9h1.5l1.8,6.7l2.1-6.7h1.2L760,169.9z"/>
	<path d="M764.8,160.6c0-0.2,0.1-0.5,0.2-0.6c0.2-0.2,0.4-0.3,0.7-0.3s0.5,0.1,0.7,0.3c0.2,0.2,0.2,0.4,0.2,0.6
		c0,0.2-0.1,0.5-0.2,0.6c-0.2,0.2-0.4,0.2-0.7,0.2s-0.5-0.1-0.7-0.2S764.8,160.9,764.8,160.6z M766.5,172H765v-9h1.5V172z"/>
	<path d="M770.6,172h-1.5v-12.8h1.5V172z"/>
	<path d="M774.8,172h-1.5v-12.8h1.5V172z"/>
	<path d="M789,167.6c0,1.4-0.3,2.5-0.9,3.3c-0.6,0.8-1.5,1.3-2.5,1.3c-1.1,0-1.9-0.3-2.6-1v4.3h-1.5V163h1.4l0.1,1
		c0.6-0.8,1.5-1.2,2.6-1.2c1.1,0,1.9,0.4,2.6,1.2c0.6,0.8,0.9,1.9,0.9,3.4V167.6z M787.5,167.4c0-1-0.2-1.8-0.6-2.4
		c-0.4-0.6-1-0.9-1.8-0.9c-0.9,0-1.6,0.4-2.1,1.2v4.3c0.5,0.8,1.2,1.2,2.1,1.2c0.7,0,1.3-0.3,1.8-0.9
		C787.3,169.4,787.5,168.6,787.5,167.4z"/>
	<path d="M796.5,171.1c-0.6,0.7-1.5,1.1-2.6,1.1c-1,0-1.7-0.3-2.2-0.8c-0.5-0.6-0.8-1.4-0.8-2.5V163h1.5v5.8c0,1.4,0.6,2,1.7,2
		c1.2,0,2-0.4,2.3-1.3V163h1.5v9h-1.5L796.5,171.1z"/>
	<path d="M805.6,169.6c0-0.4-0.2-0.7-0.5-1s-0.9-0.4-1.6-0.6s-1.4-0.4-1.9-0.6c-0.5-0.2-0.8-0.5-1-0.8c-0.2-0.3-0.3-0.7-0.3-1.1
		c0-0.7,0.3-1.4,0.9-1.9c0.6-0.5,1.4-0.8,2.4-0.8c1,0,1.8,0.3,2.5,0.8c0.6,0.5,1,1.2,1,2h-1.5c0-0.4-0.2-0.8-0.5-1.1
		c-0.4-0.3-0.8-0.5-1.3-0.5c-0.6,0-1,0.1-1.3,0.4s-0.5,0.6-0.5,1c0,0.4,0.1,0.7,0.4,0.8s0.8,0.4,1.6,0.5c0.8,0.2,1.4,0.4,1.9,0.6
		c0.5,0.2,0.8,0.5,1.1,0.9s0.3,0.7,0.3,1.2c0,0.8-0.3,1.4-1,1.9c-0.6,0.5-1.5,0.7-2.5,0.7c-0.7,0-1.4-0.1-1.9-0.4s-1-0.6-1.3-1.1
		c-0.3-0.5-0.5-1-0.5-1.5h1.5c0,0.5,0.2,0.9,0.6,1.2s0.9,0.5,1.5,0.5c0.6,0,1-0.1,1.4-0.4S805.6,170,805.6,169.6z"/>
	<path d="M810.6,164.1c0.7-0.8,1.6-1.3,2.7-1.3c1.9,0,2.9,1.1,2.9,3.2v5.9h-1.5V166c0-0.6-0.2-1.1-0.4-1.4c-0.3-0.3-0.7-0.5-1.4-0.5
		c-0.5,0-0.9,0.1-1.3,0.4c-0.4,0.3-0.7,0.6-0.9,1v6.4h-1.5v-12.8h1.5V164.1z"/>
</g>
<g class="st0">
	<path d="M673.1,192.5c-1.2,0-2.2-0.4-3-1.2s-1.1-1.9-1.1-3.2v-0.3c0-0.9,0.2-1.7,0.5-2.4c0.3-0.7,0.8-1.2,1.4-1.6
		c0.6-0.4,1.3-0.6,2-0.6c1.2,0,2.1,0.4,2.7,1.2c0.6,0.8,1,1.9,1,3.3v0.6h-6.1c0,0.9,0.3,1.6,0.8,2.1s1.1,0.8,1.9,0.8
		c0.5,0,1-0.1,1.4-0.3c0.4-0.2,0.7-0.5,1-0.9l0.9,0.7C675.7,192,674.6,192.5,673.1,192.5z M672.9,184.5c-0.6,0-1.1,0.2-1.6,0.7
		c-0.4,0.5-0.7,1.1-0.8,1.9h4.5v-0.1c0-0.8-0.3-1.4-0.6-1.8C674,184.7,673.5,184.5,672.9,184.5z"/>
	<path d="M683.9,192.4c-0.1-0.2-0.2-0.5-0.2-0.9c-0.7,0.7-1.6,1.1-2.6,1.1c-0.9,0-1.6-0.2-2.2-0.8c-0.6-0.5-0.9-1.1-0.9-1.9
		c0-0.9,0.4-1.7,1.1-2.2c0.7-0.5,1.7-0.8,3-0.8h1.5v-0.7c0-0.5-0.2-1-0.5-1.3c-0.3-0.3-0.8-0.5-1.4-0.5c-0.5,0-1,0.1-1.4,0.4
		c-0.4,0.3-0.6,0.6-0.6,1h-1.5c0-0.4,0.2-0.9,0.5-1.3s0.8-0.7,1.3-1s1.1-0.4,1.8-0.4c1,0,1.8,0.3,2.4,0.8c0.6,0.5,0.9,1.2,0.9,2.1
		v4.1c0,0.8,0.1,1.5,0.3,2v0.1H683.9z M681.4,191.2c0.5,0,0.9-0.1,1.4-0.4s0.7-0.6,0.9-1V188h-1.2c-1.9,0-2.8,0.5-2.8,1.7
		c0,0.5,0.2,0.9,0.5,1.1C680.4,191.1,680.8,191.2,681.4,191.2z"/>
	<path d="M691.2,191.3c0.5,0,1-0.2,1.4-0.5c0.4-0.3,0.6-0.7,0.7-1.2h1.5c0,0.5-0.2,1-0.5,1.5c-0.3,0.5-0.8,0.8-1.3,1.1
		s-1.1,0.4-1.7,0.4c-1.2,0-2.2-0.4-2.9-1.2c-0.7-0.8-1.1-1.9-1.1-3.3v-0.3c0-0.9,0.2-1.7,0.5-2.3c0.3-0.7,0.8-1.2,1.4-1.6
		s1.3-0.6,2.1-0.6c1,0,1.8,0.3,2.5,0.9c0.7,0.6,1,1.4,1.1,2.3h-1.5c0-0.6-0.3-1.1-0.7-1.4c-0.4-0.4-0.9-0.6-1.5-0.6
		c-0.8,0-1.4,0.3-1.8,0.8s-0.6,1.4-0.6,2.4v0.3c0,1,0.2,1.8,0.6,2.4C689.8,191,690.4,191.3,691.2,191.3z"/>
	<path d="M698,184.5c0.7-0.8,1.6-1.3,2.7-1.3c1.9,0,2.9,1.1,2.9,3.2v5.9H702v-5.9c0-0.6-0.2-1.1-0.4-1.4c-0.3-0.3-0.7-0.5-1.4-0.5
		c-0.5,0-0.9,0.1-1.3,0.4c-0.4,0.3-0.7,0.6-0.9,1v6.4h-1.5v-12.8h1.5V184.5z"/>
	<path d="M709.7,187.8c0-0.9,0.2-1.7,0.5-2.4c0.3-0.7,0.8-1.2,1.4-1.6c0.6-0.4,1.3-0.6,2.1-0.6c1.2,0,2.2,0.4,3,1.3
		c0.8,0.8,1.1,2,1.1,3.4v0.1c0,0.9-0.2,1.7-0.5,2.4s-0.8,1.2-1.4,1.6c-0.6,0.4-1.3,0.6-2.1,0.6c-1.2,0-2.2-0.4-3-1.3
		c-0.8-0.8-1.1-2-1.1-3.4V187.8z M711.2,188c0,1,0.2,1.8,0.7,2.4c0.5,0.6,1.1,0.9,1.9,0.9c0.8,0,1.4-0.3,1.9-0.9
		c0.5-0.6,0.7-1.5,0.7-2.6c0-1-0.2-1.8-0.7-2.4c-0.5-0.6-1.1-0.9-1.9-0.9c-0.8,0-1.4,0.3-1.8,0.9C711.4,186,711.2,186.9,711.2,188z"
		/>
	<path d="M721.9,181.2v2.2h1.7v1.2h-1.7v5.6c0,0.4,0.1,0.6,0.2,0.8s0.4,0.3,0.8,0.3c0.2,0,0.4,0,0.7-0.1v1.2
		c-0.4,0.1-0.8,0.2-1.2,0.2c-0.7,0-1.2-0.2-1.6-0.6c-0.3-0.4-0.5-1-0.5-1.8v-5.6h-1.6v-1.2h1.6v-2.2H721.9z"/>
	<path d="M726.9,184.5c0.7-0.8,1.6-1.3,2.7-1.3c1.9,0,2.9,1.1,2.9,3.2v5.9h-1.5v-5.9c0-0.6-0.2-1.1-0.4-1.4
		c-0.3-0.3-0.7-0.5-1.4-0.5c-0.5,0-0.9,0.1-1.3,0.4c-0.4,0.3-0.7,0.6-0.9,1v6.4h-1.5v-12.8h1.5V184.5z"/>
	<path d="M738.4,192.5c-1.2,0-2.2-0.4-3-1.2s-1.1-1.9-1.1-3.2v-0.3c0-0.9,0.2-1.7,0.5-2.4c0.3-0.7,0.8-1.2,1.4-1.6s1.3-0.6,2-0.6
		c1.2,0,2.1,0.4,2.7,1.2c0.6,0.8,1,1.9,1,3.3v0.6h-6.1c0,0.9,0.3,1.6,0.8,2.1c0.5,0.5,1.1,0.8,1.9,0.8c0.5,0,1-0.1,1.4-0.3
		c0.4-0.2,0.7-0.5,1-0.9l0.9,0.7C741,192,739.9,192.5,738.4,192.5z M738.2,184.5c-0.6,0-1.1,0.2-1.6,0.7c-0.4,0.5-0.7,1.1-0.8,1.9
		h4.5v-0.1c0-0.8-0.3-1.4-0.6-1.8C739.4,184.7,738.9,184.5,738.2,184.5z"/>
	<path d="M748,184.8c-0.2,0-0.5-0.1-0.8-0.1c-1,0-1.7,0.4-2,1.3v6.4h-1.5v-9h1.5l0,1c0.5-0.8,1.2-1.2,2.1-1.2c0.3,0,0.5,0,0.7,0.1
		V184.8z"/>
	<path d="M761.6,190.3l1.7-6.9h1.5l-2.6,9H761l-2.2-6.8l-2.1,6.8h-1.2l-2.6-9h1.5l1.8,6.7l2.1-6.7h1.2L761.6,190.3z"/>
	<path d="M766.4,181c0-0.2,0.1-0.5,0.2-0.6c0.2-0.2,0.4-0.3,0.7-0.3s0.5,0.1,0.7,0.3c0.2,0.2,0.2,0.4,0.2,0.6c0,0.2-0.1,0.5-0.2,0.6
		c-0.2,0.2-0.4,0.2-0.7,0.2s-0.5-0.1-0.7-0.2S766.4,181.3,766.4,181z M768.1,192.4h-1.5v-9h1.5V192.4z"/>
	<path d="M772.6,181.2v2.2h1.7v1.2h-1.7v5.6c0,0.4,0.1,0.6,0.2,0.8s0.4,0.3,0.8,0.3c0.2,0,0.4,0,0.7-0.1v1.2
		c-0.4,0.1-0.8,0.2-1.2,0.2c-0.7,0-1.2-0.2-1.6-0.6c-0.3-0.4-0.5-1-0.5-1.8v-5.6h-1.6v-1.2h1.6v-2.2H772.6z"/>
	<path d="M777.6,184.5c0.7-0.8,1.6-1.3,2.7-1.3c1.9,0,2.9,1.1,2.9,3.2v5.9h-1.5v-5.9c0-0.6-0.2-1.1-0.4-1.4
		c-0.3-0.3-0.7-0.5-1.4-0.5c-0.5,0-0.9,0.1-1.3,0.4c-0.4,0.3-0.7,0.6-0.9,1v6.4h-1.5v-12.8h1.5V184.5z"/>
	<path d="M794.9,190c0-0.4-0.2-0.7-0.5-1s-0.9-0.4-1.6-0.6s-1.4-0.4-1.9-0.6c-0.5-0.2-0.8-0.5-1-0.8c-0.2-0.3-0.3-0.7-0.3-1.1
		c0-0.7,0.3-1.4,0.9-1.9c0.6-0.5,1.4-0.8,2.4-0.8c1,0,1.8,0.3,2.5,0.8c0.6,0.5,1,1.2,1,2h-1.5c0-0.4-0.2-0.8-0.5-1.1
		c-0.4-0.3-0.8-0.5-1.3-0.5c-0.6,0-1,0.1-1.3,0.4s-0.5,0.6-0.5,1c0,0.4,0.1,0.7,0.4,0.8s0.8,0.4,1.6,0.5c0.8,0.2,1.4,0.4,1.9,0.6
		c0.5,0.2,0.8,0.5,1.1,0.9s0.3,0.7,0.3,1.2c0,0.8-0.3,1.4-1,1.9c-0.6,0.5-1.5,0.7-2.5,0.7c-0.7,0-1.4-0.1-1.9-0.4s-1-0.6-1.3-1.1
		c-0.3-0.5-0.5-1-0.5-1.5h1.5c0,0.5,0.2,0.9,0.6,1.2s0.9,0.5,1.5,0.5c0.6,0,1-0.1,1.4-0.4S794.9,190.4,794.9,190z"/>
	<path d="M798,187.8c0-0.9,0.2-1.7,0.5-2.4c0.3-0.7,0.8-1.2,1.4-1.6c0.6-0.4,1.3-0.6,2.1-0.6c1.2,0,2.2,0.4,3,1.3
		c0.8,0.8,1.1,2,1.1,3.4v0.1c0,0.9-0.2,1.7-0.5,2.4s-0.8,1.2-1.4,1.6c-0.6,0.4-1.3,0.6-2.1,0.6c-1.2,0-2.2-0.4-3-1.3
		c-0.8-0.8-1.1-2-1.1-3.4V187.8z M799.6,188c0,1,0.2,1.8,0.7,2.4s1.1,0.9,1.9,0.9c0.8,0,1.4-0.3,1.9-0.9s0.7-1.5,0.7-2.6
		c0-1-0.2-1.8-0.7-2.4s-1.1-0.9-1.9-0.9c-0.8,0-1.4,0.3-1.8,0.9C799.8,186,799.6,186.9,799.6,188z"/>
	<path d="M809.6,183.4l0,1c0.7-0.8,1.5-1.2,2.7-1.2c1.3,0,2.1,0.5,2.6,1.4c0.3-0.4,0.7-0.8,1.2-1s1-0.4,1.7-0.4c2,0,3,1,3,3.1v6
		h-1.5v-5.9c0-0.6-0.1-1.1-0.4-1.4s-0.8-0.5-1.5-0.5c-0.6,0-1,0.2-1.4,0.5c-0.4,0.3-0.6,0.8-0.7,1.4v6h-1.5v-5.9c0-1.3-0.6-2-1.9-2
		c-1,0-1.7,0.4-2.1,1.3v6.6h-1.5v-9H809.6z"/>
	<path d="M826.8,192.5c-1.2,0-2.2-0.4-3-1.2s-1.1-1.9-1.1-3.2v-0.3c0-0.9,0.2-1.7,0.5-2.4c0.3-0.7,0.8-1.2,1.4-1.6s1.3-0.6,2-0.6
		c1.2,0,2.1,0.4,2.7,1.2c0.6,0.8,1,1.9,1,3.3v0.6h-6.1c0,0.9,0.3,1.6,0.8,2.1s1.1,0.8,1.9,0.8c0.5,0,1-0.1,1.4-0.3
		c0.4-0.2,0.7-0.5,1-0.9l0.9,0.7C829.4,192,828.3,192.5,826.8,192.5z M826.6,184.5c-0.6,0-1.1,0.2-1.6,0.7s-0.7,1.1-0.8,1.9h4.5
		v-0.1c0-0.8-0.3-1.4-0.6-1.8S827.2,184.5,826.6,184.5z"/>
</g>
<g class="st0">
	<path d="M685.4,212.8c-0.1-0.2-0.2-0.5-0.2-0.9c-0.7,0.7-1.6,1.1-2.6,1.1c-0.9,0-1.6-0.2-2.2-0.8s-0.9-1.1-0.9-1.9
		c0-0.9,0.4-1.7,1.1-2.2s1.7-0.8,3-0.8h1.5v-0.7c0-0.5-0.2-1-0.5-1.3c-0.3-0.3-0.8-0.5-1.4-0.5c-0.5,0-1,0.1-1.4,0.4
		c-0.4,0.3-0.6,0.6-0.6,1h-1.5c0-0.4,0.2-0.9,0.5-1.3c0.3-0.4,0.8-0.7,1.3-1c0.5-0.2,1.1-0.4,1.8-0.4c1,0,1.8,0.3,2.4,0.8
		c0.6,0.5,0.9,1.2,0.9,2.1v4.1c0,0.8,0.1,1.5,0.3,2v0.1H685.4z M682.8,211.6c0.5,0,0.9-0.1,1.4-0.4s0.7-0.6,0.9-1v-1.8h-1.2
		c-1.9,0-2.8,0.5-2.8,1.7c0,0.5,0.2,0.9,0.5,1.1C681.9,211.5,682.3,211.6,682.8,211.6z"/>
	<path d="M688.7,208.2c0-1.4,0.3-2.5,1-3.3c0.7-0.8,1.5-1.3,2.6-1.3c1.1,0,1.9,0.4,2.5,1.1V200h1.5v12.8h-1.4l-0.1-1
		c-0.6,0.8-1.5,1.1-2.6,1.1c-1,0-1.9-0.4-2.5-1.3c-0.7-0.9-1-2-1-3.3V208.2z M690.3,208.4c0,1,0.2,1.8,0.6,2.4
		c0.4,0.6,1,0.9,1.7,0.9c1,0,1.7-0.4,2.1-1.3v-4.1c-0.5-0.8-1.2-1.3-2.1-1.3c-0.8,0-1.3,0.3-1.8,0.9
		C690.5,206.4,690.3,207.2,690.3,208.4z"/>
	<path d="M698.3,208.2c0-1.4,0.3-2.5,1-3.3c0.7-0.8,1.5-1.3,2.6-1.3c1.1,0,1.9,0.4,2.5,1.1V200h1.5v12.8h-1.4l-0.1-1
		c-0.6,0.8-1.5,1.1-2.6,1.1c-1,0-1.9-0.4-2.5-1.3c-0.7-0.9-1-2-1-3.3V208.2z M699.8,208.4c0,1,0.2,1.8,0.6,2.4
		c0.4,0.6,1,0.9,1.7,0.9c1,0,1.7-0.4,2.1-1.3v-4.1c-0.5-0.8-1.2-1.3-2.1-1.3c-0.8,0-1.3,0.3-1.8,0.9
		C700.1,206.4,699.8,207.2,699.8,208.4z"/>
	<path d="M712,212.9c-1.2,0-2.2-0.4-3-1.2s-1.1-1.9-1.1-3.2v-0.3c0-0.9,0.2-1.7,0.5-2.4c0.3-0.7,0.8-1.2,1.4-1.6
		c0.6-0.4,1.3-0.6,2-0.6c1.2,0,2.1,0.4,2.7,1.2c0.6,0.8,1,1.9,1,3.3v0.6h-6.1c0,0.9,0.3,1.6,0.8,2.1s1.1,0.8,1.9,0.8
		c0.5,0,1-0.1,1.4-0.3c0.4-0.2,0.7-0.5,1-0.9l0.9,0.7C714.6,212.4,713.5,212.9,712,212.9z M711.8,204.9c-0.6,0-1.1,0.2-1.6,0.7
		c-0.4,0.5-0.7,1.1-0.8,1.9h4.5v-0.1c0-0.8-0.3-1.4-0.6-1.8C713,205.1,712.4,204.9,711.8,204.9z"/>
	<path d="M716.9,208.2c0-1.4,0.3-2.5,1-3.3c0.7-0.8,1.5-1.3,2.6-1.3c1.1,0,1.9,0.4,2.5,1.1V200h1.5v12.8h-1.4l-0.1-1
		c-0.6,0.8-1.5,1.1-2.6,1.1c-1,0-1.9-0.4-2.5-1.3c-0.7-0.9-1-2-1-3.3V208.2z M718.4,208.4c0,1,0.2,1.8,0.6,2.4
		c0.4,0.6,1,0.9,1.7,0.9c1,0,1.7-0.4,2.1-1.3v-4.1c-0.5-0.8-1.2-1.3-2.1-1.3c-0.8,0-1.3,0.3-1.8,0.9
		C718.6,206.4,718.4,207.2,718.4,208.4z"/>
	<path d="M734.7,211.7c0.5,0,1-0.2,1.4-0.5c0.4-0.3,0.6-0.7,0.7-1.2h1.5c0,0.5-0.2,1-0.5,1.5c-0.3,0.5-0.8,0.8-1.3,1.1
		s-1.1,0.4-1.7,0.4c-1.2,0-2.2-0.4-2.9-1.2c-0.7-0.8-1.1-1.9-1.1-3.3v-0.3c0-0.9,0.2-1.7,0.5-2.3c0.3-0.7,0.8-1.2,1.4-1.6
		s1.3-0.6,2.1-0.6c1,0,1.8,0.3,2.5,0.9c0.7,0.6,1,1.4,1.1,2.3h-1.5c0-0.6-0.3-1.1-0.7-1.4c-0.4-0.4-0.9-0.6-1.5-0.6
		c-0.8,0-1.4,0.3-1.8,0.8s-0.6,1.4-0.6,2.4v0.3c0,1,0.2,1.8,0.6,2.4C733.3,211.4,733.9,211.7,734.7,211.7z"/>
	<path d="M739.6,208.2c0-0.9,0.2-1.7,0.5-2.4c0.3-0.7,0.8-1.2,1.4-1.6c0.6-0.4,1.3-0.6,2.1-0.6c1.2,0,2.2,0.4,3,1.3
		c0.8,0.8,1.1,2,1.1,3.4v0.1c0,0.9-0.2,1.7-0.5,2.4c-0.3,0.7-0.8,1.2-1.4,1.6c-0.6,0.4-1.3,0.6-2.1,0.6c-1.2,0-2.2-0.4-3-1.3
		c-0.8-0.8-1.1-2-1.1-3.4V208.2z M741.1,208.4c0,1,0.2,1.8,0.7,2.4s1.1,0.9,1.9,0.9c0.8,0,1.4-0.3,1.9-0.9c0.5-0.6,0.7-1.5,0.7-2.6
		c0-1-0.2-1.8-0.7-2.4s-1.1-0.9-1.9-0.9c-0.8,0-1.4,0.3-1.8,0.9C741.3,206.4,741.1,207.3,741.1,208.4z"/>
	<path d="M751.1,203.8l0,1c0.7-0.8,1.5-1.2,2.7-1.2c1.3,0,2.1,0.5,2.6,1.4c0.3-0.4,0.7-0.8,1.2-1c0.5-0.3,1-0.4,1.7-0.4
		c2,0,3,1,3,3.1v6h-1.5v-5.9c0-0.6-0.1-1.1-0.4-1.4c-0.3-0.3-0.8-0.5-1.5-0.5c-0.6,0-1,0.2-1.4,0.5c-0.4,0.3-0.6,0.8-0.7,1.4v6h-1.5
		v-5.9c0-1.3-0.6-2-1.9-2c-1,0-1.7,0.4-2.1,1.3v6.6h-1.5v-9H751.1z"/>
	<path d="M772.2,208.4c0,1.4-0.3,2.5-0.9,3.3c-0.6,0.8-1.5,1.3-2.5,1.3c-1.1,0-1.9-0.3-2.6-1v4.3h-1.5v-12.4h1.4l0.1,1
		c0.6-0.8,1.5-1.2,2.6-1.2c1.1,0,1.9,0.4,2.6,1.2c0.6,0.8,0.9,1.9,0.9,3.4V208.4z M770.6,208.2c0-1-0.2-1.8-0.6-2.4
		c-0.4-0.6-1-0.9-1.8-0.9c-0.9,0-1.6,0.4-2.1,1.2v4.3c0.5,0.8,1.2,1.2,2.1,1.2c0.7,0,1.3-0.3,1.8-0.9
		C770.4,210.2,770.6,209.4,770.6,208.2z"/>
	<path d="M777.8,212.9c-1.2,0-2.2-0.4-3-1.2s-1.1-1.9-1.1-3.2v-0.3c0-0.9,0.2-1.7,0.5-2.4c0.3-0.7,0.8-1.2,1.4-1.6s1.3-0.6,2-0.6
		c1.2,0,2.1,0.4,2.7,1.2c0.6,0.8,1,1.9,1,3.3v0.6h-6.1c0,0.9,0.3,1.6,0.8,2.1c0.5,0.5,1.1,0.8,1.9,0.8c0.5,0,1-0.1,1.4-0.3
		c0.4-0.2,0.7-0.5,1-0.9l0.9,0.7C780.5,212.4,779.3,212.9,777.8,212.9z M777.6,204.9c-0.6,0-1.1,0.2-1.6,0.7
		c-0.4,0.5-0.7,1.1-0.8,1.9h4.5v-0.1c0-0.8-0.3-1.4-0.6-1.8C778.8,205.1,778.3,204.9,777.6,204.9z"/>
	<path d="M785.2,201.6v2.2h1.7v1.2h-1.7v5.6c0,0.4,0.1,0.6,0.2,0.8s0.4,0.3,0.8,0.3c0.2,0,0.4,0,0.7-0.1v1.2
		c-0.4,0.1-0.8,0.2-1.2,0.2c-0.7,0-1.2-0.2-1.6-0.6c-0.3-0.4-0.5-1-0.5-1.8V205H782v-1.2h1.6v-2.2H785.2z"/>
	<path d="M788.7,201.4c0-0.2,0.1-0.5,0.2-0.6c0.2-0.2,0.4-0.3,0.7-0.3s0.5,0.1,0.7,0.3c0.2,0.2,0.2,0.4,0.2,0.6
		c0,0.2-0.1,0.5-0.2,0.6s-0.4,0.2-0.7,0.2s-0.5-0.1-0.7-0.2S788.7,201.7,788.7,201.4z M790.3,212.8h-1.5v-9h1.5V212.8z"/>
	<path d="M794.9,201.6v2.2h1.7v1.2h-1.7v5.6c0,0.4,0.1,0.6,0.2,0.8s0.4,0.3,0.8,0.3c0.2,0,0.4,0,0.7-0.1v1.2
		c-0.4,0.1-0.8,0.2-1.2,0.2c-0.7,0-1.2-0.2-1.6-0.6c-0.3-0.4-0.5-1-0.5-1.8V205h-1.6v-1.2h1.6v-2.2H794.9z"/>
	<path d="M798.3,201.4c0-0.2,0.1-0.5,0.2-0.6c0.2-0.2,0.4-0.3,0.7-0.3s0.5,0.1,0.7,0.3c0.2,0.2,0.2,0.4,0.2,0.6
		c0,0.2-0.1,0.5-0.2,0.6s-0.4,0.2-0.7,0.2s-0.5-0.1-0.7-0.2S798.3,201.7,798.3,201.4z M800,212.8h-1.5v-9h1.5V212.8z"/>
	<path d="M802.1,208.2c0-0.9,0.2-1.7,0.5-2.4c0.3-0.7,0.8-1.2,1.4-1.6c0.6-0.4,1.3-0.6,2.1-0.6c1.2,0,2.2,0.4,3,1.3
		c0.8,0.8,1.1,2,1.1,3.4v0.1c0,0.9-0.2,1.7-0.5,2.4s-0.8,1.2-1.4,1.6c-0.6,0.4-1.3,0.6-2.1,0.6c-1.2,0-2.2-0.4-3-1.3
		c-0.8-0.8-1.1-2-1.1-3.4V208.2z M803.6,208.4c0,1,0.2,1.8,0.7,2.4s1.1,0.9,1.9,0.9c0.8,0,1.4-0.3,1.9-0.9s0.7-1.5,0.7-2.6
		c0-1-0.2-1.8-0.7-2.4s-1.1-0.9-1.9-0.9c-0.8,0-1.4,0.3-1.8,0.9C803.8,206.4,803.6,207.3,803.6,208.4z"/>
	<path d="M813.6,203.8l0,1.1c0.7-0.9,1.6-1.3,2.7-1.3c1.9,0,2.9,1.1,2.9,3.2v5.9h-1.5v-5.9c0-0.6-0.2-1.1-0.4-1.4
		c-0.3-0.3-0.7-0.5-1.4-0.5c-0.5,0-0.9,0.1-1.3,0.4c-0.4,0.3-0.7,0.6-0.9,1v6.4h-1.5v-9H813.6z"/>
</g>
<g class="st0">
	<path d="M720.2,233.2v-7.8h-1.4v-1.2h1.4v-0.9c0-1,0.3-1.7,0.8-2.2s1.2-0.8,2.2-0.8c0.4,0,0.7,0,1.1,0.1l-0.1,1.2
		c-0.3,0-0.5-0.1-0.8-0.1c-0.5,0-0.9,0.1-1.2,0.4c-0.3,0.3-0.4,0.7-0.4,1.3v0.9h1.9v1.2h-1.9v7.8H720.2z"/>
	<path d="M728.9,233.3c-1.2,0-2.2-0.4-3-1.2s-1.1-1.9-1.1-3.2v-0.3c0-0.9,0.2-1.7,0.5-2.4c0.3-0.7,0.8-1.2,1.4-1.6
		c0.6-0.4,1.3-0.6,2-0.6c1.2,0,2.1,0.4,2.7,1.2c0.6,0.8,1,1.9,1,3.3v0.6h-6.1c0,0.9,0.3,1.6,0.8,2.1s1.1,0.8,1.9,0.8
		c0.5,0,1-0.1,1.4-0.3c0.4-0.2,0.7-0.5,1-0.9l0.9,0.7C731.5,232.8,730.4,233.3,728.9,233.3z M728.7,225.3c-0.6,0-1.1,0.2-1.6,0.7
		c-0.4,0.5-0.7,1.1-0.8,1.9h4.5v-0.1c0-0.8-0.3-1.4-0.6-1.8C729.8,225.5,729.3,225.3,728.7,225.3z"/>
	<path d="M739.7,233.2c-0.1-0.2-0.2-0.5-0.2-0.9c-0.7,0.7-1.6,1.1-2.6,1.1c-0.9,0-1.6-0.2-2.2-0.8c-0.6-0.5-0.9-1.1-0.9-1.9
		c0-0.9,0.4-1.7,1.1-2.2c0.7-0.5,1.7-0.8,3-0.8h1.5V227c0-0.5-0.2-1-0.5-1.3c-0.3-0.3-0.8-0.5-1.4-0.5c-0.5,0-1,0.1-1.4,0.4
		c-0.4,0.3-0.6,0.6-0.6,1h-1.5c0-0.4,0.2-0.9,0.5-1.3s0.8-0.7,1.3-1s1.1-0.4,1.8-0.4c1,0,1.8,0.3,2.4,0.8c0.6,0.5,0.9,1.2,0.9,2.1
		v4.1c0,0.8,0.1,1.5,0.3,2v0.1H739.7z M737.2,232c0.5,0,0.9-0.1,1.4-0.4s0.7-0.6,0.9-1v-1.8h-1.2c-1.9,0-2.8,0.5-2.8,1.7
		c0,0.5,0.2,0.9,0.5,1.1C736.2,231.9,736.7,232,737.2,232z"/>
	<path d="M745.5,222v2.2h1.7v1.2h-1.7v5.6c0,0.4,0.1,0.6,0.2,0.8s0.4,0.3,0.8,0.3c0.2,0,0.4,0,0.7-0.1v1.2c-0.4,0.1-0.8,0.2-1.2,0.2
		c-0.7,0-1.2-0.2-1.6-0.6c-0.3-0.4-0.5-1-0.5-1.8v-5.6h-1.6v-1.2h1.6V222H745.5z"/>
	<path d="M754.5,232.3c-0.6,0.7-1.5,1.1-2.6,1.1c-1,0-1.7-0.3-2.2-0.8c-0.5-0.6-0.8-1.4-0.8-2.5v-5.8h1.5v5.8c0,1.4,0.6,2,1.7,2
		c1.2,0,2-0.4,2.3-1.3v-6.5h1.5v9h-1.5L754.5,232.3z"/>
	<path d="M762.7,225.6c-0.2,0-0.5-0.1-0.8-0.1c-1,0-1.7,0.4-2.1,1.3v6.4h-1.5v-9h1.5l0,1c0.5-0.8,1.2-1.2,2.1-1.2
		c0.3,0,0.5,0,0.7,0.1V225.6z"/>
	<path d="M767.7,233.3c-1.2,0-2.2-0.4-3-1.2s-1.1-1.9-1.1-3.2v-0.3c0-0.9,0.2-1.7,0.5-2.4c0.3-0.7,0.8-1.2,1.4-1.6s1.3-0.6,2-0.6
		c1.2,0,2.1,0.4,2.7,1.2c0.6,0.8,1,1.9,1,3.3v0.6h-6.1c0,0.9,0.3,1.6,0.8,2.1c0.5,0.5,1.1,0.8,1.9,0.8c0.5,0,1-0.1,1.4-0.3
		c0.4-0.2,0.7-0.5,1-0.9l0.9,0.7C770.3,232.8,769.2,233.3,767.7,233.3z M767.5,225.3c-0.6,0-1.1,0.2-1.6,0.7
		c-0.4,0.5-0.7,1.1-0.8,1.9h4.5v-0.1c0-0.8-0.3-1.4-0.6-1.8C768.6,225.5,768.1,225.3,767.5,225.3z"/>
	<path d="M778.2,230.8c0-0.4-0.2-0.7-0.5-1s-0.9-0.4-1.6-0.6c-0.8-0.2-1.4-0.4-1.9-0.6c-0.5-0.2-0.8-0.5-1-0.8
		c-0.2-0.3-0.3-0.7-0.3-1.1c0-0.7,0.3-1.4,0.9-1.9c0.6-0.5,1.4-0.8,2.4-0.8c1,0,1.8,0.3,2.5,0.8c0.6,0.5,1,1.2,1,2h-1.5
		c0-0.4-0.2-0.8-0.5-1.1c-0.4-0.3-0.8-0.5-1.3-0.5c-0.6,0-1,0.1-1.3,0.4s-0.5,0.6-0.5,1c0,0.4,0.1,0.7,0.4,0.8
		c0.3,0.2,0.8,0.4,1.6,0.5c0.8,0.2,1.4,0.4,1.9,0.6c0.5,0.2,0.8,0.5,1.1,0.9s0.3,0.7,0.3,1.2c0,0.8-0.3,1.4-1,1.9
		c-0.6,0.5-1.5,0.7-2.5,0.7c-0.7,0-1.4-0.1-1.9-0.4c-0.6-0.3-1-0.6-1.3-1.1c-0.3-0.5-0.5-1-0.5-1.5h1.5c0,0.5,0.2,0.9,0.6,1.2
		c0.4,0.3,0.9,0.5,1.5,0.5c0.6,0,1-0.1,1.4-0.4C778,231.5,778.2,231.2,778.2,230.8z"/>
</g>
<g>
	<path class="st3" d="M42.9,35.9c6.4,0,11.7-5.2,11.7-11.7c0-6.4-5.2-11.7-11.7-11.7c-6.4,0-11.7,5.2-11.7,11.7
		C31.3,30.7,36.5,35.9,42.9,35.9z"/>
	<path class="st3" d="M69.6,23.3c-1.3,0-2.5,0.5-3.4,1.3l-4.5,4.3c-0.9,0.8-2.6,2.2-3.6,2.9L49,38H35.5c-2.3,0-3.5,0.7-4.4,1.9
		l-5.9,7.4c-1,1.2-2.5,3.2-3.4,4.4l-4,5.5c-0.8,1.1-1.1,2.4-0.9,3.7s0.9,2.5,2,3.2c0.9,0.6,1.9,1,2.9,1c1.6,0,3.1-0.8,4-2l4-5.5
		c0,0,0-0.1,0.1-0.1L29.1,67l-6.9,33c-0.3,1.4,0,2.8,0.7,3.9c0.8,1.2,1.9,2,3.3,2.3c0.4,0.1,0.7,0.1,1.1,0.1c2.4,0,4.6-1.7,5.1-4.1
		l6.5-30.9h1.7l0.9,10.4c0.1,1.3,0.2,3.4,0.1,4.7l-0.5,14.5c-0.1,1.4,0.4,2.7,1.4,3.7c0.9,1,2.2,1.6,3.6,1.7c0.1,0,0.1,0,0.2,0
		c2.8,0,5.1-2.2,5.2-5L52,86.8c0.1-1.7,0-4.3-0.2-6L50.3,65v-0.1L51.8,48l12-8.1c1.4-1,3.5-2.7,4.8-3.8l4.5-4.3c2-1.9,2.1-5,0.2-7
		C72.3,23.9,71,23.3,69.6,23.3z"/>
	<path class="st3" d="M105.8,32.3c6.4,0,11.7-5.2,11.7-11.7c0-6.4-5.2-11.7-11.7-11.7c-6.4,0-11.7,5.2-11.7,11.7
		S99.4,32.3,105.8,32.3z"/>
	<path class="st3" d="M123.6,59.3c0.9,1.3,2.4,2,4,2c1.1,0,2.1-0.3,2.9-1c1.1-0.8,1.8-1.9,2-3.2s-0.1-2.6-0.9-3.7l-4-5.5
		c-0.9-1.2-2.4-3.2-3.4-4.4l-5.9-7.4c-0.9-1.2-2-1.9-3.9-1.9H99.7L90.6,28c-1.1-0.7-2.5-1.9-3-2.4l-1.4-1.3
		c-0.9-0.9-2.1-1.3-3.4-1.3c-1.4,0-2.7,0.6-3.6,1.6s-1.4,2.2-1.3,3.5c0,1.3,0.6,2.5,1.6,3.5l1.4,1.3c1,0.9,2.8,2.4,4.3,3.3l12,8.1
		l1.5,16.9v0.1L97.1,77c-0.2,2.3,0.3,5.5,1.1,7.6l4.1,10.1c0.8,2,2.7,3.2,4.8,3.2c0.7,0,1.3-0.1,2-0.4c1.3-0.5,2.3-1.5,2.8-2.8
		s0.5-2.7,0-4l-4.1-10.1c-0.2-0.6-0.5-2.1-0.4-2.7l0.9-10.4h1.7l2.5,11.7c0.5,2.2,1.8,4,3.7,5.1c1.1,0.6,2.3,0.9,3.6,0.9
		c0.9,0,1.8-0.2,2.7-0.5l5.5-2c2.7-1,4.1-4,3.1-6.7c-0.7-2-2.7-3.4-4.9-3.4c-0.6,0-1.2,0.1-1.8,0.3l-2.3,0.9l-2.2-10.6L119,53
		c0.2,0.3,0.5,0.6,0.6,0.9L123.6,59.3z"/>
	<path class="st3" d="M80.5,15.8c0.1,0,0.3,0.1,0.4,0.1c0.8,0,1.4-0.5,1.6-1.3c0.5-2.1,1.9-5.4,3.1-5.9c0.8-0.4,1.2-1.4,0.8-2.2
		C86,5.6,85,5.2,84.2,5.6c-3.1,1.4-4.6,7.1-4.9,8.2C79,14.7,79.6,15.6,80.5,15.8z"/>
	<path class="st3" d="M72.7,11.4c-0.8-0.4-1.9,0-2.2,0.8c-0.4,0.8,0,1.9,0.8,2.2c1.1,0.5,2.5,3.8,3.1,5.9c0.2,0.8,0.9,1.3,1.6,1.3
		c0.1,0,0.3,0,0.4-0.1c0.9-0.2,1.5-1.2,1.2-2.1C77.3,18.4,75.7,12.8,72.7,11.4z"/>
</g>
<g>
	<g>
		<path class="st4" d="M258.6,5.5c-1.4,0.1-2.4,1.3-2.3,2.7v9.2h-11.8v10.5h84.2V17.3h-11.8V8.1c0-0.8-0.3-1.5-0.9-2
			s-1.3-0.8-2.1-0.7c-1.4,0.1-2.4,1.3-2.3,2.7v9.2h-50V8.1c0-0.8-0.3-1.5-0.9-2C260.1,5.6,259.3,5.4,258.6,5.5z M244.4,33.1v46h60.8
			c0.5-3.3,1.5-6.4,3-9.2h-2V59.4h12.2c3.1-1.8,6.5-3.1,10.2-3.7V33.1H244.4z M253.6,39.7h13.2v10.5h-13.2L253.6,39.7L253.6,39.7z
			 M279.9,39.7h13.2v10.5h-13.2V39.7z M306.2,39.7h13.2v10.5h-13.2V39.7z M253.6,59.4h13.2V70h-13.2L253.6,59.4L253.6,59.4z
			 M279.9,59.4h13.2V70h-13.2V59.4z M332.5,60.8c-12.4,0-22.4,10-22.4,22.4s10,22.4,22.4,22.4s22.4-10,22.4-22.4
			S344.9,60.8,332.5,60.8z M330.9,68.6c0.8-0.1,1.5,0.2,2.1,0.7s0.9,1.2,0.9,2v11.6l7.9,4.5c1.3,0.7,1.7,2.3,1,3.6
			c-0.7,1.3-2.3,1.7-3.6,1l-9.2-5.3c-0.8-0.5-1.3-1.3-1.3-2.3V71.3C328.6,69.9,329.6,68.8,330.9,68.6z"/>
	</g>
</g>
<g>
	<g transform="translate(20 20)">
		<path class="st3" d="M775.9-4.9h-16.6v-7.3c0-1.3-1-2.3-2.3-2.3h-57.1c-1.3,0-2.3,1-2.3,2.3v7h-15.3c-1.3,0-2.3,1-2.3,2.3
			c0,14.9,8.3,37.5,19.9,37.5h0.3c3.3,7,9,12.3,16.3,15.3v11.6h-7c-1.3,0-2.3,1-2.3,2.3v7H750v-7c0-1.3-1-2.3-2.3-2.3h-7V49.9
			c7.3-3,13.3-8.3,16.3-15.3c0.3,0,0.7,0.3,1,0.3c11.6,0,20.6-22.6,20.6-37.5C778.2-3.9,777.2-4.9,775.9-4.9L775.9-4.9z M684.9-0.3
			h12.6c0,0,0.3,27.6,1,30.2C691.9,27.9,685.6,12.3,684.9-0.3L684.9-0.3z M747.7,11l-7.6,7.6l1.7,10c0,0.3,0.3,0.7,0.3,1
			c0,1.3-1,2.3-2.3,2.3c-0.3,0-0.7,0-1-0.3l-9.6-5l-10,5.3c-0.3,0.3-0.7,0.3-1,0.3s-1,0-1.3-0.3c-0.7-0.7-1-1.3-1-2.3l1.7-10.6
			l-8-7.6c-0.3-0.7-0.7-1.7-0.3-2.7s1-1.3,2-1.7l10.6-1.7l4.6-9.6c0.3-0.7,1-1.3,2-1.3s1.7,0.7,2,1.3l5.3,9.6L746.3,7
			c1,0,1.7,0.7,2,1.7C748.7,9.4,748.3,10.3,747.7,11L747.7,11z M758,29.9c0.7-2.3,1-30.2,1-30.2h14.3
			C772.6,13.3,764.6,28.9,758,29.9L758,29.9z M757,75.4h-2.3H750h-42.8h-5h-2.3c-1.3,0-2.3,1-2.3,2.3v4.6c0,1.3,1,2.3,2.3,2.3h56.8
			c1.3,0,2.3-1,2.3-2.3v-4.6C759.3,76.8,758,75.4,757,75.4L757,75.4z"/>
	</g>
</g>
<g>
	<g>
		<path class="st4" d="M586.1,46.7L553.3,6.6c-1.2-1.2-2.9-1.6-4.1-0.4l-9.8,7.4c-0.8,0.4-1.2,1.2-1.2,2c0,0.8,0,1.6,0.8,2.5
			l0.8,1.2l-19.7,13.9l-13.9-7.4l0.8-1.2c0.4-0.8,0.4-1.6,0.4-2.5c-0.4-0.8-0.8-1.6-1.6-2l-11.5-5.3c-1.6-0.8-3.3,0-4.1,1.2
			l-25.8,45.1c-0.4,0.4-0.4,1.2-0.4,2c0.4,0.8,0.8,1.6,1.6,2l11.1,5.7c0.4,0.4,0.8,0.4,1.2,0.4c0.8,0,1.6-0.4,2.5-1.2
			c0.8,2,2,3.7,3.7,5.3c-0.4,0.4-1.6,2.9-1.2,5.3c0.4,1.6,1.2,3.7,4.1,5.3c2,1.2,4.1,2,5.7,2c0.4,2.5,1.6,4.9,4.9,6.6
			c2.5,1.6,4.5,2,6.6,2.5c0.8,2,2.5,4.5,5.3,6.6c2.5,1.6,4.9,2.5,7,2.5c0.8,0,1.6,0,2.5-0.4c2-0.8,3.3-2.5,3.7-3.3l2-3.7l7.4,3.7
			c1.2,0.8,2.9,0.8,4.1,0.8c0.8,0,2,0,2.9-0.4c2.5-0.8,4.1-2.5,5.3-4.5s1.2-4.5,0.8-6.6c2-0.8,4.1-2.5,4.9-4.5
			c1.2-2,1.2-4.5,0.8-6.6c2-0.8,4.1-2.5,4.9-4.5c1.2-2,1.2-4.5,0.8-6.6c2-0.8,4.1-2.5,4.9-4.5c0-0.4,0-0.4,0.4-0.8
			c1.6-0.4,5.7-2,8.6-7.4l1.2,1.2c0.4,0.8,1.6,1.2,2.5,1.2c0.8,0,1.2,0,1.6-0.4l9.8-7.4c0.8-0.4,1.2-1.2,1.2-2
			C586.9,48.4,586.9,47.6,586.1,46.7L586.1,46.7z M497.6,76.6l-2.9,5.3c0,0,0,0.4-0.4,0.4l0,0c-0.4,0-1.2,0-3.7-1.6
			c-0.8-0.4-1.2-0.8-1.2-1.2c0-0.4,0-0.8,0.4-1.2l2.9-4.9c0,0,0.4-0.4,0.8-0.4c0.8,0,1.6,0.4,2.5,0.8
			C497.2,75,497.6,76.2,497.6,76.6L497.6,76.6z M477.1,63.9l-5.3-2.9l22.9-39.3l5.3,2.9L477.1,63.9L477.1,63.9z M505.8,89.7
			c-0.4,0.4-0.4,0.8-0.8,1.2l0,0c0,0-1.2,0-3.7-1.2c-2-1.2-2-2.9-2-3.7c0.4-0.4,0.8-1.2,0.8-1.6l2.9-4.9c0.4-0.8,0.8-1.6,0.8-2.5
			l0.4-0.4c0.4-0.4,2.9,0.4,4.9,1.6c1.2,0.8,1.6,1.6,2,2.9L505.8,89.7L505.8,89.7z M517.7,98.8c-0.4,0.4-0.4,0.8-0.8,1.2
			c0,0-1.2,0.4-3.7-1.2c-2-1.2-2.5-2.9-2.9-3.7c0.4-0.4,0.4-0.8,0.4-0.8l5.3-8.6c0.8,0,2.9,0.8,4.9,2c1.2,0.8,1.6,1.6,2,2.9
			L517.7,98.8L517.7,98.8z M561.5,57.4c-0.8-2-2.5-4.1-4.5-4.9l-24.6-10.7c-0.8-0.4-2-0.4-2.9,0.4l-13.5,9c-0.4,0.4-1.2,0.4-2,0.4
			s-1.6-0.4-2-1.2c-0.8-1.2-0.8-3.3,0.8-4.5l31.1-22.1L566,51.2C564.8,54.9,563.2,56.6,561.5,57.4L561.5,57.4z M574.2,51.7
			l-28.7-35.2l4.9-3.7L579.1,48L574.2,51.7L574.2,51.7z"/>
	</g>
</g>
</svg>
