<?xml version="1.0" encoding="utf-8"?>
<!-- Generator: Adobe Illustrator 24.0.0, SVG Export Plug-In . SVG Version: 6.00 Build 0)  -->
<svg version="1.1" id="Layer_1" xmlns="http://www.w3.org/2000/svg" xmlns:xlink="http://www.w3.org/1999/xlink" x="0px" y="0px"
	 viewBox="0 0 838.3 241.1" style="enable-background:new 0 0 838.3 241.1;" xml:space="preserve">
<style type="text/css">
	.st0{fill:#231F20;}
	.st1{font-family:'Roboto-Bold';}
	.st2{font-size:24px;}
	.st3{fill:none;}
	.st4{font-family:'Roboto-Regular';}
	.st5{font-size:17px;}
	.st6{fill:#0231CE;}
	.st7{fill-rule:evenodd;clip-rule:evenodd;fill:#0231CE;}
</style>
<text transform="matrix(1 0 0 1 11.5363 143.6807)" class="st0 st1 st2">PARTNERS</text>
<rect x="4.7" y="159.2" class="st3" width="140.3" height="79.8"/>
<text transform="matrix(1 0 0 1 7.7624 171.977)"><tspan x="0" y="0" class="st4 st5">Provide the ability </tspan><tspan x="16.9" y="20.4" class="st4 st5">to coordinate </tspan><tspan x="7.3" y="40.8" class="st4 st5">workouts with a </tspan><tspan x="40" y="61.2" class="st4 st5">partner</tspan></text>
<text transform="matrix(1 0 0 1 224.1399 143.6807)" class="st0 st1 st2">SCHEDULING</text>
<rect x="215.7" y="159.2" class="st3" width="168" height="110.4"/>
<text transform="matrix(1 0 0 1 224.9925 171.977)"><tspan x="0" y="0" class="st4 st5">Create a scheduling </tspan><tspan x="-1.6" y="20.4" class="st4 st5">feature that helps fit </tspan><tspan x="-3.6" y="40.8" class="st4 st5">workouts into a busy </tspan><tspan x="45.4" y="61.2" class="st4 st5">lifestyle</tspan></text>
<text transform="matrix(1 0 0 1 421.2993 143.6807)" class="st0 st1 st2">ACCOUNTABILITY</text>
<rect x="441.2" y="159.2" class="st3" width="168" height="79.8"/>
<text transform="matrix(1 0 0 1 448.5048 171.977)"><tspan x="0" y="0" class="st4 st5">Add in a feature that </tspan><tspan x="22.3" y="20.4" class="st4 st5">holds partners </tspan><tspan x="17.4" y="40.8" class="st4 st5">accountable for </tspan><tspan x="5.3" y="61.2" class="st4 st5">skipping a workout</tspan></text>
<text transform="matrix(1 0 0 1 666.7563 143.6807)" class="st0 st1 st2">COMPETITION</text>
<rect x="665.6" y="159.2" class="st3" width="168" height="79.8"/>
<text transform="matrix(1 0 0 1 682.186 171.977)"><tspan x="0" y="0" class="st4 st5">Partners will push </tspan><tspan x="-14" y="20.4" class="st4 st5">each other with some </tspan><tspan x="-3.5" y="40.8" class="st4 st5">added competition </tspan><tspan x="36.1" y="61.2" class="st4 st5">features</tspan></text>
<g>
	<path class="st6" d="M42.9,35.9c6.4,0,11.7-5.2,11.7-11.7c0-6.4-5.2-11.7-11.7-11.7c-6.4,0-11.7,5.2-11.7,11.7
		C31.3,30.7,36.5,35.9,42.9,35.9z"/>
	<path class="st6" d="M69.6,23.3c-1.3,0-2.5,0.5-3.4,1.3l-4.5,4.3c-0.9,0.8-2.6,2.2-3.6,2.9l-9.1,6.2H35.5c-2.3,0-3.5,0.7-4.4,1.9
		l-5.9,7.4c-1,1.2-2.5,3.2-3.4,4.4l-4,5.5c-0.8,1.1-1.1,2.4-0.9,3.7c0.2,1.3,0.9,2.5,2,3.2c0.9,0.6,1.9,1,2.9,1c1.6,0,3.1-0.8,4-2
		l4-5.5c0,0,0-0.1,0.1-0.1l-0.8,9.5l-6.9,33c-0.3,1.4,0,2.8,0.7,3.9c0.8,1.2,1.9,2,3.3,2.3c0.4,0.1,0.7,0.1,1.1,0.1
		c2.4,0,4.6-1.7,5.1-4.1l6.5-30.9h1.7l0.9,10.4c0.1,1.3,0.2,3.4,0.1,4.7l-0.5,14.5c-0.1,1.4,0.4,2.7,1.4,3.7c0.9,1,2.2,1.6,3.6,1.7
		c0.1,0,0.1,0,0.2,0c2.8,0,5.1-2.2,5.2-5l0.5-14.5c0.1-1.7,0-4.3-0.2-6L50.3,65c0,0,0-0.1,0-0.1l1.5-16.9l12-8.1
		c1.4-1,3.5-2.7,4.8-3.8l4.5-4.3c2-1.9,2.1-5,0.2-7C72.3,23.9,71,23.3,69.6,23.3z"/>
	<path class="st6" d="M105.8,32.3c6.4,0,11.7-5.2,11.7-11.7c0-6.4-5.2-11.7-11.7-11.7c-6.4,0-11.7,5.2-11.7,11.7
		S99.4,32.3,105.8,32.3z"/>
	<path class="st6" d="M123.6,59.3c0.9,1.3,2.4,2,4,2c1.1,0,2.1-0.3,2.9-1c1.1-0.8,1.8-1.9,2-3.2c0.2-1.3-0.1-2.6-0.9-3.7l-4-5.5
		c-0.9-1.2-2.4-3.2-3.4-4.4l-5.9-7.4c-0.9-1.2-2-1.9-3.9-1.9c0,0-14.7,0-14.7,0l-9.1-6.2c-1.1-0.7-2.5-1.9-3-2.4l-1.4-1.3
		c-0.9-0.9-2.1-1.3-3.4-1.3c-1.4,0-2.7,0.6-3.6,1.6c-0.9,1-1.4,2.2-1.3,3.5c0,1.3,0.6,2.5,1.6,3.5l1.4,1.3c1,0.9,2.8,2.4,4.3,3.3
		l12,8.1l1.5,16.9c0,0,0,0.1,0,0.1L97.1,77c-0.2,2.3,0.3,5.5,1.1,7.6l4.1,10.1c0.8,2,2.7,3.2,4.8,3.2c0.7,0,1.3-0.1,2-0.4
		c1.3-0.5,2.3-1.5,2.8-2.8c0.5-1.3,0.5-2.7,0-4l-4.1-10.1c-0.2-0.6-0.5-2.1-0.4-2.7l0.9-10.4h1.7l2.5,11.7c0.5,2.2,1.8,4,3.7,5.1
		c1.1,0.6,2.3,0.9,3.6,0.9c0.9,0,1.8-0.2,2.7-0.5l5.5-2c2.7-1,4.1-4,3.1-6.7c-0.7-2-2.7-3.4-4.9-3.4c-0.6,0-1.2,0.1-1.8,0.3
		l-2.3,0.9l-2.2-10.6L119,53c0.2,0.3,0.5,0.6,0.6,0.9L123.6,59.3z"/>
	<path class="st6" d="M80.5,15.8c0.1,0,0.3,0.1,0.4,0.1c0.8,0,1.4-0.5,1.6-1.3c0.5-2.1,1.9-5.4,3.1-5.9c0.8-0.4,1.2-1.4,0.8-2.2
		C86,5.6,85,5.2,84.2,5.6c-3.1,1.4-4.6,7.1-4.9,8.2C79,14.7,79.6,15.6,80.5,15.8z"/>
	<path class="st6" d="M72.7,11.4c-0.8-0.4-1.9,0-2.2,0.8c-0.4,0.8,0,1.9,0.8,2.2c1.1,0.5,2.5,3.8,3.1,5.9c0.2,0.8,0.9,1.3,1.6,1.3
		c0.1,0,0.3,0,0.4-0.1c0.9-0.2,1.5-1.2,1.2-2.1C77.3,18.4,75.7,12.8,72.7,11.4z"/>
</g>
<g>
	<g>
		<path class="st7" d="M258.6,5.5c-1.4,0.1-2.4,1.3-2.3,2.7v9.2h-11.8v10.5h84.2V17.3h-11.8V8.1c0-0.8-0.3-1.5-0.9-2
			s-1.3-0.8-2.1-0.7c-1.4,0.1-2.4,1.3-2.3,2.7v9.2h-50V8.1c0-0.8-0.3-1.5-0.9-2C260.1,5.6,259.3,5.4,258.6,5.5z M244.4,33.1v46h60.8
			c0.5-3.3,1.5-6.4,3-9.2h-2V59.4h12.2c3.1-1.8,6.5-3.1,10.2-3.7V33.1H244.4z M253.6,39.7h13.2v10.5h-13.2V39.7z M279.9,39.7h13.2
			v10.5h-13.2V39.7z M306.2,39.7h13.2v10.5h-13.2V39.7z M253.6,59.4h13.2V70h-13.2V59.4z M279.9,59.4h13.2V70h-13.2V59.4z
			 M332.5,60.8c-12.4,0-22.4,10-22.4,22.4s10,22.4,22.4,22.4s22.4-10,22.4-22.4S344.9,60.8,332.5,60.8z M330.9,68.6
			c0.8-0.1,1.5,0.2,2.1,0.7c0.6,0.5,0.9,1.2,0.9,2v11.6l7.9,4.5c1.3,0.7,1.7,2.3,1,3.6c-0.7,1.3-2.3,1.7-3.6,1l-9.2-5.3
			c-0.8-0.5-1.3-1.3-1.3-2.3V71.3C328.6,69.9,329.6,68.8,330.9,68.6z"/>
	</g>
</g>
<g>
	<g transform="translate(20 20)">
		<path class="st6" d="M775.9-4.9h-16.6v-7.3c0-1.3-1-2.3-2.3-2.3h-57.1c-1.3,0-2.3,1-2.3,2.3v7h-15.3c-1.3,0-2.3,1-2.3,2.3
			c0,14.9,8.3,37.5,19.9,37.5h0.3c3.3,7,9,12.3,16.3,15.3v11.6h-7c-1.3,0-2.3,1-2.3,2.3v7H750v-7c0-1.3-1-2.3-2.3-2.3h-7V49.9
			c7.3-3,13.3-8.3,16.3-15.3c0.3,0,0.7,0.3,1,0.3c11.6,0,20.6-22.6,20.6-37.5C778.2-3.9,777.2-4.9,775.9-4.9L775.9-4.9z M684.9-0.3
			h12.6c0,0,0.3,27.6,1,30.2C691.9,27.9,685.6,12.3,684.9-0.3L684.9-0.3z M747.7,11l-7.6,7.6l1.7,10c0,0.3,0.3,0.7,0.3,1
			c0,1.3-1,2.3-2.3,2.3c-0.3,0-0.7,0-1-0.3l-9.6-5l-10,5.3c-0.3,0.3-0.7,0.3-1,0.3c-0.3,0-1,0-1.3-0.3c-0.7-0.7-1-1.3-1-2.3
			l1.7-10.6l-8-7.6c-0.3-0.7-0.7-1.7-0.3-2.7s1-1.3,2-1.7l10.6-1.7l4.6-9.6c0.3-0.7,1-1.3,2-1.3s1.7,0.7,2,1.3l5.3,9.6L746.3,7
			c1,0,1.7,0.7,2,1.7C748.7,9.4,748.3,10.3,747.7,11L747.7,11z M758,29.9c0.7-2.3,1-30.2,1-30.2h14.3
			C772.6,13.3,764.6,28.9,758,29.9L758,29.9z M757,75.4h-2.3H750h-42.8h-5h-2.3c-1.3,0-2.3,1-2.3,2.3v4.6c0,1.3,1,2.3,2.3,2.3h56.8
			c1.3,0,2.3-1,2.3-2.3v-4.6C759.3,76.8,758,75.4,757,75.4L757,75.4z"/>
	</g>
</g>
<g>
	<g>
		<path class="st7" d="M586.1,46.7L553.3,6.6c-1.2-1.2-2.9-1.6-4.1-0.4l-9.8,7.4c-0.8,0.4-1.2,1.2-1.2,2c0,0.8,0,1.6,0.8,2.5
			l0.8,1.2l-19.7,13.9l-13.9-7.4l0.8-1.2c0.4-0.8,0.4-1.6,0.4-2.5c-0.4-0.8-0.8-1.6-1.6-2l-11.5-5.3c-1.6-0.8-3.3,0-4.1,1.2
			l-25.8,45.1c-0.4,0.4-0.4,1.2-0.4,2c0.4,0.8,0.8,1.6,1.6,2l11.1,5.7c0.4,0.4,0.8,0.4,1.2,0.4c0.8,0,1.6-0.4,2.5-1.2
			c0.8,2,2,3.7,3.7,5.3c-0.4,0.4-1.6,2.9-1.2,5.3c0.4,1.6,1.2,3.7,4.1,5.3c2,1.2,4.1,2,5.7,2c0.4,2.5,1.6,4.9,4.9,6.6
			c2.5,1.6,4.5,2,6.6,2.5c0.8,2,2.5,4.5,5.3,6.6c2.5,1.6,4.9,2.5,7,2.5c0.8,0,1.6,0,2.5-0.4c2-0.8,3.3-2.5,3.7-3.3l2-3.7l7.4,3.7
			c1.2,0.8,2.9,0.8,4.1,0.8c0.8,0,2,0,2.9-0.4c2.5-0.8,4.1-2.5,5.3-4.5c1.2-2,1.2-4.5,0.8-6.6c2-0.8,4.1-2.5,4.9-4.5
			c1.2-2,1.2-4.5,0.8-6.6c2-0.8,4.1-2.5,4.9-4.5c1.2-2,1.2-4.5,0.8-6.6c2-0.8,4.1-2.5,4.9-4.5c0-0.4,0-0.4,0.4-0.8
			c1.6-0.4,5.7-2,8.6-7.4l1.2,1.2c0.4,0.8,1.6,1.2,2.5,1.2c0.8,0,1.2,0,1.6-0.4l9.8-7.4c0.8-0.4,1.2-1.2,1.2-2
			C586.9,48.4,586.9,47.6,586.1,46.7L586.1,46.7z M497.6,76.6l-2.9,5.3c0,0,0,0.4-0.4,0.4l0,0c-0.4,0-1.2,0-3.7-1.6
			c-0.8-0.4-1.2-0.8-1.2-1.2c0-0.4,0-0.8,0.4-1.2l2.9-4.9c0,0,0.4-0.4,0.8-0.4c0.8,0,1.6,0.4,2.5,0.8
			C497.2,75,497.6,76.2,497.6,76.6L497.6,76.6z M477.1,63.9l-5.3-2.9l22.9-39.3l5.3,2.9L477.1,63.9L477.1,63.9z M505.8,89.7
			c-0.4,0.4-0.4,0.8-0.8,1.2l0,0c0,0-1.2,0-3.7-1.2c-2-1.2-2-2.9-2-3.7c0.4-0.4,0.8-1.2,0.8-1.6l2.9-4.9c0.4-0.8,0.8-1.6,0.8-2.5
			l0.4-0.4c0.4-0.4,2.9,0.4,4.9,1.6c1.2,0.8,1.6,1.6,2,2.9L505.8,89.7L505.8,89.7z M517.7,98.8c-0.4,0.4-0.4,0.8-0.8,1.2
			c0,0-1.2,0.4-3.7-1.2c-2-1.2-2.5-2.9-2.9-3.7c0.4-0.4,0.4-0.8,0.4-0.8l5.3-8.6c0.8,0,2.9,0.8,4.9,2c1.2,0.8,1.6,1.6,2,2.9
			L517.7,98.8L517.7,98.8z M561.5,57.4c-0.8-2-2.5-4.1-4.5-4.9l-24.6-10.7c-0.8-0.4-2-0.4-2.9,0.4l-13.5,9c-0.4,0.4-1.2,0.4-2,0.4
			c-0.8,0-1.6-0.4-2-1.2c-0.8-1.2-0.8-3.3,0.8-4.5l31.1-22.1L566,51.2C564.8,54.9,563.2,56.6,561.5,57.4L561.5,57.4z M574.2,51.7
			l-28.7-35.2l4.9-3.7L579.1,48L574.2,51.7L574.2,51.7z"/>
	</g>
</g>
</svg>
