<?xml version="1.0" encoding="utf-8"?>
<!-- Generator: Adobe Illustrator 24.0.0, SVG Export Plug-In . SVG Version: 6.00 Build 0)  -->
<svg version="1.1" xmlns="http://www.w3.org/2000/svg" xmlns:xlink="http://www.w3.org/1999/xlink" x="0px" y="0px"
	 viewBox="0 0 920.9 731.2" style="enable-background:new 0 0 920.9 731.2;" xml:space="preserve">
<style type="text/css">
	.st0{fill:#72FAFC;}
	.st1{fill:none;stroke:#231F20;stroke-miterlimit:10;}
	.st2{fill:#F2F2F2;}
	.st3{fill:none;stroke:#232323;stroke-width:0.75;stroke-miterlimit:10;}
	.st4{fill:none;stroke:#A7A9AC;stroke-width:0.5;stroke-miterlimit:10;stroke-dasharray:12;}
	.st5{fill:#0231CE;}
	.st6{fill:#231F20;}
	.st7{font-family:'Montserrat-SemiBold';}
	.st8{font-size:18.8125px;}
	.st9{font-size:14px;}
	.st10{font-family:'Montserrat-Medium';}
	.st11{font-size:16px;}
	.st12{fill:none;}
	.st13{font-family:'Montserrat-Regular';}
	.st14{fill:none;stroke:#0231CE;stroke-width:3;stroke-miterlimit:10;}
	.st15{fill:none;stroke:#0231CE;stroke-width:2;stroke-miterlimit:10;}
	.st16{fill:none;stroke:#0231CE;stroke-width:2;stroke-miterlimit:10;stroke-dasharray:5.6266,5.6266;}
	.st17{fill:#FFFFFF;}
	.st18{font-size:12px;}
	.st19{fill:none;stroke:#0231CE;stroke-width:2;stroke-miterlimit:10;stroke-dasharray:6.3106,6.3106;}
</style>
<g id="Layer_2">
	<rect x="292.3" y="493.8" class="st0" width="177.5" height="52.5"/>
	<rect x="509.8" y="493.8" class="st0" width="177.5" height="52.5"/>
	<rect x="727.3" y="493.8" class="st0" width="177.5" height="52.5"/>
	<rect x="74.8" y="493.8" class="st0" width="177.5" height="52.5"/>
	<line class="st1" x1="74.8" y1="589" x2="904.8" y2="589"/>
	<line class="st1" x1="74.8" y1="30.3" x2="452.6" y2="30.3"/>
	<line class="st1" x1="505.6" y1="30.3" x2="883.4" y2="30.3"/>
	<polygon class="st2" points="74.8,291.1 114.9,272.9 213.8,296.2 311.9,259.8 443.2,224.8 531.3,269.8 656.9,232.4 812.2,133.2 
		867.5,213.9 903.6,195.8 903.6,477.8 73.9,477.8 	"/>
	<rect x="74.8" y="105" class="st3" width="830" height="372.2"/>
	<line class="st4" x1="74.8" y1="291.1" x2="904.8" y2="291.1"/>
</g>
<g id="Layer_3">
</g>
<g id="Layer_1">
	<rect x="289.6" y="119.5" class="st5" width="144.6" height="43.3"/>
	<text transform="matrix(1 0 0 1 74.7596 23.0904)" class="st6 st7 st8">SCENARIO</text>
	<text transform="matrix(1 0 0 1 5.8129 239.7226)" class="st6 st7 st9">HAPPY</text>
	<text transform="matrix(1 0 0 1 16.3685 416.3715)" class="st6 st7 st9">SAD</text>
	<text transform="matrix(1 0 0 1 509.7557 23.0904)" class="st6 st7 st8">GOALS</text>
	<text transform="matrix(1 0 0 1 74.7596 580.6142)" class="st6 st7 st8">OPPORTUNITIES</text>
	<text transform="matrix(1 0 0 1 87.0574 515.0146)"><tspan x="0" y="0" class="st6 st10 st11">GETTING PROFILE</tspan><tspan x="46.4" y="22" class="st6 st10 st11">SET UP</tspan></text>
	<text transform="matrix(1 0 0 1 315.3552 515.0146)"><tspan x="0" y="0" class="st6 st10 st11">CREATE A NEW</tspan><tspan x="19.7" y="22" class="st6 st10 st11">WORKOUT</tspan></text>
	<text transform="matrix(1 0 0 1 511.4612 515.0146)"><tspan x="0" y="0" class="st6 st10 st11">GET CONFIRMATION</tspan><tspan x="26.2" y="22" class="st6 st10 st11">FROM FRIEND</tspan></text>
	<text transform="matrix(1 0 0 1 768.7991 515.0146)"><tspan x="0" y="0" class="st6 st10 st11">COMPLETE</tspan><tspan x="1.2" y="22" class="st6 st10 st11">WORKOUT</tspan></text>
	<rect x="74.8" y="40.6" class="st12" width="377.9" height="86.6"/>
	<text transform="matrix(1 0 0 1 74.7597 51.0212)"><tspan x="0" y="0" class="st6 st13 st9">Ryan is very busy working full time. He wants to </tspan><tspan x="0" y="16.8" class="st6 st13 st9">stay strict to his weekly workout schedule, and he </tspan><tspan x="0" y="33.6" class="st6 st13 st9">thinks having a workout partner will help do just </tspan><tspan x="0" y="50.4" class="st6 st13 st9">that.</tspan></text>
	<rect x="509.8" y="40.6" class="st12" width="373.7" height="59"/>
	<text transform="matrix(1 0 0 1 509.7558 51.0212)"><tspan x="0" y="0" class="st6 st13 st9">Ryan wants to start scheduling weekly workouts </tspan><tspan x="0" y="16.8" class="st6 st13 st9">with his friend Roger, so they can start to hold </tspan><tspan x="0" y="33.6" class="st6 st13 st9">each other accountable.</tspan></text>
	<circle class="st14" cx="114.9" cy="272.9" r="9.1"/>
	<g>
		<g>
			<line class="st15" x1="114.9" y1="262" x2="114.9" y2="259"/>
			<line class="st16" x1="114.9" y1="253.4" x2="114.9" y2="188.7"/>
			<line class="st15" x1="114.9" y1="185.9" x2="114.9" y2="182.9"/>
		</g>
	</g>
	<rect x="92.6" y="132.4" class="st5" width="144.6" height="43.3"/>
	<polygon class="st5" points="114.9,175.4 120.7,175.4 117.8,179.8 114.9,184.1 112,179.8 109.1,175.4 	"/>
	<rect x="99.8" y="142.6" class="st12" width="134.2" height="40.1"/>
	<text transform="matrix(1 0 0 1 99.806 151.4625)"><tspan x="0" y="0" class="st17 st13 st18">Opens app, sets up </tspan><tspan x="0" y="14" class="st17 st13 st18">profile</tspan></text>
	<rect x="508.7" y="129.2" class="st5" width="144.6" height="43.3"/>
	<rect x="515.9" y="139.3" class="st12" width="134.2" height="40.1"/>
	<text transform="matrix(1 0 0 1 515.8981 148.2071)"><tspan x="0" y="0" class="st17 st13 st18">Send workout to </tspan><tspan x="0" y="14" class="st17 st13 st18">partner</tspan></text>
	<rect x="86.9" y="601.5" class="st12" width="166.3" height="94"/>
	<text transform="matrix(1 0 0 1 86.9379 610.3654)"><tspan x="0" y="0" class="st6 st13 st18">Make the initial </tspan><tspan x="0" y="14" class="st6 st13 st18">questionaire short and </tspan><tspan x="0" y="28" class="st6 st13 st18">simple. Get to know the </tspan><tspan x="0" y="42" class="st6 st13 st18">user, but don’t take up too </tspan><tspan x="0" y="56" class="st6 st13 st18">much of their time</tspan></text>
	<circle class="st14" cx="311.9" cy="259.8" r="9.1"/>
	<g>
		<g>
			<line class="st15" x1="311.9" y1="249" x2="311.9" y2="246"/>
			<line class="st16" x1="311.9" y1="240.4" x2="311.9" y2="175.7"/>
			<line class="st15" x1="311.9" y1="172.9" x2="311.9" y2="169.9"/>
		</g>
	</g>
	<polygon class="st5" points="311.9,162.4 317.7,162.4 314.8,166.7 311.9,171.1 309,166.7 306.1,162.4 	"/>
	<rect x="296.8" y="127.3" class="st12" width="134.2" height="40.1"/>
	<text transform="matrix(1 0 0 1 296.7791 136.1739)"><tspan x="0" y="0" class="st17 st13 st18">Create a new </tspan><tspan x="0" y="14" class="st17 st13 st18">workout</tspan></text>
	<circle class="st14" cx="531.3" cy="269.8" r="9.1"/>
	<g>
		<g>
			<line class="st15" x1="531.3" y1="259" x2="531.3" y2="256"/>
			<line class="st16" x1="531.3" y1="250.4" x2="531.3" y2="185.7"/>
			<line class="st15" x1="531.3" y1="182.9" x2="531.3" y2="179.9"/>
		</g>
	</g>
	<polygon class="st5" points="531.3,172.4 537.1,172.4 534.2,176.7 531.3,181.1 528.4,176.7 525.5,172.4 	"/>
	<circle class="st14" cx="213.8" cy="296.2" r="9.1"/>
	<g>
		<g>
			<line class="st15" x1="213.8" y1="307" x2="213.8" y2="310"/>
			<line class="st16" x1="213.8" y1="315.6" x2="213.8" y2="380.3"/>
			<line class="st15" x1="213.8" y1="383.2" x2="213.8" y2="386.2"/>
		</g>
	</g>
	
		<rect x="91.5" y="393.3" transform="matrix(-1 -4.488955e-11 4.488955e-11 -1 327.6667 840.9798)" class="st5" width="144.6" height="54.3"/>
	<polygon class="st5" points="213.8,393.6 208,393.6 210.9,389.3 213.8,384.9 216.7,389.3 219.6,393.6 	"/>
	<rect x="97.7" y="401.4" class="st12" width="134.2" height="40.1"/>
	<text transform="matrix(1 0 0 1 97.7483 410.3347)"><tspan x="0" y="0" class="st17 st13 st18">Answers </tspan><tspan x="0" y="14" class="st17 st13 st18">questionaire </tspan><tspan x="0" y="28" class="st17 st13 st18">detailing workout </tspan></text>
	<circle class="st14" cx="443.2" cy="224.8" r="9.1"/>
	
		<rect x="321" y="321.9" transform="matrix(-1 -4.488955e-11 4.488955e-11 -1 786.5413 698.1596)" class="st5" width="144.6" height="54.3"/>
	<g>
		<g>
			<line class="st15" x1="443.2" y1="235.6" x2="443.2" y2="238.6"/>
			<line class="st16" x1="443.2" y1="244.2" x2="443.2" y2="308.9"/>
			<line class="st15" x1="443.2" y1="311.8" x2="443.2" y2="314.8"/>
		</g>
	</g>
	<polygon class="st5" points="443.2,322.2 437.4,322.2 440.3,317.9 443.2,313.5 446.1,317.9 449,322.2 	"/>
	<rect x="327.2" y="329" class="st12" width="134.2" height="57"/>
	<text transform="matrix(1 0 0 1 327.1855 337.9251)"><tspan x="0" y="0" class="st17 st13 st18">Fill out details for </tspan><tspan x="0" y="14" class="st17 st13 st18">what the workout </tspan><tspan x="0" y="28" class="st17 st13 st18">will consist of</tspan></text>
	<circle class="st14" cx="656.9" cy="232.4" r="9.1"/>
	<g>
		<g>
			<line class="st15" x1="656.9" y1="243.2" x2="656.9" y2="246.2"/>
			<line class="st16" x1="656.9" y1="251.8" x2="656.9" y2="316.6"/>
			<line class="st15" x1="656.9" y1="319.4" x2="656.9" y2="322.4"/>
		</g>
	</g>
	
		<rect x="534.6" y="329.5" transform="matrix(-1 -4.488955e-11 4.488955e-11 -1 1213.8428 713.3965)" class="st5" width="144.6" height="54.3"/>
	<polygon class="st5" points="656.9,329.8 651.1,329.8 654,325.5 656.9,321.1 659.8,325.5 662.7,329.8 	"/>
	<rect x="540.8" y="337.6" class="st12" width="134.2" height="40.1"/>
	<text transform="matrix(1 0 0 1 540.8368 346.5436)"><tspan x="0" y="0" class="st17 st13 st18">Get confirmation </tspan><tspan x="0" y="14" class="st17 st13 st18">from partner that the </tspan><tspan x="0" y="28" class="st17 st13 st18">workout is official</tspan></text>
	<circle class="st14" cx="812.2" cy="133.2" r="9.1"/>
	<g>
		<g>
			<line class="st15" x1="812.2" y1="142.3" x2="812.2" y2="145.3"/>
			<line class="st19" x1="812.2" y1="151.6" x2="812.2" y2="199"/>
			<line class="st15" x1="812.2" y1="202.1" x2="812.2" y2="205.1"/>
		</g>
	</g>
	
		<rect x="689.9" y="212.3" transform="matrix(-1 -5.511159e-11 5.511159e-11 -1 1524.3999 491.2629)" class="st5" width="144.6" height="66.7"/>
	<polygon class="st5" points="812.2,212.6 806.4,212.6 809.3,208.2 812.2,203.9 815.1,208.2 818,212.6 	"/>
	<rect x="696.1" y="220.4" class="st12" width="134.2" height="55"/>
	<text transform="matrix(1 0 0 1 696.1149 229.2963)"><tspan x="0" y="0" class="st17 st13 st18">Partners meet for </tspan><tspan x="0" y="14" class="st17 st13 st18">the workout, and </tspan><tspan x="0" y="28" class="st17 st13 st18">motivate each other </tspan><tspan x="0" y="42" class="st17 st13 st18">through it</tspan></text>
	<circle class="st14" cx="867.5" cy="213.9" r="9.1"/>
	<g>
		<g>
			<line class="st15" x1="867.5" y1="224.7" x2="867.5" y2="227.7"/>
			<line class="st16" x1="867.5" y1="233.3" x2="867.5" y2="298.1"/>
			<line class="st15" x1="867.5" y1="300.9" x2="867.5" y2="303.9"/>
		</g>
	</g>
	
		<rect x="745.3" y="311" transform="matrix(-1 -4.488955e-11 4.488955e-11 -1 1635.0977 676.3906)" class="st5" width="144.6" height="54.3"/>
	<polygon class="st5" points="867.5,311.3 861.7,311.3 864.6,307 867.5,302.6 870.4,307 873.3,311.3 	"/>
	<rect x="751.5" y="319.1" class="st12" width="134.2" height="48.5"/>
	<text transform="matrix(1 0 0 1 751.4637 328.0406)"><tspan x="0" y="0" class="st17 st13 st18">The workout is </tspan><tspan x="0" y="14" class="st17 st13 st18">logged and the user </tspan><tspan x="0" y="28" class="st17 st13 st18">reviews their stats</tspan></text>
	<g>
		<path class="st6" d="M77.8,605.6c0-1.3,1-2.2,2.2-2.2c1.2,0,2.2,0.9,2.2,2.2c0,1.3-1,2.3-2.2,2.3
			C78.8,607.9,77.8,606.9,77.8,605.6z"/>
	</g>
	<rect x="301.4" y="601.5" class="st12" width="169.3" height="156"/>
	<text transform="matrix(1 0 0 1 301.4359 610.3654)"><tspan x="0" y="0" class="st6 st13 st18">Keep the workout setup </tspan><tspan x="0" y="14" class="st6 st13 st18">simple. Offer a lot of </tspan><tspan x="0" y="28" class="st6 st13 st18">options.</tspan><tspan x="0" y="56" class="st6 st13 st18">Get the user excited in </tspan><tspan x="0" y="70" class="st6 st13 st18">anticipation for the new </tspan><tspan x="0" y="84" class="st6 st13 st18">workout </tspan></text>
	<g>
		<path class="st6" d="M292.3,605.6c0-1.3,1-2.2,2.2-2.2c1.2,0,2.2,0.9,2.2,2.2c0,1.3-1,2.3-2.2,2.3
			C293.3,607.9,292.3,606.9,292.3,605.6z"/>
	</g>
	<rect x="518.9" y="601.5" class="st12" width="169.3" height="156"/>
	<text transform="matrix(1 0 0 1 518.9335 610.3654)"><tspan x="0" y="0" class="st6 st13 st18">Make sure to notify the </tspan><tspan x="0" y="14" class="st6 st13 st18">user that his/her partner </tspan><tspan x="0" y="28" class="st6 st13 st18">has accepted</tspan><tspan x="0" y="56" class="st6 st13 st18">Get user psyched up for </tspan><tspan x="0" y="70" class="st6 st13 st18">their upcoming workout</tspan></text>
	<g>
		<path class="st6" d="M509.8,605.6c0-1.3,1-2.2,2.2-2.2c1.2,0,2.2,0.9,2.2,2.2c0,1.3-1,2.3-2.2,2.3
			C510.8,607.9,509.8,606.9,509.8,605.6z"/>
	</g>
	<rect x="736.9" y="601.5" class="st12" width="169.3" height="156"/>
	<text transform="matrix(1 0 0 1 736.9316 610.3654)"><tspan x="0" y="0" class="st6 st13 st18">Add in accountability </tspan><tspan x="0" y="14" class="st6 st13 st18">features to make sure the </tspan><tspan x="0" y="28" class="st6 st13 st18">user doesn’t skip the </tspan><tspan x="0" y="42" class="st6 st13 st18">workout</tspan><tspan x="0" y="70" class="st6 st13 st18">Make workout stats </tspan><tspan x="0" y="84" class="st6 st13 st18">available for viewing, a </tspan><tspan x="0" y="98" class="st6 st13 st18">major feature of most </tspan><tspan x="0" y="112" class="st6 st13 st18">fitness apps</tspan></text>
	<g>
		<path class="st6" d="M727.8,605.6c0-1.3,1-2.2,2.2-2.2c1.2,0,2.2,0.9,2.2,2.2c0,1.3-1,2.3-2.2,2.3
			C728.8,607.9,727.8,606.9,727.8,605.6z"/>
	</g>
	<g>
		<path class="st6" d="M727.8,676.3c0-1.3,1-2.2,2.2-2.2c1.2,0,2.2,0.9,2.2,2.2c0,1.3-1,2.3-2.2,2.3
			C728.8,678.6,727.8,677.6,727.8,676.3z"/>
	</g>
	<g>
		<path class="st6" d="M509.8,662.2c0-1.3,1-2.2,2.2-2.2c1.2,0,2.2,0.9,2.2,2.2c0,1.3-1,2.3-2.2,2.3
			C510.8,664.4,509.8,663.5,509.8,662.2z"/>
	</g>
	<g>
		<path class="st6" d="M292.3,662.2c0-1.3,1-2.2,2.2-2.2c1.2,0,2.2,0.9,2.2,2.2c0,1.3-1,2.3-2.2,2.3
			C293.3,664.4,292.3,663.5,292.3,662.2z"/>
	</g>
	<g>
		<g transform="translate(23 21)">
			<path class="st6" d="M4.1,347.8c0-0.8-0.4-1.4-0.8-1.9l2.9-0.6c0.8-0.4,1.2-1,0.8-1.9c-0.2-0.8-0.8-1-1.7-0.8l-8.1,2.3
				c-0.8,0.2-1,0.8-0.8,1.7c0.2,0.6,0.8,1,1.7,0.8l1.2-0.4c0,0.2-0.2,0.6-0.2,0.8c0,1.4,1,2.5,2.5,2.5S4.1,349,4.1,347.8L4.1,347.8z
				 M20,344.7l-8.1-2.5c-0.8-0.4-1.4,0.2-1.7,0.8c-0.2,0.8,0.2,1.4,0.8,1.7l2.9,0.8c-0.6,0.6-1,1.4-1,2.3c0,1.4,1.2,2.5,2.7,2.5
				s2.5-1,2.5-2.5c0-0.2,0-0.4-0.2-0.6l1.4,0.4h0.2c0.6,0,1.2-0.4,1.4-1C21,345.7,20.8,344.9,20,344.7L20,344.7z M8.8,361.4
				c-4.1,0-6.2,1.4-6.4,1.7c-0.6,0.6-0.6,1.4-0.2,1.9c0.4,0.6,1.2,0.8,1.9,0.4c0,0,1.4-1.2,4.8-1.2c3.1,0,4.5,1.2,4.5,1.2
				c0.2,0.2,0.6,0.2,0.8,0.2c0.4,0,0.8-0.2,1.2-0.4c0.4-0.6,0.2-1.4-0.4-2.1C14.8,363,12.8,361.4,8.8,361.4L8.8,361.4z"/>
			<path class="st6" d="M9,320.1L9,320.1H8.8H8.4l0,0c-10.3,0.2-20.9,6.4-21.3,18l0,0c-0.2,0-0.2,0.4-0.2,0.4
				c-1.2,0.8-2.3,2.3-2.3,5.2c0,6.8,2.3,9.3,3.7,10.3c0.2,8.3,4.5,15.1,11.4,18.8c2.7,2.7,6.2,3.3,8.5,3.3c3.3,0,7-1.2,9.1-3.1
				c7-3.7,11.4-11.2,11.8-19.2c1.4-1,4.1-3.5,4.1-10.3c0-3.1-1-4.5-1.9-5.2C31.4,326.1,18.5,320.3,9,320.1L9,320.1z M27.4,351.9
				c-0.6,0-1.2,0.6-1.2,1.2c0,7.6-3.9,14.3-10.5,17.6l-0.2,0.2c-1.7,1.7-3.7,2.5-6.2,2.7c0,0,0,0-0.2,0c-1.4,0-5.2-0.2-7.4-2.7
				c0,0-0.2-0.2-0.4-0.2C-5,367.4-8.9,361-8.9,353.1c0-0.4-0.4-1-1.2-1.2c0,0-2.5-1-2.5-8.1c0-1.2,0.2-2.1,0.4-2.3l3.3,4.1
				c0.2,0.2,0.6,0.4,1,0.4H-6c0.6,0,0.4-0.6,0.4-1.2v-3.3c4.1-0.6,13.4-2.7,15.1-9.7c1.9,1.4,4.8,3.9,10.7,3.9l0,0c0,0,1-1,1.9-0.4
				c0.8,0.6,1.2,1.2,1.2,3.1v6.2c0,0.8,0.4,1.2,1.2,1.2h0.8c0.4,0,0.8-0.2,1.2-0.6l3.3-4.5c0.4,0.4,0.4,1.2,0.4,2.7
				C30.3,350.9,27.4,351.9,27.4,351.9L27.4,351.9z"/>
			<path class="st6" d="M6.2,354.4c-0.4,0-0.8,0.4-1,0.8c-0.4,0.6-0.4,1.2,0,1.4c0.2,0.4,1.7,2.5,3.9,2.5c1.7,0,2.9-1,3.5-1.9
				c0.6-0.2,0.8-0.8,0.8-1.4c0-0.8-0.6-1.4-1.4-1.4h-0.2c-0.6,0-0.8,0.4-1.2,0.6c-0.2,0.6-1,1.2-1.7,1.2c-0.2,0-0.8-0.4-1-0.6
				c-0.2-0.6-0.6-1.2-1.4-1.2H6.2L6.2,354.4z"/>
		</g>
	</g>
	<g>
		<g transform="translate(23 21)">
			<path class="st6" d="M31.1,158c-0.2-0.2-0.4-0.4-0.4-0.4c-0.2-11.4-11.4-17.8-21.7-18l0,0H8.8H8.6l0,0c-9.3,0.2-22.1,6-22.3,18.4
				c-1,0.6-1.7,2.1-1.7,5.2c0,7,2.7,9.5,4.1,10.3c0.2,8.1,4.8,15.3,11.8,18.8c2.5,2.7,6.2,3.3,8.9,3.3c1.9,0,5.4-0.2,8.3-2.9
				c7-3.7,11.4-11.2,11.6-19.2c1.4-0.8,3.9-3.5,3.9-10.3c0-2.3-0.8-3.5-1.4-4.3C32,158.4,31.8,158.2,31.1,158L31.1,158z M4.5,151.4
				l10.1,8.9c0.2,0.4,1.2,0.6,1.7,0.2c0.4-0.2,1.2-0.8,1.2-1v-5l2.3,3.5c0.6,0.2,0.4,0.4,0.6,0.4h1.2v4.1H11.5c-0.6,0-1,0.2-1,0.6
				c-0.4-0.4-0.8-0.6-1.4-0.6H-4.2c-0.4,0-0.8,0.4-1.2,1v-5.4C-1.3,158,2.8,156.6,4.5,151.4L4.5,151.4z M30.3,163.4
				c0,7.2-2.7,8.1-2.7,8.1l0,0c0,0-1,0.6-1,1.4c0,7.6-3.5,14.3-10.3,17.4l-0.2,0.4c-1.7,1.9-4.3,2.5-6,2.5H9.7
				c-2.3,0-5.2-0.4-7.2-2.5c0,0-0.2-0.4-0.6-0.4c-6.4-3.3-10.3-9.9-10.3-17.4c0-0.6-0.4-1.2-0.8-1.4c0,0-2.9-0.8-2.9-8.1
				c0-2.5,0.4-3.1,0.4-3.1l0,0l4.1,5.4c0.2,0.4,0.4,0.6,1.2,0.6c0.4,0,0.8-0.4,1-0.8c0.4,5,3.1,8.1,8.3,8.1c4.1,0,6.6-2.1,7.6-5.8
				c1,3.7,3.3,6,7.4,6c4.5,0,7.2-2.5,8.1-6.8h0.6c0.4,0,1-0.6,1.2-0.8l2.9-3.9C30.5,162.2,30.3,162.8,30.3,163.4L30.3,163.4z"/>
			<path class="st6" d="M5.7,177h1c0.4,0,1.4,1.2,2.9,1.2c1.9,0,3.5-1.2,3.7-1.4c0.6-0.6,1-1,0.2-1.7c-0.4-0.6-0.8-0.4-1.7-0.2
				c-0.4,0.4-1.2,0.8-2.1,0.8c-1.2,0-2.1-0.4-2.1-0.4C7.4,175.2,7.2,175,7,175H5.7c-0.6,0-1.4,0.2-1.4,1C4.3,176.8,5.1,177,5.7,177
				L5.7,177z M13,183.9c0,0-2.9,0.2-5.8-1.2s-4.3-3.5-4.3-3.7c-0.2-0.4-1-0.6-1.4-0.4s-0.8,0.6-0.8,1.2v2.9c0,0.8,0.4,1.4,1,1.4
				c0.8,0,0.8-0.4,1-0.8c1,0.6,1.7,1.2,2.9,1.9c2.5,1.4,4.8,1.9,6.2,1.9c1,0,1.2-0.2,1.2-0.2c1,0,1.2-0.8,1.2-1.7
				C14.4,184.3,13.4,183.9,13,183.9L13,183.9z"/>
		</g>
	</g>
</g>
</svg>
