<?xml version="1.0" encoding="utf-8"?>
<!-- Generator: Adobe Illustrator 23.1.1, SVG Export Plug-In . SVG Version: 6.00 Build 0)  -->
<svg version="1.1" id="Layer_1" xmlns="http://www.w3.org/2000/svg" xmlns:xlink="http://www.w3.org/1999/xlink" x="0px" y="0px"
	 viewBox="0 0 657.8 444" style="enable-background:new 0 0 657.8 444;" xml:space="preserve">
<style type="text/css">
	.st0{fill:#00C0F2;}
	.st1{fill:#008ABE;}
	.st2{fill:none;}
	.st3{fill:#231F20;}
	.st4{font-family:'Roboto-Bold';}
	.st5{font-size:14px;}
	.st6{fill:#22B573;}
	.st7{fill:#006837;}
	.st8{font-size:10px;}
	.st9{font-size:11px;}
	.st10{fill:#FBB03B;}
	.st11{fill:#F15A24;}
	.st12{font-size:11.8633px;}
	.st13{font-size:13px;}
	.st14{font-size:8px;}
	.st15{font-size:9px;}
</style>
<g>
	<g>
		<polygon class="st0" points="55,77.4 7.8,77.4 7.8,8.8 76.4,8.8 76.4,56 		"/>
		<path class="st1" d="M57,58.8c8.7,2.2,19.4-2.8,19.4-2.8L55,77.4C55,77.4,58.1,68.2,57,58.8z"/>
	</g>
	<rect x="13.9" y="33.4" class="st2" width="57.5" height="21.2"/>
	<text transform="matrix(1 0 0 1 19.3348 43.9331)" class="st3 st4 st5">ADOPT</text>
</g>
<g>
	<g>
		<polygon class="st6" points="55,433.6 7.8,433.6 7.8,364.9 76.4,364.9 76.4,412.1 		"/>
		<path class="st7" d="M57,415c8.7,2.2,19.4-2.8,19.4-2.8L55,433.6C55,433.6,58.1,424.3,57,415z"/>
	</g>
	<rect x="13.9" y="389.6" class="st2" width="57.5" height="21.2"/>
	<text transform="matrix(1 0 0 1 19.3348 400.0719)" class="st3 st4 st5">ADOPT</text>
</g>
<g>
	<g>
		<polygon class="st6" points="146.8,433.6 99.5,433.6 99.5,364.9 168.1,364.9 168.1,412.1 		"/>
		<path class="st7" d="M148.7,415c8.7,2.2,19.4-2.8,19.4-2.8l-21.3,21.3C146.8,433.6,149.8,424.3,148.7,415z"/>
	</g>
	<rect x="105.7" y="389.6" class="st2" width="57.5" height="21.2"/>
	<text transform="matrix(1 0 0 1 106.5795 400.0719)" class="st3 st4 st5">DONATE</text>
</g>
<g>
	<g>
		<polygon class="st6" points="627.6,433.6 580.3,433.6 580.3,364.9 648.9,364.9 648.9,412.1 		"/>
		<path class="st7" d="M629.6,415c8.7,2.2,19.4-2.8,19.4-2.8l-21.3,21.3C627.6,433.6,630.7,424.3,629.6,415z"/>
	</g>
	<rect x="586.5" y="389.6" class="st2" width="57.5" height="21.2"/>
	<text transform="matrix(1 0 0 1 588.1031 397.0719)" class="st3 st4 st8">SUBSCRIBE</text>
</g>
<g>
	<g>
		<polygon class="st0" points="150.1,77.4 102.9,77.4 102.9,8.8 171.5,8.8 171.5,56 		"/>
		<path class="st1" d="M152.1,58.8c8.7,2.2,19.4-2.8,19.4-2.8l-21.3,21.3C150.1,77.4,153.2,68.2,152.1,58.8z"/>
	</g>
	<rect x="109" y="33.4" class="st2" width="57.5" height="21.2"/>
	<text transform="matrix(1 0 0 1 109.968 43.9331)" class="st3 st4 st5">DONATE</text>
</g>
<g>
	<g>
		<polygon class="st0" points="438,77.4 390.7,77.4 390.7,8.8 459.4,8.8 459.4,56 		"/>
		<path class="st1" d="M440,58.8c8.7,2.2,19.4-2.8,19.4-2.8L438,77.4C438,77.4,441.1,68.2,440,58.8z"/>
	</g>
	<rect x="396.9" y="33.4" class="st2" width="57.5" height="21.2"/>
	<text transform="matrix(1 0 0 1 402.3087 43.9331)" class="st3 st4 st5">ABOUT</text>
</g>
<g>
	<g>
		<polygon class="st0" points="245.2,77.4 198,77.4 198,8.8 266.6,8.8 266.6,56 		"/>
		<path class="st1" d="M247.2,58.8c8.7,2.2,19.4-2.8,19.4-2.8l-21.3,21.3C245.2,77.4,248.3,68.2,247.2,58.8z"/>
	</g>
	<rect x="204.1" y="27.5" class="st2" width="57.5" height="33"/>
	<text transform="matrix(1 0 0 1 222.4908 35.7871)"><tspan x="0" y="0" class="st3 st4 st9">GET </tspan><tspan x="-16.3" y="13.2" class="st3 st4 st9">INVOLVED</tspan></text>
</g>
<g>
	<g>
		<polygon class="st10" points="55,166.3 7.8,166.3 7.8,97.7 76.4,97.7 76.4,144.9 		"/>
		<path class="st11" d="M57,147.7c8.7,2.2,19.4-2.8,19.4-2.8L55,166.3C55,166.3,58.1,157.1,57,147.7z"/>
	</g>
	<rect x="13.9" y="105.9" class="st2" width="57.5" height="57.1"/>
	<text transform="matrix(1 0 0 1 26.887 114.8087)"><tspan x="0" y="0" class="st3 st4 st12">MEET </tspan><tspan x="3.8" y="14.2" class="st3 st4 st12">OUR</tspan><tspan x="-10.7" y="28.5" class="st3 st4 st12">ANIMALS</tspan></text>
</g>
<g>
	<g>
		<polygon class="st10" points="55,246.9 7.8,246.9 7.8,178.3 76.4,178.3 76.4,225.5 		"/>
		<path class="st11" d="M57,228.4c8.7,2.2,19.4-2.8,19.4-2.8L55,246.9C55,246.9,58.1,237.7,57,228.4z"/>
	</g>
	<rect x="13.9" y="186.5" class="st2" width="57.5" height="57.1"/>
	<text transform="matrix(1 0 0 1 25.387 195.4215)"><tspan x="0" y="0" class="st3 st4 st12">WHAT</tspan><tspan x="9.5" y="14.2" class="st3 st4 st12">TO</tspan><tspan x="-5" y="28.5" class="st3 st4 st12">EXPECT</tspan></text>
</g>
<g>
	<g>
		<polygon class="st10" points="150.1,166.3 102.9,166.3 102.9,97.7 171.5,97.7 171.5,144.9 		"/>
		<path class="st11" d="M152.1,147.7c8.7,2.2,19.4-2.8,19.4-2.8l-21.3,21.3C150.1,166.3,153.2,157.1,152.1,147.7z"/>
	</g>
	<rect x="109" y="105.9" class="st2" width="57.5" height="57.1"/>
	<text transform="matrix(1 0 0 1 116.9572 114.8087)"><tspan x="0" y="0" class="st3 st4 st12">MONEY</tspan><tspan x="8.6" y="14.2" class="st3 st4 st12">AND</tspan><tspan x="4.1" y="28.5" class="st3 st4 st12">GIFTS</tspan></text>
</g>
<g>
	<g>
		<polygon class="st10" points="150.1,246.9 102.9,246.9 102.9,178.3 171.5,178.3 171.5,225.5 		"/>
		<path class="st11" d="M152.1,228.4c8.7,2.2,19.4-2.8,19.4-2.8l-21.3,21.3C150.1,246.9,153.2,237.7,152.1,228.4z"/>
	</g>
	<rect x="109" y="200" class="st2" width="57.5" height="43.6"/>
	<text transform="matrix(1 0 0 1 112.8791 209.796)" class="st3 st4 st13">IMPACT</text>
</g>
<g>
	<g>
		<polygon class="st10" points="245.9,246.9 198.6,246.9 198.6,178.3 267.2,178.3 267.2,225.5 		"/>
		<path class="st11" d="M247.8,228.4c8.7,2.2,19.4-2.8,19.4-2.8l-21.3,21.3C245.9,246.9,249,237.7,247.8,228.4z"/>
	</g>
	<rect x="204.8" y="200" class="st2" width="57.5" height="43.6"/>
	<text transform="matrix(1 0 0 1 207.0936 206.046)" class="st3 st4 st14">FUNDRAISING</text>
</g>
<g>
	<g>
		<polygon class="st10" points="245.9,162.2 198.6,162.2 198.6,93.6 267.2,93.6 267.2,140.8 		"/>
		<path class="st11" d="M247.8,143.6c8.7,2.2,19.4-2.8,19.4-2.8l-21.3,21.3C245.9,162.2,249,153,247.8,143.6z"/>
	</g>
	<rect x="204.8" y="115.3" class="st2" width="57.5" height="43.6"/>
	<text transform="matrix(1 0 0 1 207.6424 122.036)" class="st3 st4 st15">VOLUNTEER</text>
</g>
<g>
	<g>
		<polygon class="st10" points="245.9,327.5 198.6,327.5 198.6,258.9 267.2,258.9 267.2,306.1 		"/>
		<path class="st11" d="M247.8,309c8.7,2.2,19.4-2.8,19.4-2.8l-21.3,21.3C245.9,327.5,249,318.3,247.8,309z"/>
	</g>
	<rect x="204.8" y="280.7" class="st2" width="57.5" height="43.6"/>
	<text transform="matrix(1 0 0 1 209.1678 290.4088)" class="st3 st4 st13">FOSTER</text>
</g>
<g>
	<g>
		<polygon class="st10" points="341.6,162.2 294.4,162.2 294.4,93.6 363,93.6 363,140.8 		"/>
		<path class="st11" d="M343.6,143.6c8.7,2.2,19.4-2.8,19.4-2.8l-21.3,21.3C341.6,162.2,344.7,153,343.6,143.6z"/>
	</g>
	<rect x="300.5" y="115.3" class="st2" width="57.5" height="43.6"/>
	<text transform="matrix(1 0 0 1 312.4117 125.036)" class="st3 st4 st13">BLOG</text>
</g>
<g>
	<g>
		<polygon class="st10" points="341.6,249.4 294.4,249.4 294.4,180.8 363,180.8 363,228 		"/>
		<path class="st11" d="M343.6,230.8c8.7,2.2,19.4-2.8,19.4-2.8l-21.3,21.3C341.6,249.4,344.7,240.2,343.6,230.8z"/>
	</g>
	<rect x="300.5" y="202.5" class="st2" width="57.5" height="43.6"/>
	<text transform="matrix(1 0 0 1 304.6314 212.2412)" class="st3 st4 st13">EVENTS</text>
</g>
<g>
	<g>
		<polygon class="st10" points="341.6,330 294.4,330 294.4,261.4 363,261.4 363,308.6 		"/>
		<path class="st11" d="M343.6,311.4c8.7,2.2,19.4-2.8,19.4-2.8L341.6,330C341.6,330,344.7,320.8,343.6,311.4z"/>
	</g>
	<rect x="300.5" y="283.1" class="st2" width="57.5" height="43.6"/>
	<text transform="matrix(1 0 0 1 303.5484 289.104)" class="st3 st4 st14">NEWSLETTER</text>
</g>
<g>
	<g>
		<polygon class="st10" points="55,327.5 7.8,327.5 7.8,258.9 76.4,258.9 76.4,306.1 		"/>
		<path class="st11" d="M57,309c8.7,2.2,19.4-2.8,19.4-2.8L55,327.5C55,327.5,58.1,318.3,57,309z"/>
	</g>
	<rect x="13.9" y="267.1" class="st2" width="57.5" height="57.1"/>
	<text transform="matrix(1 0 0 1 15.9417 276.0343)"><tspan x="0" y="0" class="st3 st4 st12">PROCESS</tspan><tspan x="14.5" y="14.2" class="st3 st4 st12">AND</tspan><tspan x="12.9" y="28.5" class="st3 st4 st12">FEES</tspan></text>
</g>
<g>
	<g>
		<polygon class="st0" points="341.6,77.4 294.4,77.4 294.4,8.8 363,8.8 363,56 		"/>
		<path class="st1" d="M343.6,58.8c8.7,2.2,19.4-2.8,19.4-2.8l-21.3,21.3C341.6,77.4,344.7,68.2,343.6,58.8z"/>
	</g>
	<rect x="300.5" y="27.5" class="st2" width="57.5" height="33"/>
	<text transform="matrix(1 0 0 1 312.2242 34.2871)"><tspan x="0" y="0" class="st3 st4 st15">WHAT’S</tspan><tspan x="-8.8" y="10.8" class="st3 st4 st15">HAPPENING</tspan></text>
</g>
<g>
	<g>
		<polygon class="st6" points="246.3,435.6 199.1,435.6 199.1,366.9 267.7,366.9 267.7,414.1 		"/>
		<path class="st7" d="M248.3,417c8.7,2.2,19.4-2.8,19.4-2.8l-21.3,21.3C246.3,435.6,249.4,426.4,248.3,417z"/>
	</g>
	<rect x="205.2" y="385.7" class="st2" width="57.5" height="33"/>
	<text transform="matrix(1 0 0 1 223.5782 393.9337)"><tspan x="0" y="0" class="st3 st4 st9">GET </tspan><tspan x="-16.3" y="13.2" class="st3 st4 st9">INVOLVED</tspan></text>
</g>
<g>
	<g>
		<polygon class="st6" points="344.7,434.5 297.5,434.5 297.5,365.9 366.1,365.9 366.1,413.1 		"/>
		<path class="st7" d="M346.7,415.9c8.7,2.2,19.4-2.8,19.4-2.8l-21.3,21.3C344.7,434.5,347.8,425.3,346.7,415.9z"/>
	</g>
	<rect x="303.6" y="384.6" class="st2" width="57.5" height="33"/>
	<text transform="matrix(1 0 0 1 315.3305 391.3463)"><tspan x="0" y="0" class="st3 st4 st15">WHAT’S</tspan><tspan x="-8.8" y="10.8" class="st3 st4 st15">HAPPENING</tspan></text>
</g>
<g>
	<g>
		<polygon class="st6" points="439.1,434.5 391.8,434.5 391.8,365.9 460.4,365.9 460.4,413.1 		"/>
		<path class="st7" d="M441.1,415.9c8.7,2.2,19.4-2.8,19.4-2.8l-21.3,21.3C439.1,434.5,442.2,425.3,441.1,415.9z"/>
	</g>
	<rect x="398" y="384.6" class="st2" width="57.5" height="33"/>
	<text transform="matrix(1 0 0 1 407.0567 395.0963)" class="st3 st4 st5">FAQ’S</text>
</g>
<g>
	<g>
		<polygon class="st6" points="533.4,435.4 486.1,435.4 486.1,366.8 554.7,366.8 554.7,414 		"/>
		<path class="st7" d="M535.3,416.9c8.7,2.2,19.4-2.8,19.4-2.8l-21.3,21.3C533.4,435.4,536.4,426.2,535.3,416.9z"/>
	</g>
	<rect x="492.3" y="385.6" class="st2" width="57.5" height="33"/>
	<text transform="matrix(1 0 0 1 501.5381 393.8086)"><tspan x="0" y="0" class="st3 st4 st9">SOCIAL</tspan><tspan x="2.4" y="13.2" class="st3 st4 st9">MEDIA</tspan></text>
</g>
</svg>
