<?xml version="1.0" encoding="utf-8"?>
<!-- Generator: Adobe Illustrator 23.1.1, SVG Export Plug-In . SVG Version: 6.00 Build 0)  -->
<svg version="1.1" xmlns="http://www.w3.org/2000/svg" xmlns:xlink="http://www.w3.org/1999/xlink" x="0px" y="0px"
	 viewBox="0 0 800 185.2" style="enable-background:new 0 0 800 185.2;" xml:space="preserve">
<style type="text/css">
	.st0{opacity:0.3;}
	.st1{fill:#F5821F;}
	.st2{fill:#162A65;}
	.st3{font-family:'Roboto-Bold';}
	.st4{font-size:54.7903px;}
	.st5{fill:none;}
	.st6{font-family:'Roboto-Regular';}
	.st7{font-size:18.15px;}
</style>
<g id="Layer_2">
	<g id="noun_Heart_Paw_714852" transform="translate(237.4 -396.968)" class="st0">
		<path id="Path_28" class="st1" d="M-136.8,414.8c-3.8-5.8-10-9.6-16.8-10.5c-5.1-0.7-10.3,0.1-15,2.4c-2.3,1.1-4.5,2.6-6.3,4.5
			c-3.4,3.3-6,7.4-7.5,12c-0.3,1.1-0.6,2.2-1,3.3l0,0l-0.2-0.1c-1.9-1.7-4.1-3.1-6.4-4.2c-3-1.5-6.2-2.5-9.6-2.8
			c-4.7-0.5-9.5,0.3-13.8,2.5c-2.2,1-4.3,2.5-6.1,4.2c-7,6.6-9.7,16.7-6.8,25.9c0.7,2.3,1.6,4.6,2.6,6.8c0.8,1.9,1.8,3.7,3,5.3
			c2.7,4.2,6.2,7.7,10.3,10.5c3.3,2.3,6.9,4.2,10.6,5.8c4.9,2.2,9.7,4.2,14.8,6.3c8.7,3.6,17.2,7.2,25.6,11l0.2,0.1
			c0.1,0,0.1-0.1,0.1-0.2l0,0c3.1-5.7,6.2-11.4,9.4-17c3.2-5.4,6.2-10.7,9.4-16.1c2.2-3.9,4.4-7.8,6.2-11.9
			c1.6-3.7,2.7-7.6,3.3-11.6c0.5-4.5,0.2-9-0.8-13.4c-0.5-1.8-1.1-3.8-1.6-5.8C-134.1,419.4-135.3,417-136.8,414.8z M-172,432.1
			c2.8-3.6,7.1-2.7,8.8,1.4l0.7,2.1c0.7,3.7-0.2,7.5-2.5,10.5c-1,1.8-3,2.7-5,2.5c-2.1-0.2-3.8-1.7-4.4-3.7
			C-175.9,440.5-175,435.6-172,432.1L-172,432.1z M-189.7,435c0.9-2.2,3.3-3.2,5.5-2.4c0.2,0.1,0.3,0.1,0.5,0.2
			c2.9,1.3,5,3.8,5.8,6.9c0.2,0.6,0.3,1.4,0.5,2c0.6,2.3,0.3,4.7-0.9,6.8c-1.1,1.9-3.6,2.7-5.6,1.7
			C-189.2,448.2-192.3,440.1-189.7,435z M-195.3,462.4c-3.5-2.1-5.9-5.2-5.9-9.5c-0.1-2.8,2-5.2,4.8-5.3c0.6,0,1.2,0.1,1.8,0.2
			c3.6,0.9,6.4,4.2,7.4,8.7c0.6,2.1-0.1,4.3-1.7,5.7C-190.7,463.7-193.3,463.7-195.3,462.4L-195.3,462.4z M-158,472.8
			c-1.5,0.9-3.2,1.4-5,1.5c-2.1,0.1-4.3,0.1-6.4-0.2c-2.8-0.4-5.6,0.3-7.8,2c-1,0.7-2.1,1.3-3.2,1.8c-4.7,0.8-8.3-2.9-7.4-7.8
			c0.9-5.4,3.2-10.4,6.7-14.6c3.6-4.2,6.6-4.7,11.6-2.2c5,2.6,9.2,6.5,12.2,11.2c0.6,1,1.1,2,1.5,3
			C-155.2,469.5-156.1,471.8-158,472.8L-158,472.8z M-154.2,457c-2.2,1.6-5.3,1.2-7-1c-0.2-0.2-0.3-0.4-0.4-0.7
			c-1.6-2.9-1.7-6.4-0.1-9.3c0.6-1.4,1.6-2.6,2.8-3.6c1.8-1.8,4.8-1.7,6.6,0.1c0.3,0.4,0.6,0.8,0.8,1.2c0.4,0.7,0.7,1.4,1.1,2.1
			C-149.5,450.1-151,454.3-154.2,457L-154.2,457z"/>
	</g>
	<g id="noun_lightbulb_589680" transform="translate(-5.29 -5)" class="st0">
		<path id="Path_84" class="st1" d="M664.8,74.7h-14.2c-1.7,0-3.1,1.4-3.1,3.1c0,1.7,1.4,3.1,3.1,3.1h14.2c1.7,0,3.1-1.4,3.1-3.1
			C667.9,76.1,666.5,74.7,664.8,74.7C664.8,74.7,664.8,74.7,664.8,74.7z"/>
		<path id="Path_85" class="st1" d="M645.7,58.8c0.6,0,1.1-0.1,1.6-0.4l12.3-7.1c1.5-0.9,1.9-2.8,1-4.3c-0.9-1.4-2.7-1.9-4.2-1.1
			l-12.3,7.1c-1.5,0.8-2,2.7-1.1,4.2C643.6,58.2,644.6,58.8,645.7,58.8L645.7,58.8z"/>
		<path id="Path_86" class="st1" d="M640.4,23.6c-1.4-0.9-3.2-0.6-4.2,0.8l-8,11.7c-1,1.3-0.8,3.3,0.5,4.3c1.3,1,3.3,0.8,4.3-0.5
			c0.1-0.1,0.2-0.2,0.2-0.3l7.9-11.8C642.1,26.4,641.8,24.5,640.4,23.6L640.4,23.6z"/>
		<path id="Path_87" class="st1" d="M579.8,40.9c1.7,0,3.1-1.4,3.1-3.1c0-0.6-0.2-1.2-0.5-1.7l-8-11.7c-0.9-1.4-2.8-1.9-4.2-1
			c-1.4,0.9-1.9,2.8-1,4.2c0,0.1,0.1,0.1,0.1,0.2l8,11.8C577.9,40.4,578.8,40.9,579.8,40.9L579.8,40.9z"/>
		<path id="Path_88" class="st1" d="M566.3,53.1L554,46c-1.5-0.8-3.4-0.2-4.1,1.3c-0.7,1.4-0.3,3.1,1.1,3.9l12.3,7.1
			c1.4,0.9,3.3,0.5,4.2-0.9c0.9-1.4,0.5-3.3-0.9-4.2C566.5,53.2,566.4,53.1,566.3,53.1L566.3,53.1z"/>
		<path id="Path_89" class="st1" d="M659.5,103.7l-12.2-7.1c-1.5-0.9-3.4-0.4-4.2,1c-0.9,1.5-0.4,3.4,1,4.2c0,0,0.1,0,0.1,0
			l12.3,7.1c1.5,0.8,3.4,0.2,4.1-1.3C661.3,106.3,660.8,104.6,659.5,103.7L659.5,103.7z"/>
		<path id="Path_90" class="st1" d="M563.2,96.6l-12.3,7.1c-1.5,0.8-2.1,2.6-1.3,4.1c0.8,1.5,2.6,2.1,4.1,1.3
			c0.1-0.1,0.2-0.1,0.3-0.2l12.3-7.1c1.4-0.9,1.8-2.8,0.9-4.2C566.3,96.4,564.6,95.9,563.2,96.6L563.2,96.6z"/>
		<path id="Path_91" class="st1" d="M563,77.8c0-1.7-1.4-3.1-3.1-3.1h-14.2c-1.7,0-3.1,1.4-3.1,3.1c0,1.7,1.4,3.1,3.1,3.1H560
			C561.7,80.9,563,79.5,563,77.8z"/>
		<path id="Path_92" class="st1" d="M605.2,32.7c1.7,0,3.1-1.4,3.1-3.1V15.4c0-1.7-1.4-3.1-3.1-3.1c-1.7,0-3.1,1.4-3.1,3.1
			c0,0,0,0,0,0v14.2C602.1,31.3,603.5,32.7,605.2,32.7z"/>
		<path id="Path_93" class="st1" d="M617.4,114.9H593c-1.7,0-3.1,1.4-3.1,3.1c0,1.7,1.4,3.1,3.1,3.1h24.4c1.7,0,3.1-1.4,3.1-3.1
			C620.4,116.3,619.1,114.9,617.4,114.9z"/>
		<path id="Path_94" class="st1" d="M598.9,133.2v1.7c0,1.9,1.6,3.5,3.5,3.5h5c1.9,0,3.5-1.6,3.5-3.5v-1.6c4-0.2,7.1-3.5,7.1-7.5
			h-25.5C592.4,129.5,595.2,132.6,598.9,133.2z"/>
		<path id="Path_95" class="st1" d="M605.2,45.4c-17.2,0.2-31,14.4-30.8,31.6c0,4.1,0.8,8.1,2.3,11.9c0.2,0.5,0.4,0.9,0.6,1.4
			c1.3,3,3.1,5.7,5.3,8.1l7.8,12H620l7.8-12c2.2-2.4,4-5.2,5.3-8.1c0.2-0.5,0.4-0.9,0.6-1.4c1.5-3.8,2.3-7.8,2.3-11.9
			C636.2,59.7,622.4,45.6,605.2,45.4z M603.8,57c-3.2,0.2-6.4,1.2-9.2,2.8c-5.9,3.5-8.9,9.8-9.1,18.6c0,1.7-1.4,3-3.1,3l0,0
			c-1.7,0-3-1.4-3-3.1c0.2-14,6.8-20.7,12.3-23.9c3.7-2.1,7.8-3.3,12-3.5c1.7,0,3.1,1.4,3.1,3.1C606.9,55.7,605.5,57.1,603.8,57
			L603.8,57z"/>
	</g>
	<g id="Group_208" transform="translate(-720 -3150)" class="st0">
		<g id="noun_animal_care_1568377" transform="translate(714 3146)">
			<g transform="translate(6 4)">
				<path id="Path_53" class="st1" d="M348.6,119.9l-7.4-0.9c-0.5-0.1-1,0-1.5,0.2l-0.5,0.2c-1.7,0.6-2.6,2.6-1.9,4.3
					c0.3,0.8,0.9,1.4,1.6,1.8l15.5,7.3c1.3,0.6,2.1,2.1,1.8,3.6c-0.3,1.7-1.9,2.9-3.6,2.7c-0.4-0.1-0.7-0.2-1.1-0.4l-11.4-5.3
					c-3.4-1.6-6.3-3.9-8.6-6.8l-13.6-17c-1-1.1-2.7-1.2-3.8-0.2c-0.7,0.7-1,1.7-0.8,2.7l0,0c3.6,10,8,19.6,13.2,28.8l1.8,3.2
					c2.8,5,6.7,9.3,11.3,12.7l15.9,11.7c2.6,2,4.3,4.9,4.7,8.2c0.3,1.9,2.1,3.3,4,3c0.2,0,0.5-0.1,0.7-0.2l12.7-4.6
					c6.3-2.3,9.6-9.3,7.3-15.7l0,0l-5.4-14.9c-2-5.5-5.3-10.5-9.5-14.6C364,124.1,356.6,120.7,348.6,119.9L348.6,119.9z"/>
				<path id="Path_54" class="st1" d="M423.3,69c-1.1,0.4-1.8,1.4-1.8,2.6l0.5,21.8c0.1,3.7-0.7,7.4-2.3,10.7l-5.3,11.4
					c-0.6,1.6-2.5,2.5-4.1,1.9c-0.4-0.1-0.7-0.3-1-0.6c-1.1-0.9-1.5-2.5-0.9-3.9l7.2-15.5c0.7-1.7,0-3.6-1.7-4.4
					c-0.8-0.3-1.6-0.4-2.4-0.1l-0.5,0.2c-0.5,0.2-0.9,0.5-1.3,0.8l-5.2,5.4c-5.5,5.7-9.1,13.1-10,21c-0.6,5.9,0.2,11.9,2.3,17.4
					l5.4,14.9c2.3,6.3,9.3,9.6,15.7,7.3l0,0l12.7-4.6c1.8-0.7,2.8-2.7,2.1-4.5c-0.1-0.3-0.2-0.5-0.4-0.7c-1.9-2.7-2.5-6.1-1.7-9.3
					l4.7-19.2c1.4-5.6,1.5-11.3,0.5-17l-0.7-3.6c-1.9-10.4-4.7-20.6-8.3-30.5l0,0C426.3,69.2,424.7,68.5,423.3,69z"/>
				<path id="Path_55" class="st1" d="M388.8,85.1c-3.2-10.4-14.3-16.3-24.8-13.1c-10.4,3.2-16.3,14.3-13.1,24.8
					c0.2,0.6,0.4,1.2,0.7,1.8c3.7,10.3,13.6,11.6,23.9,7.9C385.8,102.8,392.5,95.4,388.8,85.1z"/>
				<path id="Path_56" class="st1" d="M337.5,65.9c-4.2,1.5-5.7,8.3-4.2,12.5c1.5,4.3,5.5,4.4,9.8,2.9c4.2-1.5,7.2-4.2,5.6-8.5
					C347.2,68.6,341.8,64.3,337.5,65.9z"/>
				<path id="Path_57" class="st1" d="M374.4,63.5c1.5,4.2,5.5,4.4,9.8,2.9s7.2-4.2,5.6-8.5s-7-8.5-11.2-6.9
					C374.3,52.5,372.8,59.2,374.4,63.5z"/>
				<path id="Path_58" class="st1" d="M348.8,59.6c1.8,5,6.2,5.2,11,3.4c4.7-1.7,8-4.8,6.2-9.7c-1.8-4.9-8-10.1-12.7-8.4
					C348.4,46.7,347,54.7,348.8,59.6z"/>
			</g>
		</g>
	</g>
</g>
<g id="Layer_1">
	<text transform="matrix(1 0 0 1 47.9292 86.9316)" class="st2 st3 st4">85%</text>
	<text transform="matrix(1 0 0 1 247.8362 86.9316)" class="st2 st3 st4">91%</text>
	<text transform="matrix(1 0 0 1 447.0957 86.9316)" class="st2 st3 st4">63%</text>
	<text transform="matrix(1 0 0 1 647.9297 86.9316)" class="st2 st3 st4">84%</text>
	<rect x="10.7" y="108.9" class="st5" width="177.8" height="68.8"/>
	<text transform="matrix(1 0 0 1 21.8491 122.4985)"><tspan x="0" y="0" class="st2 st6 st7">Think it’s important</tspan><tspan x="-5.1" y="24.2" class="st2 st6 st7">to see the difference</tspan><tspan x="-7.4" y="48.4" class="st2 st6 st7">their donation makes</tspan></text>
	<rect x="211.1" y="108.9" class="st5" width="177.8" height="68.8"/>
	<text transform="matrix(1 0 0 1 234.061 122.4985)"><tspan x="0" y="0" class="st2 st6 st7">Are interested in </tspan><tspan x="16.2" y="24.2" class="st2 st6 st7">volunteering</tspan></text>
	<rect x="409.8" y="108.9" class="st5" width="177.8" height="68.8"/>
	<text transform="matrix(1 0 0 1 424.4824 122.4985)" class="st2 st6 st7">Adopted their pets</text>
	<rect x="611.5" y="108.9" class="st5" width="177.8" height="68.8"/>
	<text transform="matrix(1 0 0 1 642.2521 122.4985)"><tspan x="0" y="0" class="st2 st6 st7">Find out about </tspan><tspan x="-28.7" y="24.2" class="st2 st6 st7">opportunityies to give </tspan><tspan x="-26.6" y="48.4" class="st2 st6 st7">through social media</tspan></text>
</g>
</svg>
