<?xml version="1.0" encoding="utf-8"?>
<!-- Generator: Adobe Illustrator 24.0.0, SVG Export Plug-In . SVG Version: 6.00 Build 0)  -->
<svg version="1.1" id="Layer_1" xmlns="http://www.w3.org/2000/svg" xmlns:xlink="http://www.w3.org/1999/xlink" x="0px" y="0px"
	 viewBox="0 0 800 185.2" style="enable-background:new 0 0 800 185.2;" xml:space="preserve">
<style type="text/css">
	.st0{opacity:0.3;}
	.st1{fill:#F5821F;}
	.st2{enable-background:new    ;}
	.st3{fill:#162A65;}
	.st4{fill:none;}
</style>
<g id="Layer_2_1_">
	<g id="noun_Heart_Paw_714852" transform="translate(237.4 -396.968)" class="st0">
		<path id="Path_28" class="st1" d="M-136.8,414.8c-3.8-5.8-10-9.6-16.8-10.5c-5.1-0.7-10.3,0.1-15,2.4c-2.3,1.1-4.5,2.6-6.3,4.5
			c-3.4,3.3-6,7.4-7.5,12c-0.3,1.1-0.6,2.2-1,3.3l0,0l-0.2-0.1c-1.9-1.7-4.1-3.1-6.4-4.2c-3-1.5-6.2-2.5-9.6-2.8
			c-4.7-0.5-9.5,0.3-13.8,2.5c-2.2,1-4.3,2.5-6.1,4.2c-7,6.6-9.7,16.7-6.8,25.9c0.7,2.3,1.6,4.6,2.6,6.8c0.8,1.9,1.8,3.7,3,5.3
			c2.7,4.2,6.2,7.7,10.3,10.5c3.3,2.3,6.9,4.2,10.6,5.8c4.9,2.2,9.7,4.2,14.8,6.3c8.7,3.6,17.2,7.2,25.6,11l0.2,0.1
			c0.1,0,0.1-0.1,0.1-0.2l0,0c3.1-5.7,6.2-11.4,9.4-17c3.2-5.4,6.2-10.7,9.4-16.1c2.2-3.9,4.4-7.8,6.2-11.9
			c1.6-3.7,2.7-7.6,3.3-11.6c0.5-4.5,0.2-9-0.8-13.4c-0.5-1.8-1.1-3.8-1.6-5.8C-134.1,419.4-135.3,417-136.8,414.8z M-172,432.1
			c2.8-3.6,7.1-2.7,8.8,1.4l0.7,2.1c0.7,3.7-0.2,7.5-2.5,10.5c-1,1.8-3,2.7-5,2.5c-2.1-0.2-3.8-1.7-4.4-3.7
			C-175.9,440.5-175,435.6-172,432.1L-172,432.1z M-189.7,435c0.9-2.2,3.3-3.2,5.5-2.4c0.2,0.1,0.3,0.1,0.5,0.2
			c2.9,1.3,5,3.8,5.8,6.9c0.2,0.6,0.3,1.4,0.5,2c0.6,2.3,0.3,4.7-0.9,6.8c-1.1,1.9-3.6,2.7-5.6,1.7
			C-189.2,448.2-192.3,440.1-189.7,435z M-195.3,462.4c-3.5-2.1-5.9-5.2-5.9-9.5c-0.1-2.8,2-5.2,4.8-5.3c0.6,0,1.2,0.1,1.8,0.2
			c3.6,0.9,6.4,4.2,7.4,8.7c0.6,2.1-0.1,4.3-1.7,5.7C-190.7,463.7-193.3,463.7-195.3,462.4L-195.3,462.4z M-158,472.8
			c-1.5,0.9-3.2,1.4-5,1.5c-2.1,0.1-4.3,0.1-6.4-0.2c-2.8-0.4-5.6,0.3-7.8,2c-1,0.7-2.1,1.3-3.2,1.8c-4.7,0.8-8.3-2.9-7.4-7.8
			c0.9-5.4,3.2-10.4,6.7-14.6c3.6-4.2,6.6-4.7,11.6-2.2c5,2.6,9.2,6.5,12.2,11.2c0.6,1,1.1,2,1.5,3
			C-155.2,469.5-156.1,471.8-158,472.8L-158,472.8z M-154.2,457c-2.2,1.6-5.3,1.2-7-1c-0.2-0.2-0.3-0.4-0.4-0.7
			c-1.6-2.9-1.7-6.4-0.1-9.3c0.6-1.4,1.6-2.6,2.8-3.6c1.8-1.8,4.8-1.7,6.6,0.1c0.3,0.4,0.6,0.8,0.8,1.2c0.4,0.7,0.7,1.4,1.1,2.1
			C-149.5,450.1-151,454.3-154.2,457L-154.2,457z"/>
	</g>
	<g id="noun_lightbulb_589680" transform="translate(-5.29 -5)" class="st0">
		<path id="Path_84" class="st1" d="M664.8,74.7h-14.2c-1.7,0-3.1,1.4-3.1,3.1s1.4,3.1,3.1,3.1h14.2c1.7,0,3.1-1.4,3.1-3.1
			C667.9,76.1,666.5,74.7,664.8,74.7L664.8,74.7z"/>
		<path id="Path_85" class="st1" d="M645.7,58.8c0.6,0,1.1-0.1,1.6-0.4l12.3-7.1c1.5-0.9,1.9-2.8,1-4.3c-0.9-1.4-2.7-1.9-4.2-1.1
			L644.1,53c-1.5,0.8-2,2.7-1.1,4.2C643.6,58.2,644.6,58.8,645.7,58.8L645.7,58.8z"/>
		<path id="Path_86" class="st1" d="M640.4,23.6c-1.4-0.9-3.2-0.6-4.2,0.8l-8,11.7c-1,1.3-0.8,3.3,0.5,4.3s3.3,0.8,4.3-0.5
			c0.1-0.1,0.2-0.2,0.2-0.3l7.9-11.8C642.1,26.4,641.8,24.5,640.4,23.6L640.4,23.6z"/>
		<path id="Path_87" class="st1" d="M579.8,40.9c1.7,0,3.1-1.4,3.1-3.1c0-0.6-0.2-1.2-0.5-1.7l-8-11.7c-0.9-1.4-2.8-1.9-4.2-1
			s-1.9,2.8-1,4.2c0,0.1,0.1,0.1,0.1,0.2l8,11.8C577.9,40.4,578.8,40.9,579.8,40.9L579.8,40.9z"/>
		<path id="Path_88" class="st1" d="M566.3,53.1L554,46c-1.5-0.8-3.4-0.2-4.1,1.3c-0.7,1.4-0.3,3.1,1.1,3.9l12.3,7.1
			c1.4,0.9,3.3,0.5,4.2-0.9s0.5-3.3-0.9-4.2C566.5,53.2,566.4,53.1,566.3,53.1L566.3,53.1z"/>
		<path id="Path_89" class="st1" d="M659.5,103.7l-12.2-7.1c-1.5-0.9-3.4-0.4-4.2,1c-0.9,1.5-0.4,3.4,1,4.2h0.1l12.3,7.1
			c1.5,0.8,3.4,0.2,4.1-1.3C661.3,106.3,660.8,104.6,659.5,103.7L659.5,103.7z"/>
		<path id="Path_90" class="st1" d="M563.2,96.6l-12.3,7.1c-1.5,0.8-2.1,2.6-1.3,4.1s2.6,2.1,4.1,1.3c0.1-0.1,0.2-0.1,0.3-0.2
			l12.3-7.1c1.4-0.9,1.8-2.8,0.9-4.2C566.3,96.4,564.6,95.9,563.2,96.6L563.2,96.6z"/>
		<path id="Path_91" class="st1" d="M563,77.8c0-1.7-1.4-3.1-3.1-3.1h-14.2c-1.7,0-3.1,1.4-3.1,3.1s1.4,3.1,3.1,3.1H560
			C561.7,80.9,563,79.5,563,77.8z"/>
		<path id="Path_92" class="st1" d="M605.2,32.7c1.7,0,3.1-1.4,3.1-3.1V15.4c0-1.7-1.4-3.1-3.1-3.1c-1.7,0-3.1,1.4-3.1,3.1l0,0v14.2
			C602.1,31.3,603.5,32.7,605.2,32.7z"/>
		<path id="Path_93" class="st1" d="M617.4,114.9H593c-1.7,0-3.1,1.4-3.1,3.1s1.4,3.1,3.1,3.1h24.4c1.7,0,3.1-1.4,3.1-3.1
			C620.4,116.3,619.1,114.9,617.4,114.9z"/>
		<path id="Path_94" class="st1" d="M598.9,133.2v1.7c0,1.9,1.6,3.5,3.5,3.5h5c1.9,0,3.5-1.6,3.5-3.5v-1.6c4-0.2,7.1-3.5,7.1-7.5
			h-25.5C592.4,129.5,595.2,132.6,598.9,133.2z"/>
		<path id="Path_95" class="st1" d="M605.2,45.4c-17.2,0.2-31,14.4-30.8,31.6c0,4.1,0.8,8.1,2.3,11.9c0.2,0.5,0.4,0.9,0.6,1.4
			c1.3,3,3.1,5.7,5.3,8.1l7.8,12H620l7.8-12c2.2-2.4,4-5.2,5.3-8.1c0.2-0.5,0.4-0.9,0.6-1.4c1.5-3.8,2.3-7.8,2.3-11.9
			C636.2,59.7,622.4,45.6,605.2,45.4z M603.8,57c-3.2,0.2-6.4,1.2-9.2,2.8c-5.9,3.5-8.9,9.8-9.1,18.6c0,1.7-1.4,3-3.1,3l0,0
			c-1.7,0-3-1.4-3-3.1c0.2-14,6.8-20.7,12.3-23.9c3.7-2.1,7.8-3.3,12-3.5c1.7,0,3.1,1.4,3.1,3.1C606.9,55.7,605.5,57.1,603.8,57
			L603.8,57z"/>
	</g>
	<g id="Group_208" transform="translate(-720 -3150)" class="st0">
		<g id="noun_animal_care_1568377" transform="translate(714 3146)">
			<g transform="translate(6 4)">
				<path id="Path_53" class="st1" d="M348.6,119.9l-7.4-0.9c-0.5-0.1-1,0-1.5,0.2l-0.5,0.2c-1.7,0.6-2.6,2.6-1.9,4.3
					c0.3,0.8,0.9,1.4,1.6,1.8l15.5,7.3c1.3,0.6,2.1,2.1,1.8,3.6c-0.3,1.7-1.9,2.9-3.6,2.7c-0.4-0.1-0.7-0.2-1.1-0.4l-11.4-5.3
					c-3.4-1.6-6.3-3.9-8.6-6.8l-13.6-17c-1-1.1-2.7-1.2-3.8-0.2c-0.7,0.7-1,1.7-0.8,2.7l0,0c3.6,10,8,19.6,13.2,28.8l1.8,3.2
					c2.8,5,6.7,9.3,11.3,12.7l15.9,11.7c2.6,2,4.3,4.9,4.7,8.2c0.3,1.9,2.1,3.3,4,3c0.2,0,0.5-0.1,0.7-0.2l12.7-4.6
					c6.3-2.3,9.6-9.3,7.3-15.7l0,0l-5.4-14.9c-2-5.5-5.3-10.5-9.5-14.6C364,124.1,356.6,120.7,348.6,119.9L348.6,119.9z"/>
				<path id="Path_54" class="st1" d="M423.3,69c-1.1,0.4-1.8,1.4-1.8,2.6l0.5,21.8c0.1,3.7-0.7,7.4-2.3,10.7l-5.3,11.4
					c-0.6,1.6-2.5,2.5-4.1,1.9c-0.4-0.1-0.7-0.3-1-0.6c-1.1-0.9-1.5-2.5-0.9-3.9l7.2-15.5c0.7-1.7,0-3.6-1.7-4.4
					c-0.8-0.3-1.6-0.4-2.4-0.1l-0.5,0.2c-0.5,0.2-0.9,0.5-1.3,0.8l-5.2,5.4c-5.5,5.7-9.1,13.1-10,21c-0.6,5.9,0.2,11.9,2.3,17.4
					l5.4,14.9c2.3,6.3,9.3,9.6,15.7,7.3l0,0l12.7-4.6c1.8-0.7,2.8-2.7,2.1-4.5c-0.1-0.3-0.2-0.5-0.4-0.7c-1.9-2.7-2.5-6.1-1.7-9.3
					l4.7-19.2c1.4-5.6,1.5-11.3,0.5-17l-0.7-3.6c-1.9-10.4-4.7-20.6-8.3-30.5l0,0C426.3,69.2,424.7,68.5,423.3,69z"/>
				<path id="Path_55" class="st1" d="M388.8,85.1C385.6,74.7,374.5,68.8,364,72c-10.4,3.2-16.3,14.3-13.1,24.8
					c0.2,0.6,0.4,1.2,0.7,1.8c3.7,10.3,13.6,11.6,23.9,7.9C385.8,102.8,392.5,95.4,388.8,85.1z"/>
				<path id="Path_56" class="st1" d="M337.5,65.9c-4.2,1.5-5.7,8.3-4.2,12.5c1.5,4.3,5.5,4.4,9.8,2.9c4.2-1.5,7.2-4.2,5.6-8.5
					C347.2,68.6,341.8,64.3,337.5,65.9z"/>
				<path id="Path_57" class="st1" d="M374.4,63.5c1.5,4.2,5.5,4.4,9.8,2.9s7.2-4.2,5.6-8.5s-7-8.5-11.2-6.9
					C374.3,52.5,372.8,59.2,374.4,63.5z"/>
				<path id="Path_58" class="st1" d="M348.8,59.6c1.8,5,6.2,5.2,11,3.4c4.7-1.7,8-4.8,6.2-9.7s-8-10.1-12.7-8.4
					C348.4,46.7,347,54.7,348.8,59.6z"/>
			</g>
		</g>
	</g>
</g>
<g id="Layer_1_1_">
	<g class="st2">
		<path class="st3" d="M76,58.3c0,1.9-0.5,3.6-1.4,5c-0.9,1.5-2.2,2.6-3.9,3.5c1.9,0.9,3.4,2.2,4.5,3.8c1.1,1.6,1.7,3.5,1.7,5.6
			c0,3.5-1.2,6.2-3.5,8.2c-2.4,2-5.6,3-9.6,3c-4,0-7.3-1-9.6-3c-2.4-2-3.6-4.7-3.6-8.2c0-2.2,0.6-4,1.7-5.6c1.1-1.6,2.6-2.9,4.5-3.7
			c-1.7-0.9-3-2-3.9-3.5c-0.9-1.5-1.4-3.1-1.4-5c0-3.3,1.1-6,3.3-7.9c2.2-2,5.2-3,9-3c3.8,0,6.8,1,9,2.9C74.9,52.3,76,55,76,58.3z
			 M69,75.7c0-1.7-0.5-3-1.5-4.1s-2.3-1.5-4-1.5c-1.6,0-3,0.5-3.9,1.5c-1,1-1.5,2.4-1.5,4.1c0,1.7,0.5,3,1.4,4c1,1,2.3,1.5,4,1.5
			c1.7,0,3-0.5,3.9-1.5C68.6,78.8,69,77.4,69,75.7z M68.2,58.7c0-1.5-0.4-2.7-1.2-3.7c-0.8-0.9-1.9-1.4-3.4-1.4
			c-1.4,0-2.6,0.4-3.4,1.3c-0.8,0.9-1.2,2.1-1.2,3.7c0,1.6,0.4,2.8,1.2,3.7c0.8,0.9,1.9,1.4,3.4,1.4c1.5,0,2.6-0.5,3.4-1.4
			C67.8,61.5,68.2,60.3,68.2,58.7z"/>
		<path class="st3" d="M83.2,67.8L85.4,48h21.8v6.4H91.8l-1,8.4c1.8-1,3.8-1.5,5.9-1.5c3.7,0,6.6,1.2,8.7,3.5s3.2,5.5,3.2,9.7
			c0,2.5-0.5,4.8-1.6,6.8c-1.1,2-2.6,3.5-4.6,4.6c-2,1.1-4.3,1.6-7,1.6c-2.4,0-4.5-0.5-6.6-1.4c-2-1-3.6-2.3-4.8-4
			c-1.2-1.7-1.8-3.7-1.9-5.9h7.7c0.2,1.6,0.7,2.9,1.7,3.8c1,0.9,2.2,1.4,3.8,1.4c1.7,0,3.1-0.6,4-1.9c0.9-1.3,1.4-3,1.4-5.3
			c0-2.2-0.5-3.9-1.6-5.1c-1.1-1.2-2.6-1.8-4.6-1.8c-1.8,0-3.3,0.5-4.5,1.4l-0.7,0.7L83.2,67.8z"/>
		<path class="st3" d="M113.3,55.5c0-2.4,0.8-4.3,2.3-5.8s3.6-2.2,6.1-2.2c2.6,0,4.6,0.7,6.2,2.2c1.6,1.5,2.3,3.5,2.3,6v1.9
			c0,2.4-0.8,4.3-2.3,5.8c-1.6,1.5-3.6,2.2-6.1,2.2c-2.5,0-4.6-0.7-6.1-2.2c-1.6-1.5-2.3-3.5-2.3-6V55.5z M118.5,57.5
			c0,1.1,0.3,1.9,0.9,2.6c0.6,0.7,1.4,1,2.4,1c1,0,1.8-0.3,2.4-1s0.9-1.5,0.9-2.6v-2c0-1.1-0.3-1.9-0.9-2.6s-1.4-1-2.4-1
			c-1,0-1.8,0.3-2.4,1c-0.6,0.7-0.9,1.6-0.9,2.7V57.5z M123.3,84l-3.8-2l19-30.4l3.8,2L123.3,84z M132,77.4c0-2.4,0.8-4.3,2.4-5.8
			c1.6-1.5,3.6-2.2,6.1-2.2c2.5,0,4.6,0.7,6.1,2.2c1.6,1.5,2.3,3.5,2.3,6v1.9c0,2.4-0.8,4.3-2.3,5.8c-1.5,1.5-3.6,2.2-6.1,2.2
			c-2.6,0-4.6-0.7-6.2-2.2s-2.3-3.4-2.3-5.9V77.4z M137.1,79.5c0,1,0.3,1.8,1,2.5s1.4,1,2.4,1c2.2,0,3.3-1.2,3.3-3.6v-2
			c0-1.1-0.3-1.9-0.9-2.6c-0.6-0.7-1.4-1-2.4-1c-1,0-1.8,0.3-2.4,1c-0.6,0.7-0.9,1.5-0.9,2.7V79.5z"/>
	</g>
	<g class="st2">
		<path class="st3" d="M268.6,71.4c-2,2-4.4,3-7.1,3c-3.4,0-6.2-1.2-8.3-3.5c-2.1-2.4-3.1-5.6-3.1-9.6c0-2.5,0.6-4.9,1.7-7
			c1.1-2.1,2.7-3.8,4.7-5c2-1.2,4.2-1.8,6.7-1.8c2.6,0,4.9,0.6,6.8,1.9c2,1.3,3.5,3.1,4.7,5.5s1.7,5.2,1.7,8.3V66
			c0,6.5-1.6,11.6-4.8,15.3c-3.2,3.7-7.8,5.7-13.7,5.9l-1.9,0v-6.4l1.7,0C264.4,80.5,268,77.4,268.6,71.4z M263.4,68.4
			c1.2,0,2.3-0.3,3.2-1c0.9-0.6,1.6-1.4,2-2.3v-3.2c0-2.6-0.5-4.7-1.5-6.1c-1-1.4-2.3-2.2-4-2.2c-1.6,0-2.8,0.7-3.8,2.1
			c-1,1.4-1.5,3.2-1.5,5.3c0,2.1,0.5,3.9,1.5,5.2C260.3,67.7,261.6,68.4,263.4,68.4z"/>
		<path class="st3" d="M300.7,86.9H293V57.1l-9.2,2.9v-6.3l16.1-5.8h0.8V86.9z"/>
		<path class="st3" d="M313.2,55.5c0-2.4,0.8-4.3,2.3-5.8s3.6-2.2,6.1-2.2c2.6,0,4.6,0.7,6.2,2.2c1.6,1.5,2.3,3.5,2.3,6v1.9
			c0,2.4-0.8,4.3-2.3,5.8c-1.6,1.5-3.6,2.2-6.1,2.2c-2.5,0-4.6-0.7-6.1-2.2c-1.6-1.5-2.3-3.5-2.3-6V55.5z M318.4,57.5
			c0,1.1,0.3,1.9,0.9,2.6c0.6,0.7,1.4,1,2.4,1c1,0,1.8-0.3,2.4-1s0.9-1.5,0.9-2.6v-2c0-1.1-0.3-1.9-0.9-2.6s-1.4-1-2.4-1
			c-1,0-1.8,0.3-2.4,1c-0.6,0.7-0.9,1.6-0.9,2.7V57.5z M323.3,84l-3.8-2l19-30.4l3.8,2L323.3,84z M331.9,77.4c0-2.4,0.8-4.3,2.4-5.8
			c1.6-1.5,3.6-2.2,6.1-2.2c2.5,0,4.6,0.7,6.1,2.2c1.6,1.5,2.3,3.5,2.3,6v1.9c0,2.4-0.8,4.3-2.3,5.8c-1.5,1.5-3.6,2.2-6.1,2.2
			c-2.6,0-4.6-0.7-6.2-2.2s-2.3-3.4-2.3-5.9V77.4z M337,79.5c0,1,0.3,1.8,1,2.5s1.4,1,2.4,1c2.2,0,3.3-1.2,3.3-3.6v-2
			c0-1.1-0.3-1.9-0.9-2.6c-0.6-0.7-1.4-1-2.4-1c-1,0-1.8,0.3-2.4,1c-0.6,0.7-0.9,1.5-0.9,2.7V79.5z"/>
	</g>
	<g class="st2">
		<path class="st3" d="M470.7,47.6v6.4H470c-3.5,0.1-6.3,1-8.4,2.7c-2.1,1.8-3.4,4.2-3.8,7.4c2.1-2.1,4.7-3.2,7.8-3.2
			c3.4,0,6.1,1.2,8.1,3.6c2,2.4,3,5.6,3,9.6c0,2.5-0.5,4.8-1.6,6.9c-1.1,2.1-2.6,3.6-4.7,4.8c-2,1.1-4.3,1.7-6.8,1.7
			c-4.1,0-7.4-1.4-9.9-4.3s-3.8-6.7-3.8-11.4V69c0-4.2,0.8-8,2.4-11.2c1.6-3.2,3.9-5.7,6.9-7.5c3-1.8,6.5-2.7,10.4-2.7H470.7z
			 M463.2,67.1c-1.2,0-2.4,0.3-3.4,1c-1,0.7-1.8,1.5-2.2,2.6V73c0,2.6,0.5,4.6,1.5,6c1,1.5,2.4,2.2,4.3,2.2c1.7,0,3-0.7,4-2
			s1.5-3,1.5-5.1c0-2.1-0.5-3.8-1.6-5.1C466.3,67.8,464.9,67.1,463.2,67.1z"/>
		<path class="st3" d="M489,64h4.1c2,0,3.4-0.5,4.4-1.5c0.9-1,1.4-2.3,1.4-3.9c0-1.6-0.5-2.8-1.4-3.7c-0.9-0.9-2.2-1.3-3.9-1.3
			c-1.5,0-2.7,0.4-3.7,1.2c-1,0.8-1.5,1.9-1.5,3.2h-7.7c0-2,0.5-3.9,1.6-5.5c1.1-1.6,2.6-2.9,4.6-3.8c2-0.9,4.1-1.4,6.5-1.4
			c4.1,0,7.3,1,9.7,3c2.3,2,3.5,4.7,3.5,8.1c0,1.8-0.5,3.4-1.6,4.9c-1.1,1.5-2.5,2.6-4.3,3.5c2.2,0.8,3.8,2,4.9,3.5
			c1.1,1.6,1.6,3.4,1.6,5.6c0,3.5-1.3,6.2-3.8,8.3c-2.5,2.1-5.9,3.1-10,3.1c-3.9,0-7.1-1-9.5-3.1c-2.5-2.1-3.7-4.8-3.7-8.1h7.7
			c0,1.5,0.5,2.7,1.6,3.6c1.1,0.9,2.4,1.4,4.1,1.4c1.8,0,3.3-0.5,4.3-1.5c1-1,1.6-2.3,1.6-3.9c0-3.9-2.1-5.8-6.4-5.8H489V64z"/>
		<path class="st3" d="M512.5,55.5c0-2.4,0.8-4.3,2.3-5.8c1.6-1.5,3.6-2.2,6.1-2.2c2.6,0,4.6,0.7,6.2,2.2c1.6,1.5,2.3,3.5,2.3,6v1.9
			c0,2.4-0.8,4.3-2.3,5.8c-1.6,1.5-3.6,2.2-6.1,2.2c-2.5,0-4.6-0.7-6.1-2.2c-1.6-1.5-2.3-3.5-2.3-6V55.5z M517.6,57.5
			c0,1.1,0.3,1.9,0.9,2.6c0.6,0.7,1.4,1,2.4,1c1,0,1.8-0.3,2.4-1c0.6-0.7,0.9-1.5,0.9-2.6v-2c0-1.1-0.3-1.9-0.9-2.6
			c-0.6-0.7-1.4-1-2.4-1c-1,0-1.8,0.3-2.4,1c-0.6,0.7-0.9,1.6-0.9,2.7V57.5z M522.5,84l-3.8-2l19-30.4l3.8,2L522.5,84z M531.1,77.4
			c0-2.4,0.8-4.3,2.4-5.8c1.6-1.5,3.6-2.2,6.1-2.2c2.5,0,4.6,0.7,6.1,2.2c1.6,1.5,2.3,3.5,2.3,6v1.9c0,2.4-0.8,4.3-2.3,5.8
			c-1.5,1.5-3.6,2.2-6.1,2.2c-2.6,0-4.6-0.7-6.2-2.2c-1.6-1.5-2.3-3.4-2.3-5.9V77.4z M536.3,79.5c0,1,0.3,1.8,1,2.5s1.4,1,2.4,1
			c2.2,0,3.3-1.2,3.3-3.6v-2c0-1.1-0.3-1.9-0.9-2.6c-0.6-0.7-1.4-1-2.4-1s-1.8,0.3-2.4,1c-0.6,0.7-0.9,1.5-0.9,2.7V79.5z"/>
	</g>
	<g class="st2">
		<path class="st3" d="M676,58.3c0,1.9-0.5,3.6-1.4,5c-0.9,1.5-2.2,2.6-3.9,3.5c1.9,0.9,3.4,2.2,4.5,3.8c1.1,1.6,1.7,3.5,1.7,5.6
			c0,3.5-1.2,6.2-3.5,8.2c-2.4,2-5.6,3-9.6,3s-7.3-1-9.6-3c-2.4-2-3.6-4.7-3.6-8.2c0-2.2,0.6-4,1.7-5.6c1.1-1.6,2.6-2.9,4.5-3.7
			c-1.7-0.9-3-2-3.9-3.5c-0.9-1.5-1.4-3.1-1.4-5c0-3.3,1.1-6,3.3-7.9c2.2-2,5.2-3,9-3c3.8,0,6.8,1,9,2.9C674.9,52.3,676,55,676,58.3
			z M669,75.7c0-1.7-0.5-3-1.5-4.1s-2.3-1.5-4-1.5c-1.6,0-3,0.5-3.9,1.5c-1,1-1.5,2.4-1.5,4.1c0,1.7,0.5,3,1.4,4c1,1,2.3,1.5,4,1.5
			c1.7,0,3-0.5,3.9-1.5C668.6,78.8,669,77.4,669,75.7z M668.2,58.7c0-1.5-0.4-2.7-1.2-3.7c-0.8-0.9-1.9-1.4-3.4-1.4
			c-1.4,0-2.6,0.4-3.4,1.3c-0.8,0.9-1.2,2.1-1.2,3.7c0,1.6,0.4,2.8,1.2,3.7c0.8,0.9,1.9,1.4,3.4,1.4s2.6-0.5,3.4-1.4
			C667.8,61.5,668.2,60.3,668.2,58.7z"/>
		<path class="st3" d="M704.9,72.3h4.4v6.2h-4.4v8.4h-7.7v-8.4h-16l-0.3-4.9L697.1,48h7.8V72.3z M688.5,72.3h8.6V58.5l-0.5,0.9
			L688.5,72.3z"/>
		<path class="st3" d="M713.3,55.5c0-2.4,0.8-4.3,2.3-5.8c1.6-1.5,3.6-2.2,6.1-2.2c2.6,0,4.6,0.7,6.2,2.2c1.6,1.5,2.3,3.5,2.3,6v1.9
			c0,2.4-0.8,4.3-2.3,5.8c-1.6,1.5-3.6,2.2-6.1,2.2c-2.5,0-4.6-0.7-6.1-2.2c-1.6-1.5-2.3-3.5-2.3-6V55.5z M718.5,57.5
			c0,1.1,0.3,1.9,0.9,2.6c0.6,0.7,1.4,1,2.4,1c1,0,1.8-0.3,2.4-1c0.6-0.7,0.9-1.5,0.9-2.6v-2c0-1.1-0.3-1.9-0.9-2.6
			c-0.6-0.7-1.4-1-2.4-1c-1,0-1.8,0.3-2.4,1c-0.6,0.7-0.9,1.6-0.9,2.7V57.5z M723.3,84l-3.8-2l19-30.4l3.8,2L723.3,84z M732,77.4
			c0-2.4,0.8-4.3,2.4-5.8c1.6-1.5,3.6-2.2,6.1-2.2c2.5,0,4.6,0.7,6.1,2.2c1.6,1.5,2.3,3.5,2.3,6v1.9c0,2.4-0.8,4.3-2.3,5.8
			c-1.5,1.5-3.6,2.2-6.1,2.2c-2.6,0-4.6-0.7-6.2-2.2c-1.6-1.5-2.3-3.4-2.3-5.9V77.4z M737.1,79.5c0,1,0.3,1.8,1,2.5s1.4,1,2.4,1
			c2.2,0,3.3-1.2,3.3-3.6v-2c0-1.1-0.3-1.9-0.9-2.6c-0.6-0.7-1.4-1-2.4-1s-1.8,0.3-2.4,1c-0.6,0.7-0.9,1.5-0.9,2.7V79.5z"/>
	</g>
	<rect x="10.7" y="108.9" class="st4" width="177.8" height="68.8"/>
	<g class="st2">
		<path class="st3" d="M32.3,111h-4.1v11.5h-1.7V111h-4.1v-1.4h10V111z"/>
		<path class="st3" d="M35.6,114.1c0.7-0.9,1.7-1.3,2.8-1.3c2,0,3,1.1,3.1,3.4v6.3h-1.6v-6.3c0-0.7-0.2-1.2-0.5-1.5
			c-0.3-0.3-0.8-0.5-1.4-0.5c-0.5,0-1,0.1-1.4,0.4c-0.4,0.3-0.7,0.7-0.9,1.1v6.8h-1.6v-13.6h1.6V114.1z"/>
		<path class="st3" d="M43.9,110.4c0-0.3,0.1-0.5,0.2-0.7c0.2-0.2,0.4-0.3,0.7-0.3c0.3,0,0.6,0.1,0.7,0.3c0.2,0.2,0.2,0.4,0.2,0.7
			c0,0.3-0.1,0.5-0.2,0.7c-0.2,0.2-0.4,0.3-0.7,0.3c-0.3,0-0.6-0.1-0.7-0.3C44,110.9,43.9,110.6,43.9,110.4z M45.7,122.5h-1.6v-9.6
			h1.6V122.5z"/>
		<path class="st3" d="M49.9,112.9l0.1,1.2c0.7-0.9,1.7-1.4,2.9-1.4c2,0,3,1.1,3.1,3.4v6.3h-1.6v-6.3c0-0.7-0.2-1.2-0.5-1.5
			c-0.3-0.3-0.8-0.5-1.4-0.5c-0.5,0-1,0.1-1.4,0.4c-0.4,0.3-0.7,0.7-0.9,1.1v6.8h-1.6v-9.6H49.9z"/>
		<path class="st3" d="M61,118.1l-1,1.1v3.4h-1.6v-13.6H60v8.2l0.9-1.1l3-3.2h2l-3.7,4l4.2,5.6h-1.9L61,118.1z"/>
		<path class="st3" d="M72,110.4c0-0.3,0.1-0.5,0.2-0.7c0.2-0.2,0.4-0.3,0.7-0.3c0.3,0,0.6,0.1,0.7,0.3c0.2,0.2,0.2,0.4,0.2,0.7
			c0,0.3-0.1,0.5-0.2,0.7c-0.2,0.2-0.4,0.3-0.7,0.3c-0.3,0-0.6-0.1-0.7-0.3C72.1,110.9,72,110.6,72,110.4z M73.8,122.5h-1.6v-9.6
			h1.6V122.5z"/>
		<path class="st3" d="M78.7,110.6v2.3h1.8v1.3h-1.8v6c0,0.4,0.1,0.7,0.2,0.9c0.2,0.2,0.4,0.3,0.8,0.3c0.2,0,0.4,0,0.8-0.1v1.3
			c-0.4,0.1-0.9,0.2-1.3,0.2c-0.7,0-1.3-0.2-1.7-0.7c-0.4-0.4-0.6-1.1-0.6-1.9v-5.9h-1.7v-1.3H77v-2.3H78.7z"/>
		<path class="st3" d="M82.5,113.2l-0.9-0.6c0.5-0.8,0.8-1.6,0.9-2.4v-1.3H84v1.2c0,0.6-0.2,1.2-0.4,1.8
			C83.3,112.4,82.9,112.9,82.5,113.2z"/>
		<path class="st3" d="M90.6,120c0-0.4-0.2-0.8-0.5-1c-0.3-0.2-0.9-0.5-1.7-0.6c-0.8-0.2-1.5-0.4-2-0.6s-0.8-0.5-1.1-0.9
			c-0.2-0.3-0.4-0.8-0.4-1.2c0-0.8,0.3-1.5,1-2c0.7-0.5,1.5-0.8,2.5-0.8c1.1,0,2,0.3,2.6,0.8c0.7,0.6,1,1.3,1,2.2h-1.6
			c0-0.4-0.2-0.8-0.6-1.2c-0.4-0.3-0.9-0.5-1.4-0.5c-0.6,0-1.1,0.1-1.4,0.4s-0.5,0.6-0.5,1c0,0.4,0.2,0.7,0.5,0.9
			c0.3,0.2,0.9,0.4,1.7,0.6c0.8,0.2,1.5,0.4,2,0.7c0.5,0.3,0.9,0.6,1.1,0.9s0.4,0.8,0.4,1.3c0,0.9-0.3,1.5-1,2.1
			c-0.7,0.5-1.6,0.8-2.7,0.8c-0.8,0-1.4-0.1-2-0.4s-1.1-0.7-1.4-1.1c-0.3-0.5-0.5-1-0.5-1.6h1.6c0,0.5,0.2,1,0.7,1.3
			c0.4,0.3,1,0.5,1.6,0.5c0.6,0,1.1-0.1,1.5-0.4C90.4,120.7,90.6,120.4,90.6,120z"/>
		<path class="st3" d="M98.9,110.4c0-0.3,0.1-0.5,0.2-0.7c0.2-0.2,0.4-0.3,0.7-0.3c0.3,0,0.6,0.1,0.7,0.3c0.2,0.2,0.2,0.4,0.2,0.7
			c0,0.3-0.1,0.5-0.2,0.7c-0.2,0.2-0.4,0.3-0.7,0.3c-0.3,0-0.6-0.1-0.7-0.3C98.9,110.9,98.9,110.6,98.9,110.4z M100.6,122.5H99v-9.6
			h1.6V122.5z"/>
		<path class="st3" d="M104.8,112.9l0,1.1c0.7-0.8,1.7-1.2,2.8-1.2c1.3,0,2.3,0.5,2.7,1.5c0.3-0.5,0.7-0.8,1.2-1.1
			c0.5-0.3,1.1-0.4,1.8-0.4c2.1,0,3.2,1.1,3.2,3.3v6.4H115v-6.3c0-0.7-0.2-1.2-0.5-1.5c-0.3-0.3-0.8-0.5-1.6-0.5
			c-0.6,0-1.1,0.2-1.5,0.5s-0.6,0.9-0.7,1.5v6.4h-1.6v-6.3c0-1.4-0.7-2.1-2-2.1c-1.1,0-1.8,0.5-2.2,1.4v7h-1.6v-9.6H104.8z"/>
		<path class="st3" d="M127.3,117.8c0,1.5-0.3,2.6-1,3.5c-0.7,0.9-1.6,1.3-2.7,1.3c-1.2,0-2.1-0.4-2.7-1.1v4.6h-1.6v-13.3h1.5
			l0.1,1.1c0.7-0.8,1.6-1.2,2.8-1.2c1.2,0,2.1,0.4,2.7,1.3c0.7,0.9,1,2.1,1,3.6V117.8z M125.6,117.6c0-1.1-0.2-1.9-0.7-2.6
			s-1.1-0.9-1.9-0.9c-1,0-1.7,0.4-2.2,1.3v4.6c0.5,0.9,1.2,1.3,2.3,1.3c0.8,0,1.4-0.3,1.9-0.9S125.6,118.9,125.6,117.6z"/>
		<path class="st3" d="M128.9,117.6c0-0.9,0.2-1.8,0.6-2.5c0.4-0.8,0.9-1.3,1.5-1.7c0.7-0.4,1.4-0.6,2.3-0.6c1.3,0,2.4,0.5,3.2,1.4
			c0.8,0.9,1.2,2.1,1.2,3.6v0.1c0,0.9-0.2,1.8-0.5,2.5s-0.9,1.3-1.5,1.7c-0.7,0.4-1.4,0.6-2.3,0.6c-1.3,0-2.4-0.5-3.2-1.4
			c-0.8-0.9-1.2-2.1-1.2-3.6V117.6z M130.6,117.8c0,1.1,0.2,1.9,0.7,2.6c0.5,0.6,1.2,1,2,1c0.8,0,1.5-0.3,2-1
			c0.5-0.7,0.7-1.6,0.7-2.7c0-1.1-0.2-1.9-0.7-2.6c-0.5-0.7-1.2-1-2-1c-0.8,0-1.5,0.3-2,1S130.6,116.6,130.6,117.8z"/>
		<path class="st3" d="M144.3,114.4c-0.2,0-0.5-0.1-0.8-0.1c-1.1,0-1.8,0.5-2.2,1.4v6.8h-1.6v-9.6h1.6l0,1.1
			c0.5-0.9,1.3-1.3,2.3-1.3c0.3,0,0.6,0,0.7,0.1V114.4z"/>
		<path class="st3" d="M148.5,110.6v2.3h1.8v1.3h-1.8v6c0,0.4,0.1,0.7,0.2,0.9c0.2,0.2,0.4,0.3,0.8,0.3c0.2,0,0.4,0,0.8-0.1v1.3
			c-0.4,0.1-0.9,0.2-1.3,0.2c-0.7,0-1.3-0.2-1.7-0.7s-0.6-1.1-0.6-1.9v-5.9h-1.7v-1.3h1.7v-2.3H148.5z"/>
		<path class="st3" d="M158.1,122.5c-0.1-0.2-0.2-0.5-0.2-1c-0.8,0.8-1.7,1.2-2.7,1.2c-0.9,0-1.7-0.3-2.3-0.8
			c-0.6-0.5-0.9-1.2-0.9-2c0-1,0.4-1.8,1.1-2.3c0.8-0.6,1.8-0.8,3.2-0.8h1.6v-0.8c0-0.6-0.2-1-0.5-1.4c-0.3-0.3-0.8-0.5-1.5-0.5
			c-0.6,0-1.1,0.1-1.5,0.4c-0.4,0.3-0.6,0.7-0.6,1.1h-1.6c0-0.5,0.2-0.9,0.5-1.4c0.3-0.4,0.8-0.8,1.4-1.1c0.6-0.3,1.2-0.4,1.9-0.4
			c1.1,0,2,0.3,2.6,0.8s1,1.3,1,2.3v4.4c0,0.9,0.1,1.6,0.3,2.1v0.1H158.1z M155.4,121.2c0.5,0,1-0.1,1.5-0.4s0.8-0.6,1-1v-2h-1.3
			c-2,0-3,0.6-3,1.8c0,0.5,0.2,0.9,0.5,1.2C154.4,121.1,154.9,121.2,155.4,121.2z"/>
		<path class="st3" d="M163.6,112.9l0.1,1.2c0.7-0.9,1.7-1.4,2.9-1.4c2,0,3,1.1,3.1,3.4v6.3H168v-6.3c0-0.7-0.2-1.2-0.5-1.5
			c-0.3-0.3-0.8-0.5-1.4-0.5c-0.5,0-1,0.1-1.4,0.4c-0.4,0.3-0.7,0.7-0.9,1.1v6.8h-1.6v-9.6H163.6z"/>
		<path class="st3" d="M174.3,110.6v2.3h1.8v1.3h-1.8v6c0,0.4,0.1,0.7,0.2,0.9c0.2,0.2,0.4,0.3,0.8,0.3c0.2,0,0.4,0,0.8-0.1v1.3
			c-0.4,0.1-0.9,0.2-1.3,0.2c-0.7,0-1.3-0.2-1.7-0.7s-0.6-1.1-0.6-1.9v-5.9h-1.7v-1.3h1.7v-2.3H174.3z"/>
	</g>
	<g class="st2">
		<path class="st3" d="M20.2,134.8v2.3H22v1.3h-1.8v6c0,0.4,0.1,0.7,0.2,0.9c0.2,0.2,0.4,0.3,0.8,0.3c0.2,0,0.4,0,0.8-0.1v1.3
			c-0.4,0.1-0.9,0.2-1.3,0.2c-0.7,0-1.3-0.2-1.7-0.7c-0.4-0.4-0.6-1.1-0.6-1.9v-5.9h-1.7v-1.3h1.7v-2.3H20.2z"/>
		<path class="st3" d="M23.3,141.8c0-0.9,0.2-1.8,0.6-2.5c0.4-0.8,0.9-1.3,1.5-1.7c0.7-0.4,1.4-0.6,2.3-0.6c1.3,0,2.4,0.5,3.2,1.4
			c0.8,0.9,1.2,2.1,1.2,3.6v0.1c0,0.9-0.2,1.8-0.5,2.5s-0.9,1.3-1.5,1.7c-0.7,0.4-1.4,0.6-2.3,0.6c-1.3,0-2.4-0.5-3.2-1.4
			s-1.2-2.1-1.2-3.6V141.8z M25,142c0,1.1,0.2,1.9,0.7,2.6s1.2,1,2,1c0.8,0,1.5-0.3,2-1c0.5-0.7,0.7-1.6,0.7-2.7
			c0-1.1-0.2-1.9-0.7-2.6c-0.5-0.7-1.2-1-2-1c-0.8,0-1.5,0.3-2,1C25.2,139.9,25,140.8,25,142z"/>
		<path class="st3" d="M44.2,144.2c0-0.4-0.2-0.8-0.5-1c-0.3-0.2-0.9-0.5-1.7-0.6c-0.8-0.2-1.5-0.4-2-0.6s-0.8-0.5-1.1-0.9
			c-0.2-0.3-0.4-0.8-0.4-1.2c0-0.8,0.3-1.5,1-2c0.7-0.5,1.5-0.8,2.5-0.8c1.1,0,2,0.3,2.6,0.8c0.7,0.6,1,1.3,1,2.2h-1.6
			c0-0.4-0.2-0.8-0.6-1.2c-0.4-0.3-0.9-0.5-1.4-0.5c-0.6,0-1.1,0.1-1.4,0.4s-0.5,0.6-0.5,1c0,0.4,0.2,0.7,0.5,0.9
			c0.3,0.2,0.9,0.4,1.7,0.6c0.8,0.2,1.5,0.4,2,0.7c0.5,0.3,0.9,0.6,1.1,0.9s0.4,0.8,0.4,1.3c0,0.9-0.3,1.5-1,2.1
			c-0.7,0.5-1.6,0.8-2.7,0.8c-0.8,0-1.4-0.1-2-0.4s-1.1-0.7-1.4-1.1c-0.3-0.5-0.5-1-0.5-1.6h1.6c0,0.5,0.2,1,0.7,1.3
			c0.4,0.3,1,0.5,1.6,0.5c0.6,0,1.1-0.1,1.5-0.4C44,144.9,44.2,144.6,44.2,144.2z"/>
		<path class="st3" d="M51.9,146.9c-1.3,0-2.4-0.4-3.2-1.3c-0.8-0.9-1.2-2-1.2-3.4v-0.3c0-1,0.2-1.8,0.5-2.5s0.9-1.3,1.5-1.8
			c0.7-0.4,1.4-0.6,2.1-0.6c1.2,0,2.2,0.4,2.9,1.2s1,2,1,3.5v0.7h-6.5c0,0.9,0.3,1.7,0.8,2.3c0.5,0.6,1.2,0.9,2,0.9
			c0.6,0,1.1-0.1,1.5-0.4c0.4-0.2,0.8-0.5,1.1-0.9l1,0.8C54.7,146.3,53.5,146.9,51.9,146.9z M51.7,138.3c-0.7,0-1.2,0.2-1.7,0.7
			c-0.4,0.5-0.7,1.2-0.8,2H54v-0.1c0-0.8-0.3-1.5-0.7-1.9C52.9,138.5,52.4,138.3,51.7,138.3z"/>
		<path class="st3" d="M61.5,146.9c-1.3,0-2.4-0.4-3.2-1.3c-0.8-0.9-1.2-2-1.2-3.4v-0.3c0-1,0.2-1.8,0.5-2.5s0.9-1.3,1.5-1.8
			c0.7-0.4,1.4-0.6,2.1-0.6c1.2,0,2.2,0.4,2.9,1.2s1,2,1,3.5v0.7h-6.5c0,0.9,0.3,1.7,0.8,2.3c0.5,0.6,1.2,0.9,2,0.9
			c0.6,0,1.1-0.1,1.5-0.4c0.4-0.2,0.8-0.5,1.1-0.9l1,0.8C64.4,146.3,63.1,146.9,61.5,146.9z M61.3,138.3c-0.7,0-1.2,0.2-1.7,0.7
			c-0.4,0.5-0.7,1.2-0.8,2h4.8v-0.1c0-0.8-0.3-1.5-0.7-1.9C62.6,138.5,62,138.3,61.3,138.3z"/>
		<path class="st3" d="M73.9,134.8v2.3h1.8v1.3h-1.8v6c0,0.4,0.1,0.7,0.2,0.9c0.2,0.2,0.4,0.3,0.8,0.3c0.2,0,0.4,0,0.8-0.1v1.3
			c-0.4,0.1-0.9,0.2-1.3,0.2c-0.7,0-1.3-0.2-1.7-0.7c-0.4-0.4-0.6-1.1-0.6-1.9v-5.9h-1.7v-1.3h1.7v-2.3H73.9z"/>
		<path class="st3" d="M79.2,138.3c0.7-0.9,1.7-1.3,2.8-1.3c2,0,3,1.1,3.1,3.4v6.3h-1.6v-6.3c0-0.7-0.2-1.2-0.5-1.5
			c-0.3-0.3-0.8-0.5-1.4-0.5c-0.5,0-1,0.1-1.4,0.4c-0.4,0.3-0.7,0.7-0.9,1.1v6.8h-1.6v-13.6h1.6V138.3z"/>
		<path class="st3" d="M91.6,146.9c-1.3,0-2.4-0.4-3.2-1.3c-0.8-0.9-1.2-2-1.2-3.4v-0.3c0-1,0.2-1.8,0.5-2.5s0.9-1.3,1.5-1.8
			c0.7-0.4,1.4-0.6,2.1-0.6c1.2,0,2.2,0.4,2.9,1.2s1,2,1,3.5v0.7h-6.5c0,0.9,0.3,1.7,0.8,2.3c0.5,0.6,1.2,0.9,2,0.9
			c0.6,0,1.1-0.1,1.5-0.4c0.4-0.2,0.8-0.5,1.1-0.9l1,0.8C94.4,146.3,93.2,146.9,91.6,146.9z M91.4,138.3c-0.7,0-1.2,0.2-1.7,0.7
			c-0.4,0.5-0.7,1.2-0.8,2h4.8v-0.1c0-0.8-0.3-1.5-0.7-1.9C92.6,138.5,92.1,138.3,91.4,138.3z"/>
		<path class="st3" d="M101.3,141.8c0-1.5,0.3-2.7,1-3.5c0.7-0.9,1.6-1.3,2.7-1.3c1.1,0,2,0.4,2.7,1.2v-5h1.6v13.6h-1.5l-0.1-1
			c-0.7,0.8-1.6,1.2-2.7,1.2c-1.1,0-2-0.5-2.7-1.4s-1.1-2.1-1.1-3.6V141.8z M102.9,142c0,1.1,0.2,1.9,0.7,2.6
			c0.4,0.6,1.1,0.9,1.9,0.9c1,0,1.8-0.5,2.3-1.4v-4.4c-0.5-0.9-1.2-1.4-2.3-1.4c-0.8,0-1.4,0.3-1.9,0.9
			C103.2,139.9,102.9,140.8,102.9,142z"/>
		<path class="st3" d="M111.9,134.6c0-0.3,0.1-0.5,0.2-0.7c0.2-0.2,0.4-0.3,0.7-0.3c0.3,0,0.6,0.1,0.7,0.3c0.2,0.2,0.2,0.4,0.2,0.7
			c0,0.3-0.1,0.5-0.2,0.7c-0.2,0.2-0.4,0.3-0.7,0.3c-0.3,0-0.6-0.1-0.7-0.3C112,135.1,111.9,134.8,111.9,134.6z M113.7,146.7h-1.6
			v-9.6h1.6V146.7z"/>
		<path class="st3" d="M117.1,146.7v-8.3h-1.5v-1.3h1.5v-1c0-1,0.3-1.8,0.8-2.4c0.5-0.6,1.3-0.8,2.3-0.8c0.4,0,0.8,0,1.1,0.2
			l-0.1,1.3c-0.3-0.1-0.6-0.1-0.9-0.1c-0.5,0-0.9,0.2-1.2,0.5c-0.3,0.3-0.4,0.8-0.4,1.3v1h2v1.3h-2v8.3H117.1z"/>
		<path class="st3" d="M123.5,146.7v-8.3h-1.5v-1.3h1.5v-1c0-1,0.3-1.8,0.8-2.4c0.5-0.6,1.3-0.8,2.3-0.8c0.4,0,0.8,0,1.1,0.2
			l-0.1,1.3c-0.3-0.1-0.6-0.1-0.9-0.1c-0.5,0-0.9,0.2-1.2,0.5c-0.3,0.3-0.4,0.8-0.4,1.3v1h2v1.3h-2v8.3H123.5z"/>
		<path class="st3" d="M132.7,146.9c-1.3,0-2.4-0.4-3.2-1.3s-1.2-2-1.2-3.4v-0.3c0-1,0.2-1.8,0.5-2.5s0.9-1.3,1.5-1.8
			c0.7-0.4,1.4-0.6,2.1-0.6c1.2,0,2.2,0.4,2.9,1.2s1,2,1,3.5v0.7H130c0,0.9,0.3,1.7,0.8,2.3c0.5,0.6,1.2,0.9,2,0.9
			c0.6,0,1.1-0.1,1.5-0.4c0.4-0.2,0.8-0.5,1.1-0.9l1,0.8C135.5,146.3,134.3,146.9,132.7,146.9z M132.5,138.3c-0.7,0-1.2,0.2-1.7,0.7
			c-0.4,0.5-0.7,1.2-0.8,2h4.8v-0.1c0-0.8-0.3-1.5-0.7-1.9C133.7,138.5,133.2,138.3,132.5,138.3z"/>
		<path class="st3" d="M143,138.6c-0.2,0-0.5-0.1-0.8-0.1c-1.1,0-1.8,0.5-2.2,1.4v6.8h-1.6v-9.6h1.6l0,1.1c0.5-0.9,1.3-1.3,2.3-1.3
			c0.3,0,0.6,0,0.7,0.1V138.6z"/>
		<path class="st3" d="M148.3,146.9c-1.3,0-2.4-0.4-3.2-1.3s-1.2-2-1.2-3.4v-0.3c0-1,0.2-1.8,0.5-2.5s0.9-1.3,1.5-1.8
			c0.7-0.4,1.4-0.6,2.1-0.6c1.2,0,2.2,0.4,2.9,1.2s1,2,1,3.5v0.7h-6.5c0,0.9,0.3,1.7,0.8,2.3c0.5,0.6,1.2,0.9,2,0.9
			c0.6,0,1.1-0.1,1.5-0.4c0.4-0.2,0.8-0.5,1.1-0.9l1,0.8C151.1,146.3,149.9,146.9,148.3,146.9z M148.1,138.3c-0.7,0-1.2,0.2-1.7,0.7
			c-0.4,0.5-0.7,1.2-0.8,2h4.8v-0.1c0-0.8-0.3-1.5-0.7-1.9C149.3,138.5,148.8,138.3,148.1,138.3z"/>
		<path class="st3" d="M155.5,137.1l0.1,1.2c0.7-0.9,1.7-1.4,2.9-1.4c2,0,3,1.1,3.1,3.4v6.3h-1.6v-6.3c0-0.7-0.2-1.2-0.5-1.5
			c-0.3-0.3-0.8-0.5-1.4-0.5c-0.5,0-1,0.1-1.4,0.4c-0.4,0.3-0.7,0.7-0.9,1.1v6.8h-1.6v-9.6H155.5z"/>
		<path class="st3" d="M167.8,145.5c0.6,0,1.1-0.2,1.5-0.5s0.7-0.8,0.7-1.3h1.6c0,0.5-0.2,1.1-0.6,1.6s-0.8,0.9-1.4,1.2
			c-0.6,0.3-1.2,0.4-1.8,0.4c-1.3,0-2.3-0.4-3.1-1.3c-0.8-0.9-1.2-2.1-1.2-3.6v-0.3c0-0.9,0.2-1.8,0.5-2.5s0.8-1.3,1.5-1.7
			c0.6-0.4,1.4-0.6,2.3-0.6c1.1,0,2,0.3,2.7,1c0.7,0.6,1.1,1.5,1.1,2.5h-1.6c0-0.6-0.3-1.1-0.7-1.5c-0.4-0.4-0.9-0.6-1.6-0.6
			c-0.8,0-1.5,0.3-1.9,0.9s-0.7,1.5-0.7,2.6v0.3c0,1.1,0.2,2,0.7,2.6C166.3,145.2,167,145.5,167.8,145.5z"/>
		<path class="st3" d="M177.4,146.9c-1.3,0-2.4-0.4-3.2-1.3s-1.2-2-1.2-3.4v-0.3c0-1,0.2-1.8,0.5-2.5s0.9-1.3,1.5-1.8
			c0.7-0.4,1.4-0.6,2.1-0.6c1.2,0,2.2,0.4,2.9,1.2s1,2,1,3.5v0.7h-6.5c0,0.9,0.3,1.7,0.8,2.3c0.5,0.6,1.2,0.9,2,0.9
			c0.6,0,1.1-0.1,1.5-0.4c0.4-0.2,0.8-0.5,1.1-0.9l1,0.8C180.2,146.3,179,146.9,177.4,146.9z M177.2,138.3c-0.7,0-1.2,0.2-1.7,0.7
			c-0.4,0.5-0.7,1.2-0.8,2h4.8v-0.1c0-0.8-0.3-1.5-0.7-1.9C178.5,138.5,177.9,138.3,177.2,138.3z"/>
	</g>
	<g class="st2">
		<path class="st3" d="M17.9,159v2.3h1.8v1.3h-1.8v6c0,0.4,0.1,0.7,0.2,0.9c0.2,0.2,0.4,0.3,0.8,0.3c0.2,0,0.4,0,0.8-0.1v1.3
			c-0.4,0.1-0.9,0.2-1.3,0.2c-0.7,0-1.3-0.2-1.7-0.7c-0.4-0.4-0.6-1.1-0.6-1.9v-5.9h-1.7v-1.3h1.7V159H17.9z"/>
		<path class="st3" d="M23.3,162.5c0.7-0.9,1.7-1.3,2.8-1.3c2,0,3,1.1,3.1,3.4v6.3h-1.6v-6.3c0-0.7-0.2-1.2-0.5-1.5
			c-0.3-0.3-0.8-0.5-1.4-0.5c-0.5,0-1,0.1-1.4,0.4c-0.4,0.3-0.7,0.7-0.9,1.1v6.8h-1.6v-13.6h1.6V162.5z"/>
		<path class="st3" d="M35.6,171.1c-1.3,0-2.4-0.4-3.2-1.3c-0.8-0.9-1.2-2-1.2-3.4v-0.3c0-1,0.2-1.8,0.5-2.5s0.9-1.3,1.5-1.8
			c0.7-0.4,1.4-0.6,2.1-0.6c1.2,0,2.2,0.4,2.9,1.2s1,2,1,3.5v0.7h-6.5c0,0.9,0.3,1.7,0.8,2.3c0.5,0.6,1.2,0.9,2,0.9
			c0.6,0,1.1-0.1,1.5-0.4c0.4-0.2,0.8-0.5,1.1-0.9l1,0.8C38.4,170.5,37.2,171.1,35.6,171.1z M35.4,162.5c-0.7,0-1.2,0.2-1.7,0.7
			c-0.4,0.5-0.7,1.2-0.8,2h4.8v-0.1c0-0.8-0.3-1.5-0.7-1.9C36.6,162.7,36.1,162.5,35.4,162.5z"/>
		<path class="st3" d="M41.2,158.8c0-0.3,0.1-0.5,0.2-0.7c0.2-0.2,0.4-0.3,0.7-0.3c0.3,0,0.6,0.1,0.7,0.3c0.2,0.2,0.2,0.4,0.2,0.7
			c0,0.3-0.1,0.5-0.2,0.7c-0.2,0.2-0.4,0.3-0.7,0.3c-0.3,0-0.6-0.1-0.7-0.3C41.3,159.3,41.2,159,41.2,158.8z M43,170.9h-1.6v-9.6H43
			V170.9z"/>
		<path class="st3" d="M50.3,162.8c-0.2,0-0.5-0.1-0.8-0.1c-1.1,0-1.8,0.5-2.2,1.4v6.8h-1.6v-9.6h1.6l0,1.1c0.5-0.9,1.3-1.3,2.3-1.3
			c0.3,0,0.6,0,0.7,0.1V162.8z"/>
		<path class="st3" d="M55.9,166c0-1.5,0.3-2.7,1-3.5c0.7-0.9,1.6-1.3,2.7-1.3c1.1,0,2,0.4,2.7,1.2v-5H64v13.6h-1.5l-0.1-1
			c-0.7,0.8-1.6,1.2-2.7,1.2c-1.1,0-2-0.5-2.7-1.4s-1.1-2.1-1.1-3.6V166z M57.5,166.2c0,1.1,0.2,1.9,0.7,2.6
			c0.4,0.6,1.1,0.9,1.9,0.9c1,0,1.8-0.5,2.3-1.4v-4.4c-0.5-0.9-1.2-1.4-2.3-1.4c-0.8,0-1.4,0.3-1.9,0.9
			C57.7,164.1,57.5,165,57.5,166.2z"/>
		<path class="st3" d="M66.1,166c0-0.9,0.2-1.8,0.6-2.5c0.4-0.8,0.9-1.3,1.5-1.7c0.7-0.4,1.4-0.6,2.3-0.6c1.3,0,2.4,0.5,3.2,1.4
			c0.8,0.9,1.2,2.1,1.2,3.6v0.1c0,0.9-0.2,1.8-0.5,2.5s-0.9,1.3-1.5,1.7c-0.7,0.4-1.4,0.6-2.3,0.6c-1.3,0-2.4-0.5-3.2-1.4
			s-1.2-2.1-1.2-3.6V166z M67.7,166.2c0,1.1,0.2,1.9,0.7,2.6s1.2,1,2,1c0.8,0,1.5-0.3,2-1c0.5-0.7,0.7-1.6,0.7-2.7
			c0-1.1-0.2-1.9-0.7-2.6c-0.5-0.7-1.2-1-2-1c-0.8,0-1.5,0.3-2,1C68,164.1,67.7,165,67.7,166.2z"/>
		<path class="st3" d="M78.4,161.3l0.1,1.2c0.7-0.9,1.7-1.4,2.9-1.4c2,0,3,1.1,3.1,3.4v6.3h-1.6v-6.3c0-0.7-0.2-1.2-0.5-1.5
			c-0.3-0.3-0.8-0.5-1.4-0.5c-0.5,0-1,0.1-1.4,0.4c-0.4,0.3-0.7,0.7-0.9,1.1v6.8h-1.6v-9.6H78.4z"/>
		<path class="st3" d="M92.8,170.9c-0.1-0.2-0.2-0.5-0.2-1c-0.8,0.8-1.7,1.2-2.7,1.2c-0.9,0-1.7-0.3-2.3-0.8c-0.6-0.5-0.9-1.2-0.9-2
			c0-1,0.4-1.8,1.1-2.3c0.8-0.6,1.8-0.8,3.2-0.8h1.6v-0.8c0-0.6-0.2-1-0.5-1.4c-0.3-0.3-0.8-0.5-1.5-0.5c-0.6,0-1.1,0.1-1.5,0.4
			c-0.4,0.3-0.6,0.7-0.6,1.1h-1.6c0-0.5,0.2-0.9,0.5-1.4s0.8-0.8,1.4-1.1c0.6-0.3,1.2-0.4,1.9-0.4c1.1,0,2,0.3,2.6,0.8s1,1.3,1,2.3
			v4.4c0,0.9,0.1,1.6,0.3,2.1v0.1H92.8z M90.1,169.6c0.5,0,1-0.1,1.5-0.4s0.8-0.6,1-1v-2h-1.3c-2,0-3,0.6-3,1.8
			c0,0.5,0.2,0.9,0.5,1.2C89.1,169.5,89.5,169.6,90.1,169.6z"/>
		<path class="st3" d="M99,159v2.3h1.8v1.3H99v6c0,0.4,0.1,0.7,0.2,0.9c0.2,0.2,0.4,0.3,0.8,0.3c0.2,0,0.4,0,0.8-0.1v1.3
			c-0.4,0.1-0.9,0.2-1.3,0.2c-0.7,0-1.3-0.2-1.7-0.7c-0.4-0.4-0.6-1.1-0.6-1.9v-5.9h-1.7v-1.3h1.7V159H99z"/>
		<path class="st3" d="M102.7,158.8c0-0.3,0.1-0.5,0.2-0.7c0.2-0.2,0.4-0.3,0.7-0.3c0.3,0,0.6,0.1,0.7,0.3c0.2,0.2,0.2,0.4,0.2,0.7
			c0,0.3-0.1,0.5-0.2,0.7c-0.2,0.2-0.4,0.3-0.7,0.3c-0.3,0-0.6-0.1-0.7-0.3C102.8,159.3,102.7,159,102.7,158.8z M104.5,170.9h-1.6
			v-9.6h1.6V170.9z"/>
		<path class="st3" d="M106.6,166c0-0.9,0.2-1.8,0.6-2.5c0.4-0.8,0.9-1.3,1.5-1.7c0.7-0.4,1.4-0.6,2.3-0.6c1.3,0,2.4,0.5,3.2,1.4
			c0.8,0.9,1.2,2.1,1.2,3.6v0.1c0,0.9-0.2,1.8-0.5,2.5c-0.4,0.7-0.9,1.3-1.5,1.7c-0.7,0.4-1.4,0.6-2.3,0.6c-1.3,0-2.4-0.5-3.2-1.4
			s-1.2-2.1-1.2-3.6V166z M108.3,166.2c0,1.1,0.2,1.9,0.7,2.6s1.2,1,2,1c0.8,0,1.5-0.3,2-1c0.5-0.7,0.7-1.6,0.7-2.7
			c0-1.1-0.2-1.9-0.7-2.6c-0.5-0.7-1.2-1-2-1c-0.8,0-1.5,0.3-2,1C108.5,164.1,108.3,165,108.3,166.2z"/>
		<path class="st3" d="M119,161.3l0.1,1.2c0.7-0.9,1.7-1.4,2.9-1.4c2,0,3,1.1,3.1,3.4v6.3h-1.6v-6.3c0-0.7-0.2-1.2-0.5-1.5
			c-0.3-0.3-0.8-0.5-1.4-0.5c-0.5,0-1,0.1-1.4,0.4c-0.4,0.3-0.7,0.7-0.9,1.1v6.8h-1.6v-9.6H119z"/>
		<path class="st3" d="M133.5,161.3l0,1.1c0.7-0.8,1.7-1.2,2.8-1.2c1.3,0,2.3,0.5,2.7,1.5c0.3-0.5,0.7-0.8,1.2-1.1s1.1-0.4,1.8-0.4
			c2.1,0,3.2,1.1,3.2,3.3v6.4h-1.6v-6.3c0-0.7-0.2-1.2-0.5-1.5c-0.3-0.3-0.8-0.5-1.6-0.5c-0.6,0-1.1,0.2-1.5,0.5
			c-0.4,0.4-0.6,0.9-0.7,1.5v6.4h-1.6v-6.3c0-1.4-0.7-2.1-2-2.1c-1.1,0-1.8,0.5-2.2,1.4v7h-1.6v-9.6H133.5z"/>
		<path class="st3" d="M153.8,170.9c-0.1-0.2-0.2-0.5-0.2-1c-0.8,0.8-1.7,1.2-2.7,1.2c-0.9,0-1.7-0.3-2.3-0.8
			c-0.6-0.5-0.9-1.2-0.9-2c0-1,0.4-1.8,1.1-2.3c0.8-0.6,1.8-0.8,3.2-0.8h1.6v-0.8c0-0.6-0.2-1-0.5-1.4c-0.3-0.3-0.8-0.5-1.5-0.5
			c-0.6,0-1.1,0.1-1.5,0.4c-0.4,0.3-0.6,0.7-0.6,1.1h-1.6c0-0.5,0.2-0.9,0.5-1.4c0.3-0.4,0.8-0.8,1.4-1.1c0.6-0.3,1.2-0.4,1.9-0.4
			c1.1,0,2,0.3,2.6,0.8s1,1.3,1,2.3v4.4c0,0.9,0.1,1.6,0.3,2.1v0.1H153.8z M151,169.6c0.5,0,1-0.1,1.5-0.4s0.8-0.6,1-1v-2h-1.3
			c-2,0-3,0.6-3,1.8c0,0.5,0.2,0.9,0.5,1.2C150.1,169.5,150.5,169.6,151,169.6z"/>
		<path class="st3" d="M160.4,166.5l-1,1.1v3.4h-1.6v-13.6h1.6v8.2l0.9-1.1l3-3.2h2l-3.7,4l4.2,5.6h-1.9L160.4,166.5z"/>
		<path class="st3" d="M170.7,171.1c-1.3,0-2.4-0.4-3.2-1.3s-1.2-2-1.2-3.4v-0.3c0-1,0.2-1.8,0.5-2.5s0.9-1.3,1.5-1.8
			c0.7-0.4,1.4-0.6,2.1-0.6c1.2,0,2.2,0.4,2.9,1.2s1,2,1,3.5v0.7H168c0,0.9,0.3,1.7,0.8,2.3c0.5,0.6,1.2,0.9,2,0.9
			c0.6,0,1.1-0.1,1.5-0.4c0.4-0.2,0.8-0.5,1.1-0.9l1,0.8C173.5,170.5,172.3,171.1,170.7,171.1z M170.5,162.5c-0.7,0-1.2,0.2-1.7,0.7
			c-0.4,0.5-0.7,1.2-0.8,2h4.8v-0.1c0-0.8-0.3-1.5-0.7-1.9C171.7,162.7,171.2,162.5,170.5,162.5z"/>
		<path class="st3" d="M181.9,168.4c0-0.4-0.2-0.8-0.5-1s-0.9-0.5-1.7-0.6c-0.8-0.2-1.5-0.4-2-0.6c-0.5-0.2-0.8-0.5-1.1-0.9
			c-0.2-0.3-0.3-0.8-0.3-1.2c0-0.8,0.3-1.5,1-2c0.7-0.5,1.5-0.8,2.5-0.8c1.1,0,2,0.3,2.6,0.8c0.7,0.6,1,1.3,1,2.2h-1.6
			c0-0.4-0.2-0.8-0.6-1.2c-0.4-0.3-0.9-0.5-1.4-0.5c-0.6,0-1.1,0.1-1.4,0.4s-0.5,0.6-0.5,1c0,0.4,0.2,0.7,0.5,0.9
			c0.3,0.2,0.9,0.4,1.7,0.6c0.8,0.2,1.5,0.4,2,0.7s0.9,0.6,1.1,0.9s0.4,0.8,0.4,1.3c0,0.9-0.3,1.5-1,2.1c-0.7,0.5-1.6,0.8-2.7,0.8
			c-0.8,0-1.4-0.1-2-0.4s-1.1-0.7-1.4-1.1s-0.5-1-0.5-1.6h1.6c0,0.5,0.2,1,0.7,1.3c0.4,0.3,1,0.5,1.6,0.5c0.6,0,1.1-0.1,1.5-0.4
			C181.8,169.1,181.9,168.8,181.9,168.4z"/>
	</g>
	<rect x="211.1" y="108.9" class="st4" width="177.8" height="68.8"/>
	<g class="st2">
		<path class="st3" d="M242.7,119.1h-5.4l-1.2,3.4h-1.8l4.9-12.9h1.5l4.9,12.9h-1.7L242.7,119.1z M237.8,117.7h4.4l-2.2-6
			L237.8,117.7z"/>
		<path class="st3" d="M251.8,114.4c-0.2,0-0.5-0.1-0.8-0.1c-1.1,0-1.8,0.5-2.2,1.4v6.8h-1.6v-9.6h1.6l0,1.1
			c0.5-0.9,1.3-1.3,2.3-1.3c0.3,0,0.6,0,0.7,0.1V114.4z"/>
		<path class="st3" d="M257.1,122.7c-1.3,0-2.4-0.4-3.2-1.3c-0.8-0.9-1.2-2-1.2-3.4v-0.3c0-1,0.2-1.8,0.5-2.5s0.9-1.3,1.5-1.8
			c0.7-0.4,1.4-0.6,2.1-0.6c1.2,0,2.2,0.4,2.9,1.2s1,2,1,3.5v0.7h-6.5c0,0.9,0.3,1.7,0.8,2.3c0.5,0.6,1.2,0.9,2,0.9
			c0.6,0,1.1-0.1,1.5-0.4c0.4-0.2,0.8-0.5,1.1-0.9l1,0.8C259.9,122.1,258.7,122.7,257.1,122.7z M256.9,114.1c-0.7,0-1.2,0.2-1.7,0.7
			c-0.4,0.5-0.7,1.2-0.8,2h4.8v-0.1c0-0.8-0.3-1.5-0.7-1.9C258.1,114.3,257.6,114.1,256.9,114.1z"/>
		<path class="st3" d="M267.2,110.4c0-0.3,0.1-0.5,0.2-0.7c0.2-0.2,0.4-0.3,0.7-0.3c0.3,0,0.6,0.1,0.7,0.3c0.2,0.2,0.2,0.4,0.2,0.7
			c0,0.3-0.1,0.5-0.2,0.7c-0.2,0.2-0.4,0.3-0.7,0.3c-0.3,0-0.6-0.1-0.7-0.3C267.3,110.9,267.2,110.6,267.2,110.4z M269,122.5h-1.6
			v-9.6h1.6V122.5z"/>
		<path class="st3" d="M273.2,112.9l0.1,1.2c0.7-0.9,1.7-1.4,2.9-1.4c2,0,3,1.1,3.1,3.4v6.3h-1.6v-6.3c0-0.7-0.2-1.2-0.5-1.5
			c-0.3-0.3-0.8-0.5-1.4-0.5c-0.5,0-1,0.1-1.4,0.4c-0.4,0.3-0.7,0.7-0.9,1.1v6.8h-1.6v-9.6H273.2z"/>
		<path class="st3" d="M283.9,110.6v2.3h1.8v1.3h-1.8v6c0,0.4,0.1,0.7,0.2,0.9c0.2,0.2,0.4,0.3,0.8,0.3c0.2,0,0.4,0,0.8-0.1v1.3
			c-0.4,0.1-0.9,0.2-1.3,0.2c-0.7,0-1.3-0.2-1.7-0.7c-0.4-0.4-0.6-1.1-0.6-1.9v-5.9h-1.7v-1.3h1.7v-2.3H283.9z"/>
		<path class="st3" d="M291.6,122.7c-1.3,0-2.4-0.4-3.2-1.3c-0.8-0.9-1.2-2-1.2-3.4v-0.3c0-1,0.2-1.8,0.5-2.5s0.9-1.3,1.5-1.8
			c0.7-0.4,1.4-0.6,2.1-0.6c1.2,0,2.2,0.4,2.9,1.2s1,2,1,3.5v0.7h-6.5c0,0.9,0.3,1.7,0.8,2.3c0.5,0.6,1.2,0.9,2,0.9
			c0.6,0,1.1-0.1,1.5-0.4c0.4-0.2,0.8-0.5,1.1-0.9l1,0.8C294.4,122.1,293.2,122.7,291.6,122.7z M291.3,114.1c-0.7,0-1.2,0.2-1.7,0.7
			c-0.4,0.5-0.7,1.2-0.8,2h4.8v-0.1c0-0.8-0.3-1.5-0.7-1.9C292.6,114.3,292,114.1,291.3,114.1z"/>
		<path class="st3" d="M301.8,114.4c-0.2,0-0.5-0.1-0.8-0.1c-1.1,0-1.8,0.5-2.2,1.4v6.8h-1.6v-9.6h1.6l0,1.1
			c0.5-0.9,1.3-1.3,2.3-1.3c0.3,0,0.6,0,0.7,0.1V114.4z"/>
		<path class="st3" d="M307.1,122.7c-1.3,0-2.4-0.4-3.2-1.3c-0.8-0.9-1.2-2-1.2-3.4v-0.3c0-1,0.2-1.8,0.5-2.5s0.9-1.3,1.5-1.8
			c0.7-0.4,1.4-0.6,2.1-0.6c1.2,0,2.2,0.4,2.9,1.2s1,2,1,3.5v0.7h-6.5c0,0.9,0.3,1.7,0.8,2.3c0.5,0.6,1.2,0.9,2,0.9
			c0.6,0,1.1-0.1,1.5-0.4c0.4-0.2,0.8-0.5,1.1-0.9l1,0.8C310,122.1,308.7,122.7,307.1,122.7z M306.9,114.1c-0.7,0-1.2,0.2-1.7,0.7
			c-0.4,0.5-0.7,1.2-0.8,2h4.8v-0.1c0-0.8-0.3-1.5-0.7-1.9C308.2,114.3,307.6,114.1,306.9,114.1z"/>
		<path class="st3" d="M318.4,120c0-0.4-0.2-0.8-0.5-1c-0.3-0.2-0.9-0.5-1.7-0.6c-0.8-0.2-1.5-0.4-2-0.6s-0.8-0.5-1.1-0.9
			c-0.2-0.3-0.4-0.8-0.4-1.2c0-0.8,0.3-1.5,1-2c0.7-0.5,1.5-0.8,2.5-0.8c1.1,0,2,0.3,2.6,0.8c0.7,0.6,1,1.3,1,2.2h-1.6
			c0-0.4-0.2-0.8-0.6-1.2c-0.4-0.3-0.9-0.5-1.4-0.5c-0.6,0-1.1,0.1-1.4,0.4s-0.5,0.6-0.5,1c0,0.4,0.2,0.7,0.5,0.9
			c0.3,0.2,0.9,0.4,1.7,0.6c0.8,0.2,1.5,0.4,2,0.7c0.5,0.3,0.9,0.6,1.1,0.9s0.4,0.8,0.4,1.3c0,0.9-0.3,1.5-1,2.1
			c-0.7,0.5-1.6,0.8-2.7,0.8c-0.8,0-1.4-0.1-2-0.4s-1.1-0.7-1.4-1.1c-0.3-0.5-0.5-1-0.5-1.6h1.6c0,0.5,0.2,1,0.7,1.3
			c0.4,0.3,1,0.5,1.6,0.5c0.6,0,1.1-0.1,1.5-0.4C318.2,120.7,318.4,120.4,318.4,120z"/>
		<path class="st3" d="M324.4,110.6v2.3h1.8v1.3h-1.8v6c0,0.4,0.1,0.7,0.2,0.9c0.2,0.2,0.4,0.3,0.8,0.3c0.2,0,0.4,0,0.8-0.1v1.3
			c-0.4,0.1-0.9,0.2-1.3,0.2c-0.7,0-1.3-0.2-1.7-0.7c-0.4-0.4-0.6-1.1-0.6-1.9v-5.9H321v-1.3h1.7v-2.3H324.4z"/>
		<path class="st3" d="M332,122.7c-1.3,0-2.4-0.4-3.2-1.3c-0.8-0.9-1.2-2-1.2-3.4v-0.3c0-1,0.2-1.8,0.5-2.5s0.9-1.3,1.5-1.8
			c0.7-0.4,1.4-0.6,2.1-0.6c1.2,0,2.2,0.4,2.9,1.2s1,2,1,3.5v0.7h-6.5c0,0.9,0.3,1.7,0.8,2.3c0.5,0.6,1.2,0.9,2,0.9
			c0.6,0,1.1-0.1,1.5-0.4c0.4-0.2,0.8-0.5,1.1-0.9l1,0.8C334.9,122.1,333.6,122.7,332,122.7z M331.8,114.1c-0.7,0-1.2,0.2-1.7,0.7
			c-0.4,0.5-0.7,1.2-0.8,2h4.8v-0.1c0-0.8-0.3-1.5-0.7-1.9C333.1,114.3,332.5,114.1,331.8,114.1z"/>
		<path class="st3" d="M337.3,117.6c0-1.5,0.3-2.7,1-3.5c0.7-0.9,1.6-1.3,2.7-1.3c1.1,0,2,0.4,2.7,1.2v-5h1.6v13.6h-1.5l-0.1-1
			c-0.7,0.8-1.6,1.2-2.7,1.2c-1.1,0-2-0.5-2.7-1.4c-0.7-0.9-1.1-2.1-1.1-3.6V117.6z M338.9,117.8c0,1.1,0.2,1.9,0.7,2.6
			c0.4,0.6,1.1,0.9,1.9,0.9c1,0,1.8-0.5,2.3-1.4v-4.4c-0.5-0.9-1.2-1.4-2.3-1.4c-0.8,0-1.4,0.3-1.9,0.9
			C339.1,115.7,338.9,116.6,338.9,117.8z"/>
		<path class="st3" d="M352.4,110.4c0-0.3,0.1-0.5,0.2-0.7c0.2-0.2,0.4-0.3,0.7-0.3c0.3,0,0.6,0.1,0.7,0.3c0.2,0.2,0.2,0.4,0.2,0.7
			c0,0.3-0.1,0.5-0.2,0.7c-0.2,0.2-0.4,0.3-0.7,0.3c-0.3,0-0.6-0.1-0.7-0.3C352.5,110.9,352.4,110.6,352.4,110.4z M354.2,122.5h-1.6
			v-9.6h1.6V122.5z"/>
		<path class="st3" d="M358.4,112.9l0.1,1.2c0.7-0.9,1.7-1.4,2.9-1.4c2,0,3,1.1,3.1,3.4v6.3h-1.6v-6.3c0-0.7-0.2-1.2-0.5-1.5
			c-0.3-0.3-0.8-0.5-1.4-0.5c-0.5,0-1,0.1-1.4,0.4c-0.4,0.3-0.7,0.7-0.9,1.1v6.8h-1.6v-9.6H358.4z"/>
	</g>
	<g class="st2">
		<path class="st3" d="M254.7,144.5l2.4-7.4h1.7l-3.4,9.6H254l-3.5-9.6h1.7L254.7,144.5z"/>
		<path class="st3" d="M259.7,141.8c0-0.9,0.2-1.8,0.6-2.5c0.4-0.8,0.9-1.3,1.5-1.7c0.7-0.4,1.4-0.6,2.3-0.6c1.3,0,2.4,0.5,3.2,1.4
			c0.8,0.9,1.2,2.1,1.2,3.6v0.1c0,0.9-0.2,1.8-0.5,2.5s-0.9,1.3-1.5,1.7c-0.7,0.4-1.4,0.6-2.3,0.6c-1.3,0-2.4-0.5-3.2-1.4
			s-1.2-2.1-1.2-3.6V141.8z M261.4,142c0,1.1,0.2,1.9,0.7,2.6s1.2,1,2,1c0.8,0,1.5-0.3,2-1c0.5-0.7,0.7-1.6,0.7-2.7
			c0-1.1-0.2-1.9-0.7-2.6c-0.5-0.7-1.2-1-2-1c-0.8,0-1.5,0.3-2,1C261.6,139.9,261.4,140.8,261.4,142z"/>
		<path class="st3" d="M272.3,146.7h-1.6v-13.6h1.6V146.7z"/>
		<path class="st3" d="M280.8,145.8c-0.6,0.8-1.6,1.1-2.8,1.1c-1,0-1.8-0.3-2.3-0.9s-0.8-1.5-0.8-2.6v-6.2h1.6v6.2
			c0,1.5,0.6,2.2,1.8,2.2c1.3,0,2.1-0.5,2.5-1.4v-7h1.6v9.6h-1.6L280.8,145.8z"/>
		<path class="st3" d="M286.5,137.1l0.1,1.2c0.7-0.9,1.7-1.4,2.9-1.4c2,0,3,1.1,3.1,3.4v6.3h-1.6v-6.3c0-0.7-0.2-1.2-0.5-1.5
			c-0.3-0.3-0.8-0.5-1.4-0.5c-0.5,0-1,0.1-1.4,0.4c-0.4,0.3-0.7,0.7-0.9,1.1v6.8h-1.6v-9.6H286.5z"/>
		<path class="st3" d="M297.2,134.8v2.3h1.8v1.3h-1.8v6c0,0.4,0.1,0.7,0.2,0.9c0.2,0.2,0.4,0.3,0.8,0.3c0.2,0,0.4,0,0.8-0.1v1.3
			c-0.4,0.1-0.9,0.2-1.3,0.2c-0.7,0-1.3-0.2-1.7-0.7c-0.4-0.4-0.6-1.1-0.6-1.9v-5.9h-1.7v-1.3h1.7v-2.3H297.2z"/>
		<path class="st3" d="M304.8,146.9c-1.3,0-2.4-0.4-3.2-1.3c-0.8-0.9-1.2-2-1.2-3.4v-0.3c0-1,0.2-1.8,0.5-2.5s0.9-1.3,1.5-1.8
			c0.7-0.4,1.4-0.6,2.1-0.6c1.2,0,2.2,0.4,2.9,1.2s1,2,1,3.5v0.7h-6.5c0,0.9,0.3,1.7,0.8,2.3c0.5,0.6,1.2,0.9,2,0.9
			c0.6,0,1.1-0.1,1.5-0.4c0.4-0.2,0.8-0.5,1.1-0.9l1,0.8C307.7,146.3,306.5,146.9,304.8,146.9z M304.6,138.3c-0.7,0-1.2,0.2-1.7,0.7
			c-0.4,0.5-0.7,1.2-0.8,2h4.8v-0.1c0-0.8-0.3-1.5-0.7-1.9C305.9,138.5,305.3,138.3,304.6,138.3z"/>
		<path class="st3" d="M314.5,146.9c-1.3,0-2.4-0.4-3.2-1.3c-0.8-0.9-1.2-2-1.2-3.4v-0.3c0-1,0.2-1.8,0.5-2.5s0.9-1.3,1.5-1.8
			c0.7-0.4,1.4-0.6,2.1-0.6c1.2,0,2.2,0.4,2.9,1.2s1,2,1,3.5v0.7h-6.5c0,0.9,0.3,1.7,0.8,2.3c0.5,0.6,1.2,0.9,2,0.9
			c0.6,0,1.1-0.1,1.5-0.4c0.4-0.2,0.8-0.5,1.1-0.9l1,0.8C317.3,146.3,316.1,146.9,314.5,146.9z M314.3,138.3c-0.7,0-1.2,0.2-1.7,0.7
			c-0.4,0.5-0.7,1.2-0.8,2h4.8v-0.1c0-0.8-0.3-1.5-0.7-1.9C315.5,138.5,314.9,138.3,314.3,138.3z"/>
		<path class="st3" d="M324.7,138.6c-0.2,0-0.5-0.1-0.8-0.1c-1.1,0-1.8,0.5-2.2,1.4v6.8h-1.6v-9.6h1.6l0,1.1
			c0.5-0.9,1.3-1.3,2.3-1.3c0.3,0,0.6,0,0.7,0.1V138.6z"/>
		<path class="st3" d="M326.2,134.6c0-0.3,0.1-0.5,0.2-0.7c0.2-0.2,0.4-0.3,0.7-0.3c0.3,0,0.6,0.1,0.7,0.3c0.2,0.2,0.2,0.4,0.2,0.7
			c0,0.3-0.1,0.5-0.2,0.7c-0.2,0.2-0.4,0.3-0.7,0.3c-0.3,0-0.6-0.1-0.7-0.3C326.3,135.1,326.2,134.8,326.2,134.6z M328,146.7h-1.6
			v-9.6h1.6V146.7z"/>
		<path class="st3" d="M332.2,137.1l0.1,1.2c0.7-0.9,1.7-1.4,2.9-1.4c2,0,3,1.1,3.1,3.4v6.3h-1.6v-6.3c0-0.7-0.2-1.2-0.5-1.5
			c-0.3-0.3-0.8-0.5-1.4-0.5c-0.5,0-1,0.1-1.4,0.4c-0.4,0.3-0.7,0.7-0.9,1.1v6.8h-1.6v-9.6H332.2z"/>
		<path class="st3" d="M340.3,141.8c0-1.5,0.3-2.7,1-3.6c0.7-0.9,1.6-1.3,2.7-1.3c1.2,0,2.1,0.4,2.7,1.2l0.1-1.1h1.5v9.4
			c0,1.2-0.4,2.2-1.1,2.9c-0.7,0.7-1.7,1.1-3,1.1c-0.7,0-1.4-0.1-2-0.4c-0.7-0.3-1.2-0.7-1.5-1.2l0.9-1c0.7,0.9,1.6,1.3,2.6,1.3
			c0.8,0,1.4-0.2,1.9-0.7c0.4-0.4,0.7-1.1,0.7-1.9v-0.8c-0.7,0.8-1.6,1.1-2.7,1.1c-1.1,0-2-0.5-2.7-1.4S340.3,143.4,340.3,141.8z
			 M341.9,142c0,1.1,0.2,1.9,0.7,2.5c0.4,0.6,1.1,0.9,1.9,0.9c1,0,1.8-0.5,2.3-1.4v-4.4c-0.5-0.9-1.3-1.4-2.3-1.4
			c-0.8,0-1.4,0.3-1.9,0.9C342.1,139.9,341.9,140.8,341.9,142z"/>
	</g>
	<rect x="409.8" y="108.9" class="st4" width="177.8" height="68.8"/>
	<g class="st2">
		<path class="st3" d="M433.1,119.1h-5.4l-1.2,3.4h-1.8l4.9-12.9h1.5l4.9,12.9h-1.7L433.1,119.1z M428.2,117.7h4.4l-2.2-6
			L428.2,117.7z"/>
		<path class="st3" d="M437.2,117.6c0-1.5,0.3-2.7,1-3.5c0.7-0.9,1.6-1.3,2.7-1.3c1.1,0,2,0.4,2.7,1.2v-5h1.6v13.6h-1.5l-0.1-1
			c-0.7,0.8-1.6,1.2-2.7,1.2c-1.1,0-2-0.5-2.7-1.4s-1-2.1-1-3.6V117.6z M438.8,117.8c0,1.1,0.2,1.9,0.7,2.6c0.4,0.6,1.1,0.9,1.9,0.9
			c1,0,1.8-0.5,2.3-1.4v-4.4c-0.5-0.9-1.2-1.4-2.3-1.4c-0.8,0-1.4,0.3-1.9,0.9C439,115.7,438.8,116.6,438.8,117.8z"/>
		<path class="st3" d="M447.4,117.6c0-0.9,0.2-1.8,0.6-2.5c0.4-0.8,0.9-1.3,1.5-1.7c0.7-0.4,1.4-0.6,2.3-0.6c1.3,0,2.4,0.5,3.2,1.4
			c0.8,0.9,1.2,2.1,1.2,3.6v0.1c0,0.9-0.2,1.8-0.5,2.5s-0.9,1.3-1.5,1.7c-0.7,0.4-1.4,0.6-2.3,0.6c-1.3,0-2.4-0.5-3.2-1.4
			s-1.2-2.1-1.2-3.6V117.6z M449,117.8c0,1.1,0.2,1.9,0.7,2.6s1.2,1,2,1c0.8,0,1.5-0.3,2-1c0.5-0.7,0.7-1.6,0.7-2.7
			c0-1.1-0.2-1.9-0.7-2.6c-0.5-0.7-1.2-1-2-1c-0.8,0-1.5,0.3-2,1S449,116.6,449,117.8z"/>
		<path class="st3" d="M466.2,117.8c0,1.5-0.3,2.6-1,3.5c-0.7,0.9-1.6,1.3-2.7,1.3c-1.2,0-2.1-0.4-2.7-1.1v4.6h-1.6v-13.3h1.5
			l0.1,1.1c0.7-0.8,1.6-1.2,2.8-1.2c1.2,0,2.1,0.4,2.7,1.3c0.7,0.9,1,2.1,1,3.6V117.8z M464.6,117.6c0-1.1-0.2-1.9-0.7-2.6
			c-0.5-0.6-1.1-0.9-1.9-0.9c-1,0-1.7,0.4-2.2,1.3v4.6c0.5,0.9,1.2,1.3,2.3,1.3c0.8,0,1.4-0.3,1.9-0.9S464.6,118.9,464.6,117.6z"/>
		<path class="st3" d="M470.6,110.6v2.3h1.8v1.3h-1.8v6c0,0.4,0.1,0.7,0.2,0.9c0.2,0.2,0.4,0.3,0.8,0.3c0.2,0,0.4,0,0.8-0.1v1.3
			c-0.4,0.1-0.9,0.2-1.3,0.2c-0.7,0-1.3-0.2-1.7-0.7c-0.4-0.4-0.6-1.1-0.6-1.9v-5.9h-1.7v-1.3h1.7v-2.3H470.6z"/>
		<path class="st3" d="M478.2,122.7c-1.3,0-2.4-0.4-3.2-1.3c-0.8-0.9-1.2-2-1.2-3.4v-0.3c0-1,0.2-1.8,0.5-2.5s0.9-1.3,1.5-1.8
			c0.7-0.4,1.4-0.6,2.1-0.6c1.2,0,2.2,0.4,2.9,1.2s1,2,1,3.5v0.7h-6.5c0,0.9,0.3,1.7,0.8,2.3c0.5,0.6,1.2,0.9,2,0.9
			c0.6,0,1.1-0.1,1.5-0.4c0.4-0.2,0.8-0.5,1.1-0.9l1,0.8C481.1,122.1,479.8,122.7,478.2,122.7z M478,114.1c-0.7,0-1.2,0.2-1.7,0.7
			c-0.4,0.5-0.7,1.2-0.8,2h4.8v-0.1c0-0.8-0.3-1.5-0.7-1.9C479.3,114.3,478.7,114.1,478,114.1z"/>
		<path class="st3" d="M483.5,117.6c0-1.5,0.3-2.7,1-3.5c0.7-0.9,1.6-1.3,2.7-1.3c1.1,0,2,0.4,2.7,1.2v-5h1.6v13.6h-1.5l-0.1-1
			c-0.7,0.8-1.6,1.2-2.7,1.2c-1.1,0-2-0.5-2.7-1.4s-1-2.1-1-3.6V117.6z M485.1,117.8c0,1.1,0.2,1.9,0.7,2.6c0.4,0.6,1.1,0.9,1.9,0.9
			c1,0,1.8-0.5,2.3-1.4v-4.4c-0.5-0.9-1.2-1.4-2.3-1.4c-0.8,0-1.4,0.3-1.9,0.9C485.3,115.7,485.1,116.6,485.1,117.8z"/>
		<path class="st3" d="M500.8,110.6v2.3h1.8v1.3h-1.8v6c0,0.4,0.1,0.7,0.2,0.9c0.2,0.2,0.4,0.3,0.8,0.3c0.2,0,0.4,0,0.8-0.1v1.3
			c-0.4,0.1-0.9,0.2-1.3,0.2c-0.7,0-1.3-0.2-1.7-0.7c-0.4-0.4-0.6-1.1-0.6-1.9v-5.9h-1.7v-1.3h1.7v-2.3H500.8z"/>
		<path class="st3" d="M506.2,114.1c0.7-0.9,1.7-1.3,2.8-1.3c2,0,3,1.1,3.1,3.4v6.3h-1.6v-6.3c0-0.7-0.2-1.2-0.5-1.5
			c-0.3-0.3-0.8-0.5-1.4-0.5c-0.5,0-1,0.1-1.4,0.4c-0.4,0.3-0.7,0.7-0.9,1.1v6.8h-1.6v-13.6h1.6V114.1z"/>
		<path class="st3" d="M518.5,122.7c-1.3,0-2.4-0.4-3.2-1.3c-0.8-0.9-1.2-2-1.2-3.4v-0.3c0-1,0.2-1.8,0.5-2.5s0.9-1.3,1.5-1.8
			c0.7-0.4,1.4-0.6,2.1-0.6c1.2,0,2.2,0.4,2.9,1.2s1,2,1,3.5v0.7h-6.5c0,0.9,0.3,1.7,0.8,2.3c0.5,0.6,1.2,0.9,2,0.9
			c0.6,0,1.1-0.1,1.5-0.4c0.4-0.2,0.8-0.5,1.1-0.9l1,0.8C521.3,122.1,520.1,122.7,518.5,122.7z M518.3,114.1c-0.7,0-1.2,0.2-1.7,0.7
			c-0.4,0.5-0.7,1.2-0.8,2h4.8v-0.1c0-0.8-0.3-1.5-0.7-1.9C519.5,114.3,519,114.1,518.3,114.1z"/>
		<path class="st3" d="M524.2,110.4c0-0.3,0.1-0.5,0.2-0.7c0.2-0.2,0.4-0.3,0.7-0.3c0.3,0,0.6,0.1,0.7,0.3c0.2,0.2,0.2,0.4,0.2,0.7
			c0,0.3-0.1,0.5-0.2,0.7c-0.2,0.2-0.4,0.3-0.7,0.3c-0.3,0-0.6-0.1-0.7-0.3C524.2,110.9,524.2,110.6,524.2,110.4z M525.9,122.5h-1.6
			v-9.6h1.6V122.5z"/>
		<path class="st3" d="M533.2,114.4c-0.2,0-0.5-0.1-0.8-0.1c-1.1,0-1.8,0.5-2.2,1.4v6.8h-1.6v-9.6h1.6l0,1.1
			c0.5-0.9,1.3-1.3,2.3-1.3c0.3,0,0.6,0,0.7,0.1V114.4z"/>
		<path class="st3" d="M547.3,117.8c0,1.5-0.3,2.6-1,3.5c-0.7,0.9-1.6,1.3-2.7,1.3c-1.2,0-2.1-0.4-2.7-1.1v4.6h-1.6v-13.3h1.5
			l0.1,1.1c0.7-0.8,1.6-1.2,2.8-1.2c1.2,0,2.1,0.4,2.7,1.3c0.7,0.9,1,2.1,1,3.6V117.8z M545.6,117.6c0-1.1-0.2-1.9-0.7-2.6
			s-1.1-0.9-1.9-0.9c-1,0-1.7,0.4-2.2,1.3v4.6c0.5,0.9,1.2,1.3,2.3,1.3c0.8,0,1.4-0.3,1.9-0.9S545.6,118.9,545.6,117.6z"/>
		<path class="st3" d="M553.3,122.7c-1.3,0-2.4-0.4-3.2-1.3s-1.2-2-1.2-3.4v-0.3c0-1,0.2-1.8,0.5-2.5s0.9-1.3,1.5-1.8
			c0.7-0.4,1.4-0.6,2.1-0.6c1.2,0,2.2,0.4,2.9,1.2s1,2,1,3.5v0.7h-6.5c0,0.9,0.3,1.7,0.8,2.3c0.5,0.6,1.2,0.9,2,0.9
			c0.6,0,1.1-0.1,1.5-0.4c0.4-0.2,0.8-0.5,1.1-0.9l1,0.8C556.2,122.1,555,122.7,553.3,122.7z M553.1,114.1c-0.7,0-1.2,0.2-1.7,0.7
			c-0.4,0.5-0.7,1.2-0.8,2h4.8v-0.1c0-0.8-0.3-1.5-0.7-1.9C554.4,114.3,553.8,114.1,553.1,114.1z"/>
		<path class="st3" d="M561.2,110.6v2.3h1.8v1.3h-1.8v6c0,0.4,0.1,0.7,0.2,0.9c0.2,0.2,0.4,0.3,0.8,0.3c0.2,0,0.4,0,0.8-0.1v1.3
			c-0.4,0.1-0.9,0.2-1.3,0.2c-0.7,0-1.3-0.2-1.7-0.7s-0.6-1.1-0.6-1.9v-5.9h-1.7v-1.3h1.7v-2.3H561.2z"/>
		<path class="st3" d="M570.5,120c0-0.4-0.2-0.8-0.5-1s-0.9-0.5-1.7-0.6c-0.8-0.2-1.5-0.4-2-0.6c-0.5-0.2-0.8-0.5-1.1-0.9
			c-0.2-0.3-0.3-0.8-0.3-1.2c0-0.8,0.3-1.5,1-2c0.7-0.5,1.5-0.8,2.5-0.8c1.1,0,2,0.3,2.6,0.8c0.7,0.6,1,1.3,1,2.2h-1.6
			c0-0.4-0.2-0.8-0.6-1.2c-0.4-0.3-0.9-0.5-1.4-0.5c-0.6,0-1.1,0.1-1.4,0.4s-0.5,0.6-0.5,1c0,0.4,0.2,0.7,0.5,0.9
			c0.3,0.2,0.9,0.4,1.7,0.6c0.8,0.2,1.5,0.4,2,0.7s0.9,0.6,1.1,0.9s0.4,0.8,0.4,1.3c0,0.9-0.3,1.5-1,2.1c-0.7,0.5-1.6,0.8-2.7,0.8
			c-0.8,0-1.4-0.1-2-0.4s-1.1-0.7-1.4-1.1s-0.5-1-0.5-1.6h1.6c0,0.5,0.2,1,0.7,1.3c0.4,0.3,1,0.5,1.6,0.5c0.6,0,1.1-0.1,1.5-0.4
			C570.3,120.7,570.5,120.4,570.5,120z"/>
	</g>
	<rect x="611.5" y="108.9" class="st4" width="177.8" height="68.8"/>
	<g class="st2">
		<path class="st3" d="M650.9,116.8h-5.4v5.7h-1.7v-12.9h8v1.4h-6.3v4.4h5.4V116.8z"/>
		<path class="st3" d="M653.5,110.4c0-0.3,0.1-0.5,0.2-0.7c0.2-0.2,0.4-0.3,0.7-0.3s0.6,0.1,0.7,0.3c0.2,0.2,0.2,0.4,0.2,0.7
			c0,0.3-0.1,0.5-0.2,0.7c-0.2,0.2-0.4,0.3-0.7,0.3s-0.6-0.1-0.7-0.3C653.6,110.9,653.5,110.6,653.5,110.4z M655.3,122.5h-1.6v-9.6
			h1.6V122.5z"/>
		<path class="st3" d="M659.5,112.9l0.1,1.2c0.7-0.9,1.7-1.4,2.9-1.4c2,0,3,1.1,3.1,3.4v6.3h-1.6v-6.3c0-0.7-0.2-1.2-0.5-1.5
			c-0.3-0.3-0.8-0.5-1.4-0.5c-0.5,0-1,0.1-1.4,0.4c-0.4,0.3-0.7,0.7-0.9,1.1v6.8h-1.6v-9.6H659.5z"/>
		<path class="st3" d="M667.5,117.6c0-1.5,0.3-2.7,1-3.5c0.7-0.9,1.6-1.3,2.7-1.3c1.1,0,2,0.4,2.7,1.2v-5h1.6v13.6h-1.5l-0.1-1
			c-0.7,0.8-1.6,1.2-2.7,1.2c-1.1,0-2-0.5-2.7-1.4s-1.1-2.1-1.1-3.6V117.6z M669.2,117.8c0,1.1,0.2,1.9,0.7,2.6s1.1,0.9,1.9,0.9
			c1,0,1.8-0.5,2.3-1.4v-4.4c-0.5-0.9-1.2-1.4-2.3-1.4c-0.8,0-1.4,0.3-1.9,0.9S669.2,116.6,669.2,117.8z"/>
		<path class="st3" d="M682.2,117.6c0-0.9,0.2-1.8,0.6-2.5c0.4-0.8,0.9-1.3,1.5-1.7c0.7-0.4,1.4-0.6,2.3-0.6c1.3,0,2.4,0.5,3.2,1.4
			c0.8,0.9,1.2,2.1,1.2,3.6v0.1c0,0.9-0.2,1.8-0.5,2.5s-0.9,1.3-1.5,1.7c-0.7,0.4-1.4,0.6-2.3,0.6c-1.3,0-2.4-0.5-3.2-1.4
			s-1.2-2.1-1.2-3.6V117.6z M683.9,117.8c0,1.1,0.2,1.9,0.7,2.6s1.2,1,2,1c0.8,0,1.5-0.3,2-1c0.5-0.7,0.7-1.6,0.7-2.7
			c0-1.1-0.2-1.9-0.7-2.6c-0.5-0.7-1.2-1-2-1c-0.8,0-1.5,0.3-2,1S683.9,116.6,683.9,117.8z"/>
		<path class="st3" d="M698.9,121.5c-0.6,0.8-1.6,1.1-2.8,1.1c-1,0-1.8-0.3-2.3-0.9c-0.5-0.6-0.8-1.5-0.8-2.6v-6.2h1.6v6.2
			c0,1.5,0.6,2.2,1.8,2.2c1.3,0,2.1-0.5,2.5-1.4v-7h1.6v9.6H699L698.9,121.5z"/>
		<path class="st3" d="M705.3,110.6v2.3h1.8v1.3h-1.8v6c0,0.4,0.1,0.7,0.2,0.9c0.2,0.2,0.4,0.3,0.8,0.3c0.2,0,0.4,0,0.8-0.1v1.3
			c-0.4,0.1-0.9,0.2-1.3,0.2c-0.7,0-1.3-0.2-1.7-0.7c-0.4-0.4-0.6-1.1-0.6-1.9v-5.9h-1.7v-1.3h1.7v-2.3H705.3z"/>
		<path class="st3" d="M719.4,122.5c-0.1-0.2-0.2-0.5-0.2-1c-0.8,0.8-1.7,1.2-2.7,1.2c-0.9,0-1.7-0.3-2.3-0.8
			c-0.6-0.5-0.9-1.2-0.9-2c0-1,0.4-1.8,1.1-2.3c0.8-0.6,1.8-0.8,3.2-0.8h1.6v-0.8c0-0.6-0.2-1-0.5-1.4c-0.3-0.3-0.8-0.5-1.5-0.5
			c-0.6,0-1.1,0.1-1.5,0.4c-0.4,0.3-0.6,0.7-0.6,1.1h-1.6c0-0.5,0.2-0.9,0.5-1.4s0.8-0.8,1.4-1.1c0.6-0.3,1.2-0.4,1.9-0.4
			c1.1,0,2,0.3,2.6,0.8c0.6,0.6,1,1.3,1,2.3v4.4c0,0.9,0.1,1.6,0.3,2.1v0.1H719.4z M716.7,121.2c0.5,0,1-0.1,1.5-0.4s0.8-0.6,1-1v-2
			h-1.3c-2,0-3,0.6-3,1.8c0,0.5,0.2,0.9,0.5,1.2C715.7,121.1,716.1,121.2,716.7,121.2z"/>
		<path class="st3" d="M731.4,117.8c0,1.5-0.3,2.6-1,3.5c-0.7,0.9-1.6,1.3-2.7,1.3c-1.2,0-2.1-0.4-2.8-1.3l-0.1,1.1h-1.5v-13.6h1.6
			v5.1c0.7-0.8,1.6-1.2,2.7-1.2s2.1,0.4,2.7,1.3c0.7,0.9,1,2.1,1,3.6V117.8z M729.8,117.6c0-1.1-0.2-2-0.6-2.6
			c-0.4-0.6-1.1-0.9-1.9-0.9c-1.1,0-1.9,0.5-2.3,1.5v4.1c0.5,1,1.3,1.5,2.3,1.5c0.8,0,1.4-0.3,1.8-0.9
			C729.6,119.8,729.8,118.8,729.8,117.6z"/>
		<path class="st3" d="M733.1,117.6c0-0.9,0.2-1.8,0.6-2.5c0.4-0.8,0.9-1.3,1.5-1.7c0.7-0.4,1.4-0.6,2.3-0.6c1.3,0,2.4,0.5,3.2,1.4
			c0.8,0.9,1.2,2.1,1.2,3.6v0.1c0,0.9-0.2,1.8-0.5,2.5s-0.9,1.3-1.5,1.7c-0.7,0.4-1.4,0.6-2.3,0.6c-1.3,0-2.4-0.5-3.2-1.4
			s-1.2-2.1-1.2-3.6V117.6z M734.7,117.8c0,1.1,0.2,1.9,0.7,2.6s1.2,1,2,1c0.8,0,1.5-0.3,2-1c0.5-0.7,0.7-1.6,0.7-2.7
			c0-1.1-0.2-1.9-0.7-2.6c-0.5-0.7-1.2-1-2-1c-0.8,0-1.5,0.3-2,1S734.7,116.6,734.7,117.8z"/>
		<path class="st3" d="M749.8,121.5c-0.6,0.8-1.6,1.1-2.8,1.1c-1,0-1.8-0.3-2.3-0.9c-0.5-0.6-0.8-1.5-0.8-2.6v-6.2h1.6v6.2
			c0,1.5,0.6,2.2,1.8,2.2c1.3,0,2.1-0.5,2.5-1.4v-7h1.6v9.6h-1.6L749.8,121.5z"/>
		<path class="st3" d="M756.1,110.6v2.3h1.8v1.3h-1.8v6c0,0.4,0.1,0.7,0.2,0.9c0.2,0.2,0.4,0.3,0.8,0.3c0.2,0,0.4,0,0.8-0.1v1.3
			c-0.4,0.1-0.9,0.2-1.3,0.2c-0.7,0-1.3-0.2-1.7-0.7s-0.6-1.1-0.6-1.9v-5.9h-1.7v-1.3h1.7v-2.3H756.1z"/>
	</g>
	<g class="st2">
		<path class="st3" d="M618.7,141.8c0-0.9,0.2-1.8,0.6-2.5c0.4-0.8,0.9-1.3,1.5-1.7c0.7-0.4,1.4-0.6,2.3-0.6c1.3,0,2.4,0.5,3.2,1.4
			c0.8,0.9,1.2,2.1,1.2,3.6v0.1c0,0.9-0.2,1.8-0.5,2.5s-0.9,1.3-1.5,1.7c-0.7,0.4-1.4,0.6-2.3,0.6c-1.3,0-2.4-0.5-3.2-1.4
			s-1.2-2.1-1.2-3.6V141.8z M620.3,142c0,1.1,0.2,1.9,0.7,2.6s1.2,1,2,1c0.8,0,1.5-0.3,2-1c0.5-0.7,0.7-1.6,0.7-2.7
			c0-1.1-0.2-1.9-0.7-2.6c-0.5-0.7-1.2-1-2-1c-0.8,0-1.5,0.3-2,1C620.6,139.9,620.3,140.8,620.3,142z"/>
		<path class="st3" d="M637.5,142c0,1.5-0.3,2.6-1,3.5c-0.7,0.9-1.6,1.3-2.7,1.3c-1.2,0-2.1-0.4-2.7-1.1v4.6h-1.6v-13.3h1.5l0.1,1.1
			c0.7-0.8,1.6-1.2,2.8-1.2c1.2,0,2.1,0.4,2.7,1.3c0.7,0.9,1,2.1,1,3.6V142z M635.9,141.8c0-1.1-0.2-1.9-0.7-2.6s-1.1-0.9-1.9-0.9
			c-1,0-1.7,0.4-2.2,1.3v4.6c0.5,0.9,1.2,1.3,2.2,1.3c0.8,0,1.4-0.3,1.9-0.9C635.7,144,635.9,143.1,635.9,141.8z"/>
		<path class="st3" d="M647.7,142c0,1.5-0.3,2.6-1,3.5c-0.7,0.9-1.6,1.3-2.7,1.3c-1.2,0-2.1-0.4-2.7-1.1v4.6h-1.6v-13.3h1.5l0.1,1.1
			c0.7-0.8,1.6-1.2,2.8-1.2c1.2,0,2.1,0.4,2.7,1.3c0.7,0.9,1,2.1,1,3.6V142z M646.1,141.8c0-1.1-0.2-1.9-0.7-2.6s-1.1-0.9-1.9-0.9
			c-1,0-1.7,0.4-2.2,1.3v4.6c0.5,0.9,1.2,1.3,2.3,1.3c0.8,0,1.4-0.3,1.9-0.9C645.9,144,646.1,143.1,646.1,141.8z"/>
		<path class="st3" d="M649.4,141.8c0-0.9,0.2-1.8,0.6-2.5c0.4-0.8,0.9-1.3,1.5-1.7c0.7-0.4,1.4-0.6,2.3-0.6c1.3,0,2.4,0.5,3.2,1.4
			c0.8,0.9,1.2,2.1,1.2,3.6v0.1c0,0.9-0.2,1.8-0.5,2.5s-0.9,1.3-1.5,1.7c-0.7,0.4-1.4,0.6-2.3,0.6c-1.3,0-2.4-0.5-3.2-1.4
			s-1.2-2.1-1.2-3.6V141.8z M651,142c0,1.1,0.2,1.9,0.7,2.6s1.2,1,2,1c0.8,0,1.5-0.3,2-1c0.5-0.7,0.7-1.6,0.7-2.7
			c0-1.1-0.2-1.9-0.7-2.6c-0.5-0.7-1.2-1-2-1c-0.8,0-1.5,0.3-2,1C651.3,139.9,651,140.8,651,142z"/>
		<path class="st3" d="M664.8,138.6c-0.2,0-0.5-0.1-0.8-0.1c-1.1,0-1.8,0.5-2.2,1.4v6.8h-1.6v-9.6h1.6l0,1.1
			c0.5-0.9,1.3-1.3,2.3-1.3c0.3,0,0.6,0,0.7,0.1V138.6z"/>
		<path class="st3" d="M669,134.8v2.3h1.8v1.3H669v6c0,0.4,0.1,0.7,0.2,0.9c0.2,0.2,0.4,0.3,0.8,0.3c0.2,0,0.4,0,0.8-0.1v1.3
			c-0.4,0.1-0.9,0.2-1.3,0.2c-0.7,0-1.3-0.2-1.7-0.7c-0.4-0.4-0.6-1.1-0.6-1.9v-5.9h-1.7v-1.3h1.7v-2.3H669z"/>
		<path class="st3" d="M678.6,145.8c-0.6,0.8-1.6,1.1-2.8,1.1c-1,0-1.8-0.3-2.3-0.9c-0.5-0.6-0.8-1.5-0.8-2.6v-6.2h1.6v6.2
			c0,1.5,0.6,2.2,1.8,2.2c1.3,0,2.1-0.5,2.5-1.4v-7h1.6v9.6h-1.6L678.6,145.8z"/>
		<path class="st3" d="M684.2,137.1l0.1,1.2c0.7-0.9,1.7-1.4,2.9-1.4c2,0,3,1.1,3.1,3.4v6.3h-1.6v-6.3c0-0.7-0.2-1.2-0.5-1.5
			c-0.3-0.3-0.8-0.5-1.4-0.5c-0.5,0-1,0.1-1.4,0.4c-0.4,0.3-0.7,0.7-0.9,1.1v6.8h-1.6v-9.6H684.2z"/>
		<path class="st3" d="M692.7,134.6c0-0.3,0.1-0.5,0.2-0.7c0.2-0.2,0.4-0.3,0.7-0.3c0.3,0,0.6,0.1,0.7,0.3c0.2,0.2,0.2,0.4,0.2,0.7
			c0,0.3-0.1,0.5-0.2,0.7c-0.2,0.2-0.4,0.3-0.7,0.3c-0.3,0-0.6-0.1-0.7-0.3C692.8,135.1,692.7,134.8,692.7,134.6z M694.5,146.7h-1.6
			v-9.6h1.6V146.7z"/>
		<path class="st3" d="M699.3,134.8v2.3h1.8v1.3h-1.8v6c0,0.4,0.1,0.7,0.2,0.9c0.2,0.2,0.4,0.3,0.8,0.3c0.2,0,0.4,0,0.8-0.1v1.3
			c-0.4,0.1-0.9,0.2-1.3,0.2c-0.7,0-1.3-0.2-1.7-0.7c-0.4-0.4-0.6-1.1-0.6-1.9v-5.9h-1.7v-1.3h1.7v-2.3H699.3z"/>
		<path class="st3" d="M703,134.6c0-0.3,0.1-0.5,0.2-0.7c0.2-0.2,0.4-0.3,0.7-0.3c0.3,0,0.6,0.1,0.7,0.3c0.2,0.2,0.2,0.4,0.2,0.7
			c0,0.3-0.1,0.5-0.2,0.7c-0.2,0.2-0.4,0.3-0.7,0.3c-0.3,0-0.6-0.1-0.7-0.3C703.1,135.1,703,134.8,703,134.6z M704.8,146.7h-1.6
			v-9.6h1.6V146.7z"/>
		<path class="st3" d="M711.4,146.9c-1.3,0-2.4-0.4-3.2-1.3c-0.8-0.9-1.2-2-1.2-3.4v-0.3c0-1,0.2-1.8,0.5-2.5s0.9-1.3,1.5-1.8
			c0.7-0.4,1.4-0.6,2.1-0.6c1.2,0,2.2,0.4,2.9,1.2s1,2,1,3.5v0.7h-6.5c0,0.9,0.3,1.7,0.8,2.3c0.5,0.6,1.2,0.9,2,0.9
			c0.6,0,1.1-0.1,1.5-0.4c0.4-0.2,0.8-0.5,1.1-0.9l1,0.8C714.2,146.3,713,146.9,711.4,146.9z M711.2,138.3c-0.7,0-1.2,0.2-1.7,0.7
			c-0.4,0.5-0.7,1.2-0.8,2h4.8v-0.1c0-0.8-0.3-1.5-0.7-1.9C712.4,138.5,711.9,138.3,711.2,138.3z"/>
		<path class="st3" d="M722.6,144.2c0-0.4-0.2-0.8-0.5-1s-0.9-0.5-1.7-0.6c-0.8-0.2-1.5-0.4-2-0.6s-0.8-0.5-1.1-0.9
			c-0.2-0.3-0.4-0.8-0.4-1.2c0-0.8,0.3-1.5,1-2c0.7-0.5,1.5-0.8,2.5-0.8c1.1,0,2,0.3,2.6,0.8c0.7,0.6,1,1.3,1,2.2h-1.6
			c0-0.4-0.2-0.8-0.6-1.2c-0.4-0.3-0.9-0.5-1.4-0.5c-0.6,0-1.1,0.1-1.4,0.4c-0.3,0.3-0.5,0.6-0.5,1c0,0.4,0.2,0.7,0.5,0.9
			c0.3,0.2,0.9,0.4,1.7,0.6c0.8,0.2,1.5,0.4,2,0.7s0.9,0.6,1.1,0.9c0.2,0.4,0.4,0.8,0.4,1.3c0,0.9-0.3,1.5-1,2.1
			c-0.7,0.5-1.6,0.8-2.7,0.8c-0.8,0-1.4-0.1-2-0.4c-0.6-0.3-1.1-0.7-1.4-1.1c-0.3-0.5-0.5-1-0.5-1.6h1.6c0,0.5,0.2,1,0.7,1.3
			c0.4,0.3,1,0.5,1.6,0.5c0.6,0,1.1-0.1,1.5-0.4C722.4,144.9,722.6,144.6,722.6,144.2z"/>
		<path class="st3" d="M733.1,134.8v2.3h1.8v1.3h-1.8v6c0,0.4,0.1,0.7,0.2,0.9c0.2,0.2,0.4,0.3,0.8,0.3c0.2,0,0.4,0,0.8-0.1v1.3
			c-0.4,0.1-0.9,0.2-1.3,0.2c-0.7,0-1.3-0.2-1.7-0.7c-0.4-0.4-0.6-1.1-0.6-1.9v-5.9h-1.7v-1.3h1.7v-2.3H733.1z"/>
		<path class="st3" d="M736.2,141.8c0-0.9,0.2-1.8,0.6-2.5c0.4-0.8,0.9-1.3,1.5-1.7c0.7-0.4,1.4-0.6,2.3-0.6c1.3,0,2.4,0.5,3.2,1.4
			c0.8,0.9,1.2,2.1,1.2,3.6v0.1c0,0.9-0.2,1.8-0.5,2.5s-0.9,1.3-1.5,1.7c-0.7,0.4-1.4,0.6-2.3,0.6c-1.3,0-2.4-0.5-3.2-1.4
			c-0.8-0.9-1.2-2.1-1.2-3.6V141.8z M737.9,142c0,1.1,0.2,1.9,0.7,2.6s1.2,1,2,1c0.8,0,1.5-0.3,2-1c0.5-0.7,0.7-1.6,0.7-2.7
			c0-1.1-0.2-1.9-0.7-2.6c-0.5-0.7-1.2-1-2-1c-0.8,0-1.5,0.3-2,1S737.9,140.8,737.9,142z"/>
		<path class="st3" d="M751.1,141.8c0-1.5,0.3-2.7,1-3.6c0.7-0.9,1.6-1.3,2.7-1.3c1.2,0,2.1,0.4,2.7,1.2l0.1-1.1h1.5v9.4
			c0,1.2-0.4,2.2-1.1,2.9c-0.7,0.7-1.7,1.1-3,1.1c-0.7,0-1.4-0.1-2-0.4c-0.7-0.3-1.2-0.7-1.5-1.2l0.9-1c0.7,0.9,1.6,1.3,2.6,1.3
			c0.8,0,1.4-0.2,1.9-0.7c0.4-0.4,0.7-1.1,0.7-1.9v-0.8c-0.7,0.8-1.6,1.1-2.7,1.1c-1.1,0-2-0.5-2.7-1.4S751.1,143.4,751.1,141.8z
			 M752.8,142c0,1.1,0.2,1.9,0.7,2.5c0.4,0.6,1.1,0.9,1.9,0.9c1,0,1.8-0.5,2.3-1.4v-4.4c-0.5-0.9-1.3-1.4-2.3-1.4
			c-0.8,0-1.4,0.3-1.9,0.9S752.8,140.8,752.8,142z"/>
		<path class="st3" d="M761.7,134.6c0-0.3,0.1-0.5,0.2-0.7c0.2-0.2,0.4-0.3,0.7-0.3c0.3,0,0.6,0.1,0.7,0.3c0.2,0.2,0.2,0.4,0.2,0.7
			c0,0.3-0.1,0.5-0.2,0.7c-0.2,0.2-0.4,0.3-0.7,0.3c-0.3,0-0.6-0.1-0.7-0.3C761.8,135.1,761.7,134.8,761.7,134.6z M763.5,146.7h-1.6
			v-9.6h1.6V146.7z"/>
		<path class="st3" d="M769.2,144.5l2.4-7.4h1.7l-3.4,9.6h-1.2l-3.5-9.6h1.7L769.2,144.5z"/>
		<path class="st3" d="M778.7,146.9c-1.3,0-2.4-0.4-3.2-1.3c-0.8-0.9-1.2-2-1.2-3.4v-0.3c0-1,0.2-1.8,0.5-2.5s0.9-1.3,1.5-1.8
			c0.7-0.4,1.4-0.6,2.1-0.6c1.2,0,2.2,0.4,2.9,1.2s1,2,1,3.5v0.7H776c0,0.9,0.3,1.7,0.8,2.3s1.2,0.9,2,0.9c0.6,0,1.1-0.1,1.5-0.4
			c0.4-0.2,0.8-0.5,1.1-0.9l1,0.8C781.6,146.3,780.3,146.9,778.7,146.9z M778.5,138.3c-0.7,0-1.2,0.2-1.7,0.7
			c-0.4,0.5-0.7,1.2-0.8,2h4.8v-0.1c0-0.8-0.3-1.5-0.7-1.9C779.8,138.5,779.2,138.3,778.5,138.3z"/>
	</g>
	<g class="st2">
		<path class="st3" d="M619.1,159v2.3h1.8v1.3h-1.8v6c0,0.4,0.1,0.7,0.2,0.9c0.2,0.2,0.4,0.3,0.8,0.3c0.2,0,0.4,0,0.8-0.1v1.3
			c-0.4,0.1-0.9,0.2-1.3,0.2c-0.7,0-1.3-0.2-1.7-0.7s-0.6-1.1-0.6-1.9v-5.9h-1.7v-1.3h1.7V159H619.1z"/>
		<path class="st3" d="M624.5,162.5c0.7-0.9,1.7-1.3,2.8-1.3c2,0,3,1.1,3.1,3.4v6.3h-1.6v-6.3c0-0.7-0.2-1.2-0.5-1.5
			c-0.3-0.3-0.8-0.5-1.4-0.5c-0.5,0-1,0.1-1.4,0.4c-0.4,0.3-0.7,0.7-0.9,1.1v6.8h-1.6v-13.6h1.6V162.5z"/>
		<path class="st3" d="M637.5,162.8c-0.2,0-0.5-0.1-0.8-0.1c-1.1,0-1.8,0.5-2.2,1.4v6.8h-1.6v-9.6h1.6l0,1.1
			c0.5-0.9,1.3-1.3,2.3-1.3c0.3,0,0.6,0,0.7,0.1V162.8z"/>
		<path class="st3" d="M638.3,166c0-0.9,0.2-1.8,0.6-2.5c0.4-0.8,0.9-1.3,1.5-1.7c0.7-0.4,1.4-0.6,2.3-0.6c1.3,0,2.4,0.5,3.2,1.4
			c0.8,0.9,1.2,2.1,1.2,3.6v0.1c0,0.9-0.2,1.8-0.5,2.5s-0.9,1.3-1.5,1.7c-0.7,0.4-1.4,0.6-2.3,0.6c-1.3,0-2.4-0.5-3.2-1.4
			s-1.2-2.1-1.2-3.6V166z M640,166.2c0,1.1,0.2,1.9,0.7,2.6s1.2,1,2,1c0.8,0,1.5-0.3,2-1c0.5-0.7,0.7-1.6,0.7-2.7
			c0-1.1-0.2-1.9-0.7-2.6c-0.5-0.7-1.2-1-2-1c-0.8,0-1.5,0.3-2,1S640,165,640,166.2z"/>
		<path class="st3" d="M655.1,170c-0.6,0.8-1.6,1.1-2.8,1.1c-1,0-1.8-0.3-2.3-0.9c-0.5-0.6-0.8-1.5-0.8-2.6v-6.2h1.6v6.2
			c0,1.5,0.6,2.2,1.8,2.2c1.3,0,2.1-0.5,2.5-1.4v-7h1.6v9.6h-1.6L655.1,170z"/>
		<path class="st3" d="M658.7,166c0-1.5,0.3-2.7,1-3.6c0.7-0.9,1.6-1.3,2.7-1.3c1.2,0,2.1,0.4,2.7,1.2l0.1-1.1h1.5v9.4
			c0,1.2-0.4,2.2-1.1,2.9s-1.7,1.1-3,1.1c-0.7,0-1.4-0.1-2-0.4c-0.7-0.3-1.2-0.7-1.5-1.2l0.9-1c0.7,0.9,1.6,1.3,2.6,1.3
			c0.8,0,1.4-0.2,1.9-0.7s0.7-1.1,0.7-1.9v-0.8c-0.7,0.8-1.6,1.1-2.7,1.1c-1.1,0-2-0.5-2.7-1.4S658.7,167.6,658.7,166z M660.4,166.2
			c0,1.1,0.2,1.9,0.7,2.5c0.4,0.6,1.1,0.9,1.9,0.9c1,0,1.8-0.5,2.3-1.4v-4.4c-0.5-0.9-1.3-1.4-2.3-1.4c-0.8,0-1.4,0.3-1.9,0.9
			S660.4,165,660.4,166.2z"/>
		<path class="st3" d="M671,162.5c0.7-0.9,1.7-1.3,2.8-1.3c2,0,3,1.1,3.1,3.4v6.3h-1.6v-6.3c0-0.7-0.2-1.2-0.5-1.5
			c-0.3-0.3-0.8-0.5-1.4-0.5c-0.5,0-1,0.1-1.4,0.4c-0.4,0.3-0.7,0.7-0.9,1.1v6.8h-1.6v-13.6h1.6V162.5z"/>
		<path class="st3" d="M689.4,168.4c0-0.4-0.2-0.8-0.5-1s-0.9-0.5-1.7-0.6c-0.8-0.2-1.5-0.4-2-0.6s-0.8-0.5-1.1-0.9
			c-0.2-0.3-0.4-0.8-0.4-1.2c0-0.8,0.3-1.5,1-2c0.7-0.5,1.5-0.8,2.5-0.8c1.1,0,2,0.3,2.6,0.8c0.7,0.6,1,1.3,1,2.2h-1.6
			c0-0.4-0.2-0.8-0.6-1.2s-0.9-0.5-1.4-0.5c-0.6,0-1.1,0.1-1.4,0.4s-0.5,0.6-0.5,1c0,0.4,0.2,0.7,0.5,0.9c0.3,0.2,0.9,0.4,1.7,0.6
			c0.8,0.2,1.5,0.4,2,0.7s0.9,0.6,1.1,0.9s0.4,0.8,0.4,1.3c0,0.9-0.3,1.5-1,2.1c-0.7,0.5-1.6,0.8-2.7,0.8c-0.8,0-1.4-0.1-2-0.4
			s-1.1-0.7-1.4-1.1s-0.5-1-0.5-1.6h1.6c0,0.5,0.2,1,0.7,1.3c0.4,0.3,1,0.5,1.6,0.5c0.6,0,1.1-0.1,1.5-0.4
			C689.2,169.1,689.4,168.8,689.4,168.4z"/>
		<path class="st3" d="M692.7,166c0-0.9,0.2-1.8,0.6-2.5c0.4-0.8,0.9-1.3,1.5-1.7c0.7-0.4,1.4-0.6,2.3-0.6c1.3,0,2.4,0.5,3.2,1.4
			c0.8,0.9,1.2,2.1,1.2,3.6v0.1c0,0.9-0.2,1.8-0.5,2.5s-0.9,1.3-1.5,1.7c-0.7,0.4-1.4,0.6-2.3,0.6c-1.3,0-2.4-0.5-3.2-1.4
			s-1.2-2.1-1.2-3.6V166z M694.4,166.2c0,1.1,0.2,1.9,0.7,2.6s1.2,1,2,1c0.8,0,1.5-0.3,2-1c0.5-0.7,0.7-1.6,0.7-2.7
			c0-1.1-0.2-1.9-0.7-2.6c-0.5-0.7-1.2-1-2-1c-0.8,0-1.5,0.3-2,1C694.6,164.1,694.4,165,694.4,166.2z"/>
		<path class="st3" d="M707.4,169.7c0.6,0,1.1-0.2,1.5-0.5c0.4-0.4,0.7-0.8,0.7-1.3h1.6c0,0.5-0.2,1.1-0.6,1.6s-0.8,0.9-1.4,1.2
			c-0.6,0.3-1.2,0.4-1.8,0.4c-1.3,0-2.3-0.4-3.1-1.3c-0.8-0.9-1.2-2.1-1.2-3.6v-0.3c0-0.9,0.2-1.8,0.5-2.5s0.8-1.3,1.5-1.7
			c0.6-0.4,1.4-0.6,2.3-0.6c1.1,0,2,0.3,2.7,1c0.7,0.6,1.1,1.5,1.1,2.5h-1.6c0-0.6-0.3-1.1-0.7-1.5c-0.4-0.4-0.9-0.6-1.6-0.6
			c-0.8,0-1.5,0.3-1.9,0.9s-0.7,1.5-0.7,2.6v0.3c0,1.1,0.2,2,0.7,2.6S706.5,169.7,707.4,169.7z"/>
		<path class="st3" d="M713,158.8c0-0.3,0.1-0.5,0.2-0.7c0.2-0.2,0.4-0.3,0.7-0.3s0.6,0.1,0.7,0.3c0.2,0.2,0.2,0.4,0.2,0.7
			c0,0.3-0.1,0.5-0.2,0.7c-0.2,0.2-0.4,0.3-0.7,0.3s-0.6-0.1-0.7-0.3C713.1,159.3,713,159,713,158.8z M714.8,170.9h-1.6v-9.6h1.6
			V170.9z"/>
		<path class="st3" d="M723.3,170.9c-0.1-0.2-0.2-0.5-0.2-1c-0.8,0.8-1.7,1.2-2.7,1.2c-0.9,0-1.7-0.3-2.3-0.8
			c-0.6-0.5-0.9-1.2-0.9-2c0-1,0.4-1.8,1.1-2.3c0.8-0.6,1.8-0.8,3.2-0.8h1.6v-0.8c0-0.6-0.2-1-0.5-1.4c-0.3-0.3-0.8-0.5-1.5-0.5
			c-0.6,0-1.1,0.1-1.5,0.4c-0.4,0.3-0.6,0.7-0.6,1.1h-1.6c0-0.5,0.2-0.9,0.5-1.4c0.3-0.4,0.8-0.8,1.4-1.1c0.6-0.3,1.2-0.4,1.9-0.4
			c1.1,0,2,0.3,2.6,0.8s1,1.3,1,2.3v4.4c0,0.9,0.1,1.6,0.3,2.1v0.1H723.3z M720.6,169.6c0.5,0,1-0.1,1.5-0.4s0.8-0.6,1-1v-2h-1.3
			c-2,0-3,0.6-3,1.8c0,0.5,0.2,0.9,0.5,1.2C719.6,169.5,720.1,169.6,720.6,169.6z"/>
		<path class="st3" d="M729.1,170.9h-1.6v-13.6h1.6V170.9z"/>
		<path class="st3" d="M737.7,161.3l0,1.1c0.7-0.8,1.7-1.2,2.8-1.2c1.3,0,2.3,0.5,2.7,1.5c0.3-0.5,0.7-0.8,1.2-1.1s1.1-0.4,1.8-0.4
			c2.1,0,3.2,1.1,3.2,3.3v6.4H748v-6.3c0-0.7-0.2-1.2-0.5-1.5c-0.3-0.3-0.8-0.5-1.6-0.5c-0.6,0-1.1,0.2-1.5,0.5
			c-0.4,0.4-0.6,0.9-0.7,1.5v6.4h-1.6v-6.3c0-1.4-0.7-2.1-2-2.1c-1.1,0-1.8,0.5-2.2,1.4v7h-1.6v-9.6H737.7z"/>
		<path class="st3" d="M756.1,171.1c-1.3,0-2.4-0.4-3.2-1.3s-1.2-2-1.2-3.4v-0.3c0-1,0.2-1.8,0.5-2.5s0.9-1.3,1.5-1.8
			c0.7-0.4,1.4-0.6,2.1-0.6c1.2,0,2.2,0.4,2.9,1.2s1,2,1,3.5v0.7h-6.5c0,0.9,0.3,1.7,0.8,2.3c0.5,0.6,1.2,0.9,2,0.9
			c0.6,0,1.1-0.1,1.5-0.4c0.4-0.2,0.8-0.5,1.1-0.9l1,0.8C758.9,170.5,757.7,171.1,756.1,171.1z M755.9,162.5c-0.7,0-1.2,0.2-1.7,0.7
			c-0.4,0.5-0.7,1.2-0.8,2h4.8v-0.1c0-0.8-0.3-1.5-0.7-1.9C757.1,162.7,756.6,162.5,755.9,162.5z"/>
		<path class="st3" d="M761.3,166c0-1.5,0.3-2.7,1-3.5c0.7-0.9,1.6-1.3,2.7-1.3c1.1,0,2,0.4,2.7,1.2v-5h1.6v13.6h-1.5l-0.1-1
			c-0.7,0.8-1.6,1.2-2.7,1.2c-1.1,0-2-0.5-2.7-1.4c-0.7-0.9-1.1-2.1-1.1-3.6V166z M763,166.2c0,1.1,0.2,1.9,0.7,2.6
			c0.4,0.6,1.1,0.9,1.9,0.9c1,0,1.8-0.5,2.3-1.4v-4.4c-0.5-0.9-1.2-1.4-2.3-1.4c-0.8,0-1.4,0.3-1.9,0.9
			C763.2,164.1,763,165,763,166.2z"/>
		<path class="st3" d="M772,158.8c0-0.3,0.1-0.5,0.2-0.7c0.2-0.2,0.4-0.3,0.7-0.3c0.3,0,0.6,0.1,0.7,0.3c0.2,0.2,0.2,0.4,0.2,0.7
			c0,0.3-0.1,0.5-0.2,0.7c-0.2,0.2-0.4,0.3-0.7,0.3c-0.3,0-0.6-0.1-0.7-0.3C772,159.3,772,159,772,158.8z M773.7,170.9h-1.6v-9.6
			h1.6V170.9z"/>
		<path class="st3" d="M782.3,170.9c-0.1-0.2-0.2-0.5-0.2-1c-0.8,0.8-1.7,1.2-2.7,1.2c-0.9,0-1.7-0.3-2.3-0.8
			c-0.6-0.5-0.9-1.2-0.9-2c0-1,0.4-1.8,1.1-2.3c0.8-0.6,1.8-0.8,3.2-0.8h1.6v-0.8c0-0.6-0.2-1-0.5-1.4c-0.3-0.3-0.8-0.5-1.5-0.5
			c-0.6,0-1.1,0.1-1.5,0.4c-0.4,0.3-0.6,0.7-0.6,1.1h-1.6c0-0.5,0.2-0.9,0.5-1.4c0.3-0.4,0.8-0.8,1.4-1.1c0.6-0.3,1.2-0.4,1.9-0.4
			c1.1,0,2,0.3,2.6,0.8s1,1.3,1,2.3v4.4c0,0.9,0.1,1.6,0.3,2.1v0.1H782.3z M779.6,169.6c0.5,0,1-0.1,1.5-0.4s0.8-0.6,1-1v-2h-1.3
			c-2,0-3,0.6-3,1.8c0,0.5,0.2,0.9,0.5,1.2C778.6,169.5,779,169.6,779.6,169.6z"/>
	</g>
</g>
</svg>
