<?xml version="1.0" encoding="utf-8"?>
<!-- Generator: Adobe Illustrator 24.0.0, SVG Export Plug-In . SVG Version: 6.00 Build 0)  -->
<svg version="1.1" id="Layer_1" xmlns="http://www.w3.org/2000/svg" xmlns:xlink="http://www.w3.org/1999/xlink" x="0px" y="0px"
	 viewBox="0 0 858 241.1" style="enable-background:new 0 0 858 241.1;" xml:space="preserve">
<style type="text/css">
	.st0{fill:#162A65;}
	.st1{fill:none;stroke:#FFFFFF;stroke-width:4;stroke-linecap:round;stroke-miterlimit:10;}
	.st2{enable-background:new    ;}
	.st3{fill:#F5821F;}
	.st4{fill:none;}
	.st5{fill-rule:evenodd;clip-rule:evenodd;fill:#162A65;}
</style>
<g>
	<circle class="st0" cx="91.1" cy="56.4" r="49.2"/>
	<line class="st1" x1="66.6" y1="38.1" x2="115" y2="38.1"/>
	<line class="st1" x1="66.6" y1="56.4" x2="115" y2="56.4"/>
	<line class="st1" x1="66.6" y1="74.7" x2="115" y2="74.7"/>
</g>
<g class="st2">
	<path class="st3" d="M31.7,143.7h-3.5l-6.8-11.2v11.2h-3.5v-17.1h3.5l6.9,11.2v-11.2h3.5V143.7z"/>
	<path class="st3" d="M44.6,140.2h-6.2l-1.2,3.5h-3.7l6.4-17.1h3.3l6.4,17.1h-3.7L44.6,140.2z M39.4,137.3h4.3l-2.1-6.4L39.4,137.3z
		"/>
	<path class="st3" d="M56.5,139.5l3.9-12.8h3.9l-5.9,17.1h-3.7l-5.9-17.1h3.9L56.5,139.5z"/>
	<path class="st3" d="M69.6,143.7h-3.5v-17.1h3.5V143.7z"/>
	<path class="st3" d="M86.4,141.5c-0.6,0.8-1.5,1.3-2.7,1.8s-2.4,0.6-3.8,0.6c-1.5,0-2.8-0.3-3.9-1s-2-1.6-2.6-2.8s-0.9-2.7-0.9-4.3
		v-1.2c0-1.7,0.3-3.2,0.9-4.4s1.4-2.2,2.5-2.9s2.3-1,3.8-1c2,0,3.6,0.5,4.7,1.4s1.8,2.4,2,4.2H83c-0.2-1-0.5-1.7-1-2.1
		s-1.3-0.7-2.2-0.7c-1.2,0-2.1,0.4-2.7,1.3s-0.9,2.2-0.9,4v1.1c0,1.8,0.3,3.1,1,4.1s1.7,1.4,3,1.4c1.3,0,2.3-0.3,2.8-0.8v-2.9h-3.2
		v-2.6h6.7V141.5z"/>
	<path class="st3" d="M98.9,140.2h-6.2l-1.2,3.5h-3.7l6.4-17.1h3.3l6.4,17.1h-3.7L98.9,140.2z M93.7,137.3h4.3l-2.1-6.4L93.7,137.3z
		"/>
	<path class="st3" d="M116.8,129.5h-5.2v14.2h-3.5v-14.2h-5.2v-2.8h13.9V129.5z"/>
	<path class="st3" d="M122.6,143.7H119v-17.1h3.5V143.7z"/>
	<path class="st3" d="M139.8,135.5c0,1.7-0.3,3.2-0.9,4.4s-1.4,2.2-2.5,2.9s-2.4,1-3.8,1c-1.4,0-2.7-0.3-3.8-1s-2-1.7-2.6-2.9
		s-0.9-2.7-0.9-4.4v-0.8c0-1.7,0.3-3.2,0.9-4.4s1.5-2.3,2.6-2.9s2.4-1,3.8-1s2.7,0.3,3.8,1s2,1.7,2.6,2.9s0.9,2.8,0.9,4.4V135.5z
		 M136.3,134.8c0-1.8-0.3-3.1-1-4.1s-1.6-1.4-2.7-1.4c-1.2,0-2.1,0.5-2.7,1.4s-1,2.3-1,4v0.8c0,1.7,0.3,3.1,1,4.1s1.6,1.4,2.8,1.4
		c1.2,0,2.1-0.5,2.7-1.4s1-2.3,1-4V134.8z"/>
	<path class="st3" d="M156.3,143.7h-3.5l-6.8-11.2v11.2h-3.5v-17.1h3.5l6.9,11.2v-11.2h3.5V143.7z"/>
</g>
<rect x="21" y="159.2" class="st4" width="140.3" height="79.8"/>
<g class="st2">
	<path d="M43.9,166.6c-1.4-0.4-2.4-0.9-3-1.4c-0.6-0.6-0.9-1.3-0.9-2.1c0-1,0.4-1.7,1.1-2.4c0.8-0.6,1.8-0.9,3-0.9
		c0.8,0,1.6,0.2,2.2,0.5c0.7,0.3,1.2,0.8,1.5,1.3c0.4,0.6,0.5,1.2,0.5,1.9h-1.6c0-0.7-0.2-1.3-0.7-1.7c-0.5-0.4-1.1-0.6-2-0.6
		c-0.8,0-1.4,0.2-1.8,0.5c-0.4,0.3-0.7,0.8-0.7,1.4c0,0.5,0.2,0.9,0.6,1.3c0.4,0.3,1.1,0.7,2.1,0.9c1,0.3,1.8,0.6,2.4,0.9
		c0.6,0.3,1,0.7,1.3,1.2c0.3,0.5,0.4,1,0.4,1.6c0,1-0.4,1.8-1.1,2.4c-0.8,0.6-1.8,0.9-3.1,0.9c-0.8,0-1.6-0.2-2.3-0.5
		s-1.3-0.8-1.7-1.3c-0.4-0.6-0.6-1.2-0.6-1.9h1.6c0,0.7,0.3,1.3,0.8,1.7c0.5,0.4,1.3,0.6,2.2,0.6c0.8,0,1.5-0.2,1.9-0.5
		c0.4-0.3,0.7-0.8,0.7-1.4s-0.2-1-0.6-1.4C45.8,167.2,45,166.9,43.9,166.6z"/>
	<path d="M50.2,160.6c0-0.2,0.1-0.5,0.2-0.6c0.2-0.2,0.4-0.3,0.7-0.3s0.5,0.1,0.7,0.3c0.2,0.2,0.2,0.4,0.2,0.6
		c0,0.2-0.1,0.5-0.2,0.6s-0.4,0.2-0.7,0.2s-0.5-0.1-0.7-0.2C50.3,161.1,50.2,160.9,50.2,160.6z M51.9,172h-1.5v-9h1.5V172z"/>
	<path d="M55.8,163l0,1c0.7-0.8,1.5-1.2,2.7-1.2c1.3,0,2.1,0.5,2.6,1.4c0.3-0.4,0.7-0.8,1.2-1c0.5-0.3,1-0.4,1.7-0.4c2,0,3,1,3,3.1
		v6h-1.5V166c0-0.6-0.1-1.1-0.4-1.4s-0.8-0.5-1.5-0.5c-0.6,0-1,0.2-1.4,0.5c-0.4,0.3-0.6,0.8-0.7,1.4v6h-1.5v-5.9c0-1.3-0.6-2-1.9-2
		c-1,0-1.7,0.4-2.1,1.3v6.6h-1.5v-9H55.8z"/>
	<path d="M76.8,167.6c0,1.4-0.3,2.5-0.9,3.3c-0.6,0.8-1.5,1.3-2.5,1.3c-1.1,0-1.9-0.3-2.6-1v4.3h-1.5V163h1.4l0.1,1
		c0.6-0.8,1.5-1.2,2.6-1.2c1.1,0,1.9,0.4,2.6,1.2c0.6,0.8,0.9,1.9,0.9,3.4V167.6z M75.3,167.4c0-1-0.2-1.8-0.6-2.4
		c-0.4-0.6-1-0.9-1.8-0.9c-0.9,0-1.6,0.4-2.1,1.2v4.3c0.5,0.8,1.2,1.2,2.1,1.2c0.7,0,1.3-0.3,1.8-0.9
		C75.1,169.4,75.3,168.6,75.3,167.4z"/>
	<path d="M80.4,172h-1.5v-12.8h1.5V172z"/>
	<path d="M86.6,172.1c-1.2,0-2.2-0.4-3-1.2s-1.1-1.9-1.1-3.2v-0.3c0-0.9,0.2-1.7,0.5-2.4c0.3-0.7,0.8-1.2,1.4-1.6
		c0.6-0.4,1.3-0.6,2-0.6c1.2,0,2.1,0.4,2.7,1.2c0.6,0.8,1,1.9,1,3.3v0.6H84c0,0.9,0.3,1.6,0.8,2.1c0.5,0.5,1.1,0.8,1.9,0.8
		c0.5,0,1-0.1,1.4-0.3c0.4-0.2,0.7-0.5,1-0.9l0.9,0.7C89.3,171.6,88.1,172.1,86.6,172.1z M86.4,164.1c-0.6,0-1.1,0.2-1.6,0.7
		s-0.7,1.1-0.8,1.9h4.5v-0.1c0-0.8-0.3-1.4-0.6-1.8S87.1,164.1,86.4,164.1z"/>
	<path d="M96.2,164.4c-0.2,0-0.5-0.1-0.8-0.1c-1,0-1.7,0.4-2.1,1.3v6.4h-1.5v-9h1.5l0,1c0.5-0.8,1.2-1.2,2.1-1.2
		c0.3,0,0.5,0,0.7,0.1V164.4z"/>
	<path d="M96.6,174.4l-0.9-0.6c0.5-0.7,0.8-1.5,0.8-2.2v-1.4H98v1.2c0,0.6-0.1,1.1-0.4,1.7C97.3,173.6,97,174,96.6,174.4z"/>
	<path d="M105.6,163l0,1c0.7-0.8,1.5-1.2,2.7-1.2c1.3,0,2.1,0.5,2.6,1.4c0.3-0.4,0.7-0.8,1.2-1c0.5-0.3,1-0.4,1.7-0.4c2,0,3,1,3,3.1
		v6h-1.5V166c0-0.6-0.1-1.1-0.4-1.4s-0.8-0.5-1.5-0.5c-0.6,0-1,0.2-1.4,0.5c-0.4,0.3-0.6,0.8-0.7,1.4v6h-1.5v-5.9c0-1.3-0.6-2-1.9-2
		c-1,0-1.7,0.4-2.1,1.3v6.6h-1.5v-9H105.6z"/>
	<path d="M118.7,167.4c0-0.9,0.2-1.7,0.5-2.4c0.3-0.7,0.8-1.2,1.4-1.6c0.6-0.4,1.3-0.6,2.1-0.6c1.2,0,2.2,0.4,3,1.3
		c0.8,0.8,1.1,2,1.1,3.4v0.1c0,0.9-0.2,1.7-0.5,2.4c-0.3,0.7-0.8,1.2-1.4,1.6c-0.6,0.4-1.3,0.6-2.1,0.6c-1.2,0-2.2-0.4-3-1.3
		c-0.8-0.8-1.1-2-1.1-3.4V167.4z M120.2,167.6c0,1,0.2,1.8,0.7,2.4c0.5,0.6,1.1,0.9,1.9,0.9c0.8,0,1.4-0.3,1.9-0.9s0.7-1.5,0.7-2.6
		c0-1-0.2-1.8-0.7-2.4c-0.5-0.6-1.1-0.9-1.9-0.9c-0.8,0-1.4,0.3-1.8,0.9C120.4,165.6,120.2,166.5,120.2,167.6z"/>
	<path d="M133.1,164.4c-0.2,0-0.5-0.1-0.8-0.1c-1,0-1.7,0.4-2.1,1.3v6.4h-1.5v-9h1.5l0,1c0.5-0.8,1.2-1.2,2.1-1.2
		c0.3,0,0.5,0,0.7,0.1V164.4z"/>
	<path d="M138.1,172.1c-1.2,0-2.2-0.4-3-1.2s-1.1-1.9-1.1-3.2v-0.3c0-0.9,0.2-1.7,0.5-2.4c0.3-0.7,0.8-1.2,1.4-1.6
		c0.6-0.4,1.3-0.6,2-0.6c1.2,0,2.1,0.4,2.7,1.2c0.6,0.8,1,1.9,1,3.3v0.6h-6.1c0,0.9,0.3,1.6,0.8,2.1c0.5,0.5,1.1,0.8,1.9,0.8
		c0.5,0,1-0.1,1.4-0.3c0.4-0.2,0.7-0.5,1-0.9l0.9,0.7C140.7,171.6,139.6,172.1,138.1,172.1z M137.9,164.1c-0.6,0-1.1,0.2-1.6,0.7
		s-0.7,1.1-0.8,1.9h4.5v-0.1c0-0.8-0.3-1.4-0.6-1.8C139.1,164.3,138.5,164.1,137.9,164.1z"/>
</g>
<g class="st2">
	<path d="M48.3,184.8c-0.2,0-0.5-0.1-0.8-0.1c-1,0-1.7,0.4-2.1,1.3v6.4H44v-9h1.5l0,1c0.5-0.8,1.2-1.2,2.1-1.2c0.3,0,0.5,0,0.7,0.1
		V184.8z"/>
	<path d="M53.3,192.5c-1.2,0-2.2-0.4-3-1.2s-1.1-1.9-1.1-3.2v-0.3c0-0.9,0.2-1.7,0.5-2.4c0.3-0.7,0.8-1.2,1.4-1.6s1.3-0.6,2-0.6
		c1.2,0,2.1,0.4,2.7,1.2c0.6,0.8,1,1.9,1,3.3v0.6h-6.1c0,0.9,0.3,1.6,0.8,2.1c0.5,0.5,1.1,0.8,1.9,0.8c0.5,0,1-0.1,1.4-0.3
		c0.4-0.2,0.7-0.5,1-0.9l0.9,0.7C55.9,192,54.8,192.5,53.3,192.5z M53.1,184.5c-0.6,0-1.1,0.2-1.6,0.7c-0.4,0.5-0.7,1.1-0.8,1.9h4.5
		v-0.1c0-0.8-0.3-1.4-0.6-1.8C54.3,184.7,53.7,184.5,53.1,184.5z"/>
	<path d="M62.2,191.3c0.5,0,1-0.2,1.4-0.5c0.4-0.3,0.6-0.7,0.7-1.2h1.5c0,0.5-0.2,1-0.5,1.5c-0.3,0.5-0.8,0.8-1.3,1.1
		c-0.5,0.3-1.1,0.4-1.7,0.4c-1.2,0-2.2-0.4-2.9-1.2c-0.7-0.8-1.1-1.9-1.1-3.3v-0.3c0-0.9,0.2-1.7,0.5-2.3c0.3-0.7,0.8-1.2,1.4-1.6
		c0.6-0.4,1.3-0.6,2.1-0.6c1,0,1.8,0.3,2.5,0.9c0.7,0.6,1,1.4,1.1,2.3h-1.5c0-0.6-0.3-1.1-0.7-1.4c-0.4-0.4-0.9-0.6-1.5-0.6
		c-0.8,0-1.4,0.3-1.8,0.8c-0.4,0.6-0.6,1.4-0.6,2.4v0.3c0,1,0.2,1.8,0.6,2.4C60.8,191,61.4,191.3,62.2,191.3z"/>
	<path d="M67.1,187.8c0-0.9,0.2-1.7,0.5-2.4c0.3-0.7,0.8-1.2,1.4-1.6c0.6-0.4,1.3-0.6,2.1-0.6c1.2,0,2.2,0.4,3,1.3
		c0.8,0.8,1.1,2,1.1,3.4v0.1c0,0.9-0.2,1.7-0.5,2.4s-0.8,1.2-1.4,1.6c-0.6,0.4-1.3,0.6-2.1,0.6c-1.2,0-2.2-0.4-3-1.3
		c-0.8-0.8-1.1-2-1.1-3.4V187.8z M68.6,188c0,1,0.2,1.8,0.7,2.4c0.5,0.6,1.1,0.9,1.9,0.9c0.8,0,1.4-0.3,1.9-0.9
		c0.5-0.6,0.7-1.5,0.7-2.6c0-1-0.2-1.8-0.7-2.4c-0.5-0.6-1.1-0.9-1.9-0.9c-0.8,0-1.4,0.3-1.8,0.9C68.8,186,68.6,186.9,68.6,188z"/>
	<path d="M76.8,187.8c0-1.4,0.3-2.5,1-3.3s1.5-1.2,2.6-1.2c1.1,0,2,0.4,2.6,1.2l0.1-1h1.4v8.8c0,1.2-0.3,2.1-1,2.7
		c-0.7,0.7-1.6,1-2.8,1c-0.6,0-1.3-0.1-1.9-0.4c-0.6-0.3-1.1-0.7-1.4-1.1l0.8-0.9c0.7,0.8,1.5,1.2,2.4,1.2c0.7,0,1.3-0.2,1.7-0.6
		c0.4-0.4,0.6-1,0.6-1.8v-0.8c-0.6,0.7-1.5,1.1-2.5,1.1c-1.1,0-1.9-0.4-2.6-1.3C77.1,190.4,76.8,189.3,76.8,187.8z M78.3,188
		c0,1,0.2,1.8,0.6,2.4s1,0.9,1.7,0.9c1,0,1.7-0.4,2.1-1.3v-4.1c-0.5-0.9-1.2-1.3-2.1-1.3c-0.7,0-1.3,0.3-1.8,0.9
		C78.6,186,78.3,186.8,78.3,188z"/>
	<path d="M88.2,183.4l0,1.1c0.7-0.9,1.6-1.3,2.7-1.3c1.9,0,2.9,1.1,2.9,3.2v5.9h-1.5v-5.9c0-0.6-0.2-1.1-0.4-1.4
		c-0.3-0.3-0.7-0.5-1.4-0.5c-0.5,0-0.9,0.1-1.3,0.4c-0.4,0.3-0.7,0.6-0.9,1v6.4h-1.5v-9H88.2z"/>
	<path d="M96.1,181c0-0.2,0.1-0.5,0.2-0.6c0.2-0.2,0.4-0.3,0.7-0.3s0.5,0.1,0.7,0.3c0.2,0.2,0.2,0.4,0.2,0.6c0,0.2-0.1,0.5-0.2,0.6
		c-0.2,0.2-0.4,0.2-0.7,0.2s-0.5-0.1-0.7-0.2S96.1,181.3,96.1,181z M97.8,192.4h-1.5v-9h1.5V192.4z"/>
	<path d="M101.7,191.1h5.3v1.3h-7.1v-1.1l5-6.6h-4.9v-1.3h6.8v1.1L101.7,191.1z"/>
	<path d="M114.2,192.4c-0.1-0.2-0.2-0.5-0.2-0.9c-0.7,0.7-1.6,1.1-2.6,1.1c-0.9,0-1.6-0.2-2.2-0.8c-0.6-0.5-0.9-1.1-0.9-1.9
		c0-0.9,0.4-1.7,1.1-2.2c0.7-0.5,1.7-0.8,3-0.8h1.5v-0.7c0-0.5-0.2-1-0.5-1.3c-0.3-0.3-0.8-0.5-1.4-0.5c-0.5,0-1,0.1-1.4,0.4
		c-0.4,0.3-0.6,0.6-0.6,1h-1.5c0-0.4,0.2-0.9,0.5-1.3s0.8-0.7,1.3-1s1.1-0.4,1.8-0.4c1,0,1.8,0.3,2.4,0.8c0.6,0.5,0.9,1.2,0.9,2.1
		v4.1c0,0.8,0.1,1.5,0.3,2v0.1H114.2z M111.6,191.2c0.5,0,0.9-0.1,1.4-0.4s0.7-0.6,0.9-1V188h-1.2c-1.9,0-2.8,0.5-2.8,1.7
		c0,0.5,0.2,0.9,0.5,1.1C110.7,191.1,111.1,191.2,111.6,191.2z"/>
	<path d="M125.5,188c0,1.4-0.3,2.5-0.9,3.3s-1.5,1.2-2.5,1.2c-1.1,0-2-0.4-2.6-1.2l-0.1,1h-1.4v-12.8h1.5v4.8
		c0.6-0.8,1.5-1.2,2.6-1.2c1.1,0,1.9,0.4,2.6,1.2c0.6,0.8,0.9,2,0.9,3.4V188z M124,187.8c0-1-0.2-1.9-0.6-2.4
		c-0.4-0.6-1-0.9-1.7-0.9c-1,0-1.7,0.5-2.2,1.4v3.9c0.5,0.9,1.2,1.4,2.2,1.4c0.7,0,1.3-0.3,1.7-0.9C123.7,189.8,124,189,124,187.8z"
		/>
	<path d="M129.1,192.4h-1.5v-12.8h1.5V192.4z"/>
	<path d="M135.3,192.5c-1.2,0-2.2-0.4-3-1.2s-1.1-1.9-1.1-3.2v-0.3c0-0.9,0.2-1.7,0.5-2.4c0.3-0.7,0.8-1.2,1.4-1.6s1.3-0.6,2-0.6
		c1.2,0,2.1,0.4,2.7,1.2c0.6,0.8,1,1.9,1,3.3v0.6h-6.1c0,0.9,0.3,1.6,0.8,2.1c0.5,0.5,1.1,0.8,1.9,0.8c0.5,0,1-0.1,1.4-0.3
		c0.4-0.2,0.7-0.5,1-0.9l0.9,0.7C137.9,192,136.8,192.5,135.3,192.5z M135.1,184.5c-0.6,0-1.1,0.2-1.6,0.7c-0.4,0.5-0.7,1.1-0.8,1.9
		h4.5v-0.1c0-0.8-0.3-1.4-0.6-1.8C136.2,184.7,135.7,184.5,135.1,184.5z"/>
</g>
<g class="st2">
	<path d="M54.5,203.8l0,1.1c0.7-0.9,1.6-1.3,2.7-1.3c1.9,0,2.9,1.1,2.9,3.2v5.9h-1.5v-5.9c0-0.6-0.2-1.1-0.4-1.4
		c-0.3-0.3-0.7-0.5-1.4-0.5c-0.5,0-0.9,0.1-1.3,0.4s-0.7,0.6-0.9,1v6.4h-1.5v-9H54.5z"/>
	<path d="M68,212.8c-0.1-0.2-0.2-0.5-0.2-0.9c-0.7,0.7-1.6,1.1-2.6,1.1c-0.9,0-1.6-0.2-2.2-0.8c-0.6-0.5-0.9-1.1-0.9-1.9
		c0-0.9,0.4-1.7,1.1-2.2c0.7-0.5,1.7-0.8,3-0.8h1.5v-0.7c0-0.5-0.2-1-0.5-1.3s-0.8-0.5-1.4-0.5c-0.5,0-1,0.1-1.4,0.4
		c-0.4,0.3-0.6,0.6-0.6,1h-1.5c0-0.4,0.2-0.9,0.5-1.3c0.3-0.4,0.8-0.7,1.3-1c0.5-0.2,1.1-0.4,1.8-0.4c1,0,1.8,0.3,2.4,0.8
		s0.9,1.2,0.9,2.1v4.1c0,0.8,0.1,1.5,0.3,2v0.1H68z M65.4,211.6c0.5,0,0.9-0.1,1.4-0.4s0.7-0.6,0.9-1v-1.8h-1.2
		c-1.9,0-2.8,0.5-2.8,1.7c0,0.5,0.2,0.9,0.5,1.1S64.9,211.6,65.4,211.6z"/>
	<path d="M74.5,210.7l2.2-6.9h1.6l-3.2,9h-1.2l-3.3-9h1.6L74.5,210.7z"/>
	<path d="M79.8,201.4c0-0.2,0.1-0.5,0.2-0.6c0.2-0.2,0.4-0.3,0.7-0.3s0.5,0.1,0.7,0.3c0.2,0.2,0.2,0.4,0.2,0.6
		c0,0.2-0.1,0.5-0.2,0.6s-0.4,0.2-0.7,0.2s-0.5-0.1-0.7-0.2C79.9,201.9,79.8,201.7,79.8,201.4z M81.5,212.8h-1.5v-9h1.5V212.8z"/>
	<path d="M83.6,208.2c0-1.4,0.3-2.5,1-3.3s1.5-1.2,2.6-1.2c1.1,0,2,0.4,2.6,1.2l0.1-1h1.4v8.8c0,1.2-0.3,2.1-1,2.7
		c-0.7,0.7-1.6,1-2.8,1c-0.6,0-1.3-0.1-1.9-0.4s-1.1-0.7-1.4-1.1l0.8-0.9c0.7,0.8,1.5,1.2,2.4,1.2c0.7,0,1.3-0.2,1.7-0.6
		c0.4-0.4,0.6-1,0.6-1.8v-0.8c-0.6,0.7-1.5,1.1-2.5,1.1c-1.1,0-1.9-0.4-2.6-1.3C83.9,210.8,83.6,209.7,83.6,208.2z M85.1,208.4
		c0,1,0.2,1.8,0.6,2.4s1,0.9,1.7,0.9c1,0,1.7-0.4,2.1-1.3v-4.1c-0.5-0.9-1.2-1.3-2.1-1.3c-0.7,0-1.3,0.3-1.8,0.9
		S85.1,207.2,85.1,208.4z"/>
	<path d="M99,212.8c-0.1-0.2-0.2-0.5-0.2-0.9c-0.7,0.7-1.6,1.1-2.6,1.1c-0.9,0-1.6-0.2-2.2-0.8c-0.6-0.5-0.9-1.1-0.9-1.9
		c0-0.9,0.4-1.7,1.1-2.2c0.7-0.5,1.7-0.8,3-0.8h1.5v-0.7c0-0.5-0.2-1-0.5-1.3s-0.8-0.5-1.4-0.5c-0.5,0-1,0.1-1.4,0.4
		c-0.4,0.3-0.6,0.6-0.6,1h-1.5c0-0.4,0.2-0.9,0.5-1.3c0.3-0.4,0.8-0.7,1.3-1c0.5-0.2,1.1-0.4,1.8-0.4c1,0,1.8,0.3,2.4,0.8
		s0.9,1.2,0.9,2.1v4.1c0,0.8,0.1,1.5,0.3,2v0.1H99z M96.5,211.6c0.5,0,0.9-0.1,1.4-0.4s0.7-0.6,0.9-1v-1.8h-1.2
		c-1.9,0-2.8,0.5-2.8,1.7c0,0.5,0.2,0.9,0.5,1.1S96,211.6,96.5,211.6z"/>
	<path d="M104.8,201.6v2.2h1.7v1.2h-1.7v5.6c0,0.4,0.1,0.6,0.2,0.8s0.4,0.3,0.8,0.3c0.2,0,0.4,0,0.7-0.1v1.2
		c-0.4,0.1-0.8,0.2-1.2,0.2c-0.7,0-1.2-0.2-1.6-0.6c-0.3-0.4-0.5-1-0.5-1.8V205h-1.6v-1.2h1.6v-2.2H104.8z"/>
	<path d="M108.3,201.4c0-0.2,0.1-0.5,0.2-0.6c0.2-0.2,0.4-0.3,0.7-0.3s0.5,0.1,0.7,0.3c0.2,0.2,0.2,0.4,0.2,0.6
		c0,0.2-0.1,0.5-0.2,0.6s-0.4,0.2-0.7,0.2s-0.5-0.1-0.7-0.2C108.4,201.9,108.3,201.7,108.3,201.4z M109.9,212.8h-1.5v-9h1.5V212.8z"
		/>
	<path d="M112,208.2c0-0.9,0.2-1.7,0.5-2.4c0.3-0.7,0.8-1.2,1.4-1.6c0.6-0.4,1.3-0.6,2.1-0.6c1.2,0,2.2,0.4,3,1.3
		c0.8,0.8,1.1,2,1.1,3.4v0.1c0,0.9-0.2,1.7-0.5,2.4c-0.3,0.7-0.8,1.2-1.4,1.6c-0.6,0.4-1.3,0.6-2.1,0.6c-1.2,0-2.2-0.4-3-1.3
		c-0.8-0.8-1.1-2-1.1-3.4V208.2z M113.5,208.4c0,1,0.2,1.8,0.7,2.4c0.5,0.6,1.1,0.9,1.9,0.9c0.8,0,1.4-0.3,1.9-0.9s0.7-1.5,0.7-2.6
		c0-1-0.2-1.8-0.7-2.4c-0.5-0.6-1.1-0.9-1.9-0.9c-0.8,0-1.4,0.3-1.8,0.9C113.8,206.4,113.5,207.3,113.5,208.4z"/>
	<path d="M123.5,203.8l0,1.1c0.7-0.9,1.6-1.3,2.7-1.3c1.9,0,2.9,1.1,2.9,3.2v5.9h-1.5v-5.9c0-0.6-0.2-1.1-0.4-1.4
		c-0.3-0.3-0.7-0.5-1.4-0.5c-0.5,0-0.9,0.1-1.3,0.4s-0.7,0.6-0.9,1v6.4h-1.5v-9H123.5z"/>
</g>
<g class="st2">
	<path class="st3" d="M261.9,136.8l-1.8,2v4.9h-3.5v-17.1h3.5v7.7l1.5-2.1l4.3-5.6h4.3l-6.1,7.6l6.2,9.5h-4.2L261.9,136.8z"/>
	<path class="st3" d="M282,136.3h-6.8v4.6h7.9v2.8h-11.4v-17.1h11.4v2.8h-7.9v4.1h6.8V136.3z"/>
	<path class="st3" d="M291.1,134.3l3.6-7.7h3.8l-5.6,10.9v6.2h-3.6v-6.2l-5.6-10.9h3.9L291.1,134.3z"/>
	<path class="st3" d="M309.6,140.9h7.5v2.8h-11v-17.1h3.5V140.9z"/>
	<path class="st3" d="M322.8,143.7h-3.5v-17.1h3.5V143.7z"/>
	<path class="st3" d="M339.9,143.7h-3.5l-6.8-11.2v11.2h-3.5v-17.1h3.5l6.9,11.2v-11.2h3.5V143.7z"/>
	<path class="st3" d="M348.4,136.8l-1.8,2v4.9H343v-17.1h3.5v7.7l1.5-2.1l4.3-5.6h4.3l-6.1,7.6l6.2,9.5h-4.2L348.4,136.8z"/>
	<path class="st3" d="M367.1,139.2c0-0.7-0.2-1.2-0.7-1.5s-1.3-0.7-2.5-1.1s-2.2-0.8-2.9-1.2c-1.9-1-2.9-2.5-2.9-4.2
		c0-0.9,0.3-1.7,0.8-2.5s1.3-1.3,2.2-1.7s2.1-0.6,3.3-0.6c1.2,0,2.3,0.2,3.3,0.7s1.7,1.1,2.2,1.9s0.8,1.7,0.8,2.7h-3.5
		c0-0.8-0.2-1.4-0.7-1.8s-1.2-0.7-2.1-0.7c-0.9,0-1.5,0.2-2,0.5s-0.7,0.8-0.7,1.4c0,0.6,0.3,1,0.8,1.4s1.4,0.7,2.5,1.1
		c2,0.6,3.5,1.3,4.4,2.2s1.4,2,1.4,3.3c0,1.5-0.6,2.6-1.7,3.5s-2.6,1.3-4.5,1.3c-1.3,0-2.5-0.2-3.6-0.7s-1.9-1.1-2.5-2
		s-0.8-1.8-0.8-2.9h3.5c0,1.9,1.1,2.8,3.4,2.8c0.8,0,1.5-0.2,2-0.5S367.1,139.8,367.1,139.2z"/>
</g>
<rect x="232.1" y="159.2" class="st4" width="167.9" height="110.4"/>
<g class="st2">
	<path d="M267.5,159.9l4,9.9l4-9.9h2.1V172h-1.6v-4.7l0.1-5.1l-4,9.8h-1.2l-4-9.8l0.2,5.1v4.7h-1.6v-12.1H267.5z"/>
	<path d="M285.5,172c-0.1-0.2-0.2-0.5-0.2-0.9c-0.7,0.7-1.6,1.1-2.6,1.1c-0.9,0-1.6-0.2-2.2-0.8c-0.6-0.5-0.9-1.1-0.9-1.9
		c0-0.9,0.4-1.7,1.1-2.2c0.7-0.5,1.7-0.8,3-0.8h1.5v-0.7c0-0.5-0.2-1-0.5-1.3s-0.8-0.5-1.4-0.5c-0.5,0-1,0.1-1.4,0.4
		c-0.4,0.3-0.6,0.6-0.6,1h-1.5c0-0.4,0.2-0.9,0.5-1.3c0.3-0.4,0.8-0.7,1.3-1c0.5-0.2,1.1-0.4,1.8-0.4c1,0,1.8,0.3,2.4,0.8
		s0.9,1.2,0.9,2.1v4.1c0,0.8,0.1,1.5,0.3,2v0.1H285.5z M283,170.8c0.5,0,0.9-0.1,1.4-0.4s0.7-0.6,0.9-1v-1.8h-1.2
		c-1.9,0-2.8,0.5-2.8,1.7c0,0.5,0.2,0.9,0.5,1.1S282.5,170.8,283,170.8z"/>
	<path d="M291.8,167.8l-1,1v3.2h-1.5v-12.8h1.5v7.7l0.8-1l2.8-3h1.9l-3.5,3.8l3.9,5.2h-1.8L291.8,167.8z"/>
	<path d="M301.4,172.1c-1.2,0-2.2-0.4-3-1.2s-1.1-1.9-1.1-3.2v-0.3c0-0.9,0.2-1.7,0.5-2.4c0.3-0.7,0.8-1.2,1.4-1.6
		c0.6-0.4,1.3-0.6,2-0.6c1.2,0,2.1,0.4,2.7,1.2c0.6,0.8,1,1.9,1,3.3v0.6h-6.1c0,0.9,0.3,1.6,0.8,2.1c0.5,0.5,1.1,0.8,1.9,0.8
		c0.5,0,1-0.1,1.4-0.3c0.4-0.2,0.7-0.5,1-0.9l0.9,0.7C304.1,171.6,302.9,172.1,301.4,172.1z M301.2,164.1c-0.6,0-1.1,0.2-1.6,0.7
		s-0.7,1.1-0.8,1.9h4.5v-0.1c0-0.8-0.3-1.4-0.6-1.8S301.9,164.1,301.2,164.1z"/>
	<path d="M317.8,168.8h-5.1l-1.1,3.2H310l4.6-12.1h1.4l4.6,12.1H319L317.8,168.8z M313.2,167.5h4.1l-2.1-5.7L313.2,167.5z"/>
	<path d="M322.2,172v-12.1h3.4c1.1,0,2,0.2,2.8,0.7s1.4,1.1,1.9,2c0.4,0.9,0.7,1.8,0.7,3v0.8c0,1.1-0.2,2.1-0.7,3
		c-0.4,0.9-1.1,1.5-1.9,2c-0.8,0.5-1.8,0.7-2.9,0.7H322.2z M323.8,161.2v9.5h1.7c1.2,0,2.2-0.4,2.9-1.1c0.7-0.8,1-1.9,1-3.3v-0.7
		c0-1.4-0.3-2.4-1-3.2c-0.6-0.8-1.6-1.1-2.7-1.2H323.8z"/>
	<path d="M342.7,166.3c0,1.2-0.2,2.2-0.6,3.1s-1,1.6-1.7,2s-1.6,0.7-2.6,0.7c-1,0-1.8-0.2-2.5-0.7s-1.3-1.1-1.7-2
		c-0.4-0.9-0.6-1.9-0.6-3v-0.9c0-1.2,0.2-2.2,0.6-3.1s1-1.6,1.7-2c0.7-0.5,1.6-0.7,2.5-0.7c1,0,1.8,0.2,2.6,0.7
		c0.7,0.5,1.3,1.1,1.7,2c0.4,0.9,0.6,1.9,0.6,3.1V166.3z M341.1,165.5c0-1.4-0.3-2.5-0.9-3.3s-1.4-1.2-2.4-1.2c-1,0-1.8,0.4-2.4,1.2
		c-0.6,0.8-0.9,1.8-0.9,3.2v0.9c0,1.4,0.3,2.5,0.9,3.3c0.6,0.8,1.4,1.2,2.4,1.2c1,0,1.8-0.4,2.4-1.1s0.9-1.8,0.9-3.2V165.5z"/>
	<path d="M346.7,167.2v4.7h-1.6v-12.1h4.5c1.3,0,2.4,0.3,3.1,1c0.8,0.7,1.1,1.6,1.1,2.7c0,1.2-0.4,2.1-1.1,2.7c-0.7,0.6-1.8,1-3.2,1
		H346.7z M346.7,165.9h2.9c0.9,0,1.5-0.2,2-0.6c0.5-0.4,0.7-1,0.7-1.7c0-0.7-0.2-1.3-0.7-1.7s-1.1-0.7-1.9-0.7h-3V165.9z"/>
	<path d="M364.2,161.2h-3.9V172h-1.6v-10.8h-3.9v-1.3h9.3V161.2z"/>
	<path d="M363.8,174.4l-0.9-0.6c0.5-0.7,0.8-1.5,0.8-2.2v-1.4h1.5v1.2c0,0.6-0.1,1.1-0.4,1.7C364.6,173.6,364.3,174,363.8,174.4z"/>
</g>
<g class="st2">
	<path d="M266.6,192.4v-12.1h3.4c1.1,0,2,0.2,2.8,0.7s1.4,1.1,1.9,2c0.4,0.9,0.7,1.8,0.7,3v0.8c0,1.1-0.2,2.1-0.7,3
		c-0.4,0.9-1.1,1.5-1.9,2c-0.8,0.5-1.8,0.7-2.9,0.7H266.6z M268.2,181.6v9.5h1.7c1.2,0,2.2-0.4,2.9-1.1c0.7-0.8,1-1.9,1-3.3V186
		c0-1.4-0.3-2.4-1-3.2c-0.6-0.8-1.6-1.1-2.7-1.2H268.2z"/>
	<path d="M287.1,186.7c0,1.2-0.2,2.2-0.6,3.1s-1,1.6-1.7,2s-1.6,0.7-2.6,0.7c-1,0-1.8-0.2-2.5-0.7s-1.3-1.1-1.7-2
		c-0.4-0.9-0.6-1.9-0.6-3V186c0-1.2,0.2-2.2,0.6-3.1s1-1.6,1.7-2c0.7-0.5,1.6-0.7,2.5-0.7c1,0,1.8,0.2,2.6,0.7
		c0.7,0.5,1.3,1.1,1.7,2c0.4,0.9,0.6,1.9,0.6,3.1V186.7z M285.5,185.9c0-1.4-0.3-2.5-0.9-3.3s-1.4-1.2-2.4-1.2c-1,0-1.8,0.4-2.4,1.2
		c-0.6,0.8-0.9,1.8-0.9,3.2v0.9c0,1.4,0.3,2.5,0.9,3.3c0.6,0.8,1.4,1.2,2.4,1.2c1,0,1.8-0.4,2.4-1.1s0.9-1.8,0.9-3.2V185.9z"/>
	<path d="M298.7,192.4h-1.6l-6.1-9.3v9.3h-1.6v-12.1h1.6l6.1,9.4v-9.4h1.6V192.4z"/>
	<path d="M308.4,189.2h-5.1l-1.1,3.2h-1.6l4.6-12.1h1.4l4.6,12.1h-1.6L308.4,189.2z M303.8,187.9h4.1l-2.1-5.7L303.8,187.9z"/>
	<path d="M320.1,181.6h-3.9v10.8h-1.6v-10.8h-3.9v-1.3h9.3V181.6z"/>
	<path d="M328.7,186.8h-5.2v4.3h6.1v1.3h-7.7v-12.1h7.6v1.3h-6v3.9h5.2V186.8z"/>
	<path d="M331.3,194.8l-0.9-0.6c0.5-0.7,0.8-1.5,0.8-2.2v-1.4h1.5v1.2c0,0.6-0.1,1.1-0.4,1.7C332,194,331.7,194.4,331.3,194.8z"/>
	<path d="M344.4,192.4c-0.1-0.2-0.2-0.5-0.2-0.9c-0.7,0.7-1.6,1.1-2.6,1.1c-0.9,0-1.6-0.2-2.2-0.8c-0.6-0.5-0.9-1.1-0.9-1.9
		c0-0.9,0.4-1.7,1.1-2.2c0.7-0.5,1.7-0.8,3-0.8h1.5v-0.7c0-0.5-0.2-1-0.5-1.3s-0.8-0.5-1.4-0.5c-0.5,0-1,0.1-1.4,0.4
		c-0.4,0.3-0.6,0.6-0.6,1h-1.5c0-0.4,0.2-0.9,0.5-1.3c0.3-0.4,0.8-0.7,1.3-1c0.5-0.2,1.1-0.4,1.8-0.4c1,0,1.8,0.3,2.4,0.8
		s0.9,1.2,0.9,2.1v4.1c0,0.8,0.1,1.5,0.3,2v0.1H344.4z M341.9,191.2c0.5,0,0.9-0.1,1.4-0.4s0.7-0.6,0.9-1V188H343
		c-1.9,0-2.8,0.5-2.8,1.7c0,0.5,0.2,0.9,0.5,1.1S341.3,191.2,341.9,191.2z"/>
	<path d="M349.6,183.4l0,1.1c0.7-0.9,1.6-1.3,2.7-1.3c1.9,0,2.9,1.1,2.9,3.2v5.9h-1.5v-5.9c0-0.6-0.2-1.1-0.4-1.4
		c-0.3-0.3-0.7-0.5-1.4-0.5c-0.5,0-0.9,0.1-1.3,0.4s-0.7,0.6-0.9,1v6.4h-1.5v-9H349.6z"/>
	<path d="M357.1,187.8c0-1.4,0.3-2.5,1-3.3c0.7-0.8,1.5-1.3,2.6-1.3c1.1,0,1.9,0.4,2.5,1.1v-4.7h1.5v12.8h-1.4l-0.1-1
		c-0.6,0.8-1.5,1.1-2.6,1.1c-1,0-1.9-0.4-2.5-1.3c-0.7-0.9-1-2-1-3.3V187.8z M358.6,188c0,1,0.2,1.8,0.6,2.4c0.4,0.6,1,0.9,1.7,0.9
		c1,0,1.7-0.4,2.1-1.3v-4.1c-0.5-0.8-1.2-1.3-2.1-1.3c-0.8,0-1.3,0.3-1.8,0.9S358.6,186.8,358.6,188z"/>
</g>
<g class="st2">
	<path d="M254.5,210.7l3.5-10h1.7l-4.5,12.1h-1.4l-4.5-12.1h1.7L254.5,210.7z"/>
	<path d="M270.5,207.1c0,1.2-0.2,2.2-0.6,3.1s-1,1.6-1.7,2s-1.6,0.7-2.6,0.7c-1,0-1.8-0.2-2.5-0.7s-1.3-1.1-1.7-2
		c-0.4-0.9-0.6-1.9-0.6-3v-0.9c0-1.2,0.2-2.2,0.6-3.1s1-1.6,1.7-2c0.7-0.5,1.6-0.7,2.5-0.7c1,0,1.8,0.2,2.6,0.7
		c0.7,0.5,1.3,1.1,1.7,2c0.4,0.9,0.6,1.9,0.6,3.1V207.1z M268.9,206.3c0-1.4-0.3-2.5-0.9-3.3s-1.4-1.2-2.4-1.2c-1,0-1.8,0.4-2.4,1.2
		c-0.6,0.8-0.9,1.8-0.9,3.2v0.9c0,1.4,0.3,2.5,0.9,3.3c0.6,0.8,1.4,1.2,2.4,1.2c1,0,1.8-0.4,2.4-1.1s0.9-1.8,0.9-3.2V206.3z"/>
	<path d="M274.4,211.5h5.7v1.3h-7.3v-12.1h1.6V211.5z"/>
	<path d="M290.1,200.7v8.2c0,1.1-0.4,2.1-1.1,2.8c-0.7,0.7-1.7,1.1-2.9,1.2l-0.4,0c-1.3,0-2.4-0.4-3.2-1.1c-0.8-0.7-1.2-1.7-1.2-2.9
		v-8.2h1.6v8.2c0,0.9,0.2,1.6,0.7,2s1.2,0.7,2.1,0.7c0.9,0,1.6-0.2,2.1-0.7c0.5-0.5,0.7-1.2,0.7-2v-8.2H290.1z"/>
	<path d="M301.9,212.8h-1.6l-6.1-9.3v9.3h-1.6v-12.1h1.6l6.1,9.4v-9.4h1.6V212.8z"/>
	<path d="M312.8,202h-3.9v10.8h-1.6V202h-3.9v-1.3h9.3V202z"/>
	<path d="M321.4,207.2h-5.2v4.3h6.1v1.3h-7.7v-12.1h7.6v1.3h-6v3.9h5.2V207.2z"/>
	<path d="M331.1,207.2h-5.2v4.3h6.1v1.3h-7.7v-12.1h7.6v1.3h-6v3.9h5.2V207.2z"/>
	<path d="M338.3,207.9h-2.8v4.9h-1.6v-12.1h4c1.4,0,2.4,0.3,3.1,0.9c0.7,0.6,1.1,1.5,1.1,2.7c0,0.8-0.2,1.4-0.6,2
		c-0.4,0.6-1,1-1.7,1.3l2.8,5.1v0.1H341L338.3,207.9z M335.5,206.6h2.4c0.8,0,1.4-0.2,1.9-0.6c0.5-0.4,0.7-1,0.7-1.6
		c0-0.7-0.2-1.3-0.7-1.7c-0.4-0.4-1.1-0.6-1.9-0.6h-2.4V206.6z"/>
	<path d="M350,212.8h-1.5V200h1.5V212.8z"/>
	<path d="M352.5,201.4c0-0.2,0.1-0.5,0.2-0.6c0.2-0.2,0.4-0.3,0.7-0.3s0.5,0.1,0.7,0.3c0.2,0.2,0.2,0.4,0.2,0.6
		c0,0.2-0.1,0.5-0.2,0.6s-0.4,0.2-0.7,0.2s-0.5-0.1-0.7-0.2S352.5,201.7,352.5,201.4z M354.1,212.8h-1.5v-9h1.5V212.8z"/>
	<path d="M358.1,203.8l0,1.1c0.7-0.9,1.6-1.3,2.7-1.3c1.9,0,2.9,1.1,2.9,3.2v5.9h-1.5v-5.9c0-0.6-0.2-1.1-0.4-1.4
		c-0.3-0.3-0.7-0.5-1.4-0.5c-0.5,0-0.9,0.1-1.3,0.4c-0.4,0.3-0.7,0.6-0.9,1v6.4h-1.5v-9H358.1z"/>
	<path d="M368.5,208.6l-1,1v3.2H366V200h1.5v7.7l0.8-1l2.8-3h1.9l-3.5,3.8l3.9,5.2h-1.8L368.5,208.6z"/>
	<path d="M379.8,210.4c0-0.4-0.2-0.7-0.5-1s-0.9-0.4-1.6-0.6s-1.4-0.4-1.9-0.6c-0.5-0.2-0.8-0.5-1-0.8c-0.2-0.3-0.3-0.7-0.3-1.1
		c0-0.7,0.3-1.4,0.9-1.9c0.6-0.5,1.4-0.8,2.4-0.8c1,0,1.8,0.3,2.5,0.8c0.6,0.5,1,1.2,1,2h-1.5c0-0.4-0.2-0.8-0.5-1.1
		c-0.4-0.3-0.8-0.5-1.3-0.5c-0.6,0-1,0.1-1.3,0.4s-0.5,0.6-0.5,1c0,0.4,0.1,0.7,0.4,0.8s0.8,0.4,1.6,0.5c0.8,0.2,1.4,0.4,1.9,0.6
		c0.5,0.2,0.8,0.5,1.1,0.9s0.3,0.7,0.3,1.2c0,0.8-0.3,1.4-1,1.9c-0.6,0.5-1.5,0.7-2.5,0.7c-0.7,0-1.4-0.1-1.9-0.4s-1-0.6-1.3-1.1
		c-0.3-0.5-0.5-1-0.5-1.5h1.5c0,0.5,0.2,0.9,0.6,1.2s0.9,0.5,1.5,0.5c0.6,0,1-0.1,1.4-0.4S379.8,210.8,379.8,210.4z"/>
</g>
<g class="st2">
	<path d="M271.6,233.3c-1.2,0-2.2-0.4-3-1.2s-1.1-1.9-1.1-3.2v-0.3c0-0.9,0.2-1.7,0.5-2.4c0.3-0.7,0.8-1.2,1.4-1.6
		c0.6-0.4,1.3-0.6,2-0.6c1.2,0,2.1,0.4,2.7,1.2c0.6,0.8,1,1.9,1,3.3v0.6H269c0,0.9,0.3,1.6,0.8,2.1c0.5,0.5,1.1,0.8,1.9,0.8
		c0.5,0,1-0.1,1.4-0.3c0.4-0.2,0.7-0.5,1-0.9l0.9,0.7C274.3,232.8,273.1,233.3,271.6,233.3z M271.4,225.3c-0.6,0-1.1,0.2-1.6,0.7
		s-0.7,1.1-0.8,1.9h4.5v-0.1c0-0.8-0.3-1.4-0.6-1.8S272.1,225.3,271.4,225.3z"/>
	<path d="M282.5,233.2c-0.1-0.2-0.2-0.5-0.2-0.9c-0.7,0.7-1.6,1.1-2.6,1.1c-0.9,0-1.6-0.2-2.2-0.8c-0.6-0.5-0.9-1.1-0.9-1.9
		c0-0.9,0.4-1.7,1.1-2.2c0.7-0.5,1.7-0.8,3-0.8h1.5V227c0-0.5-0.2-1-0.5-1.3s-0.8-0.5-1.4-0.5c-0.5,0-1,0.1-1.4,0.4
		c-0.4,0.3-0.6,0.6-0.6,1h-1.5c0-0.4,0.2-0.9,0.5-1.3c0.3-0.4,0.8-0.7,1.3-1c0.5-0.2,1.1-0.4,1.8-0.4c1,0,1.8,0.3,2.4,0.8
		s0.9,1.2,0.9,2.1v4.1c0,0.8,0.1,1.5,0.3,2v0.1H282.5z M279.9,232c0.5,0,0.9-0.1,1.4-0.4s0.7-0.6,0.9-1v-1.8H281
		c-1.9,0-2.8,0.5-2.8,1.7c0,0.5,0.2,0.9,0.5,1.1S279.4,232,279.9,232z"/>
	<path d="M291.4,230.8c0-0.4-0.2-0.7-0.5-1c-0.3-0.2-0.9-0.4-1.6-0.6c-0.8-0.2-1.4-0.4-1.9-0.6c-0.5-0.2-0.8-0.5-1-0.8
		c-0.2-0.3-0.3-0.7-0.3-1.1c0-0.7,0.3-1.4,0.9-1.9c0.6-0.5,1.4-0.8,2.4-0.8c1,0,1.8,0.3,2.5,0.8c0.6,0.5,1,1.2,1,2h-1.5
		c0-0.4-0.2-0.8-0.5-1.1c-0.4-0.3-0.8-0.5-1.3-0.5c-0.6,0-1,0.1-1.3,0.4s-0.5,0.6-0.5,1c0,0.4,0.1,0.7,0.4,0.8s0.8,0.4,1.6,0.5
		c0.8,0.2,1.4,0.4,1.9,0.6c0.5,0.2,0.8,0.5,1.1,0.9c0.2,0.3,0.3,0.7,0.3,1.2c0,0.8-0.3,1.4-1,1.9s-1.5,0.7-2.5,0.7
		c-0.7,0-1.4-0.1-1.9-0.4s-1-0.6-1.3-1.1c-0.3-0.5-0.5-1-0.5-1.5h1.5c0,0.5,0.2,0.9,0.6,1.2c0.4,0.3,0.9,0.5,1.5,0.5
		c0.6,0,1-0.1,1.4-0.4C291.2,231.5,291.4,231.2,291.4,230.8z"/>
	<path d="M294.9,221.8c0-0.2,0.1-0.5,0.2-0.6c0.2-0.2,0.4-0.3,0.7-0.3s0.5,0.1,0.7,0.3c0.2,0.2,0.2,0.4,0.2,0.6
		c0,0.2-0.1,0.5-0.2,0.6s-0.4,0.2-0.7,0.2s-0.5-0.1-0.7-0.2C295,222.3,294.9,222.1,294.9,221.8z M296.6,233.2h-1.5v-9h1.5V233.2z"/>
	<path d="M302.8,233.3c-1.2,0-2.2-0.4-3-1.2s-1.1-1.9-1.1-3.2v-0.3c0-0.9,0.2-1.7,0.5-2.4c0.3-0.7,0.8-1.2,1.4-1.6
		c0.6-0.4,1.3-0.6,2-0.6c1.2,0,2.1,0.4,2.7,1.2c0.6,0.8,1,1.9,1,3.3v0.6h-6.1c0,0.9,0.3,1.6,0.8,2.1c0.5,0.5,1.1,0.8,1.9,0.8
		c0.5,0,1-0.1,1.4-0.3c0.4-0.2,0.7-0.5,1-0.9l0.9,0.7C305.4,232.8,304.3,233.3,302.8,233.3z M302.6,225.3c-0.6,0-1.1,0.2-1.6,0.7
		s-0.7,1.1-0.8,1.9h4.5v-0.1c0-0.8-0.3-1.4-0.6-1.8S303.2,225.3,302.6,225.3z"/>
	<path d="M312.4,225.6c-0.2,0-0.5-0.1-0.8-0.1c-1,0-1.7,0.4-2.1,1.3v6.4h-1.5v-9h1.5l0,1c0.5-0.8,1.2-1.2,2.1-1.2
		c0.3,0,0.5,0,0.7,0.1V225.6z"/>
	<path d="M320.1,222v2.2h1.7v1.2h-1.7v5.6c0,0.4,0.1,0.6,0.2,0.8s0.4,0.3,0.8,0.3c0.2,0,0.4,0,0.7-0.1v1.2c-0.4,0.1-0.8,0.2-1.2,0.2
		c-0.7,0-1.2-0.2-1.6-0.6c-0.3-0.4-0.5-1-0.5-1.8v-5.6h-1.6v-1.2h1.6V222H320.1z"/>
	<path d="M323,228.6c0-0.9,0.2-1.7,0.5-2.4c0.3-0.7,0.8-1.2,1.4-1.6c0.6-0.4,1.3-0.6,2.1-0.6c1.2,0,2.2,0.4,3,1.3
		c0.8,0.8,1.1,2,1.1,3.4v0.1c0,0.9-0.2,1.7-0.5,2.4c-0.3,0.7-0.8,1.2-1.4,1.6c-0.6,0.4-1.3,0.6-2.1,0.6c-1.2,0-2.2-0.4-3-1.3
		c-0.8-0.8-1.1-2-1.1-3.4V228.6z M324.5,228.8c0,1,0.2,1.8,0.7,2.4c0.5,0.6,1.1,0.9,1.9,0.9c0.8,0,1.4-0.3,1.9-0.9s0.7-1.5,0.7-2.6
		c0-1-0.2-1.8-0.7-2.4c-0.5-0.6-1.1-0.9-1.9-0.9c-0.8,0-1.4,0.3-1.8,0.9C324.8,226.8,324.5,227.7,324.5,228.8z"/>
	<path d="M338.1,233.2v-7.8h-1.4v-1.2h1.4v-0.9c0-1,0.3-1.7,0.8-2.2s1.2-0.8,2.2-0.8c0.4,0,0.7,0,1.1,0.1l-0.1,1.2
		c-0.3,0-0.5-0.1-0.8-0.1c-0.5,0-0.9,0.1-1.2,0.4c-0.3,0.3-0.4,0.7-0.4,1.3v0.9h1.9v1.2h-1.9v7.8H338.1z"/>
	<path d="M343.2,221.8c0-0.2,0.1-0.5,0.2-0.6c0.2-0.2,0.4-0.3,0.7-0.3s0.5,0.1,0.7,0.3c0.2,0.2,0.2,0.4,0.2,0.6
		c0,0.2-0.1,0.5-0.2,0.6s-0.4,0.2-0.7,0.2s-0.5-0.1-0.7-0.2C343.3,222.3,343.2,222.1,343.2,221.8z M344.9,233.2h-1.5v-9h1.5V233.2z"
		/>
	<path d="M348.8,224.2l0,1.1c0.7-0.9,1.6-1.3,2.7-1.3c1.9,0,2.9,1.1,2.9,3.2v5.9h-1.5v-5.9c0-0.6-0.2-1.1-0.4-1.4
		c-0.3-0.3-0.7-0.5-1.4-0.5c-0.5,0-0.9,0.1-1.3,0.4s-0.7,0.6-0.9,1v6.4h-1.5v-9H348.8z"/>
	<path d="M356.3,228.6c0-1.4,0.3-2.5,1-3.3c0.7-0.8,1.5-1.3,2.6-1.3c1.1,0,1.9,0.4,2.5,1.1v-4.7h1.5v12.8h-1.4l-0.1-1
		c-0.6,0.8-1.5,1.1-2.6,1.1c-1,0-1.9-0.4-2.5-1.3c-0.7-0.9-1-2-1-3.3V228.6z M357.9,228.8c0,1,0.2,1.8,0.6,2.4
		c0.4,0.6,1,0.9,1.7,0.9c1,0,1.7-0.4,2.1-1.3v-4.1c-0.5-0.8-1.2-1.3-2.1-1.3c-0.8,0-1.3,0.3-1.8,0.9S357.9,227.6,357.9,228.8z"/>
</g>
<g>
	<g>
		<path class="st5" d="M361.2,83.3v-9h-62.7V20.6h9L294.1,7.2l-13.4,13.4h9v9h-17.9v9h17.9v35.8c0,4.9,4,9,9,9h35.8v8.9h-9
			l13.4,13.4l13.4-13.4h-9v-8.9L361.2,83.3L361.2,83.3z M307.5,38.5h26.9v26.9h9V38.5c0-4.9-4-9-9-9h-26.9V38.5L307.5,38.5z"/>
	</g>
</g>
<g class="st2">
	<path class="st3" d="M493.4,143.7v-17.1h5.2c1.5,0,2.8,0.3,4,1s2.1,1.6,2.8,2.9s1,2.7,1,4.2v0.8c0,1.6-0.3,3-1,4.2
		s-1.6,2.2-2.8,2.9s-2.5,1-4,1H493.4z M496.9,129.5v11.4h1.7c1.4,0,2.4-0.4,3.2-1.3s1.1-2.2,1.1-3.9v-0.9c0-1.7-0.4-3-1.1-3.9
		s-1.8-1.3-3.2-1.3H496.9z"/>
	<path class="st3" d="M519.3,136.3h-6.8v4.6h7.9v2.8H509v-17.1h11.4v2.8h-7.9v4.1h6.8V136.3z"/>
	<path class="st3" d="M535.6,129.5h-5.2v14.2h-3.5v-14.2h-5.2v-2.8h13.9V129.5z"/>
	<path class="st3" d="M545.8,140.2h-6.2l-1.2,3.5h-3.7l6.4-17.1h3.3l6.4,17.1H547L545.8,140.2z M540.6,137.3h4.3l-2.1-6.4
		L540.6,137.3z"/>
	<path class="st3" d="M556.1,143.7h-3.5v-17.1h3.5V143.7z"/>
	<path class="st3" d="M562.9,140.9h7.5v2.8h-11v-17.1h3.5V140.9z"/>
	<path class="st3" d="M581.2,139.2c0-0.7-0.2-1.2-0.7-1.5s-1.3-0.7-2.5-1.1s-2.2-0.8-2.9-1.2c-1.9-1-2.9-2.5-2.9-4.2
		c0-0.9,0.3-1.7,0.8-2.5s1.3-1.3,2.2-1.7s2.1-0.6,3.3-0.6c1.2,0,2.3,0.2,3.3,0.7s1.7,1.1,2.2,1.9s0.8,1.7,0.8,2.7h-3.5
		c0-0.8-0.2-1.4-0.7-1.8s-1.2-0.7-2.1-0.7c-0.9,0-1.5,0.2-2,0.5s-0.7,0.8-0.7,1.4c0,0.6,0.3,1,0.8,1.4s1.4,0.7,2.5,1.1
		c2,0.6,3.5,1.3,4.4,2.2s1.4,2,1.4,3.3c0,1.5-0.6,2.6-1.7,3.5s-2.6,1.3-4.5,1.3c-1.3,0-2.5-0.2-3.6-0.7s-1.9-1.1-2.5-2
		s-0.8-1.8-0.8-2.9h3.5c0,1.9,1.1,2.8,3.4,2.8c0.8,0,1.5-0.2,2-0.5S581.2,139.8,581.2,139.2z"/>
</g>
<rect x="457.5" y="159.2" class="st4" width="167.9" height="79.8"/>
<g class="st2">
	<path d="M466,172h-1.6v-12.1h1.6V172z"/>
	<path d="M470.1,163l0,1.1c0.7-0.9,1.6-1.3,2.7-1.3c1.9,0,2.9,1.1,2.9,3.2v5.9h-1.5V166c0-0.6-0.2-1.1-0.4-1.4
		c-0.3-0.3-0.7-0.5-1.4-0.5c-0.5,0-0.9,0.1-1.3,0.4c-0.4,0.3-0.7,0.6-0.9,1v6.4h-1.5v-9H470.1z"/>
	<path d="M481.7,170.9c0.5,0,1-0.2,1.4-0.5c0.4-0.3,0.6-0.7,0.7-1.2h1.5c0,0.5-0.2,1-0.5,1.5c-0.3,0.5-0.8,0.8-1.3,1.1
		c-0.5,0.3-1.1,0.4-1.7,0.4c-1.2,0-2.2-0.4-2.9-1.2c-0.7-0.8-1.1-1.9-1.1-3.3v-0.3c0-0.9,0.2-1.7,0.5-2.3c0.3-0.7,0.8-1.2,1.4-1.6
		c0.6-0.4,1.3-0.6,2.1-0.6c1,0,1.8,0.3,2.5,0.9c0.7,0.6,1,1.4,1.1,2.3h-1.5c0-0.6-0.3-1.1-0.7-1.4c-0.4-0.4-0.9-0.6-1.5-0.6
		c-0.8,0-1.4,0.3-1.8,0.8c-0.4,0.6-0.6,1.4-0.6,2.4v0.3c0,1,0.2,1.8,0.6,2.4C480.3,170.6,480.9,170.9,481.7,170.9z"/>
	<path d="M488.6,172h-1.5v-12.8h1.5V172z"/>
	<path d="M496.6,171.1c-0.6,0.7-1.5,1.1-2.6,1.1c-1,0-1.7-0.3-2.2-0.8c-0.5-0.6-0.8-1.4-0.8-2.5V163h1.5v5.8c0,1.4,0.6,2,1.7,2
		c1.2,0,2-0.4,2.3-1.3V163h1.5v9h-1.5L496.6,171.1z"/>
	<path d="M500.1,167.4c0-1.4,0.3-2.5,1-3.3c0.7-0.8,1.5-1.3,2.6-1.3c1.1,0,1.9,0.4,2.5,1.1v-4.7h1.5V172h-1.4l-0.1-1
		c-0.6,0.8-1.5,1.1-2.6,1.1c-1,0-1.9-0.4-2.5-1.3c-0.7-0.9-1-2-1-3.3V167.4z M501.6,167.6c0,1,0.2,1.8,0.6,2.4
		c0.4,0.6,1,0.9,1.7,0.9c1,0,1.7-0.4,2.1-1.3v-4.1c-0.5-0.8-1.2-1.3-2.1-1.3c-0.8,0-1.3,0.3-1.8,0.9
		C501.8,165.6,501.6,166.4,501.6,167.6z"/>
	<path d="M513.8,172.1c-1.2,0-2.2-0.4-3-1.2s-1.1-1.9-1.1-3.2v-0.3c0-0.9,0.2-1.7,0.5-2.4c0.3-0.7,0.8-1.2,1.4-1.6s1.3-0.6,2-0.6
		c1.2,0,2.1,0.4,2.7,1.2c0.6,0.8,1,1.9,1,3.3v0.6h-6.1c0,0.9,0.3,1.6,0.8,2.1c0.5,0.5,1.1,0.8,1.9,0.8c0.5,0,1-0.1,1.4-0.3
		c0.4-0.2,0.7-0.5,1-0.9l0.9,0.7C516.4,171.6,515.3,172.1,513.8,172.1z M513.6,164.1c-0.6,0-1.1,0.2-1.6,0.7
		c-0.4,0.5-0.7,1.1-0.8,1.9h4.5v-0.1c0-0.8-0.3-1.4-0.6-1.8C514.7,164.3,514.2,164.1,513.6,164.1z"/>
	<path d="M522.9,167.4c0-1.4,0.3-2.5,1-3.3c0.7-0.8,1.5-1.3,2.6-1.3c1.1,0,1.9,0.4,2.5,1.1v-4.7h1.5V172h-1.4l-0.1-1
		c-0.6,0.8-1.5,1.1-2.6,1.1c-1,0-1.9-0.4-2.5-1.3c-0.7-0.9-1-2-1-3.3V167.4z M524.4,167.6c0,1,0.2,1.8,0.6,2.4
		c0.4,0.6,1,0.9,1.7,0.9c1,0,1.7-0.4,2.1-1.3v-4.1c-0.5-0.8-1.2-1.3-2.1-1.3c-0.8,0-1.3,0.3-1.8,0.9
		C524.6,165.6,524.4,166.4,524.4,167.6z"/>
	<path d="M536.6,172.1c-1.2,0-2.2-0.4-3-1.2s-1.1-1.9-1.1-3.2v-0.3c0-0.9,0.2-1.7,0.5-2.4c0.3-0.7,0.8-1.2,1.4-1.6
		c0.6-0.4,1.3-0.6,2-0.6c1.2,0,2.1,0.4,2.7,1.2c0.6,0.8,1,1.9,1,3.3v0.6H534c0,0.9,0.3,1.6,0.8,2.1s1.1,0.8,1.9,0.8
		c0.5,0,1-0.1,1.4-0.3c0.4-0.2,0.7-0.5,1-0.9l0.9,0.7C539.2,171.6,538.1,172.1,536.6,172.1z M536.4,164.1c-0.6,0-1.1,0.2-1.6,0.7
		c-0.4,0.5-0.7,1.1-0.8,1.9h4.5v-0.1c0-0.8-0.3-1.4-0.6-1.8C537.5,164.3,537,164.1,536.4,164.1z"/>
	<path d="M543.9,160.8v2.2h1.7v1.2h-1.7v5.6c0,0.4,0.1,0.6,0.2,0.8s0.4,0.3,0.8,0.3c0.2,0,0.4,0,0.7-0.1v1.2
		c-0.4,0.1-0.8,0.2-1.2,0.2c-0.7,0-1.2-0.2-1.6-0.6c-0.3-0.4-0.5-1-0.5-1.8v-5.6h-1.6V163h1.6v-2.2H543.9z"/>
	<path d="M553,172c-0.1-0.2-0.2-0.5-0.2-0.9c-0.7,0.7-1.6,1.1-2.6,1.1c-0.9,0-1.6-0.2-2.2-0.8s-0.9-1.1-0.9-1.9
		c0-0.9,0.4-1.7,1.1-2.2s1.7-0.8,3-0.8h1.5v-0.7c0-0.5-0.2-1-0.5-1.3c-0.3-0.3-0.8-0.5-1.4-0.5c-0.5,0-1,0.1-1.4,0.4
		c-0.4,0.3-0.6,0.6-0.6,1h-1.5c0-0.4,0.2-0.9,0.5-1.3c0.3-0.4,0.8-0.7,1.3-1c0.5-0.2,1.1-0.4,1.8-0.4c1,0,1.8,0.3,2.4,0.8
		c0.6,0.5,0.9,1.2,0.9,2.1v4.1c0,0.8,0.1,1.5,0.3,2v0.1H553z M550.4,170.8c0.5,0,0.9-0.1,1.4-0.4s0.7-0.6,0.9-1v-1.8h-1.2
		c-1.9,0-2.8,0.5-2.8,1.7c0,0.5,0.2,0.9,0.5,1.1C549.5,170.7,549.9,170.8,550.4,170.8z"/>
	<path d="M556.7,160.6c0-0.2,0.1-0.5,0.2-0.6c0.2-0.2,0.4-0.3,0.7-0.3s0.5,0.1,0.7,0.3c0.2,0.2,0.2,0.4,0.2,0.6
		c0,0.2-0.1,0.5-0.2,0.6c-0.2,0.2-0.4,0.2-0.7,0.2s-0.5-0.1-0.7-0.2C556.7,161.1,556.7,160.9,556.7,160.6z M558.3,172h-1.5v-9h1.5
		V172z"/>
	<path d="M562.4,172h-1.5v-12.8h1.5V172z"/>
	<path d="M570.1,169.6c0-0.4-0.2-0.7-0.5-1s-0.9-0.4-1.6-0.6s-1.4-0.4-1.9-0.6c-0.5-0.2-0.8-0.5-1-0.8c-0.2-0.3-0.3-0.7-0.3-1.1
		c0-0.7,0.3-1.4,0.9-1.9c0.6-0.5,1.4-0.8,2.4-0.8c1,0,1.8,0.3,2.5,0.8c0.6,0.5,1,1.2,1,2H570c0-0.4-0.2-0.8-0.5-1.1
		c-0.4-0.3-0.8-0.5-1.3-0.5c-0.6,0-1,0.1-1.3,0.4s-0.5,0.6-0.5,1c0,0.4,0.1,0.7,0.4,0.8s0.8,0.4,1.6,0.5c0.8,0.2,1.4,0.4,1.9,0.6
		c0.5,0.2,0.8,0.5,1.1,0.9s0.3,0.7,0.3,1.2c0,0.8-0.3,1.4-1,1.9c-0.6,0.5-1.5,0.7-2.5,0.7c-0.7,0-1.4-0.1-1.9-0.4s-1-0.6-1.3-1.1
		c-0.3-0.5-0.5-1-0.5-1.5h1.5c0,0.5,0.2,0.9,0.6,1.2s0.9,0.5,1.5,0.5c0.6,0,1-0.1,1.4-0.4S570.1,170,570.1,169.6z"/>
	<path d="M583.4,172c-0.1-0.2-0.2-0.5-0.2-0.9c-0.7,0.7-1.6,1.1-2.6,1.1c-0.9,0-1.6-0.2-2.2-0.8s-0.9-1.1-0.9-1.9
		c0-0.9,0.4-1.7,1.1-2.2s1.7-0.8,3-0.8h1.5v-0.7c0-0.5-0.2-1-0.5-1.3c-0.3-0.3-0.8-0.5-1.4-0.5c-0.5,0-1,0.1-1.4,0.4
		c-0.4,0.3-0.6,0.6-0.6,1h-1.5c0-0.4,0.2-0.9,0.5-1.3s0.8-0.7,1.3-1s1.1-0.4,1.8-0.4c1,0,1.8,0.3,2.4,0.8s0.9,1.2,0.9,2.1v4.1
		c0,0.8,0.1,1.5,0.3,2v0.1H583.4z M580.9,170.8c0.5,0,0.9-0.1,1.4-0.4s0.7-0.6,0.9-1v-1.8H582c-1.9,0-2.8,0.5-2.8,1.7
		c0,0.5,0.2,0.9,0.5,1.1S580.4,170.8,580.9,170.8z"/>
	<path d="M594.7,167.6c0,1.4-0.3,2.5-0.9,3.3s-1.5,1.2-2.5,1.2c-1.1,0-2-0.4-2.6-1.2l-0.1,1h-1.4v-12.8h1.5v4.8
		c0.6-0.8,1.5-1.2,2.6-1.2s1.9,0.4,2.6,1.2c0.6,0.8,0.9,2,0.9,3.4V167.6z M593.2,167.4c0-1-0.2-1.9-0.6-2.4s-1-0.9-1.7-0.9
		c-1,0-1.7,0.5-2.2,1.4v3.9c0.5,0.9,1.2,1.4,2.2,1.4c0.7,0,1.3-0.3,1.7-0.9C593,169.4,593.2,168.6,593.2,167.4z"/>
	<path d="M596.3,167.4c0-0.9,0.2-1.7,0.5-2.4c0.3-0.7,0.8-1.2,1.4-1.6c0.6-0.4,1.3-0.6,2.1-0.6c1.2,0,2.2,0.4,3,1.3
		c0.8,0.8,1.1,2,1.1,3.4v0.1c0,0.9-0.2,1.7-0.5,2.4s-0.8,1.2-1.4,1.6c-0.6,0.4-1.3,0.6-2.1,0.6c-1.2,0-2.2-0.4-3-1.3
		c-0.8-0.8-1.1-2-1.1-3.4V167.4z M597.8,167.6c0,1,0.2,1.8,0.7,2.4s1.1,0.9,1.9,0.9c0.8,0,1.4-0.3,1.9-0.9s0.7-1.5,0.7-2.6
		c0-1-0.2-1.8-0.7-2.4s-1.1-0.9-1.9-0.9c-0.8,0-1.4,0.3-1.8,0.9C598,165.6,597.8,166.5,597.8,167.6z"/>
	<path d="M611.9,171.1c-0.6,0.7-1.5,1.1-2.6,1.1c-1,0-1.7-0.3-2.2-0.8c-0.5-0.6-0.8-1.4-0.8-2.5V163h1.5v5.8c0,1.4,0.6,2,1.7,2
		c1.2,0,2-0.4,2.3-1.3V163h1.5v9h-1.5L611.9,171.1z"/>
	<path d="M617.8,160.8v2.2h1.7v1.2h-1.7v5.6c0,0.4,0.1,0.6,0.2,0.8s0.4,0.3,0.8,0.3c0.2,0,0.4,0,0.7-0.1v1.2
		c-0.4,0.1-0.8,0.2-1.2,0.2c-0.7,0-1.2-0.2-1.6-0.6c-0.3-0.4-0.5-1-0.5-1.8v-5.6h-1.6V163h1.6v-2.2H617.8z"/>
</g>
<g class="st2">
	<path d="M510.6,190.3l2.2-6.9h1.6l-3.2,9H510l-3.3-9h1.6L510.6,190.3z"/>
	<path d="M515.3,187.8c0-0.9,0.2-1.7,0.5-2.4c0.3-0.7,0.8-1.2,1.4-1.6c0.6-0.4,1.3-0.6,2.1-0.6c1.2,0,2.2,0.4,3,1.3
		c0.8,0.8,1.1,2,1.1,3.4v0.1c0,0.9-0.2,1.7-0.5,2.4s-0.8,1.2-1.4,1.6c-0.6,0.4-1.3,0.6-2.1,0.6c-1.2,0-2.2-0.4-3-1.3
		c-0.8-0.8-1.1-2-1.1-3.4V187.8z M516.9,188c0,1,0.2,1.8,0.7,2.4c0.5,0.6,1.1,0.9,1.9,0.9c0.8,0,1.4-0.3,1.9-0.9
		c0.5-0.6,0.7-1.5,0.7-2.6c0-1-0.2-1.8-0.7-2.4c-0.5-0.6-1.1-0.9-1.9-0.9c-0.8,0-1.4,0.3-1.8,0.9C517.1,186,516.9,186.9,516.9,188z"
		/>
	<path d="M527.1,192.4h-1.5v-12.8h1.5V192.4z"/>
	<path d="M535.1,191.5c-0.6,0.7-1.5,1.1-2.6,1.1c-1,0-1.7-0.3-2.2-0.8c-0.5-0.6-0.8-1.4-0.8-2.5v-5.8h1.5v5.8c0,1.4,0.6,2,1.7,2
		c1.2,0,2-0.4,2.3-1.3v-6.5h1.5v9h-1.5L535.1,191.5z"/>
	<path d="M540.4,183.4l0,1.1c0.7-0.9,1.6-1.3,2.7-1.3c1.9,0,2.9,1.1,2.9,3.2v5.9h-1.5v-5.9c0-0.6-0.2-1.1-0.4-1.4
		c-0.3-0.3-0.7-0.5-1.4-0.5c-0.5,0-0.9,0.1-1.3,0.4c-0.4,0.3-0.7,0.6-0.9,1v6.4h-1.5v-9H540.4z"/>
	<path d="M550.4,181.2v2.2h1.7v1.2h-1.7v5.6c0,0.4,0.1,0.6,0.2,0.8s0.4,0.3,0.8,0.3c0.2,0,0.4,0,0.7-0.1v1.2
		c-0.4,0.1-0.8,0.2-1.2,0.2c-0.7,0-1.2-0.2-1.6-0.6c-0.3-0.4-0.5-1-0.5-1.8v-5.6h-1.6v-1.2h1.6v-2.2H550.4z"/>
	<path d="M557.6,192.5c-1.2,0-2.2-0.4-3-1.2s-1.1-1.9-1.1-3.2v-0.3c0-0.9,0.2-1.7,0.5-2.4c0.3-0.7,0.8-1.2,1.4-1.6s1.3-0.6,2-0.6
		c1.2,0,2.1,0.4,2.7,1.2c0.6,0.8,1,1.9,1,3.3v0.6H555c0,0.9,0.3,1.6,0.8,2.1c0.5,0.5,1.1,0.8,1.9,0.8c0.5,0,1-0.1,1.4-0.3
		c0.4-0.2,0.7-0.5,1-0.9l0.9,0.7C560.2,192,559.1,192.5,557.6,192.5z M557.4,184.5c-0.6,0-1.1,0.2-1.6,0.7c-0.4,0.5-0.7,1.1-0.8,1.9
		h4.5v-0.1c0-0.8-0.3-1.4-0.6-1.8C558.5,184.7,558,184.5,557.4,184.5z"/>
	<path d="M566.6,192.5c-1.2,0-2.2-0.4-3-1.2s-1.1-1.9-1.1-3.2v-0.3c0-0.9,0.2-1.7,0.5-2.4c0.3-0.7,0.8-1.2,1.4-1.6
		c0.6-0.4,1.3-0.6,2-0.6c1.2,0,2.1,0.4,2.7,1.2c0.6,0.8,1,1.9,1,3.3v0.6H564c0,0.9,0.3,1.6,0.8,2.1s1.1,0.8,1.9,0.8
		c0.5,0,1-0.1,1.4-0.3c0.4-0.2,0.7-0.5,1-0.9l0.9,0.7C569.2,192,568.1,192.5,566.6,192.5z M566.4,184.5c-0.6,0-1.1,0.2-1.6,0.7
		c-0.4,0.5-0.7,1.1-0.8,1.9h4.5v-0.1c0-0.8-0.3-1.4-0.6-1.8C567.5,184.7,567,184.5,566.4,184.5z"/>
	<path d="M576.2,184.8c-0.2,0-0.5-0.1-0.8-0.1c-1,0-1.7,0.4-2.1,1.3v6.4h-1.5v-9h1.5l0,1c0.5-0.8,1.2-1.2,2.1-1.2
		c0.3,0,0.5,0,0.7,0.1V184.8z"/>
</g>
<g class="st2">
	<path d="M476,208.2c0-0.9,0.2-1.7,0.5-2.4c0.3-0.7,0.8-1.2,1.4-1.6c0.6-0.4,1.3-0.6,2.1-0.6c1.2,0,2.2,0.4,3,1.3
		c0.8,0.8,1.1,2,1.1,3.4v0.1c0,0.9-0.2,1.7-0.5,2.4s-0.8,1.2-1.4,1.6c-0.6,0.4-1.3,0.6-2.1,0.6c-1.2,0-2.2-0.4-3-1.3
		c-0.8-0.8-1.1-2-1.1-3.4V208.2z M477.5,208.4c0,1,0.2,1.8,0.7,2.4c0.5,0.6,1.1,0.9,1.9,0.9c0.8,0,1.4-0.3,1.9-0.9
		c0.5-0.6,0.7-1.5,0.7-2.6c0-1-0.2-1.8-0.7-2.4c-0.5-0.6-1.1-0.9-1.9-0.9c-0.8,0-1.4,0.3-1.8,0.9
		C477.8,206.4,477.5,207.3,477.5,208.4z"/>
	<path d="M493.7,208.4c0,1.4-0.3,2.5-0.9,3.3c-0.6,0.8-1.5,1.3-2.5,1.3c-1.1,0-1.9-0.3-2.6-1v4.3h-1.5v-12.4h1.4l0.1,1
		c0.6-0.8,1.5-1.2,2.6-1.2c1.1,0,1.9,0.4,2.6,1.2c0.6,0.8,0.9,1.9,0.9,3.4V208.4z M492.2,208.2c0-1-0.2-1.8-0.6-2.4
		c-0.4-0.6-1-0.9-1.8-0.9c-0.9,0-1.6,0.4-2.1,1.2v4.3c0.5,0.8,1.2,1.2,2.1,1.2c0.7,0,1.3-0.3,1.8-0.9
		C491.9,210.2,492.2,209.4,492.2,208.2z"/>
	<path d="M503.2,208.4c0,1.4-0.3,2.5-0.9,3.3c-0.6,0.8-1.5,1.3-2.5,1.3c-1.1,0-1.9-0.3-2.6-1v4.3h-1.5v-12.4h1.4l0.1,1
		c0.6-0.8,1.5-1.2,2.6-1.2c1.1,0,1.9,0.4,2.6,1.2c0.6,0.8,0.9,1.9,0.9,3.4V208.4z M501.7,208.2c0-1-0.2-1.8-0.6-2.4
		c-0.4-0.6-1-0.9-1.8-0.9c-0.9,0-1.6,0.4-2.1,1.2v4.3c0.5,0.8,1.2,1.2,2.1,1.2c0.7,0,1.3-0.3,1.8-0.9S501.7,209.4,501.7,208.2z"/>
	<path d="M504.8,208.2c0-0.9,0.2-1.7,0.5-2.4c0.3-0.7,0.8-1.2,1.4-1.6c0.6-0.4,1.3-0.6,2.1-0.6c1.2,0,2.2,0.4,3,1.3
		c0.8,0.8,1.1,2,1.1,3.4v0.1c0,0.9-0.2,1.7-0.5,2.4s-0.8,1.2-1.4,1.6c-0.6,0.4-1.3,0.6-2.1,0.6c-1.2,0-2.2-0.4-3-1.3
		c-0.8-0.8-1.1-2-1.1-3.4V208.2z M506.3,208.4c0,1,0.2,1.8,0.7,2.4c0.5,0.6,1.1,0.9,1.9,0.9c0.8,0,1.4-0.3,1.9-0.9
		c0.5-0.6,0.7-1.5,0.7-2.6c0-1-0.2-1.8-0.7-2.4c-0.5-0.6-1.1-0.9-1.9-0.9c-0.8,0-1.4,0.3-1.8,0.9
		C506.6,206.4,506.3,207.3,506.3,208.4z"/>
	<path d="M519.2,205.2c-0.2,0-0.5-0.1-0.8-0.1c-1,0-1.7,0.4-2,1.3v6.4h-1.5v-9h1.5l0,1c0.5-0.8,1.2-1.2,2.1-1.2c0.3,0,0.5,0,0.7,0.1
		V205.2z"/>
	<path d="M523.1,201.6v2.2h1.7v1.2h-1.7v5.6c0,0.4,0.1,0.6,0.2,0.8s0.4,0.3,0.8,0.3c0.2,0,0.4,0,0.7-0.1v1.2
		c-0.4,0.1-0.8,0.2-1.2,0.2c-0.7,0-1.2-0.2-1.6-0.6c-0.3-0.4-0.5-1-0.5-1.8V205H520v-1.2h1.6v-2.2H523.1z"/>
	<path d="M532.1,211.9c-0.6,0.7-1.5,1.1-2.6,1.1c-1,0-1.7-0.3-2.2-0.8c-0.5-0.6-0.8-1.4-0.8-2.5v-5.8h1.5v5.8c0,1.4,0.6,2,1.7,2
		c1.2,0,2-0.4,2.3-1.3v-6.5h1.5v9h-1.5L532.1,211.9z"/>
	<path d="M537.4,203.8l0,1.1c0.7-0.9,1.6-1.3,2.7-1.3c1.9,0,2.9,1.1,2.9,3.2v5.9h-1.5v-5.9c0-0.6-0.2-1.1-0.4-1.4
		c-0.3-0.3-0.7-0.5-1.4-0.5c-0.5,0-0.9,0.1-1.3,0.4c-0.4,0.3-0.7,0.6-0.9,1v6.4H536v-9H537.4z"/>
	<path d="M545.4,201.4c0-0.2,0.1-0.5,0.2-0.6c0.2-0.2,0.4-0.3,0.7-0.3s0.5,0.1,0.7,0.3c0.2,0.2,0.2,0.4,0.2,0.6
		c0,0.2-0.1,0.5-0.2,0.6c-0.2,0.2-0.4,0.2-0.7,0.2s-0.5-0.1-0.7-0.2S545.4,201.7,545.4,201.4z M547,212.8h-1.5v-9h1.5V212.8z"/>
	<path d="M551.6,201.6v2.2h1.7v1.2h-1.7v5.6c0,0.4,0.1,0.6,0.2,0.8s0.4,0.3,0.8,0.3c0.2,0,0.4,0,0.7-0.1v1.2
		c-0.4,0.1-0.8,0.2-1.2,0.2c-0.7,0-1.2-0.2-1.6-0.6c-0.3-0.4-0.5-1-0.5-1.8V205h-1.6v-1.2h1.6v-2.2H551.6z"/>
	<path d="M555,201.4c0-0.2,0.1-0.5,0.2-0.6c0.2-0.2,0.4-0.3,0.7-0.3s0.5,0.1,0.7,0.3c0.2,0.2,0.2,0.4,0.2,0.6c0,0.2-0.1,0.5-0.2,0.6
		c-0.2,0.2-0.4,0.2-0.7,0.2s-0.5-0.1-0.7-0.2S555,201.7,555,201.4z M556.7,212.8h-1.5v-9h1.5V212.8z"/>
	<path d="M562.9,212.9c-1.2,0-2.2-0.4-3-1.2s-1.1-1.9-1.1-3.2v-0.3c0-0.9,0.2-1.7,0.5-2.4c0.3-0.7,0.8-1.2,1.4-1.6
		c0.6-0.4,1.3-0.6,2-0.6c1.2,0,2.1,0.4,2.7,1.2c0.6,0.8,1,1.9,1,3.3v0.6h-6.1c0,0.9,0.3,1.6,0.8,2.1s1.1,0.8,1.9,0.8
		c0.5,0,1-0.1,1.4-0.3c0.4-0.2,0.7-0.5,1-0.9l0.9,0.7C565.5,212.4,564.4,212.9,562.9,212.9z M562.7,204.9c-0.6,0-1.1,0.2-1.6,0.7
		c-0.4,0.5-0.7,1.1-0.8,1.9h4.5v-0.1c0-0.8-0.3-1.4-0.6-1.8C563.8,205.1,563.3,204.9,562.7,204.9z"/>
	<path d="M573.4,210.4c0-0.4-0.2-0.7-0.5-1c-0.3-0.2-0.9-0.4-1.6-0.6s-1.4-0.4-1.9-0.6c-0.5-0.2-0.8-0.5-1-0.8
		c-0.2-0.3-0.3-0.7-0.3-1.1c0-0.7,0.3-1.4,0.9-1.9c0.6-0.5,1.4-0.8,2.4-0.8c1,0,1.8,0.3,2.5,0.8c0.6,0.5,1,1.2,1,2h-1.5
		c0-0.4-0.2-0.8-0.5-1.1c-0.4-0.3-0.8-0.5-1.3-0.5c-0.6,0-1,0.1-1.3,0.4s-0.5,0.6-0.5,1c0,0.4,0.1,0.7,0.4,0.8
		c0.3,0.2,0.8,0.4,1.6,0.5c0.8,0.2,1.4,0.4,1.9,0.6c0.5,0.2,0.8,0.5,1.1,0.9c0.2,0.3,0.3,0.7,0.3,1.2c0,0.8-0.3,1.4-1,1.9
		c-0.6,0.5-1.5,0.7-2.5,0.7c-0.7,0-1.4-0.1-1.9-0.4c-0.6-0.3-1-0.6-1.3-1.1c-0.3-0.5-0.5-1-0.5-1.5h1.5c0,0.5,0.2,0.9,0.6,1.2
		s0.9,0.5,1.5,0.5c0.6,0,1-0.1,1.4-0.4S573.4,210.8,573.4,210.4z"/>
	<path d="M586.7,212.8c-0.1-0.2-0.2-0.5-0.2-0.9c-0.7,0.7-1.6,1.1-2.6,1.1c-0.9,0-1.6-0.2-2.2-0.8s-0.9-1.1-0.9-1.9
		c0-0.9,0.4-1.7,1.1-2.2s1.7-0.8,3-0.8h1.5v-0.7c0-0.5-0.2-1-0.5-1.3c-0.3-0.3-0.8-0.5-1.4-0.5c-0.5,0-1,0.1-1.4,0.4
		c-0.4,0.3-0.6,0.6-0.6,1h-1.5c0-0.4,0.2-0.9,0.5-1.3s0.8-0.7,1.3-1s1.1-0.4,1.8-0.4c1,0,1.8,0.3,2.4,0.8s0.9,1.2,0.9,2.1v4.1
		c0,0.8,0.1,1.5,0.3,2v0.1H586.7z M584.1,211.6c0.5,0,0.9-0.1,1.4-0.4s0.7-0.6,0.9-1v-1.8h-1.2c-1.9,0-2.8,0.5-2.8,1.7
		c0,0.5,0.2,0.9,0.5,1.1S583.6,211.6,584.1,211.6z"/>
	<path d="M591.8,203.8l0,1.1c0.7-0.9,1.6-1.3,2.7-1.3c1.9,0,2.9,1.1,2.9,3.2v5.9h-1.5v-5.9c0-0.6-0.2-1.1-0.4-1.4
		c-0.3-0.3-0.7-0.5-1.4-0.5c-0.5,0-0.9,0.1-1.3,0.4c-0.4,0.3-0.7,0.6-0.9,1v6.4h-1.5v-9H591.8z"/>
	<path d="M599.4,208.2c0-1.4,0.3-2.5,1-3.3c0.7-0.8,1.5-1.3,2.6-1.3c1.1,0,1.9,0.4,2.5,1.1V200h1.5v12.8h-1.4l-0.1-1
		c-0.6,0.8-1.5,1.1-2.6,1.1c-1,0-1.9-0.4-2.5-1.3c-0.7-0.9-1-2-1-3.3V208.2z M600.9,208.4c0,1,0.2,1.8,0.6,2.4
		c0.4,0.6,1,0.9,1.7,0.9c1,0,1.7-0.4,2.1-1.3v-4.1c-0.5-0.8-1.2-1.3-2.1-1.3c-0.8,0-1.3,0.3-1.8,0.9S600.9,207.2,600.9,208.4z"/>
</g>
<g class="st2">
	<path d="M513.9,228.6c0-0.9,0.2-1.7,0.5-2.4c0.3-0.7,0.8-1.2,1.4-1.6c0.6-0.4,1.3-0.6,2.1-0.6c1.2,0,2.2,0.4,3,1.3
		c0.8,0.8,1.1,2,1.1,3.4v0.1c0,0.9-0.2,1.7-0.5,2.4s-0.8,1.2-1.4,1.6c-0.6,0.4-1.3,0.6-2.1,0.6c-1.2,0-2.2-0.4-3-1.3
		c-0.8-0.8-1.1-2-1.1-3.4V228.6z M515.4,228.8c0,1,0.2,1.8,0.7,2.4c0.5,0.6,1.1,0.9,1.9,0.9c0.8,0,1.4-0.3,1.9-0.9
		c0.5-0.6,0.7-1.5,0.7-2.6c0-1-0.2-1.8-0.7-2.4c-0.5-0.6-1.1-0.9-1.9-0.9c-0.8,0-1.4,0.3-1.8,0.9
		C515.7,226.8,515.4,227.7,515.4,228.8z"/>
	<path d="M531.6,228.8c0,1.4-0.3,2.5-0.9,3.3c-0.6,0.8-1.5,1.3-2.5,1.3c-1.1,0-1.9-0.3-2.6-1v4.3H524v-12.4h1.4l0.1,1
		c0.6-0.8,1.5-1.2,2.6-1.2c1.1,0,1.9,0.4,2.6,1.2c0.6,0.8,0.9,1.9,0.9,3.4V228.8z M530,228.6c0-1-0.2-1.8-0.6-2.4
		c-0.4-0.6-1-0.9-1.8-0.9c-0.9,0-1.6,0.4-2.1,1.2v4.3c0.5,0.8,1.2,1.2,2.1,1.2c0.7,0,1.3-0.3,1.8-0.9
		C529.8,230.6,530,229.8,530,228.6z"/>
	<path d="M535.6,222v2.2h1.7v1.2h-1.7v5.6c0,0.4,0.1,0.6,0.2,0.8s0.4,0.3,0.8,0.3c0.2,0,0.4,0,0.7-0.1v1.2c-0.4,0.1-0.8,0.2-1.2,0.2
		c-0.7,0-1.2-0.2-1.6-0.6c-0.3-0.4-0.5-1-0.5-1.8v-5.6h-1.6v-1.2h1.6V222H535.6z"/>
	<path d="M539.1,221.8c0-0.2,0.1-0.5,0.2-0.6c0.2-0.2,0.4-0.3,0.7-0.3s0.5,0.1,0.7,0.3c0.2,0.2,0.2,0.4,0.2,0.6
		c0,0.2-0.1,0.5-0.2,0.6c-0.2,0.2-0.4,0.2-0.7,0.2s-0.5-0.1-0.7-0.2C539.2,222.3,539.1,222.1,539.1,221.8z M540.8,233.2h-1.5v-9h1.5
		V233.2z"/>
	<path d="M542.8,228.6c0-0.9,0.2-1.7,0.5-2.4c0.3-0.7,0.8-1.2,1.4-1.6c0.6-0.4,1.3-0.6,2.1-0.6c1.2,0,2.2,0.4,3,1.3
		c0.8,0.8,1.1,2,1.1,3.4v0.1c0,0.9-0.2,1.7-0.5,2.4c-0.3,0.7-0.8,1.2-1.4,1.6c-0.6,0.4-1.3,0.6-2.1,0.6c-1.2,0-2.2-0.4-3-1.3
		c-0.8-0.8-1.1-2-1.1-3.4V228.6z M544.3,228.8c0,1,0.2,1.8,0.7,2.4s1.1,0.9,1.9,0.9c0.8,0,1.4-0.3,1.9-0.9c0.5-0.6,0.7-1.5,0.7-2.6
		c0-1-0.2-1.8-0.7-2.4s-1.1-0.9-1.9-0.9c-0.8,0-1.4,0.3-1.8,0.9C544.6,226.8,544.3,227.7,544.3,228.8z"/>
	<path d="M554.4,224.2l0,1.1c0.7-0.9,1.6-1.3,2.7-1.3c1.9,0,2.9,1.1,2.9,3.2v5.9h-1.5v-5.9c0-0.6-0.2-1.1-0.4-1.4
		c-0.3-0.3-0.7-0.5-1.4-0.5c-0.5,0-0.9,0.1-1.3,0.4c-0.4,0.3-0.7,0.6-0.9,1v6.4h-1.5v-9H554.4z"/>
	<path d="M567.5,230.8c0-0.4-0.2-0.7-0.5-1c-0.3-0.2-0.9-0.4-1.6-0.6s-1.4-0.4-1.9-0.6c-0.5-0.2-0.8-0.5-1-0.8
		c-0.2-0.3-0.3-0.7-0.3-1.1c0-0.7,0.3-1.4,0.9-1.9c0.6-0.5,1.4-0.8,2.4-0.8c1,0,1.8,0.3,2.5,0.8c0.6,0.5,1,1.2,1,2h-1.5
		c0-0.4-0.2-0.8-0.5-1.1c-0.4-0.3-0.8-0.5-1.3-0.5c-0.6,0-1,0.1-1.3,0.4s-0.5,0.6-0.5,1c0,0.4,0.1,0.7,0.4,0.8
		c0.3,0.2,0.8,0.4,1.6,0.5c0.8,0.2,1.4,0.4,1.9,0.6c0.5,0.2,0.8,0.5,1.1,0.9c0.2,0.3,0.3,0.7,0.3,1.2c0,0.8-0.3,1.4-1,1.9
		c-0.6,0.5-1.5,0.7-2.5,0.7c-0.7,0-1.4-0.1-1.9-0.4c-0.6-0.3-1-0.6-1.3-1.1c-0.3-0.5-0.5-1-0.5-1.5h1.5c0,0.5,0.2,0.9,0.6,1.2
		s0.9,0.5,1.5,0.5c0.6,0,1-0.1,1.4-0.4S567.5,231.2,567.5,230.8z"/>
</g>
<g class="st2">
	<path class="st3" d="M696.9,143.7v-17.1h5.2c1.5,0,2.8,0.3,4,1s2.1,1.6,2.8,2.9s1,2.7,1,4.2v0.8c0,1.6-0.3,3-1,4.2
		s-1.6,2.2-2.8,2.9s-2.5,1-4,1H696.9z M700.5,129.5v11.4h1.7c1.4,0,2.4-0.4,3.2-1.3s1.1-2.2,1.1-3.9v-0.9c0-1.7-0.4-3-1.1-3.9
		s-1.8-1.3-3.2-1.3H700.5z"/>
	<path class="st3" d="M726.5,135.5c0,1.7-0.3,3.2-0.9,4.4s-1.4,2.2-2.5,2.9s-2.4,1-3.8,1c-1.4,0-2.7-0.3-3.8-1s-2-1.7-2.6-2.9
		s-0.9-2.7-0.9-4.4v-0.8c0-1.7,0.3-3.2,0.9-4.4s1.5-2.3,2.6-2.9s2.4-1,3.8-1s2.7,0.3,3.8,1s2,1.7,2.6,2.9s0.9,2.8,0.9,4.4V135.5z
		 M723,134.8c0-1.8-0.3-3.1-1-4.1s-1.6-1.4-2.7-1.4c-1.2,0-2.1,0.5-2.7,1.4s-1,2.3-1,4v0.8c0,1.7,0.3,3.1,1,4.1s1.6,1.4,2.8,1.4
		c1.2,0,2.1-0.5,2.7-1.4s1-2.3,1-4V134.8z"/>
	<path class="st3" d="M743,143.7h-3.5l-6.8-11.2v11.2h-3.5v-17.1h3.5l6.9,11.2v-11.2h3.5V143.7z"/>
	<path class="st3" d="M755.9,140.2h-6.2l-1.2,3.5h-3.7l6.4-17.1h3.3l6.4,17.1h-3.7L755.9,140.2z M750.7,137.3h4.3l-2.1-6.4
		L750.7,137.3z"/>
	<path class="st3" d="M773.8,129.5h-5.2v14.2h-3.5v-14.2h-5.2v-2.8h13.9V129.5z"/>
	<path class="st3" d="M779.6,143.7h-3.5v-17.1h3.5V143.7z"/>
	<path class="st3" d="M796.9,135.5c0,1.7-0.3,3.2-0.9,4.4s-1.4,2.2-2.5,2.9s-2.4,1-3.8,1c-1.4,0-2.7-0.3-3.8-1s-2-1.7-2.6-2.9
		s-0.9-2.7-0.9-4.4v-0.8c0-1.7,0.3-3.2,0.9-4.4s1.5-2.3,2.6-2.9s2.4-1,3.8-1s2.7,0.3,3.8,1s2,1.7,2.6,2.9s0.9,2.8,0.9,4.4V135.5z
		 M793.3,134.8c0-1.8-0.3-3.1-1-4.1s-1.6-1.4-2.7-1.4c-1.2,0-2.1,0.5-2.7,1.4s-1,2.3-1,4v0.8c0,1.7,0.3,3.1,1,4.1s1.6,1.4,2.8,1.4
		c1.2,0,2.1-0.5,2.7-1.4s1-2.3,1-4V134.8z"/>
	<path class="st3" d="M813.3,143.7h-3.5l-6.8-11.2v11.2h-3.5v-17.1h3.5l6.9,11.2v-11.2h3.5V143.7z"/>
	<path class="st3" d="M825.2,139.2c0-0.7-0.2-1.2-0.7-1.5s-1.3-0.7-2.5-1.1s-2.2-0.8-2.9-1.2c-1.9-1-2.9-2.5-2.9-4.2
		c0-0.9,0.3-1.7,0.8-2.5s1.3-1.3,2.2-1.7s2.1-0.6,3.3-0.6c1.2,0,2.3,0.2,3.3,0.7s1.7,1.1,2.2,1.9s0.8,1.7,0.8,2.7h-3.5
		c0-0.8-0.2-1.4-0.7-1.8s-1.2-0.7-2.1-0.7c-0.9,0-1.5,0.2-2,0.5s-0.7,0.8-0.7,1.4c0,0.6,0.3,1,0.8,1.4s1.4,0.7,2.5,1.1
		c2,0.6,3.5,1.3,4.4,2.2s1.4,2,1.4,3.3c0,1.5-0.6,2.6-1.7,3.5s-2.6,1.3-4.5,1.3c-1.3,0-2.5-0.2-3.6-0.7s-1.9-1.1-2.5-2
		s-0.8-1.8-0.8-2.9h3.5c0,1.9,1.1,2.8,3.4,2.8c0.8,0,1.5-0.2,2-0.5S825.2,139.8,825.2,139.2z"/>
</g>
<rect x="681.9" y="159.2" class="st4" width="168" height="79.8"/>
<g class="st2">
	<path d="M700.9,167.2v4.7h-1.6v-12.1h4.5c1.3,0,2.4,0.3,3.1,1c0.8,0.7,1.1,1.6,1.1,2.7c0,1.2-0.4,2.1-1.1,2.7s-1.8,1-3.2,1H700.9z
		 M700.9,165.9h2.9c0.9,0,1.5-0.2,2-0.6c0.5-0.4,0.7-1,0.7-1.7c0-0.7-0.2-1.3-0.7-1.7c-0.5-0.4-1.1-0.7-1.9-0.7h-3V165.9z"/>
	<path d="M714.1,164.4c-0.2,0-0.5-0.1-0.8-0.1c-1,0-1.7,0.4-2,1.3v6.4h-1.5v-9h1.5l0,1c0.5-0.8,1.2-1.2,2.1-1.2c0.3,0,0.5,0,0.7,0.1
		V164.4z"/>
	<path d="M714.9,167.4c0-0.9,0.2-1.7,0.5-2.4c0.3-0.7,0.8-1.2,1.4-1.6c0.6-0.4,1.3-0.6,2.1-0.6c1.2,0,2.2,0.4,3,1.3
		c0.8,0.8,1.1,2,1.1,3.4v0.1c0,0.9-0.2,1.7-0.5,2.4c-0.3,0.7-0.8,1.2-1.4,1.6c-0.6,0.4-1.3,0.6-2.1,0.6c-1.2,0-2.2-0.4-3-1.3
		c-0.8-0.8-1.1-2-1.1-3.4V167.4z M716.5,167.6c0,1,0.2,1.8,0.7,2.4s1.1,0.9,1.9,0.9c0.8,0,1.4-0.3,1.9-0.9c0.5-0.6,0.7-1.5,0.7-2.6
		c0-1-0.2-1.8-0.7-2.4s-1.1-0.9-1.9-0.9c-0.8,0-1.4,0.3-1.8,0.9C716.7,165.6,716.5,166.5,716.5,167.6z"/>
	<path d="M727.9,169.9l2.2-6.9h1.6l-3.2,9h-1.2l-3.3-9h1.6L727.9,169.9z"/>
	<path d="M733.2,160.6c0-0.2,0.1-0.5,0.2-0.6c0.2-0.2,0.4-0.3,0.7-0.3s0.5,0.1,0.7,0.3c0.2,0.2,0.2,0.4,0.2,0.6
		c0,0.2-0.1,0.5-0.2,0.6c-0.2,0.2-0.4,0.2-0.7,0.2s-0.5-0.1-0.7-0.2C733.2,161.1,733.2,160.9,733.2,160.6z M734.8,172h-1.5v-9h1.5
		V172z"/>
	<path d="M736.9,167.4c0-1.4,0.3-2.5,1-3.3c0.7-0.8,1.5-1.3,2.6-1.3c1.1,0,1.9,0.4,2.5,1.1v-4.7h1.5V172h-1.4l-0.1-1
		c-0.6,0.8-1.5,1.1-2.6,1.1c-1,0-1.9-0.4-2.5-1.3c-0.7-0.9-1-2-1-3.3V167.4z M738.4,167.6c0,1,0.2,1.8,0.6,2.4
		c0.4,0.6,1,0.9,1.7,0.9c1,0,1.7-0.4,2.1-1.3v-4.1c-0.5-0.8-1.2-1.3-2.1-1.3c-0.8,0-1.3,0.3-1.8,0.9
		C738.7,165.6,738.4,166.4,738.4,167.6z"/>
	<path d="M750.6,172.1c-1.2,0-2.2-0.4-3-1.2s-1.1-1.9-1.1-3.2v-0.3c0-0.9,0.2-1.7,0.5-2.4c0.3-0.7,0.8-1.2,1.4-1.6
		c0.6-0.4,1.3-0.6,2-0.6c1.2,0,2.1,0.4,2.7,1.2c0.6,0.8,1,1.9,1,3.3v0.6H748c0,0.9,0.3,1.6,0.8,2.1s1.1,0.8,1.9,0.8
		c0.5,0,1-0.1,1.4-0.3c0.4-0.2,0.7-0.5,1-0.9l0.9,0.7C753.2,171.6,752.1,172.1,750.6,172.1z M750.4,164.1c-0.6,0-1.1,0.2-1.6,0.7
		c-0.4,0.5-0.7,1.1-0.8,1.9h4.5v-0.1c0-0.8-0.3-1.4-0.6-1.8C751.6,164.3,751,164.1,750.4,164.1z"/>
	<path d="M765.6,172c-0.1-0.2-0.2-0.5-0.2-0.9c-0.7,0.7-1.6,1.1-2.6,1.1c-0.9,0-1.6-0.2-2.2-0.8s-0.9-1.1-0.9-1.9
		c0-0.9,0.4-1.7,1.1-2.2s1.7-0.8,3-0.8h1.5v-0.7c0-0.5-0.2-1-0.5-1.3c-0.3-0.3-0.8-0.5-1.4-0.5c-0.5,0-1,0.1-1.4,0.4
		c-0.4,0.3-0.6,0.6-0.6,1H760c0-0.4,0.2-0.9,0.5-1.3c0.3-0.4,0.8-0.7,1.3-1c0.5-0.2,1.1-0.4,1.8-0.4c1,0,1.8,0.3,2.4,0.8
		c0.6,0.5,0.9,1.2,0.9,2.1v4.1c0,0.8,0.1,1.5,0.3,2v0.1H765.6z M763.1,170.8c0.5,0,0.9-0.1,1.4-0.4s0.7-0.6,0.9-1v-1.8h-1.2
		c-1.9,0-2.8,0.5-2.8,1.7c0,0.5,0.2,0.9,0.5,1.1C762.2,170.7,762.6,170.8,763.1,170.8z"/>
	<path d="M769,167.4c0-1.4,0.3-2.5,1-3.3c0.7-0.8,1.5-1.3,2.6-1.3c1.1,0,1.9,0.4,2.5,1.1v-4.7h1.5V172h-1.4l-0.1-1
		c-0.6,0.8-1.5,1.1-2.6,1.1c-1,0-1.9-0.4-2.5-1.3c-0.7-0.9-1-2-1-3.3V167.4z M770.5,167.6c0,1,0.2,1.8,0.6,2.4
		c0.4,0.6,1,0.9,1.7,0.9c1,0,1.7-0.4,2.1-1.3v-4.1c-0.5-0.8-1.2-1.3-2.1-1.3c-0.8,0-1.3,0.3-1.8,0.9
		C770.7,165.6,770.5,166.4,770.5,167.6z"/>
	<path d="M778.5,167.4c0-1.4,0.3-2.5,1-3.3c0.7-0.8,1.5-1.3,2.6-1.3c1.1,0,1.9,0.4,2.5,1.1v-4.7h1.5V172h-1.4l-0.1-1
		c-0.6,0.8-1.5,1.1-2.6,1.1c-1,0-1.9-0.4-2.5-1.3c-0.7-0.9-1-2-1-3.3V167.4z M780.1,167.6c0,1,0.2,1.8,0.6,2.4
		c0.4,0.6,1,0.9,1.7,0.9c1,0,1.7-0.4,2.1-1.3v-4.1c-0.5-0.8-1.2-1.3-2.1-1.3c-0.8,0-1.3,0.3-1.8,0.9
		C780.3,165.6,780.1,166.4,780.1,167.6z"/>
	<path d="M788.5,160.6c0-0.2,0.1-0.5,0.2-0.6c0.2-0.2,0.4-0.3,0.7-0.3s0.5,0.1,0.7,0.3c0.2,0.2,0.2,0.4,0.2,0.6
		c0,0.2-0.1,0.5-0.2,0.6c-0.2,0.2-0.4,0.2-0.7,0.2s-0.5-0.1-0.7-0.2C788.6,161.1,788.5,160.9,788.5,160.6z M790.2,172h-1.5v-9h1.5
		V172z"/>
	<path d="M794.7,160.8v2.2h1.7v1.2h-1.7v5.6c0,0.4,0.1,0.6,0.2,0.8s0.4,0.3,0.8,0.3c0.2,0,0.4,0,0.7-0.1v1.2
		c-0.4,0.1-0.8,0.2-1.2,0.2c-0.7,0-1.2-0.2-1.6-0.6c-0.3-0.4-0.5-1-0.5-1.8v-5.6h-1.6V163h1.6v-2.2H794.7z"/>
	<path d="M798.2,160.6c0-0.2,0.1-0.5,0.2-0.6c0.2-0.2,0.4-0.3,0.7-0.3s0.5,0.1,0.7,0.3c0.2,0.2,0.2,0.4,0.2,0.6
		c0,0.2-0.1,0.5-0.2,0.6s-0.4,0.2-0.7,0.2s-0.5-0.1-0.7-0.2S798.2,160.9,798.2,160.6z M799.9,172h-1.5v-9h1.5V172z"/>
	<path d="M801.9,167.4c0-0.9,0.2-1.7,0.5-2.4c0.3-0.7,0.8-1.2,1.4-1.6c0.6-0.4,1.3-0.6,2.1-0.6c1.2,0,2.2,0.4,3,1.3
		c0.8,0.8,1.1,2,1.1,3.4v0.1c0,0.9-0.2,1.7-0.5,2.4s-0.8,1.2-1.4,1.6c-0.6,0.4-1.3,0.6-2.1,0.6c-1.2,0-2.2-0.4-3-1.3
		c-0.8-0.8-1.1-2-1.1-3.4V167.4z M803.4,167.6c0,1,0.2,1.8,0.7,2.4s1.1,0.9,1.9,0.9c0.8,0,1.4-0.3,1.9-0.9s0.7-1.5,0.7-2.6
		c0-1-0.2-1.8-0.7-2.4s-1.1-0.9-1.9-0.9c-0.8,0-1.4,0.3-1.8,0.9C803.7,165.6,803.4,166.5,803.4,167.6z"/>
	<path d="M813.5,163l0,1.1c0.7-0.9,1.6-1.3,2.7-1.3c1.9,0,2.9,1.1,2.9,3.2v5.9h-1.5V166c0-0.6-0.2-1.1-0.4-1.4
		c-0.3-0.3-0.7-0.5-1.4-0.5c-0.5,0-0.9,0.1-1.3,0.4c-0.4,0.3-0.7,0.6-0.9,1v6.4H812v-9H813.5z"/>
	<path d="M826.9,172c-0.1-0.2-0.2-0.5-0.2-0.9c-0.7,0.7-1.6,1.1-2.6,1.1c-0.9,0-1.6-0.2-2.2-0.8s-0.9-1.1-0.9-1.9
		c0-0.9,0.4-1.7,1.1-2.2s1.7-0.8,3-0.8h1.5v-0.7c0-0.5-0.2-1-0.5-1.3c-0.3-0.3-0.8-0.5-1.4-0.5c-0.5,0-1,0.1-1.4,0.4
		c-0.4,0.3-0.6,0.6-0.6,1h-1.5c0-0.4,0.2-0.9,0.5-1.3s0.8-0.7,1.3-1s1.1-0.4,1.8-0.4c1,0,1.8,0.3,2.4,0.8s0.9,1.2,0.9,2.1v4.1
		c0,0.8,0.1,1.5,0.3,2v0.1H826.9z M824.4,170.8c0.5,0,0.9-0.1,1.4-0.4s0.7-0.6,0.9-1v-1.8h-1.2c-1.9,0-2.8,0.5-2.8,1.7
		c0,0.5,0.2,0.9,0.5,1.1S823.9,170.8,824.4,170.8z"/>
	<path d="M832.3,172h-1.5v-12.8h1.5V172z"/>
</g>
<g class="st2">
	<path d="M717.5,190.3l1.7-6.9h1.5l-2.6,9h-1.2l-2.2-6.8l-2.1,6.8h-1.2l-2.6-9h1.5l1.8,6.7l2.1-6.7h1.2L717.5,190.3z"/>
	<path d="M727.9,192.4c-0.1-0.2-0.2-0.5-0.2-0.9c-0.7,0.7-1.6,1.1-2.6,1.1c-0.9,0-1.6-0.2-2.2-0.8s-0.9-1.1-0.9-1.9
		c0-0.9,0.4-1.7,1.1-2.2s1.7-0.8,3-0.8h1.5v-0.7c0-0.5-0.2-1-0.5-1.3c-0.3-0.3-0.8-0.5-1.4-0.5c-0.5,0-1,0.1-1.4,0.4
		c-0.4,0.3-0.6,0.6-0.6,1h-1.5c0-0.4,0.2-0.9,0.5-1.3c0.3-0.4,0.8-0.7,1.3-1c0.5-0.2,1.1-0.4,1.8-0.4c1,0,1.8,0.3,2.4,0.8
		c0.6,0.5,0.9,1.2,0.9,2.1v4.1c0,0.8,0.1,1.5,0.3,2v0.1H727.9z M725.3,191.2c0.5,0,0.9-0.1,1.4-0.4s0.7-0.6,0.9-1V188h-1.2
		c-1.9,0-2.8,0.5-2.8,1.7c0,0.5,0.2,0.9,0.5,1.1C724.4,191.1,724.8,191.2,725.3,191.2z"/>
	<path d="M734.4,190.1l2.1-6.7h1.6l-3.6,10.4c-0.6,1.5-1.4,2.2-2.7,2.2l-0.3,0l-0.6-0.1v-1.2l0.4,0c0.5,0,0.9-0.1,1.2-0.3
		c0.3-0.2,0.5-0.6,0.7-1.2l0.3-0.9l-3.2-8.9h1.7L734.4,190.1z"/>
	<path d="M744.7,190c0-0.4-0.2-0.7-0.5-1s-0.9-0.4-1.6-0.6c-0.8-0.2-1.4-0.4-1.9-0.6c-0.5-0.2-0.8-0.5-1-0.8
		c-0.2-0.3-0.3-0.7-0.3-1.1c0-0.7,0.3-1.4,0.9-1.9c0.6-0.5,1.4-0.8,2.4-0.8c1,0,1.8,0.3,2.5,0.8c0.6,0.5,1,1.2,1,2h-1.5
		c0-0.4-0.2-0.8-0.5-1.1c-0.4-0.3-0.8-0.5-1.3-0.5c-0.6,0-1,0.1-1.3,0.4s-0.5,0.6-0.5,1c0,0.4,0.1,0.7,0.4,0.8
		c0.3,0.2,0.8,0.4,1.6,0.5c0.8,0.2,1.4,0.4,1.9,0.6c0.5,0.2,0.8,0.5,1.1,0.9s0.3,0.7,0.3,1.2c0,0.8-0.3,1.4-1,1.9
		c-0.6,0.5-1.5,0.7-2.5,0.7c-0.7,0-1.4-0.1-1.9-0.4c-0.6-0.3-1-0.6-1.3-1.1c-0.3-0.5-0.5-1-0.5-1.5h1.5c0,0.5,0.2,0.9,0.6,1.2
		c0.4,0.3,0.9,0.5,1.5,0.5c0.6,0,1-0.1,1.4-0.4C744.6,190.7,744.7,190.4,744.7,190z"/>
	<path d="M754.6,181.2v2.2h1.7v1.2h-1.7v5.6c0,0.4,0.1,0.6,0.2,0.8s0.4,0.3,0.8,0.3c0.2,0,0.4,0,0.7-0.1v1.2
		c-0.4,0.1-0.8,0.2-1.2,0.2c-0.7,0-1.2-0.2-1.6-0.6c-0.3-0.4-0.5-1-0.5-1.8v-5.6h-1.6v-1.2h1.6v-2.2H754.6z"/>
	<path d="M757.5,187.8c0-0.9,0.2-1.7,0.5-2.4c0.3-0.7,0.8-1.2,1.4-1.6c0.6-0.4,1.3-0.6,2.1-0.6c1.2,0,2.2,0.4,3,1.3
		c0.8,0.8,1.1,2,1.1,3.4v0.1c0,0.9-0.2,1.7-0.5,2.4s-0.8,1.2-1.4,1.6c-0.6,0.4-1.3,0.6-2.1,0.6c-1.2,0-2.2-0.4-3-1.3
		c-0.8-0.8-1.1-2-1.1-3.4V187.8z M759,188c0,1,0.2,1.8,0.7,2.4c0.5,0.6,1.1,0.9,1.9,0.9c0.8,0,1.4-0.3,1.9-0.9
		c0.5-0.6,0.7-1.5,0.7-2.6c0-1-0.2-1.8-0.7-2.4c-0.5-0.6-1.1-0.9-1.9-0.9c-0.8,0-1.4,0.3-1.8,0.9C759.2,186,759,186.9,759,188z"/>
	<path d="M771.4,187.8c0-1.4,0.3-2.5,1-3.3c0.7-0.8,1.5-1.3,2.6-1.3c1.1,0,1.9,0.4,2.5,1.1v-4.7h1.5v12.8h-1.4l-0.1-1
		c-0.6,0.8-1.5,1.1-2.6,1.1c-1,0-1.9-0.4-2.5-1.3c-0.7-0.9-1-2-1-3.3V187.8z M772.9,188c0,1,0.2,1.8,0.6,2.4c0.4,0.6,1,0.9,1.7,0.9
		c1,0,1.7-0.4,2.1-1.3v-4.1c-0.5-0.8-1.2-1.3-2.1-1.3c-0.8,0-1.3,0.3-1.8,0.9C773.1,186,772.9,186.8,772.9,188z"/>
	<path d="M780.9,187.8c0-0.9,0.2-1.7,0.5-2.4c0.3-0.7,0.8-1.2,1.4-1.6c0.6-0.4,1.3-0.6,2.1-0.6c1.2,0,2.2,0.4,3,1.3
		c0.8,0.8,1.1,2,1.1,3.4v0.1c0,0.9-0.2,1.7-0.5,2.4s-0.8,1.2-1.4,1.6c-0.6,0.4-1.3,0.6-2.1,0.6c-1.2,0-2.2-0.4-3-1.3
		c-0.8-0.8-1.1-2-1.1-3.4V187.8z M782.5,188c0,1,0.2,1.8,0.7,2.4c0.5,0.6,1.1,0.9,1.9,0.9c0.8,0,1.4-0.3,1.9-0.9
		c0.5-0.6,0.7-1.5,0.7-2.6c0-1-0.2-1.8-0.7-2.4c-0.5-0.6-1.1-0.9-1.9-0.9c-0.8,0-1.4,0.3-1.8,0.9C782.7,186,782.5,186.9,782.5,188z"
		/>
	<path d="M792.5,183.4l0,1.1c0.7-0.9,1.6-1.3,2.7-1.3c1.9,0,2.9,1.1,2.9,3.2v5.9h-1.5v-5.9c0-0.6-0.2-1.1-0.4-1.4
		c-0.3-0.3-0.7-0.5-1.4-0.5c-0.5,0-0.9,0.1-1.3,0.4c-0.4,0.3-0.7,0.6-0.9,1v6.4H791v-9H792.5z"/>
	<path d="M806,192.4c-0.1-0.2-0.2-0.5-0.2-0.9c-0.7,0.7-1.6,1.1-2.6,1.1c-0.9,0-1.6-0.2-2.2-0.8s-0.9-1.1-0.9-1.9
		c0-0.9,0.4-1.7,1.1-2.2s1.7-0.8,3-0.8h1.5v-0.7c0-0.5-0.2-1-0.5-1.3c-0.3-0.3-0.8-0.5-1.4-0.5c-0.5,0-1,0.1-1.4,0.4
		c-0.4,0.3-0.6,0.6-0.6,1h-1.5c0-0.4,0.2-0.9,0.5-1.3c0.3-0.4,0.8-0.7,1.3-1c0.5-0.2,1.1-0.4,1.8-0.4c1,0,1.8,0.3,2.4,0.8
		c0.6,0.5,0.9,1.2,0.9,2.1v4.1c0,0.8,0.1,1.5,0.3,2v0.1H806z M803.4,191.2c0.5,0,0.9-0.1,1.4-0.4s0.7-0.6,0.9-1V188h-1.2
		c-1.9,0-2.8,0.5-2.8,1.7c0,0.5,0.2,0.9,0.5,1.1C802.5,191.1,802.9,191.2,803.4,191.2z"/>
	<path d="M811.8,181.2v2.2h1.7v1.2h-1.7v5.6c0,0.4,0.1,0.6,0.2,0.8s0.4,0.3,0.8,0.3c0.2,0,0.4,0,0.7-0.1v1.2
		c-0.4,0.1-0.8,0.2-1.2,0.2c-0.7,0-1.2-0.2-1.6-0.6c-0.3-0.4-0.5-1-0.5-1.8v-5.6h-1.6v-1.2h1.6v-2.2H811.8z"/>
	<path d="M819,192.5c-1.2,0-2.2-0.4-3-1.2s-1.1-1.9-1.1-3.2v-0.3c0-0.9,0.2-1.7,0.5-2.4c0.3-0.7,0.8-1.2,1.4-1.6s1.3-0.6,2-0.6
		c1.2,0,2.1,0.4,2.7,1.2c0.6,0.8,1,1.9,1,3.3v0.6h-6.1c0,0.9,0.3,1.6,0.8,2.1s1.1,0.8,1.9,0.8c0.5,0,1-0.1,1.4-0.3
		c0.4-0.2,0.7-0.5,1-0.9l0.9,0.7C821.6,192,820.5,192.5,819,192.5z M818.8,184.5c-0.6,0-1.1,0.2-1.6,0.7s-0.7,1.1-0.8,1.9h4.5v-0.1
		c0-0.8-0.3-1.4-0.6-1.8S819.4,184.5,818.8,184.5z"/>
</g>
<g class="st2">
	<path d="M687.6,201.4c0-0.2,0.1-0.5,0.2-0.6c0.2-0.2,0.4-0.3,0.7-0.3s0.5,0.1,0.7,0.3c0.2,0.2,0.2,0.4,0.2,0.6
		c0,0.2-0.1,0.5-0.2,0.6c-0.2,0.2-0.4,0.2-0.7,0.2s-0.5-0.1-0.7-0.2S687.6,201.7,687.6,201.4z M689.2,212.8h-1.5v-9h1.5V212.8z"/>
	<path d="M693.1,203.8l0,1.1c0.7-0.9,1.6-1.3,2.7-1.3c1.9,0,2.9,1.1,2.9,3.2v5.9h-1.5v-5.9c0-0.6-0.2-1.1-0.4-1.4
		c-0.3-0.3-0.7-0.5-1.4-0.5c-0.5,0-0.9,0.1-1.3,0.4c-0.4,0.3-0.7,0.6-0.9,1v6.4h-1.5v-9H693.1z"/>
	<path d="M704.7,211.7c0.5,0,1-0.2,1.4-0.5c0.4-0.3,0.6-0.7,0.7-1.2h1.5c0,0.5-0.2,1-0.5,1.5c-0.3,0.5-0.8,0.8-1.3,1.1
		c-0.5,0.3-1.1,0.4-1.7,0.4c-1.2,0-2.2-0.4-2.9-1.2c-0.7-0.8-1.1-1.9-1.1-3.3v-0.3c0-0.9,0.2-1.7,0.5-2.3c0.3-0.7,0.8-1.2,1.4-1.6
		c0.6-0.4,1.3-0.6,2.1-0.6c1,0,1.8,0.3,2.5,0.9c0.7,0.6,1,1.4,1.1,2.3h-1.5c0-0.6-0.3-1.1-0.7-1.4c-0.4-0.4-0.9-0.6-1.5-0.6
		c-0.8,0-1.4,0.3-1.8,0.8c-0.4,0.6-0.6,1.4-0.6,2.4v0.3c0,1,0.2,1.8,0.6,2.4C703.3,211.4,703.9,211.7,704.7,211.7z"/>
	<path d="M711.6,212.8h-1.5V200h1.5V212.8z"/>
	<path d="M719.6,211.9c-0.6,0.7-1.5,1.1-2.6,1.1c-1,0-1.7-0.3-2.2-0.8c-0.5-0.6-0.8-1.4-0.8-2.5v-5.8h1.5v5.8c0,1.4,0.6,2,1.7,2
		c1.2,0,2-0.4,2.3-1.3v-6.5h1.5v9h-1.5L719.6,211.9z"/>
	<path d="M723.1,208.2c0-1.4,0.3-2.5,1-3.3c0.7-0.8,1.5-1.3,2.6-1.3c1.1,0,1.9,0.4,2.5,1.1V200h1.5v12.8h-1.4l-0.1-1
		c-0.6,0.8-1.5,1.1-2.6,1.1c-1,0-1.9-0.4-2.5-1.3c-0.7-0.9-1-2-1-3.3V208.2z M724.6,208.4c0,1,0.2,1.8,0.6,2.4
		c0.4,0.6,1,0.9,1.7,0.9c1,0,1.7-0.4,2.1-1.3v-4.1c-0.5-0.8-1.2-1.3-2.1-1.3c-0.8,0-1.3,0.3-1.8,0.9
		C724.8,206.4,724.6,207.2,724.6,208.4z"/>
	<path d="M733.1,201.4c0-0.2,0.1-0.5,0.2-0.6c0.2-0.2,0.4-0.3,0.7-0.3s0.5,0.1,0.7,0.3c0.2,0.2,0.2,0.4,0.2,0.6
		c0,0.2-0.1,0.5-0.2,0.6c-0.2,0.2-0.4,0.2-0.7,0.2s-0.5-0.1-0.7-0.2S733.1,201.7,733.1,201.4z M734.7,212.8h-1.5v-9h1.5V212.8z"/>
	<path d="M738.6,203.8l0,1.1c0.7-0.9,1.6-1.3,2.7-1.3c1.9,0,2.9,1.1,2.9,3.2v5.9h-1.5v-5.9c0-0.6-0.2-1.1-0.4-1.4
		c-0.3-0.3-0.7-0.5-1.4-0.5c-0.5,0-0.9,0.1-1.3,0.4c-0.4,0.3-0.7,0.6-0.9,1v6.4h-1.5v-9H738.6z"/>
	<path d="M746.2,208.2c0-1.4,0.3-2.5,1-3.3s1.5-1.2,2.6-1.2c1.1,0,2,0.4,2.6,1.2l0.1-1h1.4v8.8c0,1.2-0.3,2.1-1,2.7
		c-0.7,0.7-1.6,1-2.8,1c-0.6,0-1.3-0.1-1.9-0.4c-0.6-0.3-1.1-0.7-1.4-1.1l0.8-0.9c0.7,0.8,1.5,1.2,2.4,1.2c0.7,0,1.3-0.2,1.7-0.6
		c0.4-0.4,0.6-1,0.6-1.8v-0.8c-0.6,0.7-1.5,1.1-2.5,1.1c-1.1,0-1.9-0.4-2.6-1.3C746.5,210.8,746.2,209.7,746.2,208.2z M747.7,208.4
		c0,1,0.2,1.8,0.6,2.4s1,0.9,1.7,0.9c1,0,1.7-0.4,2.1-1.3v-4.1c-0.5-0.9-1.2-1.3-2.1-1.3c-0.7,0-1.3,0.3-1.8,0.9
		C747.9,206.4,747.7,207.2,747.7,208.4z"/>
	<path d="M764.5,210.7l3.5-10h1.7l-4.5,12.1h-1.4l-4.5-12.1h1.7L764.5,210.7z"/>
	<path d="M774.5,212.9c-1.2,0-2.2-0.4-3-1.2s-1.1-1.9-1.1-3.2v-0.3c0-0.9,0.2-1.7,0.5-2.4c0.3-0.7,0.8-1.2,1.4-1.6s1.3-0.6,2-0.6
		c1.2,0,2.1,0.4,2.7,1.2c0.6,0.8,1,1.9,1,3.3v0.6h-6.1c0,0.9,0.3,1.6,0.8,2.1c0.5,0.5,1.1,0.8,1.9,0.8c0.5,0,1-0.1,1.4-0.3
		c0.4-0.2,0.7-0.5,1-0.9l0.9,0.7C777.1,212.4,776,212.9,774.5,212.9z M774.3,204.9c-0.6,0-1.1,0.2-1.6,0.7c-0.4,0.5-0.7,1.1-0.8,1.9
		h4.5v-0.1c0-0.8-0.3-1.4-0.6-1.8C775.4,205.1,774.9,204.9,774.3,204.9z"/>
	<path d="M781.2,203.8l0,1.1c0.7-0.9,1.6-1.3,2.7-1.3c1.9,0,2.9,1.1,2.9,3.2v5.9h-1.5v-5.9c0-0.6-0.2-1.1-0.4-1.4
		c-0.3-0.3-0.7-0.5-1.4-0.5c-0.5,0-0.9,0.1-1.3,0.4c-0.4,0.3-0.7,0.6-0.9,1v6.4h-1.5v-9H781.2z"/>
	<path d="M790.6,203.8l0,1c0.7-0.8,1.5-1.2,2.7-1.2c1.3,0,2.1,0.5,2.6,1.4c0.3-0.4,0.7-0.8,1.2-1s1-0.4,1.7-0.4c2,0,3,1,3,3.1v6
		h-1.5v-5.9c0-0.6-0.1-1.1-0.4-1.4s-0.8-0.5-1.5-0.5c-0.6,0-1,0.2-1.4,0.5c-0.4,0.3-0.6,0.8-0.7,1.4v6h-1.5v-5.9c0-1.3-0.6-2-1.9-2
		c-1,0-1.7,0.4-2.1,1.3v6.6h-1.5v-9H790.6z"/>
	<path d="M803.6,208.2c0-0.9,0.2-1.7,0.5-2.4c0.3-0.7,0.8-1.2,1.4-1.6c0.6-0.4,1.3-0.6,2.1-0.6c1.2,0,2.2,0.4,3,1.3
		c0.8,0.8,1.1,2,1.1,3.4v0.1c0,0.9-0.2,1.7-0.5,2.4s-0.8,1.2-1.4,1.6c-0.6,0.4-1.3,0.6-2.1,0.6c-1.2,0-2.2-0.4-3-1.3
		c-0.8-0.8-1.1-2-1.1-3.4V208.2z M805.2,208.4c0,1,0.2,1.8,0.7,2.4s1.1,0.9,1.9,0.9c0.8,0,1.4-0.3,1.9-0.9s0.7-1.5,0.7-2.6
		c0-1-0.2-1.8-0.7-2.4s-1.1-0.9-1.9-0.9c-0.8,0-1.4,0.3-1.8,0.9C805.4,206.4,805.2,207.3,805.2,208.4z"/>
	<path d="M823.5,212.8c-0.1-0.2-0.2-0.5-0.2-0.9c-0.7,0.7-1.6,1.1-2.6,1.1c-0.9,0-1.6-0.2-2.2-0.8s-0.9-1.1-0.9-1.9
		c0-0.9,0.4-1.7,1.1-2.2s1.7-0.8,3-0.8h1.5v-0.7c0-0.5-0.2-1-0.5-1.3c-0.3-0.3-0.8-0.5-1.4-0.5c-0.5,0-1,0.1-1.4,0.4
		c-0.4,0.3-0.6,0.6-0.6,1h-1.5c0-0.4,0.2-0.9,0.5-1.3s0.8-0.7,1.3-1s1.1-0.4,1.8-0.4c1,0,1.8,0.3,2.4,0.8s0.9,1.2,0.9,2.1v4.1
		c0,0.8,0.1,1.5,0.3,2v0.1H823.5z M820.9,211.6c0.5,0,0.9-0.1,1.4-0.4s0.7-0.6,0.9-1v-1.8H822c-1.9,0-2.8,0.5-2.8,1.7
		c0,0.5,0.2,0.9,0.5,1.1S820.4,211.6,820.9,211.6z"/>
	<path d="M828.6,203.8l0,1.1c0.7-0.9,1.6-1.3,2.7-1.3c1.9,0,2.9,1.1,2.9,3.2v5.9h-1.5v-5.9c0-0.6-0.2-1.1-0.4-1.4
		c-0.3-0.3-0.7-0.5-1.4-0.5c-0.5,0-0.9,0.1-1.3,0.4c-0.4,0.3-0.7,0.6-0.9,1v6.4h-1.5v-9H828.6z"/>
	<path d="M836.2,208.2c0-1.4,0.3-2.5,1-3.3c0.7-0.8,1.5-1.3,2.6-1.3c1.1,0,1.9,0.4,2.5,1.1V200h1.5v12.8h-1.4l-0.1-1
		c-0.6,0.8-1.5,1.1-2.6,1.1c-1,0-1.9-0.4-2.5-1.3c-0.7-0.9-1-2-1-3.3V208.2z M837.7,208.4c0,1,0.2,1.8,0.6,2.4
		c0.4,0.6,1,0.9,1.7,0.9c1,0,1.7-0.4,2.1-1.3v-4.1c-0.5-0.8-1.2-1.3-2.1-1.3c-0.8,0-1.3,0.3-1.8,0.9S837.7,207.2,837.7,208.4z"/>
</g>
<g class="st2">
	<path d="M710.5,230h-5.1l-1.1,3.2h-1.6l4.6-12.1h1.4l4.6,12.1h-1.6L710.5,230z M706,228.7h4.1l-2.1-5.7L706,228.7z"/>
	<path d="M716.2,224.2l0,1c0.7-0.8,1.5-1.2,2.7-1.2c1.3,0,2.1,0.5,2.6,1.4c0.3-0.4,0.7-0.8,1.2-1s1-0.4,1.7-0.4c2,0,3,1,3,3.1v6
		h-1.5v-5.9c0-0.6-0.1-1.1-0.4-1.4c-0.3-0.3-0.8-0.5-1.5-0.5c-0.6,0-1,0.2-1.4,0.5c-0.4,0.3-0.6,0.8-0.7,1.4v6h-1.5v-5.9
		c0-1.3-0.6-2-1.9-2c-1,0-1.7,0.4-2.1,1.3v6.6h-1.5v-9H716.2z"/>
	<path d="M735.2,233.2c-0.1-0.2-0.2-0.5-0.2-0.9c-0.7,0.7-1.6,1.1-2.6,1.1c-0.9,0-1.6-0.2-2.2-0.8c-0.6-0.5-0.9-1.1-0.9-1.9
		c0-0.9,0.4-1.7,1.1-2.2c0.7-0.5,1.7-0.8,3-0.8h1.5V227c0-0.5-0.2-1-0.5-1.3c-0.3-0.3-0.8-0.5-1.4-0.5c-0.5,0-1,0.1-1.4,0.4
		c-0.4,0.3-0.6,0.6-0.6,1h-1.5c0-0.4,0.2-0.9,0.5-1.3s0.8-0.7,1.3-1s1.1-0.4,1.8-0.4c1,0,1.8,0.3,2.4,0.8c0.6,0.5,0.9,1.2,0.9,2.1
		v4.1c0,0.8,0.1,1.5,0.3,2v0.1H735.2z M732.6,232c0.5,0,0.9-0.1,1.4-0.4s0.7-0.6,0.9-1v-1.8h-1.2c-1.9,0-2.8,0.5-2.8,1.7
		c0,0.5,0.2,0.9,0.5,1.1C731.7,231.9,732.1,232,732.6,232z"/>
	<path d="M740.3,231.9h5.3v1.3h-7.1V232l5-6.6h-4.9v-1.3h6.8v1.1L740.3,231.9z"/>
	<path d="M746.7,228.6c0-0.9,0.2-1.7,0.5-2.4c0.3-0.7,0.8-1.2,1.4-1.6c0.6-0.4,1.3-0.6,2.1-0.6c1.2,0,2.2,0.4,3,1.3
		c0.8,0.8,1.1,2,1.1,3.4v0.1c0,0.9-0.2,1.7-0.5,2.4s-0.8,1.2-1.4,1.6c-0.6,0.4-1.3,0.6-2.1,0.6c-1.2,0-2.2-0.4-3-1.3
		c-0.8-0.8-1.1-2-1.1-3.4V228.6z M748.3,228.8c0,1,0.2,1.8,0.7,2.4c0.5,0.6,1.1,0.9,1.9,0.9c0.8,0,1.4-0.3,1.9-0.9
		c0.5-0.6,0.7-1.5,0.7-2.6c0-1-0.2-1.8-0.7-2.4c-0.5-0.6-1.1-0.9-1.9-0.9c-0.8,0-1.4,0.3-1.8,0.9
		C748.5,226.8,748.3,227.7,748.3,228.8z"/>
	<path d="M758.3,224.2l0,1.1c0.7-0.9,1.6-1.3,2.7-1.3c1.9,0,2.9,1.1,2.9,3.2v5.9h-1.5v-5.9c0-0.6-0.2-1.1-0.4-1.4
		c-0.3-0.3-0.7-0.5-1.4-0.5c-0.5,0-0.9,0.1-1.3,0.4c-0.4,0.3-0.7,0.6-0.9,1v6.4h-1.5v-9H758.3z"/>
	<path d="M773.3,229.4l0.2,1.6l0.3-1.4l2.4-8.4h1.3l2.3,8.4l0.3,1.5l0.3-1.6l1.9-8.3h1.6l-2.9,12.1h-1.5l-2.5-8.8l-0.2-0.9l-0.2,0.9
		l-2.6,8.8h-1.5l-2.9-12.1h1.6L773.3,229.4z"/>
	<path d="M785.5,221.8c0-0.2,0.1-0.5,0.2-0.6c0.2-0.2,0.4-0.3,0.7-0.3s0.5,0.1,0.7,0.3c0.2,0.2,0.2,0.4,0.2,0.6
		c0,0.2-0.1,0.5-0.2,0.6c-0.2,0.2-0.4,0.2-0.7,0.2s-0.5-0.1-0.7-0.2C785.6,222.3,785.5,222.1,785.5,221.8z M787.2,233.2h-1.5v-9h1.5
		V233.2z"/>
	<path d="M794.9,230.8c0-0.4-0.2-0.7-0.5-1c-0.3-0.2-0.9-0.4-1.6-0.6s-1.4-0.4-1.9-0.6c-0.5-0.2-0.8-0.5-1-0.8
		c-0.2-0.3-0.3-0.7-0.3-1.1c0-0.7,0.3-1.4,0.9-1.9c0.6-0.5,1.4-0.8,2.4-0.8c1,0,1.8,0.3,2.5,0.8c0.6,0.5,1,1.2,1,2h-1.5
		c0-0.4-0.2-0.8-0.5-1.1c-0.4-0.3-0.8-0.5-1.3-0.5c-0.6,0-1,0.1-1.3,0.4s-0.5,0.6-0.5,1c0,0.4,0.1,0.7,0.4,0.8
		c0.3,0.2,0.8,0.4,1.6,0.5c0.8,0.2,1.4,0.4,1.9,0.6c0.5,0.2,0.8,0.5,1.1,0.9c0.2,0.3,0.3,0.7,0.3,1.2c0,0.8-0.3,1.4-1,1.9
		c-0.6,0.5-1.5,0.7-2.5,0.7c-0.7,0-1.4-0.1-1.9-0.4c-0.6-0.3-1-0.6-1.3-1.1c-0.3-0.5-0.5-1-0.5-1.5h1.5c0,0.5,0.2,0.9,0.6,1.2
		s0.9,0.5,1.5,0.5c0.6,0,1-0.1,1.4-0.4S794.9,231.2,794.9,230.8z"/>
	<path d="M799.9,225.3c0.7-0.8,1.6-1.3,2.7-1.3c1.9,0,2.9,1.1,2.9,3.2v5.9h-1.5v-5.9c0-0.6-0.2-1.1-0.4-1.4
		c-0.3-0.3-0.7-0.5-1.4-0.5c-0.5,0-0.9,0.1-1.3,0.4c-0.4,0.3-0.7,0.6-0.9,1v6.4h-1.5v-12.8h1.5V225.3z"/>
	<path d="M809.4,233.2h-1.5v-12.8h1.5V233.2z"/>
	<path d="M811.9,221.8c0-0.2,0.1-0.5,0.2-0.6c0.2-0.2,0.4-0.3,0.7-0.3s0.5,0.1,0.7,0.3c0.2,0.2,0.2,0.4,0.2,0.6
		c0,0.2-0.1,0.5-0.2,0.6s-0.4,0.2-0.7,0.2s-0.5-0.1-0.7-0.2S811.9,222.1,811.9,221.8z M813.6,233.2H812v-9h1.5V233.2z"/>
	<path d="M821.2,230.8c0-0.4-0.2-0.7-0.5-1s-0.9-0.4-1.6-0.6s-1.4-0.4-1.9-0.6c-0.5-0.2-0.8-0.5-1-0.8c-0.2-0.3-0.3-0.7-0.3-1.1
		c0-0.7,0.3-1.4,0.9-1.9c0.6-0.5,1.4-0.8,2.4-0.8c1,0,1.8,0.3,2.5,0.8c0.6,0.5,1,1.2,1,2h-1.5c0-0.4-0.2-0.8-0.5-1.1
		c-0.4-0.3-0.8-0.5-1.3-0.5c-0.6,0-1,0.1-1.3,0.4s-0.5,0.6-0.5,1c0,0.4,0.1,0.7,0.4,0.8s0.8,0.4,1.6,0.5c0.8,0.2,1.4,0.4,1.9,0.6
		c0.5,0.2,0.8,0.5,1.1,0.9s0.3,0.7,0.3,1.2c0,0.8-0.3,1.4-1,1.9c-0.6,0.5-1.5,0.7-2.5,0.7c-0.7,0-1.4-0.1-1.9-0.4s-1-0.6-1.3-1.1
		c-0.3-0.5-0.5-1-0.5-1.5h1.5c0,0.5,0.2,0.9,0.6,1.2s0.9,0.5,1.5,0.5c0.6,0,1-0.1,1.4-0.4S821.2,231.2,821.2,230.8z"/>
	<path d="M826.9,222v2.2h1.7v1.2h-1.7v5.6c0,0.4,0.1,0.6,0.2,0.8s0.4,0.3,0.8,0.3c0.2,0,0.4,0,0.7-0.1v1.2c-0.4,0.1-0.8,0.2-1.2,0.2
		c-0.7,0-1.2-0.2-1.6-0.6c-0.3-0.4-0.5-1-0.5-1.8v-5.6h-1.6v-1.2h1.6V222H826.9z"/>
</g>
<g>
	<g transform="translate(19.09 19.09)">
		<path class="st0" d="M569.2,75.3l-25.7-25.7c-1.8-1.8-4.6-2.2-6.9-1.2l-3.2-3.2c12-13.5,11.6-34.2-1.4-47.1
			c-6.5-6.5-15.1-10.1-24.3-10.1c-9.2,0-17.8,3.6-24.3,10.1c-6.5,6.5-10.1,15.1-10.1,24.3s3.6,17.8,10.1,24.3
			c6.5,6.5,15.1,10.1,24.3,10.1l0,0c8.5,0,16.5-3.1,22.8-8.7l3.2,3.2c-0.4,0.8-0.6,1.7-0.6,2.6c0,1.6,0.6,3.1,1.8,4.3l25.7,25.7
			c1.1,1.1,2.7,1.8,4.3,1.8s3.1-0.6,4.3-1.8c1.1-1.1,1.8-2.7,1.8-4.3C571,78,570.3,76.4,569.2,75.3L569.2,75.3z M507.7,48.7
			L507.7,48.7c-7,0-13.6-2.7-18.6-7.7c-10.2-10.2-10.2-26.9,0-37.2c5-5,11.6-7.7,18.6-7.7s13.6,2.7,18.6,7.7
			c10.2,10.2,10.2,26.9,0,37.2C521.3,46,514.7,48.7,507.7,48.7L507.7,48.7z"/>
		<path class="st0" d="M523.5,6.7c-4.2-4.2-9.8-6.5-15.7-6.5c-5.9,0-11.5,2.3-15.7,6.5c-8.7,8.7-8.7,22.8,0,31.4
			c4.2,4.2,9.8,6.5,15.7,6.5c5.9,0,11.5-2.3,15.7-6.5C532.1,29.5,532.1,15.4,523.5,6.7L523.5,6.7z M520.6,12.4
			c-0.4,0.4-0.9,0.6-1.4,0.6s-1-0.2-1.4-0.6c-2.7-2.7-6.2-4.1-10-4.1c-3.8,0-7.3,1.5-10,4.1c-0.8,0.8-2.1,0.8-2.9,0
			c-0.8-0.8-0.8-2.1,0-2.9c3.4-3.4,8-5.3,12.9-5.3c4.9,0,9.4,1.9,12.9,5.3C521.4,10.4,521.4,11.6,520.6,12.4L520.6,12.4z"/>
	</g>
</g>
<g id="noun_Care_for_Animals_1568396" transform="translate(-4 -4)">
	<g transform="translate(4 4)">
		<path id="Path_19" class="st0" d="M801.8,59.1l-3.9,0.5l-15,3.7c-2.5,0.7-4.6,2.2-6.1,4.2c-0.2,0.2-0.4,0.4-0.7,0.6l-2.3,1
			c-2.5,1.1-5.2,2-7.9,2.7l-13.5,3.3c-1.5,0.4-3-0.4-3.5-1.9c-0.3-1.5,0.5-2.9,2-3.3l17.9-4.5c1.2-0.3,2.2-1.2,2.5-2.4
			c0.4-1.7-0.7-3.4-2.4-3.8c-0.2,0-0.4-0.1-0.6-0.1h-17c-1.6,0-3.2,0.2-4.8,0.6l-2.5,0.6c-4.2,1-7.9,3.4-10.5,6.8l-1.7,2.2
			c-3.6,4.4-5.5,9.9-5.5,15.6v9.6c0,2.3,1.9,4.2,4.2,4.2h9c2,0,3.7-1.2,4.5-3c0.9-2,2.7-3.5,4.8-4l17.2-4.3c7.4-1.8,14.5-5,20.8-9.3
			l17-11.7c1-0.7,1.6-1.8,1.7-3v-0.5C805.5,60.8,803.8,59.1,801.8,59.1L801.8,59.1L801.8,59.1z"/>
		<path id="Path_20" class="st0" d="M758.5,41.7c0,7.8,6.3,11,14,11s14-3.3,14-11c0.4-7.7-5.6-14.3-13.3-14.7
			c-7.7-0.4-14.3,5.6-14.7,13.3C758.5,40.8,758.5,41.2,758.5,41.7L758.5,41.7L758.5,41.7z"/>
		<path id="Path_21" class="st0" d="M757,16.5c-3.2,0-5.8,4.1-5.8,7.3s2.6,4.3,5.8,4.3s5.8-1.1,5.8-4.3S760.2,16.5,757,16.5z"/>
		<path id="Path_22" class="st0" d="M787.9,28.1c3.2,0,5.8-1.1,5.8-4.3s-2.6-7.3-5.8-7.3c-3.2,0-5.8,4.1-5.8,7.3
			S784.7,28.1,787.9,28.1z"/>
		<path id="Path_23" class="st0" d="M778.9,15c0-3.7-2.9-8.7-6.5-8.7S766,11.3,766,15s2.9,5,6.5,5S778.9,18.8,778.9,15z"/>
	</g>
</g>
</svg>
