<?xml version="1.0" encoding="utf-8"?>
<!-- Generator: Adobe Illustrator 23.1.1, SVG Export Plug-In . SVG Version: 6.00 Build 0)  -->
<svg version="1.1" id="Layer_1" xmlns="http://www.w3.org/2000/svg" xmlns:xlink="http://www.w3.org/1999/xlink" x="0px" y="0px"
	 viewBox="0 0 857.98 241.06" style="enable-background:new 0 0 857.98 241.06;" xml:space="preserve">
<style type="text/css">
	.st0{fill:#162A65;}
	.st1{fill:none;stroke:#FFFFFF;stroke-width:4;stroke-linecap:round;stroke-miterlimit:10;}
	.st2{fill:#F5821F;}
	.st3{font-family:'Roboto-Bold';}
	.st4{font-size:24px;}
	.st5{fill:none;}
	.st6{font-family:'Roboto-Regular';}
	.st7{font-size:17px;}
	.st8{fill-rule:evenodd;clip-rule:evenodd;fill:#162A65;}
</style>
<g>
	<circle class="st0" cx="91.09" cy="56.4" r="49.24"/>
	<line class="st1" x1="66.59" y1="38.09" x2="114.96" y2="38.09"/>
	<line class="st1" x1="66.59" y1="56.4" x2="114.96" y2="56.4"/>
	<line class="st1" x1="66.59" y1="74.71" x2="114.96" y2="74.71"/>
</g>
<text transform="matrix(1 0 0 1 16.2748 143.6807)" class="st2 st3 st4">NAVIGATION</text>
<rect x="21.01" y="159.23" class="st5" width="140.34" height="79.83"/>
<text transform="matrix(1 0 0 1 38.9603 171.977)"><tspan x="0" y="0" class="st6 st7">Simpler, more </tspan><tspan x="3.85" y="20.4" class="st6 st7">recognizable </tspan><tspan x="12.95" y="40.8" class="st6 st7">navigation</tspan></text>
<text transform="matrix(1 0 0 1 255.0029 143.6807)" class="st2 st3 st4">KEY LINKS</text>
<rect x="232.05" y="159.23" class="st5" width="167.95" height="110.44"/>
<text transform="matrix(1 0 0 1 263.9976 171.977)"><tspan x="0" y="0" class="st6 st7">Make ADOPT, </tspan><tspan x="1.22" y="20.4" class="st6 st7">DONATE, and </tspan><tspan x="-14.95" y="40.8" class="st6 st7">VOLUNTEER links </tspan><tspan x="2.74" y="61.2" class="st6 st7">easier to find</tspan></text>
<g>
	<g>
		<path class="st8" d="M361.22,83.27v-8.96h-62.67V20.59h8.95L294.07,7.16l-13.43,13.43h8.95v8.95h-17.9v8.96h17.9v35.81
			c0,4.92,4.03,8.96,8.95,8.96h35.81v8.95h-8.95l13.43,13.42l13.42-13.43h-8.95v-8.95H361.22L361.22,83.27z M307.5,38.5h26.86v26.86
			h8.95V38.5c0-4.93-4.03-8.96-8.95-8.96H307.5V38.5L307.5,38.5z"/>
	</g>
</g>
<text transform="matrix(1 0 0 1 491.9073 143.6807)" class="st2 st3 st4">DETAILS</text>
<rect x="457.53" y="159.23" class="st5" width="167.95" height="79.83"/>
<text transform="matrix(1 0 0 1 462.8981 171.977)"><tspan x="0" y="0" class="st6 st7">Include details about </tspan><tspan x="43.55" y="20.4" class="st6 st7">volunteer </tspan><tspan x="12.35" y="40.8" class="st6 st7">opportunities and </tspan><tspan x="50.24" y="61.2" class="st6 st7">options</tspan></text>
<text transform="matrix(1 0 0 1 695.4113 143.6807)" class="st2 st3 st4">DONATIONS</text>
<rect x="681.91" y="159.23" class="st5" width="167.95" height="79.83"/>
<text transform="matrix(1 0 0 1 697.8781 171.977)"><tspan x="0" y="0" class="st6 st7">Provide additional </tspan><tspan x="10.52" y="20.4" class="st6 st7">ways to donate </tspan><tspan x="-11.48" y="40.8" class="st6 st7">including Venmo and </tspan><tspan x="4.58" y="61.2" class="st6 st7">Amazon Wishlist</tspan></text>
<g>
	<g transform="translate(19.09 19.09)">
		<path class="st0" d="M569.18,75.3l-25.73-25.72c-1.79-1.79-4.62-2.16-6.86-1.15l-3.21-3.21c11.98-13.47,11.56-34.17-1.36-47.09
			c-6.49-6.49-15.12-10.06-24.29-10.06c-9.18,0-17.81,3.58-24.29,10.06c-6.49,6.49-10.06,15.12-10.06,24.29s3.58,17.81,10.06,24.29
			c6.49,6.49,15.12,10.06,24.29,10.06h0c8.5,0,16.5-3.1,22.8-8.7l3.19,3.19c-0.38,0.8-0.61,1.68-0.61,2.6
			c0,1.62,0.63,3.14,1.78,4.29l25.73,25.72c1.14,1.14,2.67,1.78,4.29,1.78c1.62,0,3.14-0.63,4.29-1.77
			c1.14-1.14,1.78-2.67,1.78-4.29C570.95,77.97,570.32,76.45,569.18,75.3L569.18,75.3z M507.73,48.7
			C507.73,48.7,507.73,48.7,507.73,48.7c-7.02,0-13.62-2.73-18.58-7.7c-10.24-10.24-10.24-26.91,0-37.16
			c4.96-4.96,11.56-7.7,18.58-7.7c7.02,0,13.62,2.73,18.58,7.7c10.24,10.24,10.24,26.91,0,37.16
			C521.34,45.97,514.74,48.7,507.73,48.7L507.73,48.7z"/>
		<path class="st0" d="M523.45,6.71c-4.2-4.2-9.78-6.51-15.72-6.51c-5.94,0-11.52,2.31-15.72,6.51c-8.67,8.67-8.67,22.77,0,31.44
			c4.2,4.2,9.78,6.51,15.72,6.51c5.94,0,11.52-2.31,15.72-6.51C532.11,29.48,532.11,15.37,523.45,6.71L523.45,6.71z M520.59,12.42
			c-0.39,0.39-0.91,0.59-1.43,0.59s-1.03-0.2-1.43-0.59c-2.67-2.67-6.23-4.15-10-4.15c-3.78,0-7.33,1.47-10,4.15
			c-0.79,0.79-2.07,0.79-2.86,0c-0.79-0.79-0.79-2.07,0-2.86c3.44-3.44,8.01-5.33,12.86-5.33c4.86,0,9.42,1.89,12.86,5.33
			C521.38,10.35,521.38,11.63,520.59,12.42L520.59,12.42z"/>
	</g>
</g>
<g id="noun_Care_for_Animals_1568396" transform="translate(-4 -4)">
	<g transform="translate(4 4)">
		<path id="Path_19" class="st0" d="M801.79,59.11l-3.94,0.48l-14.97,3.74c-2.46,0.68-4.62,2.17-6.13,4.24
			c-0.18,0.24-0.42,0.44-0.69,0.58l-2.28,0.99c-2.55,1.11-5.2,2.01-7.9,2.69l-13.45,3.3c-1.49,0.4-3.02-0.45-3.46-1.93
			c-0.35-1.46,0.53-2.92,1.98-3.3l17.94-4.5c1.24-0.26,2.22-1.2,2.52-2.43c0.37-1.72-0.72-3.41-2.43-3.79
			c-0.2-0.04-0.41-0.07-0.62-0.07h-17.01c-1.6,0-3.2,0.19-4.75,0.58l-2.54,0.64c-4.16,1.04-7.87,3.42-10.55,6.78l-1.65,2.15
			c-3.56,4.4-5.52,9.89-5.54,15.55v9.64c0,2.34,1.9,4.24,4.24,4.24h8.95c1.95-0.03,3.7-1.21,4.47-3c0.91-2,2.67-3.47,4.8-4.01
			l17.24-4.32c7.42-1.85,14.45-5.01,20.76-9.33L803.8,66.3c1.02-0.67,1.64-1.8,1.65-3.02v-0.51
			C805.45,60.75,803.82,59.11,801.79,59.11C801.79,59.11,801.79,59.11,801.79,59.11L801.79,59.11z"/>
		<path id="Path_20" class="st0" d="M758.45,41.7c0,7.75,6.28,11.03,14.03,11.03c7.75,0,14.03-3.3,14.03-11.03
			c0.38-7.74-5.59-14.32-13.33-14.7c-7.74-0.38-14.32,5.59-14.7,13.33c-0.02,0.45-0.02,0.91,0,1.36H758.45z"/>
		<path id="Path_21" class="st0" d="M757.01,16.46c-3.2,0-5.8,4.12-5.8,7.34s2.61,4.27,5.8,4.27s5.8-1.07,5.8-4.27
			S760.21,16.46,757.01,16.46z"/>
		<path id="Path_22" class="st0" d="M787.94,28.06c3.2,0,5.8-1.07,5.8-4.27s-2.61-7.34-5.8-7.34c-3.2,0-5.8,4.12-5.8,7.34
			S784.74,28.06,787.94,28.06z"/>
		<path id="Path_23" class="st0" d="M778.94,15.02c0-3.73-2.89-8.67-6.46-8.67s-6.46,4.95-6.46,8.67s2.9,4.95,6.46,4.95
			S778.94,18.78,778.94,15.02z"/>
	</g>
</g>
</svg>
