<?xml version="1.0" encoding="utf-8"?>
<!-- Generator: Adobe Illustrator 23.1.1, SVG Export Plug-In . SVG Version: 6.00 Build 0)  -->
<svg version="1.1" id="Layer_1" xmlns="http://www.w3.org/2000/svg" xmlns:xlink="http://www.w3.org/1999/xlink" x="0px" y="0px"
	 viewBox="0 0 547.97 385.81" style="enable-background:new 0 0 547.97 385.81;" xml:space="preserve">
<style type="text/css">
	.st0{fill:#D7690A;}
	.st1{fill:#FFFFFF;}
	.st2{font-family:'Arial-Black';}
	.st3{font-size:73.0747px;}
	.st4{fill:none;}
	.st5{font-family:'SourceSansPro-Regular';}
	.st6{font-size:11px;}
	.st7{fill:#4F6CC2;}
	.st8{fill:#F5821F;}
	.st9{fill:#162A65;}
	.st10{fill:#F2F2F2;}
	.st11{font-size:73.0753px;}
	.st12{fill:#3954A5;}
	.st13{fill:#232323;}
	.st14{fill:#3D3D3D;}
	.st15{fill:#666666;}
</style>
<g>
	
		<rect x="211.2" y="-97.89" transform="matrix(6.123234e-17 -1 1 6.123234e-17 108.6771 401.0083)" class="st0" width="87.29" height="488.12"/>
	<g>
		<g>
			<circle class="st1" cx="499.07" cy="146.17" r="43.64"/>
		</g>
		<g>
			<path class="st0" d="M499.07,109.74c20.09,0,36.43,16.34,36.43,36.43s-16.34,36.43-36.43,36.43c-20.09,0-36.43-16.34-36.43-36.43
				S478.98,109.74,499.07,109.74 M499.07,105.61c-22.4,0-40.55,18.16-40.55,40.55s18.16,40.55,40.55,40.55
				c22.4,0,40.55-18.16,40.55-40.55S521.46,105.61,499.07,105.61L499.07,105.61z"/>
		</g>
		<g>
			<path class="st0" d="M504.23,132.78c0.8-0.9,1.8-1.39,2.95-1.73c1.79-0.53,3.55-1.2,5.32-1.81c0.09-0.03,0.2,0,0.35,0
				c0-0.59,0-1.17,0-1.71c1.18-1.23,1.18-1.23,2.26-1.66c0.39,1.03,0.47,2.07,0.08,3.11c-0.27,0.73-0.66,1.34-1.55,1.55
				c-0.61,0.15-1.16,0.55-1.75,0.81c-1.06,0.47-2.14,0.9-3.24,1.27c-0.36,0.12-0.67,0.43-1.11,0.72c0.41,0.21,0.73,0.35,1.03,0.52
				c1.13,0.66,2.15,1.35,2.48,2.79c0.2,0.84,0.86,1.5,1.61,2.04c1.37-0.23,2.55-0.9,3.69-1.68c0.46-0.32,0.91-0.66,1.39-0.95
				c0.15-0.09,0.37-0.08,0.75-0.16c-0.74,0.81-1.7,1.15-2.11,2.23c0.7-0.58,1.27-1.04,1.82-1.51c0.66-0.56,1.41-0.68,2.28-0.1
				c0.44,0.29,0.88,0.58,1.01,1.15c-0.6,0.86-1.2,1.73-1.89,2.73c-0.06,0.69,0.44,1.52,0.2,2.35c-0.22,0.73-0.63,1.41-0.98,2.16
				c0.32,0.44,0.92,0.31,1.39,0.46c0.99,0.31,2,0.51,2.96,0.94c0.32,0.14,0.38,0.4,0.58,0.62c-0.32,0.66-1.06,0.66-1.59,0.97
				c-1.2-0.02-2.43,0.16-3.51-0.62c-0.49-0.35-0.64-0.58-0.51-1.18c0.03-0.16,0.01-0.32,0.01-0.53c-0.4,0.12-0.7,0.21-1.06,0.32
				c0.38,0.84,0.22,1.73,0.2,2.6c-0.01,0.65-0.92,1.43-1.67,1.48c-0.35,0.02-0.71,0.1-1.1-0.12c-0.42-0.24-0.96-0.1-1.46-0.25
				c-1.09-0.34-1.12-0.27-1.85-1c0.07-0.15,0.23-0.32,0.22-0.49c-0.05-0.62,0.48-0.73,0.84-0.83c0.61-0.16,1.26-0.23,1.89-0.22
				c0.68,0.02,1.28-0.38,1.26-1.23c-0.41-0.12-0.84-0.24-1.27-0.38c-0.55-0.18-1.09-0.41-1.64-0.58c-0.6-0.19-1.2-0.42-1.85-0.34
				c-0.16,0.02-0.32,0.06-0.48,0.11c-0.44,0.13-0.87,0.27-1.33,0.34c-0.42,0.06-0.83,0.22-1.28,0.18c-0.47-0.04-0.88,0.31-1.38,0.22
				c-0.44-0.07-0.92,0.05-1.36-0.03c-0.94-0.18-1.9-0.19-2.83-0.49c-0.8-0.26-1.62-0.55-2.5-0.56c-0.25,0-0.5-0.16-0.75-0.19
				c-0.27-0.04-0.56-0.01-0.84-0.01c-1,0.02-1.97,0.28-2.95,0.47c-0.86,0.17-1.7,0.44-2.58,0.61c-1.13,0.22-2.24,0.44-3.39,0.38
				c-1.32-0.07-2.61-0.28-3.78-0.97c-0.5-0.3-1.05-0.53-1.5,0.12c-1.9,0.88-3.4,2.28-4.81,3.78c-0.7,0.75-1.25,1.63-1.81,2.49
				c-0.52,0.79-0.93,1.63-1.11,2.62c-0.67-0.3-0.54-0.93-0.67-1.37c-0.14-0.5-0.09-1.07-0.01-1.6c0.07-0.49,0.29-0.96,0.47-1.51
				c-0.38,0.07-0.77,0.14-1.39,0.26c0.59-0.78,1.08-1.3,1.71-1.73c0.58-0.39,1.09-0.89,1.65-1.35c-0.41-0.06-0.5-0.3-0.42-0.64
				c2.01-0.96,4.1-1.72,6.23-2.46c-0.14-0.58-0.2-1.21-0.46-1.74c-0.17-0.36-0.06-0.67-0.13-0.99c-0.06-0.29-0.2-0.57-0.2-0.86
				c-0.02-1.32-0.58-2.41-1.34-3.43c-0.29-0.39-0.51-0.85-0.83-1.22c-0.22-0.26-0.24-0.63-0.12-0.76c0.27-0.32,0.22-0.67,0.17-0.98
				c-0.08-0.5,0.23-0.91,0.24-1.38c0.01-0.43-0.17-0.9,0.2-1.28c0.02-0.02,0-0.07,0-0.1c0.01-0.71,0.01-1.41,0.19-2.12
				c0.21-0.8-0.21-1.44-0.78-1.89c-0.18-1.13,0.16-2.03,0.91-2.88c0.39,0.5,0.87,0.89,1.24,1.43c0.62,0.89,0.62,1.8,0.43,2.78
				c-0.02,0.09-0.09,0.18-0.1,0.27c-0.08,0.84-0.13,1.69-0.22,2.53c-0.04,0.36-0.16,0.71-0.2,1.07c-0.04,0.38,0.02,0.77-0.02,1.15
				c-0.02,0.18-0.15,0.35-0.27,0.6c2,0.13,3.47,1.25,4.94,2.42c0.14-0.28,0.26-0.5,0.37-0.71c-0.31-0.53-0.54-1.07-0.98-1.51
				c-0.45-0.46-0.37-1.02,0.03-1.62c0.46-0.7,0.98-1.35,1.55-1.97c0.76-0.83,1.51-1.69,2.32-2.61c-0.02,0.08,0,0.04,0,0.01
				c0.01-0.5-0.07-1.02,0.27-1.46c0.38-0.49,0.91-0.78,1.46-1.03c0.41-0.19,0.8,0.04,0.77,0.47c-0.06,1.1-0.2,2.17-1.09,3.01
				c-0.82,0.77-1.55,1.65-2.3,2.49c-0.1,0.12-0.14,0.29-0.23,0.43c-0.53,0.79-0.51,1.11,0.31,1.49c1.12,0.52,1.61,1.53,2.05,2.55
				c0.38,0.88,0.46,0.95,1.39,1.04c1.63,0.15,2.97-0.48,4.26-1.35c0.21-0.14,0.46-0.23,0.69-0.34c0.58-0.28,1.16-0.57,1.75-0.83
				c0.12-0.05,0.27-0.01,0.47-0.01c-0.47-1.01-0.06-1.89,0.5-2.63c0.94-1.26,1.95-2.46,2.87-3.73c0.34-0.46,0.72-0.89,1.11-1.32
				c0.19-0.21,0.2-0.41,0.1-0.64c-0.03-0.06-0.12-0.09-0.14-0.15c-0.14-0.35-0.46-0.77-0.36-1.06c0.2-0.6,0.35-1.27,0.85-1.74
				c0.17-0.16,0.33-0.33,0.55-0.54c0.31,0.29,0.59,0.5,0.71,0.89c0.16,0.52,0.43,1.02,0.55,1.55c0.22,1.02-0.21,1.9-0.76,2.71
				c-0.55,0.82-1.16,1.61-1.74,2.42c-0.44,0.62-0.86,1.25-1.29,1.87c-0.07,0.11-0.16,0.22-0.18,0.34c-0.13,0.76,0.06,0.97,0.87,0.99
				C504.03,132.8,504.13,132.79,504.23,132.78z"/>
		</g>
		<g>
			<path class="st0" d="M474.37,167.61l-1.05-5.66h1.31l0.39,2.65c0.03,0.3,0.07,0.59,0.11,0.89c0.04,0.3,0.08,0.6,0.11,0.9h0.03
				c0.06-0.3,0.11-0.6,0.17-0.9c0.05-0.3,0.11-0.6,0.17-0.89l0.61-2.65h1.09l0.61,2.65c0.06,0.29,0.11,0.58,0.17,0.88
				c0.05,0.3,0.11,0.6,0.17,0.91h0.03c0.04-0.31,0.08-0.61,0.12-0.9c0.04-0.3,0.08-0.59,0.12-0.89l0.39-2.65h1.22l-1.01,5.66h-1.61
				l-0.56-2.57c-0.05-0.22-0.09-0.44-0.13-0.66c-0.04-0.22-0.07-0.44-0.1-0.65h-0.03c-0.03,0.21-0.07,0.42-0.11,0.65
				c-0.04,0.22-0.08,0.44-0.13,0.66l-0.53,2.57H474.37z"/>
			<path class="st0" d="M480.92,167.61v-5.66h3.54v1.08h-2.27v1.14h1.93v1.07h-1.93v1.3h2.35v1.08H480.92z"/>
			<path class="st0" d="M484.96,167.61l1.77-5.66h1.54l1.77,5.66h-1.35l-0.35-1.35h-1.73l-0.35,1.35H484.96z M487.01,164.74
				l-0.14,0.52h1.21l-0.13-0.52c-0.08-0.28-0.16-0.58-0.23-0.9c-0.08-0.32-0.15-0.63-0.23-0.92h-0.03c-0.07,0.3-0.14,0.61-0.21,0.92
				C487.17,164.16,487.09,164.46,487.01,164.74z"/>
			<path class="st0" d="M490.66,167.61v-5.66h1.28v2.32h0.03l1.68-2.32h1.41l-1.71,2.26l2.02,3.4h-1.4l-1.38-2.39l-0.66,0.87v1.52
				H490.66z"/>
			<path class="st0" d="M495.99,167.61v-5.66h1.31l1.48,2.81l0.56,1.25h0.03c-0.03-0.3-0.06-0.64-0.1-1.01
				c-0.04-0.37-0.06-0.72-0.06-1.06v-2h1.22v5.66h-1.31l-1.48-2.82l-0.56-1.23h-0.03c0.03,0.31,0.06,0.65,0.1,1.01
				c0.04,0.36,0.06,0.71,0.06,1.04v2.01H495.99z"/>
			<path class="st0" d="M501.76,167.61v-5.66h3.54v1.08h-2.27v1.14h1.93v1.07h-1.93v1.3h2.35v1.08H501.76z"/>
			<path class="st0" d="M508.25,167.71c-0.37,0-0.74-0.07-1.11-0.2c-0.37-0.14-0.7-0.34-0.99-0.61l0.73-0.88
				c0.2,0.17,0.43,0.32,0.67,0.43c0.25,0.11,0.49,0.17,0.73,0.17c0.27,0,0.46-0.05,0.59-0.15c0.13-0.1,0.2-0.23,0.2-0.4
				c0-0.09-0.02-0.16-0.06-0.23c-0.04-0.06-0.09-0.12-0.17-0.17c-0.07-0.05-0.16-0.1-0.26-0.14c-0.1-0.04-0.21-0.09-0.33-0.14
				l-0.74-0.31c-0.14-0.06-0.29-0.13-0.42-0.23s-0.26-0.2-0.36-0.33c-0.11-0.12-0.19-0.27-0.26-0.43c-0.06-0.17-0.1-0.35-0.1-0.56
				c0-0.23,0.05-0.45,0.15-0.66c0.1-0.21,0.24-0.39,0.42-0.54c0.18-0.15,0.39-0.27,0.64-0.36c0.25-0.09,0.52-0.13,0.81-0.13
				c0.33,0,0.66,0.06,0.98,0.19c0.32,0.13,0.6,0.31,0.85,0.56l-0.65,0.81c-0.19-0.14-0.37-0.26-0.56-0.33
				c-0.19-0.08-0.39-0.12-0.62-0.12c-0.22,0-0.4,0.04-0.53,0.13c-0.13,0.09-0.2,0.22-0.2,0.38c0,0.09,0.02,0.16,0.07,0.22
				c0.04,0.06,0.1,0.12,0.18,0.16c0.08,0.05,0.17,0.1,0.27,0.14c0.1,0.04,0.22,0.09,0.34,0.14l0.73,0.3
				c0.35,0.14,0.62,0.33,0.82,0.57c0.2,0.24,0.3,0.56,0.3,0.96c0,0.24-0.05,0.46-0.14,0.67c-0.1,0.21-0.23,0.4-0.42,0.56
				c-0.18,0.16-0.41,0.29-0.67,0.38C508.89,167.66,508.59,167.71,508.25,167.71z"/>
			<path class="st0" d="M512.92,167.71c-0.37,0-0.74-0.07-1.11-0.2c-0.37-0.14-0.7-0.34-0.99-0.61l0.73-0.88
				c0.2,0.17,0.43,0.32,0.67,0.43c0.25,0.11,0.49,0.17,0.73,0.17c0.27,0,0.46-0.05,0.59-0.15c0.13-0.1,0.2-0.23,0.2-0.4
				c0-0.09-0.02-0.16-0.06-0.23c-0.04-0.06-0.09-0.12-0.17-0.17c-0.07-0.05-0.16-0.1-0.26-0.14c-0.1-0.04-0.21-0.09-0.33-0.14
				l-0.74-0.31c-0.14-0.06-0.29-0.13-0.42-0.23s-0.26-0.2-0.36-0.33c-0.11-0.12-0.19-0.27-0.26-0.43c-0.06-0.17-0.1-0.35-0.1-0.56
				c0-0.23,0.05-0.45,0.15-0.66c0.1-0.21,0.24-0.39,0.42-0.54c0.18-0.15,0.39-0.27,0.64-0.36c0.25-0.09,0.52-0.13,0.81-0.13
				c0.33,0,0.66,0.06,0.98,0.19c0.32,0.13,0.6,0.31,0.85,0.56l-0.65,0.81c-0.19-0.14-0.37-0.26-0.56-0.33
				c-0.19-0.08-0.39-0.12-0.62-0.12c-0.22,0-0.4,0.04-0.53,0.13c-0.13,0.09-0.2,0.22-0.2,0.38c0,0.09,0.02,0.16,0.07,0.22
				c0.04,0.06,0.1,0.12,0.18,0.16c0.08,0.05,0.17,0.1,0.27,0.14c0.1,0.04,0.22,0.09,0.34,0.14l0.73,0.3
				c0.35,0.14,0.62,0.33,0.82,0.57c0.2,0.24,0.3,0.56,0.3,0.96c0,0.24-0.05,0.46-0.14,0.67c-0.1,0.21-0.23,0.4-0.42,0.56
				c-0.18,0.16-0.41,0.29-0.67,0.38C513.56,167.66,513.26,167.71,512.92,167.71z"/>
			<path class="st0" d="M516.02,167.61v-5.66h3.54v1.08h-2.27v1.14h1.93v1.07h-1.93v1.3h2.35v1.08H516.02z"/>
			<path class="st0" d="M522.51,167.71c-0.37,0-0.74-0.07-1.11-0.2c-0.37-0.14-0.7-0.34-0.99-0.61l0.73-0.88
				c0.2,0.17,0.43,0.32,0.67,0.43c0.25,0.11,0.49,0.17,0.73,0.17c0.27,0,0.46-0.05,0.59-0.15c0.13-0.1,0.2-0.23,0.2-0.4
				c0-0.09-0.02-0.16-0.06-0.23c-0.04-0.06-0.09-0.12-0.17-0.17c-0.07-0.05-0.16-0.1-0.26-0.14c-0.1-0.04-0.21-0.09-0.33-0.14
				l-0.74-0.31c-0.14-0.06-0.29-0.13-0.42-0.23c-0.14-0.09-0.26-0.2-0.36-0.33c-0.11-0.12-0.19-0.27-0.26-0.43
				c-0.06-0.17-0.1-0.35-0.1-0.56c0-0.23,0.05-0.45,0.15-0.66c0.1-0.21,0.24-0.39,0.42-0.54c0.18-0.15,0.39-0.27,0.64-0.36
				c0.25-0.09,0.52-0.13,0.81-0.13c0.33,0,0.66,0.06,0.98,0.19c0.32,0.13,0.6,0.31,0.85,0.56l-0.65,0.81
				c-0.19-0.14-0.37-0.26-0.56-0.33c-0.19-0.08-0.39-0.12-0.62-0.12c-0.22,0-0.4,0.04-0.53,0.13c-0.13,0.09-0.2,0.22-0.2,0.38
				c0,0.09,0.02,0.16,0.07,0.22c0.04,0.06,0.1,0.12,0.18,0.16c0.08,0.05,0.17,0.1,0.27,0.14c0.1,0.04,0.22,0.09,0.34,0.14l0.73,0.3
				c0.35,0.14,0.62,0.33,0.82,0.57c0.2,0.24,0.3,0.56,0.3,0.96c0,0.24-0.05,0.46-0.14,0.67c-0.1,0.21-0.23,0.4-0.42,0.56
				c-0.18,0.16-0.41,0.29-0.67,0.38C523.14,167.66,522.84,167.71,522.51,167.71z"/>
		</g>
	</g>
	<text transform="matrix(1 0 0 1 30.7677 173.2648)" class="st1 st2 st3">W</text>
	<rect x="131.78" y="110.54" class="st4" width="146.23" height="79.65"/>
	<text transform="matrix(1 0 0 1 131.7836 119.665)"><tspan x="0" y="0" class="st1 st5 st6">Hero slider too slow</tspan><tspan x="0" y="16" class="st1 st5 st6">Small newsletter fills</tspan><tspan x="0" y="32" class="st1 st5 st6">No transportation information</tspan><tspan x="0" y="48" class="st1 st5 st6">Foster page is confusing with </tspan><tspan x="0.72" y="61.2" class="st1 st5 st6">no CTA</tspan></text>
	<rect x="296.75" y="110.54" class="st4" width="146.23" height="79.65"/>
	<text transform="matrix(1 0 0 1 296.7472 119.665)"><tspan x="0" y="0" class="st1 st5 st6">Broken links on Adopt page</tspan><tspan x="0" y="16" class="st1 st5 st6">About links hard to navigate</tspan><tspan x="0" y="32" class="st1 st5 st6">Donation page not consistant</tspan><tspan x="0" y="48" class="st1 st5 st6">Needs darker text and primary </tspan><tspan x="0.72" y="61.2" class="st1 st5 st6">nav color</tspan></text>
	<circle class="st1" cx="123.28" cy="115.7" r="2.36"/>
	<circle class="st1" cx="288.36" cy="115.7" r="2.36"/>
	<circle class="st1" cx="288.36" cy="131.7" r="2.36"/>
	<circle class="st1" cx="288.36" cy="147.8" r="2.36"/>
	<circle class="st1" cx="288.36" cy="164.22" r="2.36"/>
	<circle class="st1" cx="123.28" cy="131.91" r="2.36"/>
	<circle class="st1" cx="123.28" cy="148" r="2.36"/>
	<circle class="st1" cx="123.28" cy="163.94" r="2.36"/>
</g>
<g>
	
		<rect x="211.12" y="-4.9" transform="matrix(6.123234e-17 -1 1 6.123234e-17 15.6794 493.8447)" class="st7" width="87.29" height="487.96"/>
	<g>
		<g>
			<circle class="st1" cx="499.07" cy="239.08" r="43.64"/>
		</g>
		<g>
			<path class="st7" d="M499.07,202.65c20.09,0,36.43,16.34,36.43,36.43s-16.34,36.43-36.43,36.43c-20.09,0-36.43-16.34-36.43-36.43
				S478.98,202.65,499.07,202.65 M499.07,198.53c-22.4,0-40.55,18.16-40.55,40.55s18.16,40.55,40.55,40.55
				c22.4,0,40.55-18.16,40.55-40.55S521.46,198.53,499.07,198.53L499.07,198.53z"/>
		</g>
		<g>
			<path class="st7" d="M484.54,228.85c-1.53,0.07-2.89-0.18-4.25-0.56c-1.31-0.36-2.4-1.11-3.56-1.71c0.16-0.47,0.6-0.23,1.01-0.37
				c-1.44-1.25-2.4-2.79-3.35-4.6c0.46,0.27,0.75,0.45,1.09,0.65c-0.07-0.41,0.23-0.86-0.17-1.26c0.05-0.96-0.21-1.95,0.25-2.93
				c1.05,1.94,2.26,3.69,3.8,5.21c1.13,1.12,2.3,2.18,3.65,3c0.76,0.46,1.47,1.02,2.37,1.25c0.24,0.06,0.33,0.07,0.57-0.02
				c0.87-0.36,1.76-0.68,2.73-0.64c0.53,0.02,1.06,0.02,1.59,0c1.06-0.03,2.1,0.09,3.13,0.38c0.31,0.09,0.69-0.05,1.04-0.1
				c0.09-0.01,0.18-0.08,0.26-0.08c1.22-0.01,2.27-0.59,3.38-0.98c0.75-0.26,1.5-0.56,2.24-0.84c0.72-0.28,1.43-0.56,2.16-0.79
				c0.57-0.18,1.15-0.35,1.74-0.37c1.49-0.03,2.99-0.03,4.48,0c0.44,0.01,0.87,0.15,1.31,0.18c0.43,0.03,0.86-0.01,1.29,0.01
				c0.97,0.05,1.87-0.32,2.8-0.47c0.58-0.1,1.15-0.28,1.83-0.45c0-0.05,0.06-0.26-0.01-0.35c-0.18-0.22-0.33-0.45-0.65-0.54
				c-0.5-0.15-0.97-0.39-1.44-0.6c-0.65-0.29-0.98-0.77-0.85-1.55c1.44-0.18,2.69,0.4,3.9,1.04c0.42,0.22,0.67,0.68,0.65,1.21
				c-0.01,0.36,0,0.72,0.14,1.1c0.15-0.47,0.35-0.94,0.44-1.43c0.04-0.21-0.08-0.52-0.23-0.68c-0.72-0.74-0.84-1.62-0.72-2.59
				c0.26-0.15,0.46-0.09,0.68,0.12c0.65,0.63,1.13,1.35,1.57,2.14c0.48,0.86,0.37,1.55-0.19,2.25c-0.14,0.18-0.33,0.33-0.47,0.47
				c0.44,0.38,0.89,0.75,1.3,1.16c0.2,0.19,0.45,0.46,0.45,0.7c-0.01,0.48,0.28,0.6,0.61,0.74c0.87,0.39,1.74,0.78,2.6,1.17
				c0.05,0.99-0.21,1.75-1.15,2.23c-0.33,0.17-0.75-0.1-0.97,0.3c-0.88-0.06-1.72,0.37-2.61,0.19c-0.67-0.13-1.34-0.28-2-0.46
				c-0.64-0.17-1.42-0.11-2.08-0.01c-1.35,0.21-2.32,1.14-3.47,1.72c-0.26,0.13-0.42,0.41-0.5,0.78c-0.09,0.48-0.41,0.92-0.36,1.44
				c0.01,0.14,0.09,0.32,0.2,0.41c0.4,0.3,0.87,0.53,1.22,0.87c0.26,0.25,0.53,0.28,0.81,0.22c0.73-0.14,1.44-0.39,2.18-0.5
				c0.74-0.12,1.42-0.48,2.19-0.5c0.37-0.01,0.8-0.05,1.08-0.24c0.47-0.32,1.06,0.09,1.46-0.34c0.62,0.34,1.45,0.18,1.95,0.83
				c0.26,0.34,0.59,0.63,0.91,0.92c0.3,0.27,0.47,0.55,0.26,0.99c-0.78,0.38-1.7,0.23-2.61,0.25c-0.32-0.33-0.64-0.66-0.99-1.01
				c-1.33,0.4-2.65,0.81-3.98,1.21c-1.06,0.32-2.12,0.67-3.19,0.96c-0.36,0.09-0.74,0.05-1.14-0.05c-0.72-0.19-1.46-0.33-2.19-0.5
				c-0.09-0.02-0.2,0-0.35,0c-0.1,0.56-0.2,1.11-0.31,1.73c1.71,0.34,3.27,0.94,4.91,1.28c0.66,0.14,1.3,0.38,1.91,0.67
				c1.22,0.57,2.17,1.42,2.45,2.83c0.01,0.07,0.1,0.13,0.18,0.23c-0.81,0.28-1.54,0.35-2.36,0.08c-0.45-0.15-0.71-0.32-0.88-0.75
				c-0.1-0.26-0.31-0.48-0.49-0.69c-0.07-0.09-0.21-0.17-0.32-0.18c-1.35-0.09-2.63-0.58-3.95-0.83c-0.51-0.1-1.02-0.26-1.53-0.38
				c-0.51-0.12-1-0.32-1.52-0.43c-0.38-0.08-0.84-0.33-0.95-0.94c-0.16-0.81-0.53-1.57-0.79-2.3c-1.3-0.24-2.57-0.47-3.84-0.7
				c-0.65-0.51-1.49-0.56-2.21-0.94c-0.76-0.41-1.62-0.65-2.52-0.67c-0.41-0.01-0.81-0.15-1.21-0.18c-0.43-0.03-0.87-0.03-1.29,0
				c-0.37,0.03-0.75,0.09-1.11,0.21c-0.15,0.05-0.26,0.25-0.36,0.4c-0.23,0.37-0.43,0.75-0.65,1.12c-0.69,1.19-1.81,1.57-3.09,1.64
				c-0.3,0.02-0.6-0.02-0.9,0.01c-0.46,0.05-0.91-0.04-1.31-0.22c-0.64-0.29-1.22-0.25-1.81,0.08c-0.31,1.28-0.39,3.3-1.7,5.3
				c-0.41,0.02-0.86,0.13-0.94-0.5c-0.69-0.73-0.41-1.54,0.05-2.15c0.52-0.68,0.64-1.41,0.77-2.18c0.01-0.08,0.11-0.15,0.21-0.28
				c-0.51-0.06-0.94-0.36-1.47-0.27c-0.35,0.06-0.55,0.19-0.53,0.54c0.03,0.72-0.35,1.39-0.21,2.11c-0.36,0.91-0.13,1.87-0.2,2.81
				c-0.05,0.64-0.24,1.23-0.68,1.71c-0.11,0.12-0.25,0.23-0.31,0.37c-0.22,0.5-0.64,0.78-1.13,1.02c-0.71-0.82-0.71-1.83-0.66-2.9
				c0.16-0.16,0.36-0.34,0.55-0.52c0.31-0.31,0.45-0.67,0.44-1.11c-0.02-1.17,0.34-2.32,0.2-3.51c0.29-0.58,0.18-1.2,0.2-1.81
				c0.03-0.95,0.36-1.25,1.3-1.29c0.47-0.02,0.95-0.09,1.4-0.22c0.44-0.12,0.82-0.49,0.85-0.9c0.04-0.45,0.19-0.87,0.23-1.31
				c0.08-0.77,0.65-3.04,1.01-3.77C484.01,229.37,484.26,229.18,484.54,228.85z"/>
		</g>
		<g>
			<path class="st7" d="M474.22,260.35c-0.33,0-0.63-0.06-0.9-0.18c-0.27-0.12-0.51-0.29-0.7-0.51s-0.35-0.49-0.45-0.8
				c-0.11-0.32-0.16-0.67-0.16-1.07c0-0.4,0.05-0.76,0.16-1.07c0.11-0.31,0.26-0.58,0.45-0.79c0.2-0.21,0.43-0.38,0.7-0.49
				c0.27-0.11,0.57-0.17,0.9-0.17s0.63,0.06,0.9,0.17s0.51,0.28,0.7,0.49c0.19,0.22,0.35,0.48,0.45,0.79
				c0.11,0.31,0.16,0.67,0.16,1.06c0,0.4-0.05,0.76-0.16,1.07c-0.11,0.32-0.26,0.58-0.45,0.8c-0.2,0.22-0.43,0.39-0.7,0.51
				C474.85,260.3,474.55,260.35,474.22,260.35z M474.22,259.4c0.34,0,0.6-0.14,0.8-0.43c0.2-0.29,0.29-0.68,0.29-1.18
				c0-0.49-0.1-0.87-0.29-1.15c-0.2-0.28-0.46-0.41-0.8-0.41s-0.6,0.14-0.8,0.41c-0.2,0.28-0.29,0.66-0.29,1.15
				c0,0.5,0.1,0.89,0.29,1.18C473.62,259.26,473.88,259.4,474.22,259.4z"/>
			<path class="st7" d="M477.36,260.26v-4.9h1.68c0.27,0,0.52,0.03,0.76,0.08c0.24,0.05,0.44,0.14,0.62,0.26
				c0.18,0.12,0.31,0.29,0.42,0.49c0.1,0.2,0.15,0.45,0.15,0.75c0,0.29-0.05,0.53-0.15,0.74c-0.1,0.21-0.24,0.38-0.42,0.52
				c-0.18,0.14-0.38,0.24-0.61,0.3c-0.23,0.06-0.48,0.1-0.74,0.1h-0.61v1.66H477.36z M478.47,257.73h0.54c0.6,0,0.9-0.26,0.9-0.78
				c0-0.26-0.08-0.44-0.24-0.54c-0.16-0.11-0.39-0.16-0.69-0.16h-0.51V257.73z"/>
			<path class="st7" d="M481.84,260.26v-4.9h1.68c0.27,0,0.52,0.03,0.76,0.08c0.24,0.05,0.44,0.14,0.62,0.26
				c0.18,0.12,0.31,0.29,0.42,0.49c0.1,0.2,0.15,0.45,0.15,0.75c0,0.29-0.05,0.53-0.15,0.74c-0.1,0.21-0.24,0.38-0.42,0.52
				c-0.18,0.14-0.38,0.24-0.61,0.3c-0.23,0.06-0.48,0.1-0.74,0.1h-0.61v1.66H481.84z M482.94,257.73h0.54c0.6,0,0.9-0.26,0.9-0.78
				c0-0.26-0.08-0.44-0.24-0.54c-0.16-0.11-0.39-0.16-0.69-0.16h-0.51V257.73z"/>
			<path class="st7" d="M488.3,260.35c-0.33,0-0.63-0.06-0.9-0.18c-0.27-0.12-0.51-0.29-0.7-0.51s-0.35-0.49-0.45-0.8
				c-0.11-0.32-0.16-0.67-0.16-1.07c0-0.4,0.05-0.76,0.16-1.07c0.11-0.31,0.26-0.58,0.45-0.79c0.2-0.21,0.43-0.38,0.7-0.49
				c0.27-0.11,0.57-0.17,0.9-0.17s0.63,0.06,0.9,0.17s0.51,0.28,0.7,0.49c0.19,0.22,0.35,0.48,0.45,0.79
				c0.11,0.31,0.16,0.67,0.16,1.06c0,0.4-0.05,0.76-0.16,1.07c-0.11,0.32-0.26,0.58-0.45,0.8c-0.2,0.22-0.43,0.39-0.7,0.51
				C488.94,260.3,488.64,260.35,488.3,260.35z M488.3,259.4c0.34,0,0.6-0.14,0.8-0.43s0.29-0.68,0.29-1.18
				c0-0.49-0.1-0.87-0.29-1.15c-0.2-0.28-0.46-0.41-0.8-0.41s-0.6,0.14-0.8,0.41c-0.2,0.28-0.29,0.66-0.29,1.15
				c0,0.5,0.1,0.89,0.29,1.18C487.7,259.26,487.97,259.4,488.3,259.4z"/>
			<path class="st7" d="M491.45,260.26v-4.9h1.76c0.26,0,0.5,0.02,0.73,0.08c0.23,0.05,0.43,0.13,0.6,0.25
				c0.17,0.12,0.31,0.27,0.41,0.47c0.1,0.2,0.15,0.44,0.15,0.73c0,0.36-0.08,0.66-0.24,0.89s-0.37,0.41-0.63,0.52l1.11,1.96h-1.24
				l-0.94-1.76h-0.61v1.76H491.45z M492.56,257.62h0.57c0.29,0,0.51-0.06,0.66-0.18c0.15-0.12,0.23-0.3,0.23-0.54
				c0-0.24-0.08-0.41-0.23-0.5c-0.15-0.1-0.37-0.14-0.66-0.14h-0.57V257.62z"/>
			<path class="st7" d="M496.87,260.26v-3.97h-1.34v-0.93h3.8v0.93h-1.34v3.97H496.87z"/>
			<path class="st7" d="M502.02,260.35c-0.64,0-1.12-0.19-1.46-0.56c-0.34-0.38-0.5-0.97-0.5-1.79v-2.63h1.11v2.74
				c0,0.48,0.07,0.82,0.22,1.01c0.14,0.19,0.36,0.29,0.63,0.29c0.28,0,0.49-0.1,0.64-0.29c0.15-0.19,0.23-0.53,0.23-1.01v-2.74h1.07
				V258c0,0.82-0.16,1.42-0.49,1.79C503.13,260.17,502.66,260.35,502.02,260.35z"/>
			<path class="st7" d="M505.09,260.26v-4.9h1.13l1.28,2.43l0.48,1.08h0.03c-0.02-0.26-0.05-0.55-0.09-0.87
				c-0.03-0.32-0.05-0.63-0.05-0.92v-1.73h1.05v4.9h-1.13l-1.28-2.44l-0.48-1.07H506c0.02,0.27,0.05,0.56,0.09,0.87
				c0.03,0.31,0.05,0.61,0.05,0.9v1.73H505.09z"/>
			<path class="st7" d="M510.08,260.26v-4.9h1.1v4.9H510.08z"/>
			<path class="st7" d="M513.3,260.26v-3.97h-1.34v-0.93h3.8v0.93h-1.34v3.97H513.3z"/>
			<path class="st7" d="M516.52,260.26v-4.9h1.1v4.9H516.52z"/>
			<path class="st7" d="M518.78,260.26v-4.9h3.06v0.93h-1.96v0.98h1.67v0.92h-1.67v1.13h2.03v0.93H518.78z"/>
			<path class="st7" d="M524.39,260.35c-0.32,0-0.64-0.06-0.96-0.18c-0.32-0.12-0.6-0.29-0.85-0.53l0.63-0.76
				c0.18,0.15,0.37,0.27,0.58,0.37s0.42,0.14,0.63,0.14c0.23,0,0.4-0.04,0.51-0.13c0.11-0.09,0.17-0.2,0.17-0.35
				c0-0.08-0.02-0.14-0.05-0.2c-0.03-0.06-0.08-0.1-0.14-0.15c-0.06-0.04-0.14-0.08-0.23-0.12c-0.09-0.04-0.18-0.08-0.29-0.12
				l-0.64-0.27c-0.12-0.05-0.25-0.11-0.36-0.2c-0.12-0.08-0.22-0.17-0.32-0.28c-0.09-0.11-0.17-0.23-0.22-0.38
				c-0.06-0.14-0.08-0.3-0.08-0.48c0-0.2,0.04-0.39,0.13-0.57c0.08-0.18,0.2-0.33,0.36-0.47c0.16-0.13,0.34-0.24,0.55-0.31
				c0.21-0.08,0.45-0.11,0.7-0.11c0.29,0,0.57,0.06,0.84,0.17c0.28,0.11,0.52,0.27,0.73,0.48l-0.56,0.7
				c-0.16-0.13-0.32-0.22-0.48-0.29c-0.16-0.07-0.34-0.1-0.53-0.1c-0.19,0-0.34,0.04-0.45,0.12c-0.11,0.08-0.17,0.19-0.17,0.33
				c0,0.08,0.02,0.14,0.06,0.19c0.04,0.05,0.09,0.1,0.16,0.14c0.07,0.04,0.15,0.08,0.24,0.12c0.09,0.04,0.19,0.08,0.29,0.12
				l0.63,0.26c0.3,0.12,0.54,0.29,0.71,0.5c0.17,0.21,0.26,0.49,0.26,0.83c0,0.21-0.04,0.4-0.12,0.58c-0.08,0.18-0.2,0.34-0.36,0.48
				c-0.16,0.14-0.35,0.25-0.58,0.33C524.94,260.31,524.68,260.35,524.39,260.35z"/>
		</g>
	</g>
	<text transform="matrix(1 0 0 1 36.8116 265.7755)" class="st1 st2 st3">O</text>
	<rect x="131.78" y="204.65" class="st4" width="146.23" height="79.65"/>
	<text transform="matrix(1 0 0 1 131.7836 213.7835)"><tspan x="0" y="0" class="st1 st5 st6">“How users can help” could use </tspan><tspan x="0.72" y="13.2" class="st1 st5 st6">a landing page w/ diff. ways</tspan><tspan x="0" y="29.2" class="st1 st5 st6">Clarity on Adopt/Foster app</tspan><tspan x="0" y="45.2" class="st1 st5 st6">Primary nav could use some </tspan><tspan x="0.72" y="58.4" class="st1 st5 st6">cleaning and consolidating</tspan></text>
	<rect x="296.75" y="204.65" class="st4" width="146.23" height="79.65"/>
	<text transform="matrix(1 0 0 1 296.7472 213.7835)"><tspan x="0" y="0" class="st1 st5 st6">Include Whys and Hows after </tspan><tspan x="0.72" y="13.2" class="st1 st5 st6">fostering/adopting</tspan><tspan x="0" y="29.2" class="st1 st5 st6">Add page for Operation Reloca</tspan><tspan x="140.3" y="29.2" class="st1 st5 st6">-</tspan><tspan x="0.72" y="42.4" class="st1 st5 st6">tion</tspan></text>
	<circle class="st1" cx="122.42" cy="210.24" r="2.36"/>
	<circle class="st1" cx="288.36" cy="210.24" r="2.36"/>
	<circle class="st1" cx="288.36" cy="239.36" r="2.36"/>
	<circle class="st1" cx="122.42" cy="239.64" r="2.36"/>
	<circle class="st1" cx="122.42" cy="255.31" r="2.36"/>
</g>
<g>
	
		<rect x="212.12" y="86" transform="matrix(6.123234e-17 -1 1 6.123234e-17 -75.2172 586.7536)" class="st8" width="87.29" height="489.97"/>
	<g>
		<g>
			<circle class="st1" cx="500.75" cy="330.99" r="43.64"/>
		</g>
		<g>
			<path class="st8" d="M500.75,294.56c20.09,0,36.43,16.34,36.43,36.43s-16.34,36.43-36.43,36.43c-20.09,0-36.43-16.34-36.43-36.43
				S480.67,294.56,500.75,294.56 M500.75,290.43c-22.4,0-40.55,18.16-40.55,40.55s18.16,40.55,40.55,40.55
				c22.4,0,40.55-18.16,40.55-40.55S523.15,290.43,500.75,290.43L500.75,290.43z"/>
		</g>
		<g>
			<path class="st8" d="M493.49,340.47c-0.06-0.34-0.32-0.14-0.48-0.17c-0.42-0.06-1.13-0.48-1.29-0.83
				c-0.06-0.12-0.13-0.25-0.13-0.38c-0.01-0.75-0.02-1.5,0-2.25c0.02-0.73-0.24-1.43-0.19-2.18c0.06-1.12,0.02-2.25,0.02-3.37
				c0-0.32,0.05-0.51,0.39-0.72c0.58-0.36,1.26-0.62,1.69-1.36c0.05-0.2,0-0.46-0.27-0.71c-0.43-0.42-0.56-1.02-0.86-1.53
				c-0.65,2.22-2,3.94-3.82,5.32c-0.23-0.3,0.03-0.62,0.17-1.07c-1.44,0.99-2.93,1.37-4.52,1.48c-0.05-0.22,0.12-0.26,0.2-0.34
				c0.09-0.09,0.23-0.14,0.47-0.28c-1.4-0.32-2.59-0.55-3.68-1.16c0.07-0.07,0.1-0.14,0.13-0.14c0.85,0.12,1.64-0.2,2.43-0.41
				c1.34-0.35,2.62-0.91,3.84-1.58c0.71-0.39,1.37-0.88,2.04-1.34c0.95-0.65,1.68-1.53,2.5-2.33c0.15-0.15,0.27-0.35,0.37-0.54
				c0.58-1.09,1.26-2.09,2.21-2.89c0.44-0.37,0.91-0.71,1.38-1.04c1.08-0.77,1.92-1.71,2.45-2.95c0.44-1.03,1-2.01,1.45-3.04
				c0.33-0.76,0.62-1.54,1.14-2.21c0.22-0.29,0.44-0.6,0.72-0.82c0.9-0.74,1.82-1.44,2.74-2.15c0.48-0.36,1.02-0.65,1.46-1.05
				c0.62-0.55,1.23-1.12,1.5-1.97c0.13-0.42,0.46-0.79,0.74-1.25c-0.21-0.02-0.38-0.09-0.5-0.04c-0.27,0.11-0.52,0.28-0.78,0.42
				c-0.57,0.31-1.19,0.26-1.8,0.24c-0.09,0-0.17-0.15-0.23-0.21c0.27-0.92,1.04-1.44,1.65-2.08c0.29-0.31,0.7-0.38,1.08-0.29
				c0.38,0.1,0.75,0.29,1.09,0.49c0.28,0.17,0.53,0.4,0.96,0.36c0.01-0.29,0.01-0.6,0.03-0.9c0.02-0.51,0.17-0.97,0.58-1.32
				c0.15-0.12,0.9-0.36,1.23-0.37c0.4-0.01,0.81,0,1.22,0c0.13,0.14,0.27,0.29,0.4,0.42c-0.32,0.83-0.97,1.06-1.81,0.95
				c-0.16,0.2-0.32,0.38-0.56,0.69c0.25-0.01,0.35-0.01,0.45-0.03c0.16-0.03,0.31-0.12,0.46-0.12c0.12,0,0.24,0.14,0.36,0.15
				c0.23,0.03,0.46,0.01,0.65,0.01c0.36,0.31,0.7,0.6,1.01,0.86c0.27-0.13,0.47-0.3,0.69-0.33c0.6-0.06,1.14-0.34,1.72-0.46
				c0.48-0.1,0.45-0.07,0.71,0.39c0.19,0.33-0.01,0.74,0.31,1c-0.09,0.22-0.14,0.47-0.29,0.65c-0.42,0.53-0.99,0.88-1.58,1.18
				c-0.26,0.13-0.54,0.23-0.8,0.36c-0.05,0.03-0.09,0.15-0.08,0.22c0.01,0.05,0.11,0.09,0.18,0.12c0.05,0.02,0.12,0.02,0.17,0
				c0.54-0.22,1.08-0.45,1.64-0.68c0.06,0.07,0.14,0.16,0.28,0.32c-0.07,0.04-0.16,0.13-0.26,0.15c-0.58,0.08-1.04,0.42-1.53,0.69
				c-0.4,0.22-0.77,0.52-1.15,0.79c-0.58,0.41-1.19,0.78-1.74,1.23c-0.74,0.61-1.12,1.47-1.41,2.35c-0.12,0.36,0.15,0.68,0.24,1.02
				c0.03,0.13,0.12,0.24,0.18,0.36c0.31,0.59,0.31,0.59,1.01,0.39c0.34-0.1,0.7,0.02,1.05-0.19c0.19-0.11,0.34-0.17,0.47-0.38
				c0.96-1.54,1.94-3.07,2.95-4.58c0.22-0.33,0.56-0.58,0.85-0.86c0.04-0.04,0.1-0.05,0.14-0.09c0.3-0.29,0.71-0.07,1.03-0.23
				c0.33-0.16,0.61-0.15,0.95-0.01c0.22,0.09,0.5,0.07,0.8,0.1c0.18,1.02-0.78,1.37-1.24,2.04c-0.43,0-0.86,0-1.3,0
				c-0.48,0.86-1,1.68-1.41,2.55c-0.5,1.08-1.2,2.04-1.77,3.07c-0.19,0.33-0.61,0.55-0.96,0.78c-0.75,0.48-1.51,0.94-2.28,1.38
				c-0.25,0.14-0.4,0.32-0.55,0.57c-0.33,0.57-0.76,1.08-1.13,1.6c0.2,0.48,0.37,1.02,0.64,1.5c0.19,0.35,0.26,0.81,0.64,1.03
				c0.34,0.2,0.71,0.38,1.1,0.48c0.99,0.25,1.87,0.78,2.85,1.06c0.13,0.04,0.24,0.12,0.37,0.16c1.05,0.36,1.84,1.05,2.08,2.14
				c0.15,0.69,0.21,1.45-0.17,2.18c-0.73,0.1-1.14-0.41-1.59-0.86c-0.29-0.3-0.29-0.3-0.27-1.67c-0.64-0.1-1.23-0.32-1.84-0.56
				c-0.94-0.37-1.91-0.68-2.85-1.05c-0.7-0.28-1.37-0.59-2-1.04c-0.63-0.46-1.11-1.05-1.71-1.55c-0.81,0.29-1.61,0.64-2.44,0.93
				c-0.57,0.2-1.07,0.64-1.56,1.02c-0.34,0.26-0.64,0.58-0.92,0.91c-0.26,0.31-0.46,0.67-0.65,0.94c0.29,0.78,0.63,1.47,0.67,2.29
				c0.04,0.83-0.09,1.61-0.43,2.34c-0.42,0.91-0.83,1.85-1.64,2.52c-0.13,0.1-0.26,0.2-0.4,0.29c-0.56,0.37-0.6,0.54-0.36,1.26
				c0.31,0.94,0.61,1.88,0.9,2.83c0.22,0.69,0.26,0.73,0.97,0.76c0.62,0.03,1.01,0.39,1.29,0.9c0.1,0.19,0.21,0.38,0.35,0.63
				c-0.15,0.06-0.31,0.19-0.48,0.19c-0.92,0.02-1.84,0.01-2.67,0.01c-0.47-0.94-0.96-1.8-1.34-2.71c-0.44-1.06-0.93-2.1-1.45-3.12
				c-0.17-0.34-0.05-0.67-0.12-0.94c0.25-0.34,0.47-0.64,0.77-1.04c-0.39,0.05-0.59,0.22-0.82,0.32c-0.72,0.31-1.49,0.21-2.25,0.22
				c-0.44-0.38-0.67,0.08-0.97,0.21c-0.01,0.08-0.02,0.14-0.02,0.19c0,0.87,0.04,1.73-0.01,2.59c-0.05,0.84-0.22,1.67-0.16,2.52
				c0.01,0.17,0,0.33,0,0.54c0.19,0,0.33,0.01,0.47,0c0.55-0.04,0.92,0.17,1.09,0.72c0.1,0.3,0.23,0.6,0.35,0.88
				c-0.14,0.28-0.38,0.3-0.65,0.32c-0.19,0.01-0.46-0.17-0.57,0.16C493.72,340.47,493.61,340.47,493.49,340.47z"/>
		</g>
		<g>
			<path class="st8" d="M485.93,352.43v-4.39h-1.49v-1.03h4.2v1.03h-1.49v4.39H485.93z"/>
			<path class="st8" d="M489.49,352.43v-5.42h1.22v2.09h1.87v-2.09h1.23v5.42h-1.23v-2.26h-1.87v2.26H489.49z"/>
			<path class="st8" d="M495.09,352.43v-5.42h1.95c0.29,0,0.56,0.03,0.81,0.08c0.25,0.05,0.47,0.15,0.66,0.28
				c0.19,0.13,0.34,0.3,0.45,0.52c0.11,0.22,0.17,0.49,0.17,0.81c0,0.4-0.09,0.73-0.26,0.98c-0.17,0.26-0.41,0.45-0.7,0.58
				l1.23,2.17h-1.37l-1.04-1.95h-0.67v1.95H495.09z M496.31,349.5h0.63c0.32,0,0.57-0.07,0.74-0.2c0.17-0.14,0.25-0.34,0.25-0.6
				c0-0.27-0.08-0.45-0.25-0.56c-0.17-0.11-0.41-0.16-0.74-0.16h-0.63V349.5z"/>
			<path class="st8" d="M500.18,352.43v-5.42h3.39v1.03h-2.17v1.09h1.84v1.02h-1.84v1.25h2.25v1.03H500.18z"/>
			<path class="st8" d="M504.04,352.43l1.69-5.42h1.47l1.69,5.42h-1.3l-0.33-1.29h-1.65l-0.33,1.29H504.04z M506.01,349.69
				l-0.13,0.5h1.15l-0.12-0.5c-0.08-0.27-0.15-0.56-0.22-0.86c-0.07-0.3-0.14-0.6-0.22-0.88h-0.03c-0.07,0.29-0.13,0.58-0.2,0.88
				C506.16,349.13,506.08,349.41,506.01,349.69z"/>
			<path class="st8" d="M509.94,352.43v-4.39h-1.49v-1.03h4.2v1.03h-1.49v4.39H509.94z"/>
			<path class="st8" d="M514.95,352.53c-0.35,0-0.71-0.07-1.06-0.2c-0.35-0.13-0.67-0.33-0.94-0.59l0.7-0.84
				c0.19,0.17,0.41,0.3,0.64,0.41c0.24,0.11,0.47,0.16,0.69,0.16c0.25,0,0.44-0.05,0.57-0.14c0.12-0.09,0.19-0.22,0.19-0.38
				c0-0.08-0.02-0.15-0.05-0.22c-0.04-0.06-0.09-0.11-0.16-0.16c-0.07-0.05-0.15-0.09-0.25-0.13c-0.1-0.04-0.2-0.09-0.32-0.14
				l-0.71-0.3c-0.14-0.06-0.27-0.13-0.4-0.22c-0.13-0.09-0.25-0.19-0.35-0.31c-0.1-0.12-0.18-0.26-0.24-0.42
				c-0.06-0.16-0.09-0.34-0.09-0.54c0-0.22,0.05-0.43,0.14-0.63c0.09-0.2,0.23-0.37,0.4-0.51c0.17-0.15,0.38-0.26,0.61-0.34
				c0.24-0.08,0.49-0.12,0.78-0.12c0.32,0,0.63,0.06,0.93,0.18c0.31,0.12,0.58,0.3,0.81,0.53l-0.62,0.77
				c-0.18-0.14-0.35-0.25-0.53-0.32c-0.18-0.08-0.37-0.11-0.59-0.11c-0.21,0-0.38,0.04-0.5,0.13c-0.12,0.09-0.19,0.21-0.19,0.36
				c0,0.08,0.02,0.15,0.06,0.21c0.04,0.06,0.1,0.11,0.17,0.16c0.08,0.05,0.16,0.09,0.26,0.13c0.1,0.04,0.21,0.09,0.32,0.14l0.7,0.28
				c0.33,0.13,0.59,0.32,0.79,0.55c0.19,0.23,0.29,0.54,0.29,0.92c0,0.23-0.05,0.44-0.14,0.64c-0.09,0.2-0.22,0.38-0.4,0.53
				c-0.17,0.15-0.39,0.27-0.64,0.37S515.27,352.53,514.95,352.53z"/>
		</g>
	</g>
	<text transform="matrix(1 0 0 1 40.8452 359.6124)" class="st1 st2 st3">T</text>
	<rect x="131.78" y="296.16" class="st4" width="146.23" height="79.65"/>
	<text transform="matrix(1 0 0 1 131.7836 305.2908)"><tspan x="0" y="0" class="st1 st5 st6">Competitors have clear primary </tspan><tspan x="0.72" y="13.2" class="st1 st5 st6">and secondary nav with more </tspan><tspan x="0.72" y="26.4" class="st1 st5 st6">descriptive CTAs</tspan><tspan x="0" y="47.4" class="st1 st5 st6">No information where users’ </tspan><tspan x="0.72" y="60.6" class="st1 st5 st6">donations are going</tspan></text>
	<rect x="296.75" y="296.16" class="st4" width="146.23" height="79.65"/>
	<text transform="matrix(1 0 0 1 296.7472 305.2908)"><tspan x="0" y="0" class="st1 st5 st6">Website is out-of-date and has </tspan><tspan x="0.72" y="13.2" class="st1 st5 st6">broken links, is not consistant, </tspan><tspan x="0.72" y="26.4" class="st1 st5 st6">and needs to be accessibility </tspan><tspan x="0.72" y="39.6" class="st1 st5 st6">friendly</tspan></text>
	<circle class="st1" cx="122.42" cy="302.12" r="2.36"/>
	<circle class="st1" cx="287.39" cy="302.12" r="2.36"/>
	<circle class="st1" cx="122.42" cy="348.77" r="2.36"/>
</g>
<g>
	
		<rect x="211.2" y="-191.08" transform="matrix(6.123234e-17 -1 1 6.123234e-17 201.8664 307.819)" class="st9" width="87.29" height="488.12"/>
	<g>
		<g>
			<circle class="st10" cx="499.07" cy="52.98" r="43.64"/>
		</g>
		<g>
			<path class="st9" d="M499.07,16.55c20.09,0,36.43,16.34,36.43,36.43s-16.34,36.43-36.43,36.43c-20.09,0-36.43-16.34-36.43-36.43
				S478.98,16.55,499.07,16.55 M499.07,12.43c-22.4,0-40.55,18.16-40.55,40.55s18.16,40.55,40.55,40.55
				c22.4,0,40.55-18.16,40.55-40.55S521.46,12.43,499.07,12.43L499.07,12.43z"/>
		</g>
		<g>
			<path class="st9" d="M481.41,51.66c0.77-0.44,1.58-0.79,2.19-1.63c0-1.38-0.03-2.86,0.01-4.34c0.03-1.13,0.2-2.24,1-3.15
				c0.09-0.11,0.12-0.28,0.2-0.49c-0.71-0.28-1.28-0.81-1.86-1.35c-0.61-0.57-0.99-1.3-1.49-1.94c-0.18-0.23-0.28-0.58-0.29-0.89
				c-0.09-1.53,0.11-3.02,0.93-4.4c0.05,0.14,0.09,0.26,0.16,0.45c0.76-1.06,1.56-2.02,2.8-2.74c-0.1,0.33-0.13,0.58-0.25,0.77
				c-0.39,0.61-0.48,1.29-0.64,1.98c-0.24,1.04-0.1,2.06-0.16,3.08c-0.09,1.31,0.47,2.43,1.07,3.53c0.17,0.31,0.42,0.57,0.58,0.78
				c0.78-0.31,1.51-0.66,2.28-0.9c0.59-0.18,1.24-0.14,1.84-0.25c1.33-0.25,2.67-0.06,3.99-0.19c0.91-0.09,1.81-0.33,2.66-0.69
				c0.84-0.36,1.67-0.72,2.48-1.13c0.45-0.22,0.85-0.56,1.3-0.8c0.86-0.46,1.79-0.76,2.73-1.01c0.64-0.17,1.19-0.46,1.65-0.94
				c0.43-0.46,0.94-0.85,1.22-1.43c0.23-0.48,0.41-0.99,0.66-1.46c0.43-0.81,0.75-1.68,1.54-2.43c-0.72-0.09-1.24-0.09-1.77,0.18
				c-0.75,0.39-1.29,0.4-1.9,0.16c-0.36-0.14-0.44-0.4-0.32-0.79c0.2-0.63,0.9-0.71,1.22-1.21c0.72-0.22,1.3-0.79,2.08-0.88
				c0.12-0.01,0.19-0.08,0.37-0.04c0.99,0.24,1.27,1.11,1.76,1.8c-0.05,0.44,0.29,0.24,0.48,0.32c0.25-0.49,0.49-0.96,0.74-1.43
				c0.37-0.68,0.7-0.71,1.53-0.66c0.87,0.05,1.61,0.37,2.34,0.75c0.58,0.3,0.58,0.3,0.57,1.04c-0.88,0.47-1.74,0.3-2.61-0.03
				c-0.21-0.08-0.46-0.13-0.66-0.09c-0.15,0.03-0.27,0.24-0.45,0.42c0.4,0.22,0.72,0.41,1.04,0.58c0.77,0.42,0.86,0.52,1.09,1.26
				c0.18,0.56,0.18,0.54,0.73,0.58c0.75,0.05,1.51,0.12,2.26,0.21c0.17,0.02,0.46,0.2,0.46,0.3c-0.03,0.59,0.13,1.18-0.11,1.78
				c-0.24,0.62-0.59,1.01-1.43,1c0.28,0.13,0.41,0.19,0.55,0.26c-0.05,0.66-0.72,0.42-1.01,0.72c-1.15-0.02-2.17,0.49-3.22,0.83
				c-0.53,0.17-1,0.55-1.48,0.82c0,0.67-0.12,1.31,0.03,1.88c0.35,1.33,0.15,2.67,0.16,3.99c0,1.18-0.22,2.36-0.84,3.4
				c-0.34,0.56-0.43,1.17-0.59,1.8c-0.34,1.4-0.2,2.81-0.13,4.2c0.05,1.13,0.23,2.27,0.39,3.39c0.05,0.38,0.22,0.74,0.14,1.21
				c0.64,0,1.2,0.33,1.83,0.26c0.14-0.01,0.42,0.21,0.42,0.32c0,0.31-0.17,0.62-0.17,0.93c0,0.42-0.52,0.4-0.55,0.76
				c-0.28-0.1-0.57,0.3-0.85,0c-0.73,0.11-1.23-0.28-1.73-0.75c-0.34-0.32-0.45-0.74-0.52-1.11c-0.31-1.59-0.72-3.15-1.17-4.71
				c-0.23-0.79-0.49-1.56-0.72-2.36c-0.38,0.12-0.29,0.46-0.41,0.68c-0.27,0.51-0.27,1.05-0.41,1.57c-0.19,0.76-0.02,1.54-0.2,2.26
				c-0.31,1.23-0.1,2.46-0.17,3.69c-0.03,0.55,0,0.56,0.56,0.73c0.27,0.08,0.56,0.11,0.83,0.21c0.26,0.1,0.56,0.22,0.73,0.42
				c0.14,0.17,0.1,0.48,0.14,0.74c-0.16,0.03-0.26,0.05-0.37,0.08c0.05,0.16,0.18,0.37,0.12,0.47c-0.08,0.15-0.3,0.3-0.46,0.3
				c-0.28,0-0.35,0.12-0.35,0.36c-0.6,0.32-1.13-0.26-1.71-0.13c-0.27-0.27-0.54-0.53-0.8-0.8c-0.48-0.5-0.56-0.89-0.54-1.65
				c0.01-0.35,0.16-0.73-0.12-1.07c-0.09-0.1-0.06-0.32-0.06-0.48c-0.01-0.54-0.04-1.09,0-1.63c0.12-1.48-0.11-2.94-0.25-4.39
				c-0.1-1.05-0.17-2.17-0.88-3.17c-1.69-0.32-3.47-0.76-5.21-1.37c-0.63-0.22-1.32-0.56-2.04-0.12c-0.17,0.11-0.46,0.02-0.71,0.02
				c-0.09,0.76-0.2,1.5-0.27,2.24c-0.05,0.48-0.54,1.64-1.02,2.12c-0.61,0.61-1.17,1.27-1.91,1.75c-0.47,0.3-0.97,0.47-1.49,0.59
				c-0.39,0.09-0.74,0.19-1.06,0.51c-0.12,0.66,0.21,1.29,0.3,1.95c0.06,0.44,0.23,0.86,0.28,1.3c0.03,0.28,0.16,0.45,0.38,0.52
				c0.33,0.11,0.69,0.22,1.03,0.2c0.47-0.04,0.76,0.17,1.05,0.56c-0.14,0.09-0.3,0.2-0.44,0.3c0.12,0.16,0.2,0.26,0.27,0.36
				c-0.35,0.29-0.66,0.56-0.97,0.81c-0.24-0.06-0.48-0.16-0.73-0.18c-0.27-0.02-0.49-0.13-0.73-0.19c-0.77-0.2-1.05-0.78-1.26-1.43
				c-0.45-1.44-0.85-2.9-1.34-4.33c-0.16-0.46-0.09-0.99-0.12-1.54c-0.41-0.19-0.93,0.08-1.39-0.23c-0.15-0.1-0.52,0.13-0.82,0.21
				c0.11,2.01-0.36,3.96-0.2,5.94c0.02,0.2,0,0.41,0,0.7c0.31,0.08,0.64,0.14,0.96,0.25c0.24,0.08,0.47,0.19,0.68,0.33
				c0.09,0.06,0.15,0.21,0.18,0.32c0.03,0.09,0,0.28-0.02,0.28c-0.6,0.06,0.08,0.75-0.44,0.88c-0.2,0.05-0.37,0.25-0.57,0.34
				c-0.14,0.06-0.34,0.13-0.47,0.08c-0.44-0.17-0.84-0.44-1.28-0.59c-0.5-0.16-0.67-0.58-0.65-0.96c0.09-1.31-0.27-2.58-0.23-3.89
				c0.03-1.05,0.02-2.1,0-3.15c0-0.28,0.08-0.57-0.15-0.86c-0.11-0.14,0.03-0.48,0.07-0.74C481.31,52.18,481.35,51.96,481.41,51.66z
				"/>
		</g>
		<g>
			<path class="st9" d="M478.36,74.52c-0.37,0-0.74-0.07-1.11-0.2c-0.37-0.14-0.7-0.34-0.99-0.61l0.73-0.88
				c0.2,0.17,0.43,0.32,0.67,0.43c0.25,0.11,0.49,0.17,0.73,0.17c0.27,0,0.46-0.05,0.59-0.15c0.13-0.1,0.2-0.23,0.2-0.4
				c0-0.09-0.02-0.16-0.06-0.23c-0.04-0.06-0.09-0.12-0.17-0.17c-0.07-0.05-0.16-0.1-0.26-0.14c-0.1-0.04-0.21-0.09-0.33-0.14
				l-0.74-0.31c-0.14-0.06-0.29-0.13-0.42-0.23c-0.14-0.09-0.26-0.2-0.36-0.33c-0.11-0.12-0.19-0.27-0.26-0.43
				c-0.06-0.17-0.1-0.35-0.1-0.56c0-0.23,0.05-0.45,0.15-0.66c0.1-0.21,0.24-0.39,0.42-0.54c0.18-0.15,0.39-0.27,0.64-0.36
				c0.25-0.09,0.52-0.13,0.81-0.13c0.33,0,0.66,0.06,0.98,0.19c0.32,0.13,0.6,0.31,0.85,0.56l-0.65,0.81
				c-0.19-0.14-0.37-0.26-0.56-0.33c-0.19-0.08-0.39-0.12-0.62-0.12c-0.22,0-0.4,0.04-0.53,0.13c-0.13,0.09-0.2,0.22-0.2,0.38
				c0,0.09,0.02,0.16,0.07,0.22c0.04,0.06,0.1,0.12,0.18,0.16c0.08,0.05,0.17,0.1,0.27,0.14c0.1,0.04,0.22,0.09,0.34,0.14l0.73,0.3
				c0.35,0.14,0.62,0.33,0.82,0.57c0.2,0.24,0.3,0.56,0.3,0.96c0,0.24-0.05,0.46-0.14,0.67c-0.1,0.21-0.23,0.4-0.42,0.56
				c-0.18,0.16-0.41,0.29-0.67,0.38C478.99,74.47,478.69,74.52,478.36,74.52z"/>
			<path class="st9" d="M482.38,74.42v-4.59h-1.55v-1.08h4.39v1.08h-1.55v4.59H482.38z"/>
			<path class="st9" d="M486.11,74.42v-5.66h2.04c0.3,0,0.58,0.03,0.85,0.09c0.26,0.06,0.49,0.15,0.69,0.29
				c0.2,0.14,0.35,0.32,0.47,0.54c0.12,0.23,0.17,0.51,0.17,0.84c0,0.42-0.09,0.76-0.27,1.03c-0.18,0.27-0.43,0.47-0.73,0.6
				l1.29,2.27h-1.43l-1.09-2.04h-0.7v2.04H486.11z M487.39,71.36h0.66c0.34,0,0.59-0.07,0.77-0.21c0.18-0.14,0.27-0.35,0.27-0.63
				s-0.09-0.47-0.27-0.58c-0.18-0.11-0.43-0.17-0.77-0.17h-0.66V71.36z"/>
			<path class="st9" d="M491.43,74.42v-5.66h3.54v1.08h-2.27v1.14h1.93v1.07h-1.93v1.3h2.35v1.08H491.43z"/>
			<path class="st9" d="M496.19,74.42v-5.66h1.31l1.48,2.81l0.56,1.25h0.03c-0.03-0.3-0.06-0.64-0.1-1.01
				c-0.04-0.37-0.06-0.72-0.06-1.06v-2h1.22v5.66h-1.31l-1.48-2.82l-0.56-1.23h-0.03c0.03,0.31,0.06,0.65,0.1,1.01
				s0.06,0.71,0.06,1.04v2.01H496.19z"/>
			<path class="st9" d="M504.47,74.52c-0.39,0-0.75-0.06-1.09-0.19c-0.34-0.12-0.63-0.31-0.88-0.55c-0.25-0.24-0.44-0.55-0.59-0.91
				c-0.14-0.36-0.21-0.78-0.21-1.25c0-0.47,0.07-0.89,0.22-1.26c0.14-0.37,0.34-0.68,0.59-0.93c0.25-0.25,0.55-0.45,0.88-0.58
				c0.34-0.13,0.69-0.2,1.07-0.2c0.41,0,0.76,0.08,1.06,0.23c0.3,0.15,0.54,0.32,0.72,0.51l-0.67,0.82
				c-0.14-0.13-0.3-0.23-0.46-0.32c-0.16-0.09-0.36-0.13-0.61-0.13c-0.22,0-0.42,0.04-0.6,0.13c-0.18,0.08-0.34,0.2-0.47,0.36
				c-0.13,0.16-0.24,0.35-0.31,0.57c-0.07,0.23-0.11,0.48-0.11,0.76c0,0.58,0.13,1.04,0.4,1.36c0.26,0.32,0.66,0.48,1.19,0.48
				c0.12,0,0.23-0.01,0.34-0.04c0.11-0.03,0.2-0.07,0.27-0.13v-0.97h-0.94v-1.04h2.07v2.61c-0.2,0.19-0.46,0.35-0.78,0.49
				C505.23,74.46,504.87,74.52,504.47,74.52z"/>
			<path class="st9" d="M508.43,74.42v-4.59h-1.55v-1.08h4.39v1.08h-1.55v4.59H508.43z"/>
			<path class="st9" d="M512.16,74.42v-5.66h1.28v2.18h1.95v-2.18h1.29v5.66h-1.29v-2.36h-1.95v2.36H512.16z"/>
			<path class="st9" d="M519.74,74.52c-0.37,0-0.74-0.07-1.11-0.2c-0.37-0.14-0.7-0.34-0.99-0.61l0.73-0.88
				c0.2,0.17,0.43,0.32,0.67,0.43c0.25,0.11,0.49,0.17,0.73,0.17c0.27,0,0.46-0.05,0.59-0.15c0.13-0.1,0.2-0.23,0.2-0.4
				c0-0.09-0.02-0.16-0.06-0.23c-0.04-0.06-0.09-0.12-0.17-0.17c-0.07-0.05-0.16-0.1-0.26-0.14c-0.1-0.04-0.21-0.09-0.33-0.14
				l-0.74-0.31c-0.14-0.06-0.29-0.13-0.42-0.23c-0.14-0.09-0.26-0.2-0.36-0.33c-0.11-0.12-0.19-0.27-0.26-0.43
				c-0.06-0.17-0.1-0.35-0.1-0.56c0-0.23,0.05-0.45,0.15-0.66c0.1-0.21,0.24-0.39,0.42-0.54c0.18-0.15,0.39-0.27,0.64-0.36
				c0.25-0.09,0.52-0.13,0.81-0.13c0.33,0,0.66,0.06,0.98,0.19c0.32,0.13,0.6,0.31,0.85,0.56l-0.65,0.81
				c-0.19-0.14-0.37-0.26-0.56-0.33c-0.19-0.08-0.39-0.12-0.62-0.12c-0.22,0-0.4,0.04-0.53,0.13c-0.13,0.09-0.2,0.22-0.2,0.38
				c0,0.09,0.02,0.16,0.07,0.22c0.04,0.06,0.1,0.12,0.18,0.16c0.08,0.05,0.17,0.1,0.27,0.14c0.1,0.04,0.22,0.09,0.34,0.14l0.73,0.3
				c0.35,0.14,0.62,0.33,0.82,0.57c0.2,0.24,0.3,0.56,0.3,0.96c0,0.24-0.05,0.46-0.14,0.67c-0.1,0.21-0.23,0.4-0.42,0.56
				c-0.18,0.16-0.41,0.29-0.67,0.38C520.38,74.47,520.08,74.52,519.74,74.52z"/>
		</g>
	</g>
	<text transform="matrix(1 0 0 1 39.8456 80.8732)" class="st1 st2 st11">S</text>
	<rect x="131.78" y="20.55" class="st4" width="146.23" height="79.65"/>
	<text transform="matrix(1 0 0 1 131.7836 29.6772)"><tspan x="0" y="0" class="st1 st5 st6">Color contrast is easy for users </tspan><tspan x="0.72" y="13.2" class="st1 st5 st6">to see CTA is clear</tspan><tspan x="0" y="39.6" class="st1 st5 st6">Images clearly depict animals </tspan><tspan x="0.72" y="52.8" class="st1 st5 st6">grabbing user’s attention</tspan></text>
	<rect x="296.75" y="20.55" class="st4" width="146.23" height="54.91"/>
	<text transform="matrix(1 0 0 1 296.7472 29.6772)"><tspan x="0" y="0" class="st1 st5 st6">Good use of white space, icons, </tspan><tspan x="0.72" y="13.2" class="st1 st5 st6">and hierarchy</tspan></text>
	<circle class="st1" cx="123.19" cy="26.39" r="2.36"/>
	<circle class="st1" cx="288.21" cy="26.39" r="2.36"/>
	<circle class="st1" cx="123.19" cy="65.84" r="2.36"/>
</g>
<g>
	<path class="st9" d="M-95.57,340.68h-19.2c-0.28,0-0.5,0.22-0.5,0.5s0.22,0.5,0.5,0.5h19.01
		C-95.75,341.31-95.68,340.97-95.57,340.68z"/>
	<path class="st9" d="M-135.86,358.44c-0.28,0-0.5,0.22-0.5,0.5c0,0.28,0.22,0.5,0.5,0.5h21.2c-0.12-0.31-0.18-0.64-0.19-1H-135.86z
		"/>
	<path class="st9" d="M-135.85,334.82c0.08,0.21,0.18,0.43,0.31,0.66c0.13,0.23,0.31,0.43,0.53,0.62c0.22,0.19,0.49,0.34,0.81,0.45
		c0.32,0.12,0.7,0.17,1.14,0.17c1.16,0,2.03-0.27,2.59-0.81c0.56-0.54,0.84-1.29,0.84-2.23c0-0.39-0.04-0.74-0.12-1.05
		c-0.08-0.31-0.2-0.58-0.35-0.82c-0.15-0.24-0.34-0.46-0.56-0.66c-0.22-0.2-0.47-0.38-0.74-0.56l-1.49-0.98
		c-0.25-0.16-0.45-0.31-0.59-0.46c-0.14-0.15-0.25-0.28-0.32-0.41c-0.08-0.13-0.12-0.25-0.14-0.38c-0.02-0.13-0.03-0.25-0.03-0.37
		c0-0.32,0.1-0.57,0.3-0.76c0.2-0.19,0.46-0.28,0.77-0.28c0.29,0,0.53,0.07,0.72,0.22c0.19,0.15,0.31,0.41,0.36,0.79
		c0.02,0.19,0.05,0.36,0.08,0.5c0.04,0.15,0.09,0.27,0.16,0.36c0.07,0.1,0.17,0.17,0.29,0.21c0.13,0.05,0.29,0.07,0.49,0.07
		c0.29,0,0.53-0.09,0.72-0.26c0.19-0.17,0.28-0.43,0.28-0.77c0-0.28-0.05-0.58-0.15-0.9c-0.1-0.32-0.27-0.61-0.5-0.88
		c-0.24-0.27-0.54-0.5-0.93-0.68c-0.38-0.18-0.85-0.27-1.42-0.27c-0.43,0-0.84,0.06-1.23,0.17c-0.39,0.12-0.73,0.29-1.02,0.53
		c-0.29,0.24-0.52,0.53-0.69,0.88c-0.17,0.35-0.26,0.77-0.26,1.25c0,0.55,0.1,1.04,0.29,1.48c0.19,0.43,0.55,0.83,1.08,1.21
		l1.94,1.37c0.18,0.13,0.34,0.25,0.47,0.37c0.13,0.12,0.24,0.23,0.32,0.35c0.09,0.12,0.15,0.25,0.18,0.4
		c0.04,0.15,0.05,0.31,0.05,0.49c0,0.35-0.1,0.65-0.29,0.9c-0.19,0.25-0.49,0.37-0.89,0.37c-0.41,0-0.71-0.13-0.9-0.39
		c-0.19-0.26-0.29-0.58-0.31-0.95c-0.03-0.48-0.12-0.82-0.28-1.02c-0.16-0.2-0.39-0.29-0.72-0.29c-0.21,0-0.38,0.04-0.52,0.11
		c-0.14,0.08-0.24,0.18-0.32,0.3c-0.08,0.13-0.13,0.27-0.15,0.44c-0.03,0.17-0.04,0.34-0.04,0.52c0,0.09,0.01,0.22,0.04,0.4
		C-135.97,334.42-135.92,334.61-135.85,334.82z"/>
	<path class="st9" d="M-125.54,331.16l-1.64,0.86c-0.48,0.26-0.82,0.58-1.02,0.96c-0.2,0.38-0.29,0.88-0.29,1.5
		c0,0.38,0.05,0.71,0.14,0.99c0.1,0.28,0.23,0.5,0.4,0.68c0.17,0.18,0.37,0.31,0.6,0.39c0.23,0.09,0.48,0.13,0.75,0.13
		c0.33,0,0.65-0.08,0.96-0.23c0.31-0.16,0.54-0.42,0.72-0.79l0.03-0.01c0,0.4,0.1,0.68,0.29,0.82c0.2,0.15,0.42,0.22,0.67,0.22
		c0.61,0,0.92-0.24,0.92-0.72c0-0.13-0.02-0.3-0.05-0.51c-0.04-0.21-0.05-0.45-0.05-0.71v-4.19c0-0.33-0.03-0.64-0.08-0.93
		c-0.06-0.29-0.18-0.55-0.36-0.77c-0.19-0.22-0.46-0.39-0.82-0.52c-0.36-0.13-0.85-0.19-1.46-0.19c-0.35,0-0.68,0.05-0.99,0.14
		c-0.31,0.1-0.58,0.23-0.81,0.41c-0.23,0.18-0.41,0.41-0.55,0.68c-0.14,0.27-0.2,0.58-0.2,0.93c0,0.14,0.03,0.26,0.09,0.35
		c0.06,0.1,0.14,0.17,0.23,0.23c0.1,0.06,0.2,0.1,0.32,0.13c0.12,0.03,0.22,0.04,0.32,0.04c0.24,0,0.44-0.05,0.6-0.16
		c0.16-0.11,0.25-0.25,0.27-0.43c0.04-0.32,0.12-0.56,0.24-0.72c0.12-0.16,0.34-0.24,0.66-0.24c0.23,0,0.41,0.08,0.53,0.24
		c0.12,0.16,0.18,0.35,0.18,0.57C-124.95,330.67-125.14,330.96-125.54,331.16z M-124.95,333.69c0,0.43-0.09,0.79-0.26,1.08
		c-0.17,0.29-0.41,0.44-0.71,0.44c-0.2,0-0.36-0.08-0.47-0.25c-0.12-0.17-0.17-0.4-0.17-0.72c0-0.17,0.01-0.32,0.04-0.45
		c0.02-0.13,0.07-0.25,0.14-0.37c0.07-0.12,0.17-0.23,0.29-0.35c0.13-0.12,0.29-0.24,0.49-0.38l0.65-0.45V333.69z"/>
	<path class="st9" d="M-121.97,329.38l1.45,6.12c0.04,0.2,0.09,0.37,0.15,0.51c0.06,0.14,0.14,0.26,0.23,0.36
		c0.1,0.1,0.22,0.17,0.38,0.22c0.16,0.05,0.36,0.07,0.6,0.07c0.45,0,0.76-0.07,0.93-0.22c0.17-0.15,0.29-0.35,0.36-0.61l1.48-6.3
		c0.06-0.22,0.09-0.43,0.09-0.63c0-0.19-0.07-0.37-0.21-0.53c-0.14-0.17-0.37-0.25-0.69-0.25c-0.32,0-0.55,0.09-0.69,0.26
		c-0.14,0.17-0.23,0.41-0.28,0.71l-0.92,5.35h-0.03l-0.96-5.35c-0.06-0.35-0.17-0.6-0.33-0.75c-0.16-0.15-0.4-0.22-0.71-0.22
		c-0.24,0-0.46,0.07-0.65,0.22c-0.19,0.15-0.29,0.35-0.29,0.63c0,0.07,0.01,0.14,0.02,0.2C-122,329.22-121.99,329.29-121.97,329.38z
		"/>
	<path class="st9" d="M-115.07,335.73c0.2,0.3,0.48,0.52,0.85,0.69c0.37,0.16,0.87,0.24,1.49,0.24c0.75,0,1.36-0.21,1.82-0.63
		c0.46-0.42,0.69-1,0.69-1.74c0-0.36-0.09-0.6-0.26-0.72c-0.18-0.12-0.4-0.18-0.67-0.18c-0.26,0-0.47,0.06-0.63,0.19
		c-0.16,0.13-0.25,0.39-0.27,0.79c-0.01,0.22-0.08,0.42-0.21,0.59c-0.13,0.17-0.3,0.26-0.5,0.26c-0.19,0-0.34-0.05-0.45-0.14
		c-0.11-0.09-0.19-0.21-0.25-0.37c-0.06-0.16-0.09-0.34-0.11-0.56c-0.02-0.22-0.02-0.44-0.02-0.69v-0.83h2.41
		c0.23,0,0.41-0.03,0.55-0.1c0.14-0.07,0.24-0.16,0.31-0.28c0.07-0.12,0.12-0.26,0.14-0.42c0.02-0.16,0.03-0.33,0.03-0.51
		c0-1.06-0.19-1.87-0.56-2.4c-0.38-0.54-1.04-0.81-2-0.81c-0.62,0-1.12,0.08-1.49,0.24c-0.37,0.16-0.66,0.39-0.85,0.69
		c-0.2,0.3-0.32,0.66-0.38,1.08c-0.06,0.42-0.08,0.89-0.08,1.42v1.7c0,0.52,0.03,0.99,0.08,1.42
		C-115.4,335.08-115.27,335.44-115.07,335.73z M-113.61,330.66c0-0.31,0.06-0.57,0.17-0.78c0.12-0.21,0.32-0.32,0.63-0.32
		c0.3,0,0.51,0.11,0.63,0.32c0.12,0.21,0.17,0.47,0.17,0.78v0.68h-1.6V330.66z"/>
	<path class="st9" d="M-104.9,336.66c0.32,0,0.56-0.07,0.72-0.22c0.16-0.15,0.27-0.39,0.34-0.73l0.41-1.96h2.49l0.32,1.6
		c0.1,0.5,0.24,0.85,0.41,1.03c0.17,0.19,0.44,0.28,0.81,0.28c0.25,0,0.48-0.07,0.69-0.21c0.21-0.14,0.31-0.38,0.31-0.72
		c0-0.08-0.02-0.2-0.05-0.35c-0.03-0.15-0.07-0.31-0.11-0.48l-1.91-8.06c-0.06-0.27-0.13-0.5-0.22-0.69
		c-0.09-0.19-0.19-0.33-0.32-0.44c-0.13-0.11-0.29-0.18-0.47-0.23c-0.18-0.05-0.4-0.07-0.65-0.07c-0.28,0-0.51,0.02-0.7,0.07
		c-0.19,0.05-0.34,0.12-0.46,0.23c-0.12,0.11-0.22,0.25-0.29,0.44c-0.08,0.19-0.14,0.41-0.2,0.69l-1.93,8.12
		c-0.04,0.15-0.07,0.3-0.09,0.46c-0.02,0.16-0.03,0.28-0.03,0.37c0,0.26,0.08,0.47,0.25,0.63
		C-105.44,336.58-105.2,336.66-104.9,336.66z M-102.19,327.65h0.03l0.89,4.5h-1.84L-102.19,327.65z"/>
	<path class="st9" d="M-96.5,336.66c0.28,0,0.5-0.09,0.67-0.26c0.17-0.18,0.25-0.45,0.25-0.84v-4.38c0-0.51,0.09-0.88,0.26-1.11
		c0.18-0.23,0.41-0.35,0.7-0.35c0.2,0,0.37,0.07,0.5,0.2c0.14,0.14,0.2,0.35,0.2,0.66v4.99c0,0.38,0.08,0.66,0.25,0.84
		s0.39,0.26,0.67,0.26c0.28,0,0.5-0.09,0.67-0.26s0.25-0.45,0.25-0.84v-5.42c0-0.69-0.17-1.2-0.5-1.53
		c-0.33-0.33-0.75-0.49-1.27-0.49c-0.35,0-0.69,0.09-1.01,0.26c-0.32,0.18-0.56,0.44-0.71,0.79h-0.03c0-0.35-0.08-0.61-0.25-0.79
		c-0.17-0.18-0.39-0.26-0.67-0.26c-0.28,0-0.5,0.09-0.67,0.26c-0.17,0.18-0.25,0.45-0.25,0.84v6.34c0,0.38,0.08,0.66,0.25,0.84
		C-97,336.57-96.78,336.66-96.5,336.66z"/>
	<path class="st9" d="M-130.73,340.3c-0.4,0-0.74,0.03-1,0.1c-0.27,0.06-0.48,0.17-0.66,0.32c-0.17,0.15-0.31,0.36-0.42,0.62
		c-0.11,0.27-0.2,0.59-0.29,0.98l-2.75,11.6c-0.06,0.22-0.1,0.43-0.13,0.66c-0.03,0.22-0.04,0.4-0.04,0.53
		c0,0.37,0.12,0.67,0.36,0.9c0.24,0.23,0.57,0.34,1,0.34c0.46,0,0.8-0.1,1.02-0.31c0.22-0.21,0.38-0.56,0.48-1.04l0.58-2.8h3.55
		l0.45,2.28c0.14,0.72,0.34,1.21,0.58,1.47c0.24,0.27,0.63,0.4,1.16,0.4c0.36,0,0.68-0.1,0.98-0.3c0.29-0.2,0.44-0.54,0.44-1.03
		c0-0.11-0.02-0.28-0.06-0.49c-0.04-0.22-0.09-0.44-0.15-0.69l-2.73-11.51c-0.09-0.39-0.19-0.71-0.31-0.98
		c-0.12-0.27-0.28-0.47-0.46-0.62c-0.19-0.15-0.41-0.26-0.67-0.32C-130.06,340.33-130.37,340.3-130.73,340.3z M-132.1,349.92
		l1.31-6.43h0.04l1.27,6.43H-132.1z"/>
	<path class="st9" d="M-118.6,355.97c0.24,0.25,0.56,0.38,0.96,0.38c0.4,0,0.72-0.13,0.96-0.38c0.24-0.25,0.36-0.65,0.36-1.19v-7.75
		c0-0.99-0.24-1.72-0.71-2.18c-0.47-0.47-1.08-0.7-1.81-0.7c-0.5,0-0.98,0.13-1.44,0.38c-0.46,0.25-0.8,0.63-1.01,1.13h-0.04
		c0-0.5-0.12-0.88-0.36-1.13c-0.24-0.25-0.56-0.38-0.96-0.38c-0.4,0-0.72,0.13-0.96,0.38c-0.24,0.25-0.36,0.65-0.36,1.19v9.06
		c0,0.55,0.12,0.94,0.36,1.19c0.24,0.25,0.56,0.38,0.96,0.38c0.4,0,0.72-0.13,0.96-0.38c0.24-0.25,0.36-0.65,0.36-1.19v-6.26
		c0-0.73,0.13-1.26,0.38-1.59c0.25-0.33,0.58-0.49,1-0.49c0.29,0,0.53,0.1,0.72,0.29c0.19,0.19,0.29,0.51,0.29,0.94v7.12
		C-118.96,355.32-118.84,355.72-118.6,355.97z"/>
	<path class="st9" d="M-107.72,344.15c-0.42,0-0.74,0.13-0.96,0.38c-0.22,0.25-0.33,0.65-0.33,1.19h-0.04
		c-0.2-0.5-0.53-0.89-0.98-1.16c-0.45-0.27-0.93-0.41-1.43-0.41c-0.56,0-1.02,0.12-1.38,0.37c-0.36,0.24-0.64,0.57-0.85,0.98
		c-0.21,0.41-0.36,0.88-0.44,1.4c-0.09,0.52-0.13,1.07-0.13,1.62v3.01c0,0.6,0.04,1.18,0.11,1.72c0.07,0.55,0.21,1.03,0.41,1.44
		c0.2,0.42,0.48,0.75,0.85,1c0.37,0.25,0.84,0.38,1.43,0.38c0.27,0,0.52-0.02,0.74-0.05c0.22-0.04,0.43-0.1,0.61-0.19
		c0.19-0.09,0.36-0.23,0.51-0.4c0.15-0.17,0.3-0.39,0.46-0.67h0.04v1.61c0,0.79-0.09,1.37-0.26,1.74c-0.17,0.37-0.55,0.56-1.12,0.56
		c-0.16,0-0.32-0.05-0.48-0.16c-0.17-0.11-0.31-0.29-0.42-0.55c-0.09-0.2-0.23-0.38-0.42-0.54c-0.19-0.16-0.44-0.24-0.74-0.24
		c-0.37,0-0.69,0.1-0.94,0.3c-0.25,0.2-0.38,0.49-0.38,0.86c0,0.39,0.09,0.72,0.26,0.99c0.17,0.27,0.41,0.49,0.72,0.67
		c0.31,0.17,0.67,0.3,1.1,0.39c0.42,0.09,0.88,0.13,1.37,0.13c1.32,0,2.31-0.3,2.96-0.9c0.65-0.6,0.98-1.57,0.98-2.91v-11
		c0-0.54-0.11-0.94-0.34-1.19C-107.05,344.27-107.35,344.15-107.72,344.15z M-109.1,351.18c0,0.59-0.04,1.07-0.12,1.43
		c-0.08,0.37-0.18,0.65-0.3,0.86c-0.12,0.21-0.26,0.35-0.41,0.42c-0.15,0.07-0.3,0.11-0.46,0.11c-0.22,0-0.39-0.05-0.54-0.15
		c-0.14-0.1-0.26-0.28-0.34-0.53c-0.09-0.25-0.15-0.58-0.18-1c-0.04-0.42-0.05-0.95-0.05-1.59v-1.85c0-0.95,0.1-1.61,0.3-1.99
		c0.2-0.38,0.49-0.57,0.86-0.57c0.13,0,0.27,0.04,0.41,0.11c0.14,0.07,0.28,0.21,0.4,0.42c0.12,0.21,0.23,0.49,0.31,0.86
		c0.09,0.37,0.13,0.84,0.13,1.43V351.18z"/>
	<path class="st9" d="M-98.19,350.6c0.33,0,0.59-0.05,0.79-0.14c0.19-0.09,0.34-0.23,0.44-0.4c0.1-0.17,0.16-0.37,0.19-0.6
		c0.03-0.23,0.04-0.47,0.04-0.73c0-1.52-0.27-2.66-0.81-3.43c-0.54-0.77-1.49-1.15-2.85-1.15c-0.89,0-1.6,0.11-2.13,0.34
		c-0.53,0.23-0.94,0.56-1.22,0.98c-0.28,0.42-0.46,0.94-0.54,1.54c-0.08,0.6-0.12,1.28-0.12,2.02v2.43c0,0.75,0.04,1.42,0.12,2.02
		c0.08,0.6,0.26,1.12,0.54,1.54c0.28,0.42,0.68,0.75,1.22,0.98c0.53,0.23,1.24,0.34,2.13,0.34c1.08,0,1.94-0.3,2.59-0.89
		c0.65-0.6,0.98-1.42,0.98-2.49c0-0.52-0.13-0.86-0.38-1.03c-0.25-0.17-0.57-0.26-0.96-0.26c-0.37,0-0.67,0.09-0.9,0.27
		c-0.23,0.18-0.36,0.56-0.39,1.13c-0.01,0.32-0.11,0.6-0.3,0.84c-0.19,0.24-0.42,0.37-0.71,0.37c-0.27,0-0.49-0.06-0.65-0.19
		c-0.16-0.13-0.28-0.3-0.36-0.53c-0.08-0.22-0.13-0.49-0.15-0.8c-0.02-0.31-0.03-0.63-0.03-0.98v-1.18H-98.19z M-101.63,347.78
		c0-0.44,0.08-0.82,0.25-1.12c0.16-0.3,0.46-0.45,0.89-0.45c0.43,0,0.73,0.15,0.89,0.45c0.16,0.3,0.25,0.67,0.25,1.12v0.97h-2.28
		V347.78z"/>
	<path class="st9" d="M-93.46,340.3c-0.4,0-0.72,0.13-0.96,0.38c-0.24,0.25-0.36,0.65-0.36,1.19v12.91c0,0.55,0.12,0.94,0.36,1.19
		c0.24,0.25,0.56,0.38,0.96,0.38c0.4,0,0.72-0.13,0.96-0.38c0.24-0.25,0.36-0.65,0.36-1.19v-12.91c0-0.55-0.12-0.94-0.36-1.19
		C-92.74,340.42-93.05,340.3-93.46,340.3z"/>
	<path class="st9" d="M-126.64,340.82c-0.18,0.21-0.36,0.42-0.49,0.7c-0.13,0.27-0.23,0.63-0.09,1.02c0.14,0.38,0.45,0.61,0.72,0.74
		c0.28,0.14,0.56,0.2,0.83,0.25c0.55,0.08,1.08,0.08,1.6,0.03c1.04-0.1,2.04-0.37,2.99-0.75c0.95-0.39,1.84-0.93,2.62-1.59
		c0.39-0.34,0.76-0.7,1.07-1.1c0.15-0.21,0.3-0.42,0.39-0.67c0.1-0.24,0.15-0.52,0.04-0.77c-0.1-0.25-0.33-0.42-0.56-0.52
		c-0.23-0.11-0.48-0.16-0.73-0.2c-0.5-0.07-1-0.07-1.5-0.04c-1,0.07-2,0.28-2.95,0.6c-0.95,0.34-1.88,0.76-2.74,1.31
		C-125.86,340.11-126.27,340.42-126.64,340.82z M-122.51,338.98c0.9-0.37,1.83-0.68,2.8-0.86c0.48-0.08,0.98-0.12,1.46-0.07
		c0.24,0.04,0.49,0.07,0.7,0.18c0.22,0.1,0.42,0.26,0.5,0.48c0.07,0.22,0.01,0.46-0.09,0.67c-0.1,0.21-0.27,0.39-0.43,0.56
		c-0.35,0.33-0.76,0.6-1.18,0.83c-0.86,0.45-1.76,0.78-2.67,1.1c-0.91,0.31-1.83,0.56-2.76,0.71c-0.46,0.07-0.93,0.11-1.37,0.07
		c-0.43-0.03-0.85-0.2-0.92-0.39c-0.1-0.19,0.09-0.62,0.38-0.96c0.29-0.34,0.65-0.65,1.04-0.94
		C-124.28,339.8-123.41,339.35-122.51,338.98z"/>
	<path class="st9" d="M-11.45,351.65l1.52-0.52l-2.03,0.55l1.56-0.48l-1.12,0.25l1.03-0.33l-1.07,0.12l0.85-0.22l-0.86,0.12
		l0.74-0.23l-1.04,0.22l0.6-0.18l-0.77,0.12l0.62-0.21l-1.85,0.37c-0.01,0-0.02-0.01-0.04-0.01l1.58-0.34l-1.05,0.12l-0.83,0.14
		l-0.08,0.03c-0.51-0.04-1.07,0-1.07,0l-7.44,1.62c-0.02-0.01-0.06,0.01-0.1,0.02l-2.45,0.31c-0.1-0.1-0.17-0.07-0.27-0.02
		c-0.05,0.03-0.09,0.05-0.14,0.07l-0.54,0.07c0.02-0.03,0.05-0.05,0.04-0.09c-0.03-0.01-0.06,0.01-0.09,0.02
		c-0.13,0.05-0.26,0.09-0.4,0.13l-0.6,0.07l-3.95,0.08l-1.73-0.09l-0.99-0.73c-0.26-0.49-0.58-0.97-0.8-1.47
		c-0.38-0.87-1.06-1.64-1.55-2.49c-0.76-1.32-1.63-2.59-2.23-3.98c-0.01-0.02-0.02-0.04-0.03-0.06l0.12-0.12l-0.16-0.04l0.01-0.33
		h-0.23c-0.01-0.01-0.02-0.03-0.02-0.04l0.05-0.2l-0.16,0.02c-0.03-0.04-0.06-0.08-0.09-0.12l0.13-0.4l-0.24,0.2l-0.09-0.54
		l-0.08,0.39c-0.01-0.01-0.02-0.02-0.03-0.03l-0.16-0.66l-0.12,0.36c-0.52-0.52-1.1-0.97-1.66-1.46c-0.22-0.2-0.53-0.32-0.68-0.59
		c-0.17-0.3-0.44-0.47-0.67-0.7c-0.18-0.17-0.37-0.33-0.57-0.47c0-0.05-0.01-0.15-0.01-0.15s-0.5-0.05-0.61-0.38
		c-0.18-0.51-0.37-1.02-0.61-1.51c-0.09-0.18-0.17-0.35-0.32-0.5c-0.04-0.04-0.04-0.08-0.04-0.13c-0.02-0.32-0.07-0.64-0.14-0.95
		c-0.1-0.46-0.24-0.91-0.5-1.31c-0.14-0.22-0.31-0.4-0.53-0.54c-0.06-0.04-0.12-0.09-0.11-0.16c0.02-0.07,0.1-0.05,0.16-0.07
		c0.02,0,0.05-0.01,0.08-0.01c-0.01-0.04-0.05-0.05-0.07-0.06c-0.15-0.08-0.31-0.15-0.44-0.26c-0.04-0.03-0.1-0.07,0-0.1
		c0.06-0.02,0.02-0.05,0-0.08c-0.06-0.08-0.12-0.16-0.16-0.25c-0.02-0.04-0.04-0.09,0.03-0.11c0.05-0.02,0.02-0.04,0-0.06
		c-0.05-0.05-0.11-0.09-0.16-0.14c-0.04-0.04-0.06-0.09,0.01-0.12c0.04-0.02,0.03-0.04,0-0.06c-0.03-0.02-0.05-0.04-0.08-0.06
		c-0.1-0.1-0.1-0.13,0.03-0.21c-0.08-0.01-0.15-0.02-0.22-0.04c-0.19-0.05-0.22-0.13-0.14-0.31c0-0.01,0.01-0.02,0.01-0.05
		c-0.25,0.1-0.37-0.07-0.49-0.23c-0.14-0.18-0.2-0.41-0.28-0.62c-0.13-0.36-0.26-0.72-0.37-1.09c-0.04-0.15-0.08-0.3-0.1-0.45
		c-0.09-0.63-0.34-1.17-0.79-1.62c-0.07-0.07-0.08-0.16-0.1-0.24c-0.13-0.4-0.27-0.79-0.45-1.16c-0.05-0.1-0.11-0.2-0.17-0.3
		c-0.14-0.21-0.25-0.44-0.32-0.68c-0.03-0.12-0.01-0.25-0.01-0.37c0-0.59-0.05-1.17-0.25-1.72c-0.08-0.22-0.18-0.43-0.28-0.63
		c-0.17-0.33-0.43-0.37-0.71-0.11c-0.1,0.1-0.16,0.22-0.22,0.34c-0.02,0.04-0.04,0.09-0.06,0.14c-0.02-0.05-0.03-0.08-0.05-0.11
		c-0.06-0.1-0.12-0.1-0.19-0.01c-0.04,0.05-0.06,0.11-0.09,0.17c-0.1,0.29-0.18,0.59-0.3,0.87c-0.1,0.25-0.2,0.49-0.36,0.71
		c-0.09,0.13-0.2,0.21-0.38,0.21c-0.18,0-0.37,0.06-0.54,0.12c-0.06,0.02-0.09,0.02-0.12-0.04c-0.03-0.07-0.1-0.1-0.18-0.1
		c-0.12-0.01-0.24,0.01-0.35,0.05c-0.24,0.07-0.48,0.07-0.72,0.04c-0.06-0.01-0.14-0.01-0.13-0.12c0-0.04-0.03-0.02-0.05-0.02
		c-0.35,0.13-0.71,0.24-1.02,0.48c-0.07,0.06-0.3,0.05-0.35-0.03c-0.04-0.07-0.06-0.03-0.08,0.01c-0.13,0.24-0.28,0.46-0.43,0.69
		c-0.25,0.38-0.56,0.69-0.95,0.92c-0.25,0.15-0.48,0.32-0.76,0.42c-0.25,0.09-0.34,0.29-0.41,0.52c-0.05,0.15-0.04,0.3,0.07,0.43
		c0.03,0.04,0.02,0.07,0,0.11c-0.07,0.22-0.05,0.43,0.06,0.64c0.03,0.05,0.06,0.1,0.11,0.15c0.16,0.14,0.2,0.31,0.13,0.49
		c-0.06,0.15-0.03,0.29,0.02,0.42c0.14,0.37,0.4,0.65,0.74,0.84c0.55,0.3,1.12,0.58,1.67,0.87c0.25,0.13,0.49,0.26,0.73,0.39
		c0.13,0.07,0.21,0.19,0.26,0.32c0.13,0.28,0.17,0.59,0.19,0.89c0.03,0.57-0.04,1.14-0.11,1.71c-0.08,0.69-0.16,1.38-0.33,2.05
		c-0.11,0.45-0.06,0.71-0.06,0.71l-0.56-0.05c0,0-0.57-0.13-0.86-0.19l-1.04-0.32l0.07,0.16c-0.04,0-0.08-0.01-0.13-0.01l-0.26-0.18
		l0.15,0.16c-0.05,0-0.1-0.01-0.15-0.01l-0.28-0.13l0.09,0.12c-0.02,0-0.05,0-0.07,0c-1.05-0.01-2.01-0.3-2.98-0.58
		c-0.32-0.09-0.56-0.28-0.51-0.72c0.01-0.09,0.01-0.17,0-0.25l0.16-0.63l-0.2,0.34c-0.01-0.05-0.03-0.09-0.05-0.13l0.04-0.3
		l-0.1,0.18c-0.03-0.05-0.06-0.09-0.09-0.13l-0.07-0.34l-0.02,0.24c-0.02-0.02-0.04-0.04-0.06-0.06l-0.1-0.32l-0.07,0.2
		c-0.01-0.01-0.02-0.01-0.03-0.02c-0.39-0.23-0.78-0.5-1.26-0.47c-0.11,0.01-0.18,0-0.2-0.13c-0.04-0.36-0.13-0.72-0.15-1.08
		l0.1,0.11l-0.11-0.32c0-0.03,0-0.05,0-0.08l0.13,0.13l-0.11-0.37c0-0.02,0.01-0.05,0.01-0.07l0.15,0.18l-0.06-0.38
		c0,0-0.03-0.07-0.06-0.15c-0.01-0.22-0.1-0.44-0.23-0.65c-0.21-0.33-0.47-0.61-0.71-0.91c-0.64-0.81-0.91-1.81-1.42-2.69
		c-0.16-0.27-0.45-0.59-0.33-1c0.03-0.1,0.05-0.19,0.06-0.28l0,0l0-0.04l0.01-0.19l0.05-0.92l-0.15,0.41
		c-0.02-0.04-0.03-0.07-0.05-0.11v-0.32l-0.1,0.17c-0.02-0.03-0.05-0.07-0.08-0.1l-0.18-0.44l-0.04,0.21
		c-0.37-0.38-0.75-0.75-1.12-1.12c-0.3-0.3-0.68-0.61-0.52-1.08c0.24-0.73-0.17-1.11-0.6-1.59c-0.64-0.72-1.55-1.16-2.02-2.03
		c-0.27-0.51-0.64-0.91-1.08-1.27c-0.68-0.57-1.32-1.16-1.84-1.89c-0.52-0.72-1.1-1.4-1.88-1.87c-0.7-0.42-1.29-0.26-1.76,0.38
		c-0.54,0.73-0.67,1.55-0.59,2.41c0.2,2.08,0.69,4.09,1.52,6.02c0.2,0.46,0.38,1.02-0.11,1.31c-1.11,0.67-2.1,1.49-3.1,2.31
		c-0.46,0.37-0.87,0.32-1.32,0.09c-0.27-0.14-0.52-0.33-0.79-0.48c-1.57-0.85-3.16-1.64-4.88-2.18c-0.81-0.25-1.61-0.23-2.39,0.07
		c-0.73,0.28-0.98,0.84-0.74,1.58c0.12,0.37,0.32,0.7,0.49,1.05c0.51,1,1.3,1.83,1.7,2.89c0.19,0.5,0.45,0.94,0.8,1.33
		c0.7,0.78,1.33,1.62,1.93,2.48c0.34,0.49,0.78,0.95,1.5,0.63c0.13-0.06,0.31-0.06,0.36,0.08c0.17,0.55,0.66,0.92,0.82,1.45
		c0.02,0.05,0.03,0.1,0.05,0.15l-0.07,0l0.1,0.07c0.02,0.04,0.03,0.08,0.05,0.12h-0.12l0.24,0.18c0.03,0.03,0.05,0.07,0.08,0.1
		l-0.31-0.05l0.52,0.22c0,0,0,0,0,0l-0.37,0.07l0.79,0.12c0.4,0.12,0.84,0.25,1.02,0.72c0.32,0.87-0.34,2.06-1.25,2.28
		c-0.38,0.09-0.63,0.19-0.79,0.35l-0.11-0.15l-0.09,0.46l-0.15-0.17l0.09,0.49l-0.34-0.54l0.35,0.98l-0.3-0.38l0.35,1.1
		c0.03,0.44,0.05,0.89-0.07,1.29c-0.01,0.02-0.01,0.04-0.02,0.07l-0.52,0.54l0.35-0.2l-0.12,0.44l0.15-0.1
		c-0.03,0.19-0.04,0.39-0.04,0.58l-0.11,0.24l0.12-0.02c0.01,0.35,0.06,0.71,0.15,1.06c0.09,0.39,0.19,0.81,0.06,1.2
		c-0.61,1.84-0.94,3.76-1.77,5.54c-0.19,0.4-0.39,0.79-0.61,1.16l-0.03-0.04l-0.05,0.18c-0.05,0.08-0.1,0.15-0.15,0.23l-0.05-0.2
		l-0.05,0.35c-0.02,0.03-0.04,0.05-0.06,0.08l-0.06-0.22l-0.12,0.46c-0.02,0.02-0.03,0.05-0.05,0.07l-0.02-0.32
		c0,0-0.04,0.24-0.22,0.57c-0.02,0.04-0.05,0.08-0.07,0.12c-0.01,0.01-0.02,0.02-0.03,0.03l0.08-0.28l-0.13,0.34
		c-0.21,0.22-0.43,0.43-0.67,0.63c-0.41,0.33-0.73,0.7-0.98,1.12l0.03-0.1l-0.51,1.04h-17.39c-0.1,0.37-0.23,0.7-0.39,1h17.75
		c-0.01,0.97-0.26,1.92-0.85,2.74c-0.15,0.22-0.29,0.44-0.24,0.73l-0.08,0.15l0.1-0.07c0.01,0.03,0.01,0.06,0.02,0.08l-0.15,0.2
		h0.17l-0.17,0.48l0.21-0.16l0.03-0.12c0.07,0.39,0.12,0.83,0.07,1.12c-0.18,1.01,0,1.63,0.08,2.01c0.13,0.65,0.68,1.95,0.83,2.01
		c0.23,0.1,0.3,0.27,0.48,0.77c0.07,0.18,0.43,1.01,0.6,1.07c0.38,0.13,0.04-1.01,0.5-0.29c0.14,0.21,0.73,1.26,0.79,0.79
		c0.06-0.49,0.08-0.79,0.07-0.94c0.03,0.18,0.12,0.51,0.37,0.89c0.08,0.12,0.47,0.29,0.54,0.06c0.08-0.26-0.05-1.16,0.16-1.65
		l0.01,0.04l0.02,0.09l0.06-0.28l0.04,0.13l0.03-0.22l0.05,0.08l0.03-0.14c0,0,0,0,0,0l0.07,0.16l0.05-0.18l0.03,0.12l0.03-0.07
		l0.02,0.06l-0.01-0.1c0.25,0.1,0.45,0.58,0.74,0.74c0.16,0.09,0.51,0.16,0.6,0c0.1-0.17,0.2-0.29,0.04-0.5
		c-0.2-0.26-0.46-0.78-0.41-1.1l0.33,0.47l-0.28-0.6c0.03-0.04,0.07-0.06,0.11-0.08l0.2,0.16l-0.05-0.25c0.1-0.08,0.2-0.25,0.3-0.64
		c0.13-0.52,0.18-0.8,0.09-1.33c-0.05-0.31-0.13-0.73-0.15-1.09l0.16,0.11l-0.1-1.07c0.02-0.65-0.08-1.3-0.09-1.94l0.17-0.88
		l-0.14,0.2c0-0.1,0-0.21-0.02-0.31l0.05-0.21l-0.09,0.08c-0.01-0.03-0.02-0.06-0.03-0.1c-0.21-0.47-0.02-0.68,0.47-0.71
		c0.48-0.03,0.96-0.05,1.44-0.11c0.94-0.13,1.92,0.14,2.58-0.13l0.46,0.02l-0.24-0.14c1.4-0.25,2.16,0.42,3.02,0.8
		c0.23,0.1,0.25,0.25,0.2,0.44l-0.59,0.59l-0.35,0.61l-0.41,0.41l0.52-0.17l-0.46,0.44l0.26-0.05c-0.01,0.02-0.03,0.04-0.04,0.05
		l-0.48,0.31h0.24c-0.03,0.04-0.06,0.08-0.09,0.11l-0.21,0.15v0.12c-0.38,0.48-0.77,0.96-1.1,1.48l-0.01-0.04l-0.58,0.93l-0.35,0.2
		l0.32-0.03l-0.38,0.46l0.25-0.05c0,0.01-0.01,0.01-0.01,0.02l-0.38,0.38l0.27-0.11c-0.24,0.58-0.49,1.18-0.78,1.75
		c-0.1,0.19-0.18,0.38-0.26,0.57l-0.43,0.67l0.25-0.14c-0.03,0.11-0.07,0.23-0.09,0.35l-0.37,1.11l0.25-0.51
		c-0.04,0.25-0.06,0.51-0.08,0.79c-0.1,1.39-0.01,2.14,0.13,2.4c0.17,0.32,0.25-0.58,0.25-0.58c0.09,0.42,0.23,2,0.6,2.08
		c0.14,0.03,0.19-0.6,0.37-0.99l0,0.01l0.01,0.1l0.1-0.26l0.02,0.14l0.07-0.21l0.04,0.09l0.05-0.12c0,0,0.01,0,0.01,0.01l0.04,0.15
		l0.05-0.1c0.07,0.06,0.06,0.13,0.07,0.3c0.03,0.49-0.16,1.17,0.02,1.17c0.43,0.02,0.66-1.05,1.08-1.41l0,0.07l0.08-0.13
		c0.01,0,0.01-0.01,0.02-0.01c0.02-0.01,0.04-0.02,0.06-0.03l0.01,0.08l0.06-0.12c0.02-0.01,0.04-0.02,0.07-0.03l0.02,0.04
		l0.04-0.06c0.02,0,0.04,0,0.06,0l0.02,0.11l0.05-0.06c0.05,0.07,0.07,0.24,0.03,0.55c-0.04,0.3,0.03,0.51,0.24,0.5
		c0.27-0.02,0.5-1.34,0.61-1.54c0.24-0.44,0.38,0.12,1.66-1.83c0.56-0.85,0.81-1.35,1.19-2.3c0.11-0.27,0.23-0.56,0.36-0.85
		l0.43-0.34l-0.23-0.09l0.2-0.15l-0.09-0.11c0.02-0.04,0.03-0.07,0.05-0.11l0.22-0.1l-0.06-0.12l0.15-0.23l-0.08-0.02
		c0.02-0.05,0.05-0.1,0.07-0.14l0.24-0.13l-0.05-0.23c0.01-0.02,0.02-0.04,0.03-0.06l0.25-0.2l-0.13-0.04
		c0.02-0.04,0.04-0.07,0.06-0.11l0.33-0.21l-0.22-0.02c0.02-0.03,0.03-0.06,0.05-0.1l0.31-0.23l-0.21,0.01
		c0.03-0.06,0.06-0.12,0.09-0.19l0.23-0.15l-0.18,0.03c0.02-0.04,0.04-0.09,0.06-0.13l0.21-0.13l-0.2,0.11
		c0.04-0.08,0.07-0.16,0.11-0.24c0.26-0.31,0.51-0.63,0.51-0.63l-0.34,0.19c0,0,0,0,0,0l0.36-0.47l-0.23,0.11
		c0.01-0.04,0.03-0.07,0.04-0.11l0.35-0.41l-0.12,0.02c0.14-0.18,0.33-0.32,0.57-0.41c0.28-0.11,0.56-0.27,0.64-0.55
		c0.1-0.37,0.27-0.66,0.48-0.89c-0.01,0.01-0.03,0.02-0.04,0.02c-0.01-0.01-0.01-0.02-0.02-0.03c0.19-0.16,0.38-0.33,0.59-0.48
		c0.63-0.47,1.25-0.94,1.9-1.39c0.96-0.67,1.93-1.32,2.89-1.98c0.72-0.5,1.45-0.99,2.15-1.52c0.78-0.6,1.54-1.22,2.3-1.86
		c0.83-0.7,1.58-1.49,2.25-2.35c0.66-0.84,1.23-1.74,1.65-2.74c0.36-0.86,1.67-3.97-1.25-5.53c-0.85-0.45-3-0.45-5.04,1.32
		c-2.04,1.77-2.08,1.97-2.31,2.49c-0.1,0.22-0.16,0.47-0.23,0.71c-0.2-0.13-0.32-0.35-0.32-0.59c-0.01-0.45,0.19-0.92,0.04-1.34
		c-1.28-3.68-4.13-5.46-6.45-5.57c-2.47-0.12-3.98,1.46-0.92,8.53c0.38,0.89,2.68,4.65,3.18,5.71c0.02,0.04,0.03,0.08,0.05,0.13
		c-0.01,0.01-0.02,0.02-0.04,0.03c-0.01-0.02-0.02-0.04-0.03-0.06c-0.28-0.38-4.18-6.18-4.6-6.97c-0.44-0.81-0.82-1.64-1.14-2.51
		c-0.28-0.77-0.51-1.55-0.56-2.36c-0.05-0.66,0-1.31,0.25-1.93c0.27-0.67,0.69-1.24,1.22-1.72c0.68-0.62,1.5-0.9,2.42-0.84
		c0.82,0.05,1.56,0.34,2.27,0.74c0.83,0.47,1.55,1.07,2.22,1.74c0.85,0.87,1.58,1.84,2.15,2.92c0.35,0.66,0.63,1.34,0.75,2.08
		c0.02,0.1,0.04,0.19,0.06,0.28c0.47-0.61,0.91-1.23,1.4-1.82c0.6-0.72,1.25-1.39,2.01-1.95c0.73-0.54,2.89-1.33,5.11-0.34
		c0.69,0.31,2.2,1.52,2.39,4.08c0.09,1.15-0.2,2.22-0.73,3.24c-0.25,0.49-0.57,0.93-0.93,1.34c-0.54,0.63-1.09,1.26-1.67,1.84
		c-0.56,0.56-1.14,1.09-1.76,1.58c-0.77,0.61-1.56,1.2-2.38,1.75c-1.01,0.68-2.04,1.32-3.07,1.95c-1,0.61-2.03,1.18-3.04,1.77
		c-0.5,0.29-1,0.59-1.5,0.89c0.3-0.11,0.61-0.19,0.9-0.29c0.47-0.15,1.06-0.51,1.65-0.22c0.03,0.01,0.1,0,0.11-0.02
		c0.33-0.55,0.94-0.46,1.4-0.46c0.96-0.01,1.83-0.35,2.76-0.47c0.78-0.1,1.51-0.53,2.31-0.48c0.44,0.03,0.85-0.02,1.24-0.2
		c0.45-0.21,0.85-0.54,1.37-0.61c-0.12,0.25-0.32,0.73-0.23,0.86c0.13,0.18,1.05-0.5,1.05-0.5l0.2,0.01
		c-0.02,0.03-0.06,0.1-0.09,0.29c-0.08,0.42,0.19,0.55,0.47,0.35c0.39-0.28,0.5-0.22,1.11-0.16c0.61,0.06,2.62-0.91,2.62-0.91
		l4.39-1.34c0.23-0.02,0.5-0.03,0.83-0.05l1.06-0.12c0.34-0.03,0.68-0.04,1.01-0.11c0.05-0.01,0.1-0.02,0.15-0.03
		c0.06,0,0.13,0,0.19,0c0.39,0.01,0.78,0.03,1.16,0.04c0.18,0.04,0.36,0.09,0.54,0.13c0.61,0.12,1.23,0.19,1.86,0.25
		c0.48,0.05,0.97,0.08,1.45,0.11c0.02,0.01,0.05,0.02,0.07,0.03c0.57,0.22,1.16-0.29,1.73-0.53c0.46,0.01,2.6,0.17,3.06,0.19
		c0.04,0,1.02,0.15,1.06,0.15c1.84,0,1.01,0.3,2.85,0.3c0.29-0.02,0.59-0.04,0.88-0.07c0.83-0.06,1.66-0.15,2.48-0.26
		c1.07-0.14,2.14-0.31,3.2-0.51c1.12-0.21,2.23-0.46,3.33-0.75c0.5-0.13,0.99-0.26,1.48-0.41l2.04-0.56c0,0,0.22-0.21,0.53-0.51
		c0.08-0.03,0.16-0.06,0.23-0.09l0.05-0.01l1.14-0.29l0.98-0.4l-0.49,0.08l0.78-0.33l-0.57,0.07l0.82-0.31l-0.41,0.07l0.75-0.34
		l-0.38,0.02l0.7-0.28l-0.62,0.17l0.74-0.33l-0.46,0.1l0.78-0.33l-0.39,0l0.78-0.29l-0.36,0l0.59-0.18l-0.65,0.09l1.13-0.33
		L-11.45,351.65z"/>
</g>
<rect x="-158.18" y="410.2" class="st9" width="92.34" height="74.14"/>
<rect x="-19.8" y="410.2" class="st12" width="92.34" height="74.14"/>
<rect x="96.51" y="410.2" class="st7" width="92.34" height="74.14"/>
<rect x="241.21" y="410.2" class="st0" width="92.34" height="74.14"/>
<rect x="358.21" y="410.2" class="st8" width="92.34" height="74.14"/>
<rect x="478.17" y="410.2" class="st13" width="92.34" height="74.14"/>
<rect x="478.17" y="492.56" class="st14" width="92.34" height="74.14"/>
<rect x="315.62" y="492.56" class="st15" width="92.34" height="74.14"/>
</svg>
