<?xml version="1.0" encoding="utf-8"?>
<!-- Generator: Adobe Illustrator 24.0.0, SVG Export Plug-In . SVG Version: 6.00 Build 0)  -->
<svg version="1.1" id="Layer_1" xmlns="http://www.w3.org/2000/svg" xmlns:xlink="http://www.w3.org/1999/xlink" x="0px" y="0px"
	 viewBox="0 0 548 385.8" style="enable-background:new 0 0 548 385.8;" xml:space="preserve">
<style type="text/css">
	.st0{fill:#D7690A;}
	.st1{fill:#FFFFFF;}
	.st2{font-family:'Arial-Black';}
	.st3{font-size:73.0747px;}
	.st4{fill:none;}
	.st5{font-family:'SourceSansPro-Regular';}
	.st6{font-size:11px;}
	.st7{fill:#4F6CC2;}
	.st8{fill:#F5821F;}
	.st9{fill:#162A65;}
	.st10{fill:#F2F2F2;}
	.st11{font-size:73.0753px;}
	.st12{fill:#3954A5;}
	.st13{fill:#232323;}
	.st14{fill:#3D3D3D;}
	.st15{fill:#666666;}
</style>
<g>
	
		<rect x="211.2" y="-97.9" transform="matrix(6.123234e-17 -1 1 6.123234e-17 108.6771 401.0083)" class="st0" width="87.3" height="488.1"/>
	<g>
		<g>
			<circle class="st1" cx="499.1" cy="146.2" r="43.6"/>
		</g>
		<g>
			<path class="st0" d="M499.1,109.7c20.1,0,36.4,16.3,36.4,36.4s-16.3,36.4-36.4,36.4c-20.1,0-36.4-16.3-36.4-36.4
				S479,109.7,499.1,109.7 M499.1,105.6c-22.4,0-40.6,18.2-40.6,40.6s18.2,40.6,40.6,40.6c22.4,0,40.6-18.2,40.6-40.6
				S521.5,105.6,499.1,105.6L499.1,105.6z"/>
		</g>
		<g>
			<path class="st0" d="M504.2,132.8c0.8-0.9,1.8-1.4,3-1.7c1.8-0.5,3.5-1.2,5.3-1.8c0.1,0,0.2,0,0.4,0c0-0.6,0-1.2,0-1.7
				c1.2-1.2,1.2-1.2,2.3-1.7c0.4,1,0.5,2.1,0.1,3.1c-0.3,0.7-0.7,1.3-1.5,1.5c-0.6,0.1-1.2,0.5-1.8,0.8c-1.1,0.5-2.1,0.9-3.2,1.3
				c-0.4,0.1-0.7,0.4-1.1,0.7c0.4,0.2,0.7,0.3,1,0.5c1.1,0.7,2.1,1.4,2.5,2.8c0.2,0.8,0.9,1.5,1.6,2c1.4-0.2,2.6-0.9,3.7-1.7
				c0.5-0.3,0.9-0.7,1.4-1c0.2-0.1,0.4-0.1,0.8-0.2c-0.7,0.8-1.7,1.1-2.1,2.2c0.7-0.6,1.3-1,1.8-1.5c0.7-0.6,1.4-0.7,2.3-0.1
				c0.4,0.3,0.9,0.6,1,1.2c-0.6,0.9-1.2,1.7-1.9,2.7c-0.1,0.7,0.4,1.5,0.2,2.3c-0.2,0.7-0.6,1.4-1,2.2c0.3,0.4,0.9,0.3,1.4,0.5
				c1,0.3,2,0.5,3,0.9c0.3,0.1,0.4,0.4,0.6,0.6c-0.3,0.7-1.1,0.7-1.6,1c-1.2,0-2.4,0.2-3.5-0.6c-0.5-0.4-0.6-0.6-0.5-1.2
				c0-0.2,0-0.3,0-0.5c-0.4,0.1-0.7,0.2-1.1,0.3c0.4,0.8,0.2,1.7,0.2,2.6c0,0.6-0.9,1.4-1.7,1.5c-0.4,0-0.7,0.1-1.1-0.1
				c-0.4-0.2-1-0.1-1.5-0.3c-1.1-0.3-1.1-0.3-1.9-1c0.1-0.1,0.2-0.3,0.2-0.5c0-0.6,0.5-0.7,0.8-0.8c0.6-0.2,1.3-0.2,1.9-0.2
				c0.7,0,1.3-0.4,1.3-1.2c-0.4-0.1-0.8-0.2-1.3-0.4c-0.6-0.2-1.1-0.4-1.6-0.6c-0.6-0.2-1.2-0.4-1.8-0.3c-0.2,0-0.3,0.1-0.5,0.1
				c-0.4,0.1-0.9,0.3-1.3,0.3c-0.4,0.1-0.8,0.2-1.3,0.2c-0.5,0-0.9,0.3-1.4,0.2c-0.4-0.1-0.9,0.1-1.4,0c-0.9-0.2-1.9-0.2-2.8-0.5
				c-0.8-0.3-1.6-0.6-2.5-0.6c-0.3,0-0.5-0.2-0.8-0.2c-0.3,0-0.6,0-0.8,0c-1,0-2,0.3-2.9,0.5c-0.9,0.2-1.7,0.4-2.6,0.6
				c-1.1,0.2-2.2,0.4-3.4,0.4c-1.3-0.1-2.6-0.3-3.8-1c-0.5-0.3-1-0.5-1.5,0.1c-1.9,0.9-3.4,2.3-4.8,3.8c-0.7,0.7-1.3,1.6-1.8,2.5
				c-0.5,0.8-0.9,1.6-1.1,2.6c-0.7-0.3-0.5-0.9-0.7-1.4c-0.1-0.5-0.1-1.1,0-1.6c0.1-0.5,0.3-1,0.5-1.5c-0.4,0.1-0.8,0.1-1.4,0.3
				c0.6-0.8,1.1-1.3,1.7-1.7c0.6-0.4,1.1-0.9,1.6-1.4c-0.4-0.1-0.5-0.3-0.4-0.6c2-1,4.1-1.7,6.2-2.5c-0.1-0.6-0.2-1.2-0.5-1.7
				c-0.2-0.4-0.1-0.7-0.1-1c-0.1-0.3-0.2-0.6-0.2-0.9c0-1.3-0.6-2.4-1.3-3.4c-0.3-0.4-0.5-0.8-0.8-1.2c-0.2-0.3-0.2-0.6-0.1-0.8
				c0.3-0.3,0.2-0.7,0.2-1c-0.1-0.5,0.2-0.9,0.2-1.4c0-0.4-0.2-0.9,0.2-1.3c0,0,0-0.1,0-0.1c0-0.7,0-1.4,0.2-2.1
				c0.2-0.8-0.2-1.4-0.8-1.9c-0.2-1.1,0.2-2,0.9-2.9c0.4,0.5,0.9,0.9,1.2,1.4c0.6,0.9,0.6,1.8,0.4,2.8c0,0.1-0.1,0.2-0.1,0.3
				c-0.1,0.8-0.1,1.7-0.2,2.5c0,0.4-0.2,0.7-0.2,1.1c0,0.4,0,0.8,0,1.1c0,0.2-0.2,0.3-0.3,0.6c2,0.1,3.5,1.3,4.9,2.4
				c0.1-0.3,0.3-0.5,0.4-0.7c-0.3-0.5-0.5-1.1-1-1.5c-0.5-0.5-0.4-1,0-1.6c0.5-0.7,1-1.4,1.6-2c0.8-0.8,1.5-1.7,2.3-2.6
				c0,0.1,0,0,0,0c0-0.5-0.1-1,0.3-1.5c0.4-0.5,0.9-0.8,1.5-1c0.4-0.2,0.8,0,0.8,0.5c-0.1,1.1-0.2,2.2-1.1,3
				c-0.8,0.8-1.5,1.7-2.3,2.5c-0.1,0.1-0.1,0.3-0.2,0.4c-0.5,0.8-0.5,1.1,0.3,1.5c1.1,0.5,1.6,1.5,2,2.5c0.4,0.9,0.5,1,1.4,1
				c1.6,0.1,3-0.5,4.3-1.3c0.2-0.1,0.5-0.2,0.7-0.3c0.6-0.3,1.2-0.6,1.7-0.8c0.1-0.1,0.3,0,0.5,0c-0.5-1-0.1-1.9,0.5-2.6
				c0.9-1.3,1.9-2.5,2.9-3.7c0.3-0.5,0.7-0.9,1.1-1.3c0.2-0.2,0.2-0.4,0.1-0.6c0-0.1-0.1-0.1-0.1-0.2c-0.1-0.4-0.5-0.8-0.4-1.1
				c0.2-0.6,0.3-1.3,0.8-1.7c0.2-0.2,0.3-0.3,0.5-0.5c0.3,0.3,0.6,0.5,0.7,0.9c0.2,0.5,0.4,1,0.5,1.5c0.2,1-0.2,1.9-0.8,2.7
				c-0.6,0.8-1.2,1.6-1.7,2.4c-0.4,0.6-0.9,1.2-1.3,1.9c-0.1,0.1-0.2,0.2-0.2,0.3c-0.1,0.8,0.1,1,0.9,1
				C504,132.8,504.1,132.8,504.2,132.8z"/>
		</g>
		<g>
			<path class="st0" d="M474.4,167.6l-1.1-5.7h1.3l0.4,2.6c0,0.3,0.1,0.6,0.1,0.9c0,0.3,0.1,0.6,0.1,0.9h0c0.1-0.3,0.1-0.6,0.2-0.9
				c0.1-0.3,0.1-0.6,0.2-0.9l0.6-2.6h1.1l0.6,2.6c0.1,0.3,0.1,0.6,0.2,0.9c0.1,0.3,0.1,0.6,0.2,0.9h0c0-0.3,0.1-0.6,0.1-0.9
				c0-0.3,0.1-0.6,0.1-0.9l0.4-2.6h1.2l-1,5.7h-1.6L477,165c0-0.2-0.1-0.4-0.1-0.7c0-0.2-0.1-0.4-0.1-0.6h0c0,0.2-0.1,0.4-0.1,0.6
				c0,0.2-0.1,0.4-0.1,0.7l-0.5,2.6H474.4z"/>
			<path class="st0" d="M480.9,167.6v-5.7h3.5v1.1h-2.3v1.1h1.9v1.1h-1.9v1.3h2.4v1.1H480.9z"/>
			<path class="st0" d="M485,167.6l1.8-5.7h1.5l1.8,5.7h-1.4l-0.3-1.3h-1.7l-0.3,1.3H485z M487,164.7l-0.1,0.5h1.2l-0.1-0.5
				c-0.1-0.3-0.2-0.6-0.2-0.9c-0.1-0.3-0.2-0.6-0.2-0.9h0c-0.1,0.3-0.1,0.6-0.2,0.9C487.2,164.2,487.1,164.5,487,164.7z"/>
			<path class="st0" d="M490.7,167.6v-5.7h1.3v2.3h0l1.7-2.3h1.4l-1.7,2.3l2,3.4H494l-1.4-2.4l-0.7,0.9v1.5H490.7z"/>
			<path class="st0" d="M496,167.6v-5.7h1.3l1.5,2.8l0.6,1.3h0c0-0.3-0.1-0.6-0.1-1c0-0.4-0.1-0.7-0.1-1.1v-2h1.2v5.7h-1.3l-1.5-2.8
				l-0.6-1.2h0c0,0.3,0.1,0.6,0.1,1c0,0.4,0.1,0.7,0.1,1v2H496z"/>
			<path class="st0" d="M501.8,167.6v-5.7h3.5v1.1H503v1.1h1.9v1.1H503v1.3h2.4v1.1H501.8z"/>
			<path class="st0" d="M508.2,167.7c-0.4,0-0.7-0.1-1.1-0.2c-0.4-0.1-0.7-0.3-1-0.6l0.7-0.9c0.2,0.2,0.4,0.3,0.7,0.4
				c0.2,0.1,0.5,0.2,0.7,0.2c0.3,0,0.5,0,0.6-0.1c0.1-0.1,0.2-0.2,0.2-0.4c0-0.1,0-0.2-0.1-0.2c0-0.1-0.1-0.1-0.2-0.2
				c-0.1,0-0.2-0.1-0.3-0.1c-0.1,0-0.2-0.1-0.3-0.1l-0.7-0.3c-0.1-0.1-0.3-0.1-0.4-0.2s-0.3-0.2-0.4-0.3c-0.1-0.1-0.2-0.3-0.3-0.4
				c-0.1-0.2-0.1-0.4-0.1-0.6c0-0.2,0-0.5,0.1-0.7c0.1-0.2,0.2-0.4,0.4-0.5c0.2-0.2,0.4-0.3,0.6-0.4c0.2-0.1,0.5-0.1,0.8-0.1
				c0.3,0,0.7,0.1,1,0.2c0.3,0.1,0.6,0.3,0.8,0.6l-0.7,0.8c-0.2-0.1-0.4-0.3-0.6-0.3c-0.2-0.1-0.4-0.1-0.6-0.1c-0.2,0-0.4,0-0.5,0.1
				c-0.1,0.1-0.2,0.2-0.2,0.4c0,0.1,0,0.2,0.1,0.2c0,0.1,0.1,0.1,0.2,0.2c0.1,0,0.2,0.1,0.3,0.1c0.1,0,0.2,0.1,0.3,0.1l0.7,0.3
				c0.3,0.1,0.6,0.3,0.8,0.6c0.2,0.2,0.3,0.6,0.3,1c0,0.2,0,0.5-0.1,0.7c-0.1,0.2-0.2,0.4-0.4,0.6c-0.2,0.2-0.4,0.3-0.7,0.4
				C508.9,167.7,508.6,167.7,508.2,167.7z"/>
			<path class="st0" d="M512.9,167.7c-0.4,0-0.7-0.1-1.1-0.2c-0.4-0.1-0.7-0.3-1-0.6l0.7-0.9c0.2,0.2,0.4,0.3,0.7,0.4
				c0.2,0.1,0.5,0.2,0.7,0.2c0.3,0,0.5,0,0.6-0.1c0.1-0.1,0.2-0.2,0.2-0.4c0-0.1,0-0.2-0.1-0.2c0-0.1-0.1-0.1-0.2-0.2
				c-0.1,0-0.2-0.1-0.3-0.1c-0.1,0-0.2-0.1-0.3-0.1l-0.7-0.3c-0.1-0.1-0.3-0.1-0.4-0.2s-0.3-0.2-0.4-0.3c-0.1-0.1-0.2-0.3-0.3-0.4
				c-0.1-0.2-0.1-0.4-0.1-0.6c0-0.2,0-0.5,0.1-0.7c0.1-0.2,0.2-0.4,0.4-0.5c0.2-0.2,0.4-0.3,0.6-0.4c0.2-0.1,0.5-0.1,0.8-0.1
				c0.3,0,0.7,0.1,1,0.2c0.3,0.1,0.6,0.3,0.8,0.6l-0.7,0.8c-0.2-0.1-0.4-0.3-0.6-0.3c-0.2-0.1-0.4-0.1-0.6-0.1c-0.2,0-0.4,0-0.5,0.1
				c-0.1,0.1-0.2,0.2-0.2,0.4c0,0.1,0,0.2,0.1,0.2c0,0.1,0.1,0.1,0.2,0.2c0.1,0,0.2,0.1,0.3,0.1c0.1,0,0.2,0.1,0.3,0.1l0.7,0.3
				c0.3,0.1,0.6,0.3,0.8,0.6c0.2,0.2,0.3,0.6,0.3,1c0,0.2,0,0.5-0.1,0.7c-0.1,0.2-0.2,0.4-0.4,0.6c-0.2,0.2-0.4,0.3-0.7,0.4
				C513.6,167.7,513.3,167.7,512.9,167.7z"/>
			<path class="st0" d="M516,167.6v-5.7h3.5v1.1h-2.3v1.1h1.9v1.1h-1.9v1.3h2.4v1.1H516z"/>
			<path class="st0" d="M522.5,167.7c-0.4,0-0.7-0.1-1.1-0.2c-0.4-0.1-0.7-0.3-1-0.6l0.7-0.9c0.2,0.2,0.4,0.3,0.7,0.4
				c0.2,0.1,0.5,0.2,0.7,0.2c0.3,0,0.5,0,0.6-0.1c0.1-0.1,0.2-0.2,0.2-0.4c0-0.1,0-0.2-0.1-0.2c0-0.1-0.1-0.1-0.2-0.2
				c-0.1,0-0.2-0.1-0.3-0.1c-0.1,0-0.2-0.1-0.3-0.1l-0.7-0.3c-0.1-0.1-0.3-0.1-0.4-0.2c-0.1-0.1-0.3-0.2-0.4-0.3
				c-0.1-0.1-0.2-0.3-0.3-0.4c-0.1-0.2-0.1-0.4-0.1-0.6c0-0.2,0-0.5,0.1-0.7c0.1-0.2,0.2-0.4,0.4-0.5c0.2-0.2,0.4-0.3,0.6-0.4
				c0.2-0.1,0.5-0.1,0.8-0.1c0.3,0,0.7,0.1,1,0.2c0.3,0.1,0.6,0.3,0.8,0.6l-0.7,0.8c-0.2-0.1-0.4-0.3-0.6-0.3
				c-0.2-0.1-0.4-0.1-0.6-0.1c-0.2,0-0.4,0-0.5,0.1c-0.1,0.1-0.2,0.2-0.2,0.4c0,0.1,0,0.2,0.1,0.2c0,0.1,0.1,0.1,0.2,0.2
				c0.1,0,0.2,0.1,0.3,0.1c0.1,0,0.2,0.1,0.3,0.1l0.7,0.3c0.3,0.1,0.6,0.3,0.8,0.6c0.2,0.2,0.3,0.6,0.3,1c0,0.2,0,0.5-0.1,0.7
				c-0.1,0.2-0.2,0.4-0.4,0.6c-0.2,0.2-0.4,0.3-0.7,0.4C523.1,167.7,522.8,167.7,522.5,167.7z"/>
		</g>
	</g>
	<text transform="matrix(1 0 0 1 30.7677 173.2648)" class="st1 st2 st3">W</text>
	<rect x="131.8" y="110.5" class="st4" width="146.2" height="79.6"/>
	<text transform="matrix(1 0 0 1 131.7836 119.665)"><tspan x="0" y="0" class="st1 st5 st6">Hero slider too slow</tspan><tspan x="0" y="16" class="st1 st5 st6">Small newsletter CTA</tspan><tspan x="0" y="32" class="st1 st5 st6">No transportation information</tspan><tspan x="0" y="48" class="st1 st5 st6">Foster page is confusing with </tspan><tspan x="0.7" y="61.2" class="st1 st5 st6">no CTA</tspan></text>
	<rect x="296.7" y="110.5" class="st4" width="146.2" height="79.6"/>
	<text transform="matrix(1 0 0 1 296.7472 119.665)"><tspan x="0" y="0" class="st1 st5 st6">Broken links on Adopt page</tspan><tspan x="0" y="16" class="st1 st5 st6">About links hard to navigate</tspan><tspan x="0" y="32" class="st1 st5 st6">Donation page not consistant</tspan><tspan x="0" y="48" class="st1 st5 st6">Needs darker text and primary </tspan><tspan x="0.7" y="61.2" class="st1 st5 st6">nav color</tspan></text>
	<circle class="st1" cx="123.3" cy="115.7" r="2.4"/>
	<circle class="st1" cx="288.4" cy="115.7" r="2.4"/>
	<circle class="st1" cx="288.4" cy="131.7" r="2.4"/>
	<circle class="st1" cx="288.4" cy="147.8" r="2.4"/>
	<circle class="st1" cx="288.4" cy="164.2" r="2.4"/>
	<circle class="st1" cx="123.3" cy="131.9" r="2.4"/>
	<circle class="st1" cx="123.3" cy="148" r="2.4"/>
	<circle class="st1" cx="123.3" cy="163.9" r="2.4"/>
</g>
<g>
	
		<rect x="211.1" y="-4.9" transform="matrix(6.123234e-17 -1 1 6.123234e-17 15.6794 493.8447)" class="st7" width="87.3" height="488"/>
	<g>
		<g>
			<circle class="st1" cx="499.1" cy="239.1" r="43.6"/>
		</g>
		<g>
			<path class="st7" d="M499.1,202.7c20.1,0,36.4,16.3,36.4,36.4s-16.3,36.4-36.4,36.4c-20.1,0-36.4-16.3-36.4-36.4
				S479,202.7,499.1,202.7 M499.1,198.5c-22.4,0-40.6,18.2-40.6,40.6s18.2,40.6,40.6,40.6c22.4,0,40.6-18.2,40.6-40.6
				S521.5,198.5,499.1,198.5L499.1,198.5z"/>
		</g>
		<g>
			<path class="st7" d="M484.5,228.8c-1.5,0.1-2.9-0.2-4.3-0.6c-1.3-0.4-2.4-1.1-3.6-1.7c0.2-0.5,0.6-0.2,1-0.4
				c-1.4-1.3-2.4-2.8-3.4-4.6c0.5,0.3,0.8,0.4,1.1,0.7c-0.1-0.4,0.2-0.9-0.2-1.3c0.1-1-0.2-1.9,0.2-2.9c1,1.9,2.3,3.7,3.8,5.2
				c1.1,1.1,2.3,2.2,3.7,3c0.8,0.5,1.5,1,2.4,1.2c0.2,0.1,0.3,0.1,0.6,0c0.9-0.4,1.8-0.7,2.7-0.6c0.5,0,1.1,0,1.6,0
				c1.1,0,2.1,0.1,3.1,0.4c0.3,0.1,0.7-0.1,1-0.1c0.1,0,0.2-0.1,0.3-0.1c1.2,0,2.3-0.6,3.4-1c0.8-0.3,1.5-0.6,2.2-0.8
				c0.7-0.3,1.4-0.6,2.2-0.8c0.6-0.2,1.1-0.4,1.7-0.4c1.5,0,3,0,4.5,0c0.4,0,0.9,0.1,1.3,0.2c0.4,0,0.9,0,1.3,0c1,0,1.9-0.3,2.8-0.5
				c0.6-0.1,1.2-0.3,1.8-0.4c0-0.1,0.1-0.3,0-0.4c-0.2-0.2-0.3-0.4-0.7-0.5c-0.5-0.1-1-0.4-1.4-0.6c-0.6-0.3-1-0.8-0.8-1.5
				c1.4-0.2,2.7,0.4,3.9,1c0.4,0.2,0.7,0.7,0.7,1.2c0,0.4,0,0.7,0.1,1.1c0.2-0.5,0.4-0.9,0.4-1.4c0-0.2-0.1-0.5-0.2-0.7
				c-0.7-0.7-0.8-1.6-0.7-2.6c0.3-0.2,0.5-0.1,0.7,0.1c0.6,0.6,1.1,1.4,1.6,2.1c0.5,0.9,0.4,1.5-0.2,2.3c-0.1,0.2-0.3,0.3-0.5,0.5
				c0.4,0.4,0.9,0.7,1.3,1.2c0.2,0.2,0.5,0.5,0.4,0.7c0,0.5,0.3,0.6,0.6,0.7c0.9,0.4,1.7,0.8,2.6,1.2c0.1,1-0.2,1.8-1.1,2.2
				c-0.3,0.2-0.8-0.1-1,0.3c-0.9-0.1-1.7,0.4-2.6,0.2c-0.7-0.1-1.3-0.3-2-0.5c-0.6-0.2-1.4-0.1-2.1,0c-1.4,0.2-2.3,1.1-3.5,1.7
				c-0.3,0.1-0.4,0.4-0.5,0.8c-0.1,0.5-0.4,0.9-0.4,1.4c0,0.1,0.1,0.3,0.2,0.4c0.4,0.3,0.9,0.5,1.2,0.9c0.3,0.3,0.5,0.3,0.8,0.2
				c0.7-0.1,1.4-0.4,2.2-0.5c0.7-0.1,1.4-0.5,2.2-0.5c0.4,0,0.8,0,1.1-0.2c0.5-0.3,1.1,0.1,1.5-0.3c0.6,0.3,1.4,0.2,2,0.8
				c0.3,0.3,0.6,0.6,0.9,0.9c0.3,0.3,0.5,0.6,0.3,1c-0.8,0.4-1.7,0.2-2.6,0.3c-0.3-0.3-0.6-0.7-1-1c-1.3,0.4-2.7,0.8-4,1.2
				c-1.1,0.3-2.1,0.7-3.2,1c-0.4,0.1-0.7,0-1.1-0.1c-0.7-0.2-1.5-0.3-2.2-0.5c-0.1,0-0.2,0-0.4,0c-0.1,0.6-0.2,1.1-0.3,1.7
				c1.7,0.3,3.3,0.9,4.9,1.3c0.7,0.1,1.3,0.4,1.9,0.7c1.2,0.6,2.2,1.4,2.5,2.8c0,0.1,0.1,0.1,0.2,0.2c-0.8,0.3-1.5,0.4-2.4,0.1
				c-0.5-0.2-0.7-0.3-0.9-0.7c-0.1-0.3-0.3-0.5-0.5-0.7c-0.1-0.1-0.2-0.2-0.3-0.2c-1.4-0.1-2.6-0.6-4-0.8c-0.5-0.1-1-0.3-1.5-0.4
				c-0.5-0.1-1-0.3-1.5-0.4c-0.4-0.1-0.8-0.3-1-0.9c-0.2-0.8-0.5-1.6-0.8-2.3c-1.3-0.2-2.6-0.5-3.8-0.7c-0.6-0.5-1.5-0.6-2.2-0.9
				c-0.8-0.4-1.6-0.7-2.5-0.7c-0.4,0-0.8-0.1-1.2-0.2c-0.4,0-0.9,0-1.3,0c-0.4,0-0.8,0.1-1.1,0.2c-0.1,0-0.3,0.2-0.4,0.4
				c-0.2,0.4-0.4,0.8-0.7,1.1c-0.7,1.2-1.8,1.6-3.1,1.6c-0.3,0-0.6,0-0.9,0c-0.5,0.1-0.9,0-1.3-0.2c-0.6-0.3-1.2-0.3-1.8,0.1
				c-0.3,1.3-0.4,3.3-1.7,5.3c-0.4,0-0.9,0.1-0.9-0.5c-0.7-0.7-0.4-1.5,0.1-2.1c0.5-0.7,0.6-1.4,0.8-2.2c0-0.1,0.1-0.2,0.2-0.3
				c-0.5-0.1-0.9-0.4-1.5-0.3c-0.3,0.1-0.5,0.2-0.5,0.5c0,0.7-0.3,1.4-0.2,2.1c-0.4,0.9-0.1,1.9-0.2,2.8c0,0.6-0.2,1.2-0.7,1.7
				c-0.1,0.1-0.2,0.2-0.3,0.4c-0.2,0.5-0.6,0.8-1.1,1c-0.7-0.8-0.7-1.8-0.7-2.9c0.2-0.2,0.4-0.3,0.5-0.5c0.3-0.3,0.5-0.7,0.4-1.1
				c0-1.2,0.3-2.3,0.2-3.5c0.3-0.6,0.2-1.2,0.2-1.8c0-0.9,0.4-1.3,1.3-1.3c0.5,0,0.9-0.1,1.4-0.2c0.4-0.1,0.8-0.5,0.9-0.9
				c0-0.5,0.2-0.9,0.2-1.3c0.1-0.8,0.7-3,1-3.8C484,229.4,484.3,229.2,484.5,228.8z"/>
		</g>
		<g>
			<path class="st7" d="M474.2,260.4c-0.3,0-0.6-0.1-0.9-0.2c-0.3-0.1-0.5-0.3-0.7-0.5s-0.3-0.5-0.5-0.8c-0.1-0.3-0.2-0.7-0.2-1.1
				c0-0.4,0.1-0.8,0.2-1.1c0.1-0.3,0.3-0.6,0.5-0.8c0.2-0.2,0.4-0.4,0.7-0.5c0.3-0.1,0.6-0.2,0.9-0.2s0.6,0.1,0.9,0.2
				s0.5,0.3,0.7,0.5c0.2,0.2,0.3,0.5,0.5,0.8c0.1,0.3,0.2,0.7,0.2,1.1c0,0.4-0.1,0.8-0.2,1.1c-0.1,0.3-0.3,0.6-0.5,0.8
				c-0.2,0.2-0.4,0.4-0.7,0.5C474.8,260.3,474.5,260.4,474.2,260.4z M474.2,259.4c0.3,0,0.6-0.1,0.8-0.4c0.2-0.3,0.3-0.7,0.3-1.2
				c0-0.5-0.1-0.9-0.3-1.1c-0.2-0.3-0.5-0.4-0.8-0.4s-0.6,0.1-0.8,0.4c-0.2,0.3-0.3,0.7-0.3,1.1c0,0.5,0.1,0.9,0.3,1.2
				C473.6,259.3,473.9,259.4,474.2,259.4z"/>
			<path class="st7" d="M477.4,260.3v-4.9h1.7c0.3,0,0.5,0,0.8,0.1c0.2,0.1,0.4,0.1,0.6,0.3c0.2,0.1,0.3,0.3,0.4,0.5
				c0.1,0.2,0.2,0.5,0.2,0.7c0,0.3-0.1,0.5-0.2,0.7c-0.1,0.2-0.2,0.4-0.4,0.5c-0.2,0.1-0.4,0.2-0.6,0.3c-0.2,0.1-0.5,0.1-0.7,0.1
				h-0.6v1.7H477.4z M478.5,257.7h0.5c0.6,0,0.9-0.3,0.9-0.8c0-0.3-0.1-0.4-0.2-0.5c-0.2-0.1-0.4-0.2-0.7-0.2h-0.5V257.7z"/>
			<path class="st7" d="M481.8,260.3v-4.9h1.7c0.3,0,0.5,0,0.8,0.1c0.2,0.1,0.4,0.1,0.6,0.3c0.2,0.1,0.3,0.3,0.4,0.5
				c0.1,0.2,0.2,0.5,0.2,0.7c0,0.3-0.1,0.5-0.2,0.7c-0.1,0.2-0.2,0.4-0.4,0.5c-0.2,0.1-0.4,0.2-0.6,0.3c-0.2,0.1-0.5,0.1-0.7,0.1
				h-0.6v1.7H481.8z M482.9,257.7h0.5c0.6,0,0.9-0.3,0.9-0.8c0-0.3-0.1-0.4-0.2-0.5c-0.2-0.1-0.4-0.2-0.7-0.2h-0.5V257.7z"/>
			<path class="st7" d="M488.3,260.4c-0.3,0-0.6-0.1-0.9-0.2c-0.3-0.1-0.5-0.3-0.7-0.5s-0.3-0.5-0.5-0.8c-0.1-0.3-0.2-0.7-0.2-1.1
				c0-0.4,0.1-0.8,0.2-1.1c0.1-0.3,0.3-0.6,0.5-0.8c0.2-0.2,0.4-0.4,0.7-0.5c0.3-0.1,0.6-0.2,0.9-0.2s0.6,0.1,0.9,0.2
				s0.5,0.3,0.7,0.5c0.2,0.2,0.3,0.5,0.5,0.8c0.1,0.3,0.2,0.7,0.2,1.1c0,0.4-0.1,0.8-0.2,1.1c-0.1,0.3-0.3,0.6-0.5,0.8
				c-0.2,0.2-0.4,0.4-0.7,0.5C488.9,260.3,488.6,260.4,488.3,260.4z M488.3,259.4c0.3,0,0.6-0.1,0.8-0.4s0.3-0.7,0.3-1.2
				c0-0.5-0.1-0.9-0.3-1.1c-0.2-0.3-0.5-0.4-0.8-0.4s-0.6,0.1-0.8,0.4c-0.2,0.3-0.3,0.7-0.3,1.1c0,0.5,0.1,0.9,0.3,1.2
				C487.7,259.3,488,259.4,488.3,259.4z"/>
			<path class="st7" d="M491.5,260.3v-4.9h1.8c0.3,0,0.5,0,0.7,0.1c0.2,0,0.4,0.1,0.6,0.3c0.2,0.1,0.3,0.3,0.4,0.5
				c0.1,0.2,0.1,0.4,0.1,0.7c0,0.4-0.1,0.7-0.2,0.9s-0.4,0.4-0.6,0.5l1.1,2h-1.2l-0.9-1.8h-0.6v1.8H491.5z M492.6,257.6h0.6
				c0.3,0,0.5-0.1,0.7-0.2c0.2-0.1,0.2-0.3,0.2-0.5c0-0.2-0.1-0.4-0.2-0.5c-0.2-0.1-0.4-0.1-0.7-0.1h-0.6V257.6z"/>
			<path class="st7" d="M496.9,260.3v-4h-1.3v-0.9h3.8v0.9H498v4H496.9z"/>
			<path class="st7" d="M502,260.4c-0.6,0-1.1-0.2-1.5-0.6c-0.3-0.4-0.5-1-0.5-1.8v-2.6h1.1v2.7c0,0.5,0.1,0.8,0.2,1
				c0.1,0.2,0.4,0.3,0.6,0.3c0.3,0,0.5-0.1,0.6-0.3c0.2-0.2,0.2-0.5,0.2-1v-2.7h1.1v2.6c0,0.8-0.2,1.4-0.5,1.8
				C503.1,260.2,502.7,260.4,502,260.4z"/>
			<path class="st7" d="M505.1,260.3v-4.9h1.1l1.3,2.4l0.5,1.1h0c0-0.3-0.1-0.6-0.1-0.9c0-0.3,0-0.6,0-0.9v-1.7h1.1v4.9h-1.1
				l-1.3-2.4l-0.5-1.1h0c0,0.3,0.1,0.6,0.1,0.9c0,0.3,0,0.6,0,0.9v1.7H505.1z"/>
			<path class="st7" d="M510.1,260.3v-4.9h1.1v4.9H510.1z"/>
			<path class="st7" d="M513.3,260.3v-4H512v-0.9h3.8v0.9h-1.3v4H513.3z"/>
			<path class="st7" d="M516.5,260.3v-4.9h1.1v4.9H516.5z"/>
			<path class="st7" d="M518.8,260.3v-4.9h3.1v0.9h-2v1h1.7v0.9h-1.7v1.1h2v0.9H518.8z"/>
			<path class="st7" d="M524.4,260.4c-0.3,0-0.6-0.1-1-0.2c-0.3-0.1-0.6-0.3-0.9-0.5l0.6-0.8c0.2,0.2,0.4,0.3,0.6,0.4
				s0.4,0.1,0.6,0.1c0.2,0,0.4,0,0.5-0.1c0.1-0.1,0.2-0.2,0.2-0.3c0-0.1,0-0.1,0-0.2c0-0.1-0.1-0.1-0.1-0.1c-0.1,0-0.1-0.1-0.2-0.1
				c-0.1,0-0.2-0.1-0.3-0.1l-0.6-0.3c-0.1,0-0.2-0.1-0.4-0.2c-0.1-0.1-0.2-0.2-0.3-0.3c-0.1-0.1-0.2-0.2-0.2-0.4
				c-0.1-0.1-0.1-0.3-0.1-0.5c0-0.2,0-0.4,0.1-0.6c0.1-0.2,0.2-0.3,0.4-0.5c0.2-0.1,0.3-0.2,0.6-0.3c0.2-0.1,0.4-0.1,0.7-0.1
				c0.3,0,0.6,0.1,0.8,0.2c0.3,0.1,0.5,0.3,0.7,0.5l-0.6,0.7c-0.2-0.1-0.3-0.2-0.5-0.3c-0.2-0.1-0.3-0.1-0.5-0.1
				c-0.2,0-0.3,0-0.5,0.1c-0.1,0.1-0.2,0.2-0.2,0.3c0,0.1,0,0.1,0.1,0.2c0,0.1,0.1,0.1,0.2,0.1c0.1,0,0.1,0.1,0.2,0.1
				c0.1,0,0.2,0.1,0.3,0.1l0.6,0.3c0.3,0.1,0.5,0.3,0.7,0.5c0.2,0.2,0.3,0.5,0.3,0.8c0,0.2,0,0.4-0.1,0.6c-0.1,0.2-0.2,0.3-0.4,0.5
				c-0.2,0.1-0.4,0.2-0.6,0.3C524.9,260.3,524.7,260.4,524.4,260.4z"/>
		</g>
	</g>
	<text transform="matrix(1 0 0 1 36.8116 265.7755)" class="st1 st2 st3">O</text>
	<rect x="131.8" y="204.7" class="st4" width="146.2" height="79.6"/>
	<text transform="matrix(1 0 0 1 131.7836 213.7835)"><tspan x="0" y="0" class="st1 st5 st6">“How users can help” could use </tspan><tspan x="0.7" y="13.2" class="st1 st5 st6">a landing page w/ diff. ways</tspan><tspan x="0" y="29.2" class="st1 st5 st6">Clarity on Adopt/Foster app</tspan><tspan x="0" y="45.2" class="st1 st5 st6">Primary nav could use some </tspan><tspan x="0.7" y="58.4" class="st1 st5 st6">cleaning and consolidating</tspan></text>
	<rect x="296.7" y="204.7" class="st4" width="146.2" height="79.6"/>
	<text transform="matrix(1 0 0 1 296.7472 213.7835)"><tspan x="0" y="0" class="st1 st5 st6">Include Whys and Hows after </tspan><tspan x="0.7" y="13.2" class="st1 st5 st6">fostering/adopting</tspan><tspan x="0" y="29.2" class="st1 st5 st6">Add page for Operation Reloca</tspan><tspan x="140.3" y="29.2" class="st1 st5 st6">-</tspan><tspan x="0.7" y="42.4" class="st1 st5 st6">tion</tspan></text>
	<circle class="st1" cx="122.4" cy="210.2" r="2.4"/>
	<circle class="st1" cx="288.4" cy="210.2" r="2.4"/>
	<circle class="st1" cx="288.4" cy="239.4" r="2.4"/>
	<circle class="st1" cx="122.4" cy="239.6" r="2.4"/>
	<circle class="st1" cx="122.4" cy="255.3" r="2.4"/>
</g>
<g>
	
		<rect x="212.1" y="86" transform="matrix(6.123234e-17 -1 1 6.123234e-17 -75.2172 586.7536)" class="st8" width="87.3" height="490"/>
	<g>
		<g>
			<circle class="st1" cx="500.8" cy="331" r="43.6"/>
		</g>
		<g>
			<path class="st8" d="M500.8,294.6c20.1,0,36.4,16.3,36.4,36.4s-16.3,36.4-36.4,36.4c-20.1,0-36.4-16.3-36.4-36.4
				S480.7,294.6,500.8,294.6 M500.8,290.4c-22.4,0-40.6,18.2-40.6,40.6s18.2,40.6,40.6,40.6c22.4,0,40.6-18.2,40.6-40.6
				S523.2,290.4,500.8,290.4L500.8,290.4z"/>
		</g>
		<g>
			<path class="st8" d="M493.5,340.5c-0.1-0.3-0.3-0.1-0.5-0.2c-0.4-0.1-1.1-0.5-1.3-0.8c-0.1-0.1-0.1-0.3-0.1-0.4
				c0-0.7,0-1.5,0-2.2c0-0.7-0.2-1.4-0.2-2.2c0.1-1.1,0-2.2,0-3.4c0-0.3,0-0.5,0.4-0.7c0.6-0.4,1.3-0.6,1.7-1.4c0-0.2,0-0.5-0.3-0.7
				c-0.4-0.4-0.6-1-0.9-1.5c-0.6,2.2-2,3.9-3.8,5.3c-0.2-0.3,0-0.6,0.2-1.1c-1.4,1-2.9,1.4-4.5,1.5c-0.1-0.2,0.1-0.3,0.2-0.3
				c0.1-0.1,0.2-0.1,0.5-0.3c-1.4-0.3-2.6-0.6-3.7-1.2c0.1-0.1,0.1-0.1,0.1-0.1c0.9,0.1,1.6-0.2,2.4-0.4c1.3-0.3,2.6-0.9,3.8-1.6
				c0.7-0.4,1.4-0.9,2-1.3c0.9-0.6,1.7-1.5,2.5-2.3c0.2-0.1,0.3-0.3,0.4-0.5c0.6-1.1,1.3-2.1,2.2-2.9c0.4-0.4,0.9-0.7,1.4-1
				c1.1-0.8,1.9-1.7,2.4-3c0.4-1,1-2,1.4-3c0.3-0.8,0.6-1.5,1.1-2.2c0.2-0.3,0.4-0.6,0.7-0.8c0.9-0.7,1.8-1.4,2.7-2.1
				c0.5-0.4,1-0.7,1.5-1.1c0.6-0.6,1.2-1.1,1.5-2c0.1-0.4,0.5-0.8,0.7-1.3c-0.2,0-0.4-0.1-0.5,0c-0.3,0.1-0.5,0.3-0.8,0.4
				c-0.6,0.3-1.2,0.3-1.8,0.2c-0.1,0-0.2-0.1-0.2-0.2c0.3-0.9,1-1.4,1.7-2.1c0.3-0.3,0.7-0.4,1.1-0.3c0.4,0.1,0.7,0.3,1.1,0.5
				c0.3,0.2,0.5,0.4,1,0.4c0-0.3,0-0.6,0-0.9c0-0.5,0.2-1,0.6-1.3c0.2-0.1,0.9-0.4,1.2-0.4c0.4,0,0.8,0,1.2,0
				c0.1,0.1,0.3,0.3,0.4,0.4c-0.3,0.8-1,1.1-1.8,1c-0.2,0.2-0.3,0.4-0.6,0.7c0.3,0,0.4,0,0.4,0c0.2,0,0.3-0.1,0.5-0.1
				c0.1,0,0.2,0.1,0.4,0.2c0.2,0,0.5,0,0.7,0c0.4,0.3,0.7,0.6,1,0.9c0.3-0.1,0.5-0.3,0.7-0.3c0.6-0.1,1.1-0.3,1.7-0.5
				c0.5-0.1,0.5-0.1,0.7,0.4c0.2,0.3,0,0.7,0.3,1c-0.1,0.2-0.1,0.5-0.3,0.6c-0.4,0.5-1,0.9-1.6,1.2c-0.3,0.1-0.5,0.2-0.8,0.4
				c-0.1,0-0.1,0.2-0.1,0.2c0,0.1,0.1,0.1,0.2,0.1c0.1,0,0.1,0,0.2,0c0.5-0.2,1.1-0.4,1.6-0.7c0.1,0.1,0.1,0.2,0.3,0.3
				c-0.1,0-0.2,0.1-0.3,0.1c-0.6,0.1-1,0.4-1.5,0.7c-0.4,0.2-0.8,0.5-1.1,0.8c-0.6,0.4-1.2,0.8-1.7,1.2c-0.7,0.6-1.1,1.5-1.4,2.4
				c-0.1,0.4,0.2,0.7,0.2,1c0,0.1,0.1,0.2,0.2,0.4c0.3,0.6,0.3,0.6,1,0.4c0.3-0.1,0.7,0,1.1-0.2c0.2-0.1,0.3-0.2,0.5-0.4
				c1-1.5,1.9-3.1,3-4.6c0.2-0.3,0.6-0.6,0.8-0.9c0,0,0.1-0.1,0.1-0.1c0.3-0.3,0.7-0.1,1-0.2c0.3-0.2,0.6-0.1,0.9,0
				c0.2,0.1,0.5,0.1,0.8,0.1c0.2,1-0.8,1.4-1.2,2c-0.4,0-0.9,0-1.3,0c-0.5,0.9-1,1.7-1.4,2.6c-0.5,1.1-1.2,2-1.8,3.1
				c-0.2,0.3-0.6,0.6-1,0.8c-0.7,0.5-1.5,0.9-2.3,1.4c-0.2,0.1-0.4,0.3-0.6,0.6c-0.3,0.6-0.8,1.1-1.1,1.6c0.2,0.5,0.4,1,0.6,1.5
				c0.2,0.4,0.3,0.8,0.6,1c0.3,0.2,0.7,0.4,1.1,0.5c1,0.2,1.9,0.8,2.8,1.1c0.1,0,0.2,0.1,0.4,0.2c1.1,0.4,1.8,1,2.1,2.1
				c0.2,0.7,0.2,1.5-0.2,2.2c-0.7,0.1-1.1-0.4-1.6-0.9c-0.3-0.3-0.3-0.3-0.3-1.7c-0.6-0.1-1.2-0.3-1.8-0.6c-0.9-0.4-1.9-0.7-2.9-1
				c-0.7-0.3-1.4-0.6-2-1c-0.6-0.5-1.1-1-1.7-1.6c-0.8,0.3-1.6,0.6-2.4,0.9c-0.6,0.2-1.1,0.6-1.6,1c-0.3,0.3-0.6,0.6-0.9,0.9
				c-0.3,0.3-0.5,0.7-0.7,0.9c0.3,0.8,0.6,1.5,0.7,2.3c0,0.8-0.1,1.6-0.4,2.3c-0.4,0.9-0.8,1.9-1.6,2.5c-0.1,0.1-0.3,0.2-0.4,0.3
				c-0.6,0.4-0.6,0.5-0.4,1.3c0.3,0.9,0.6,1.9,0.9,2.8c0.2,0.7,0.3,0.7,1,0.8c0.6,0,1,0.4,1.3,0.9c0.1,0.2,0.2,0.4,0.3,0.6
				c-0.1,0.1-0.3,0.2-0.5,0.2c-0.9,0-1.8,0-2.7,0c-0.5-0.9-1-1.8-1.3-2.7c-0.4-1.1-0.9-2.1-1.5-3.1c-0.2-0.3-0.1-0.7-0.1-0.9
				c0.3-0.3,0.5-0.6,0.8-1c-0.4,0-0.6,0.2-0.8,0.3c-0.7,0.3-1.5,0.2-2.2,0.2c-0.4-0.4-0.7,0.1-1,0.2c0,0.1,0,0.1,0,0.2
				c0,0.9,0,1.7,0,2.6c0,0.8-0.2,1.7-0.2,2.5c0,0.2,0,0.3,0,0.5c0.2,0,0.3,0,0.5,0c0.6,0,0.9,0.2,1.1,0.7c0.1,0.3,0.2,0.6,0.3,0.9
				c-0.1,0.3-0.4,0.3-0.6,0.3c-0.2,0-0.5-0.2-0.6,0.2C493.7,340.5,493.6,340.5,493.5,340.5z"/>
		</g>
		<g>
			<path class="st8" d="M485.9,352.4V348h-1.5v-1h4.2v1h-1.5v4.4H485.9z"/>
			<path class="st8" d="M489.5,352.4V347h1.2v2.1h1.9V347h1.2v5.4h-1.2v-2.3h-1.9v2.3H489.5z"/>
			<path class="st8" d="M495.1,352.4V347h2c0.3,0,0.6,0,0.8,0.1c0.3,0.1,0.5,0.1,0.7,0.3c0.2,0.1,0.3,0.3,0.4,0.5
				c0.1,0.2,0.2,0.5,0.2,0.8c0,0.4-0.1,0.7-0.3,1c-0.2,0.3-0.4,0.4-0.7,0.6l1.2,2.2H498l-1-2h-0.7v2H495.1z M496.3,349.5h0.6
				c0.3,0,0.6-0.1,0.7-0.2c0.2-0.1,0.3-0.3,0.3-0.6c0-0.3-0.1-0.5-0.3-0.6c-0.2-0.1-0.4-0.2-0.7-0.2h-0.6V349.5z"/>
			<path class="st8" d="M500.2,352.4V347h3.4v1h-2.2v1.1h1.8v1h-1.8v1.2h2.3v1H500.2z"/>
			<path class="st8" d="M504,352.4l1.7-5.4h1.5l1.7,5.4h-1.3l-0.3-1.3h-1.7l-0.3,1.3H504z M506,349.7l-0.1,0.5h1.2l-0.1-0.5
				c-0.1-0.3-0.2-0.6-0.2-0.9c-0.1-0.3-0.1-0.6-0.2-0.9h0c-0.1,0.3-0.1,0.6-0.2,0.9C506.2,349.1,506.1,349.4,506,349.7z"/>
			<path class="st8" d="M509.9,352.4V348h-1.5v-1h4.2v1h-1.5v4.4H509.9z"/>
			<path class="st8" d="M515,352.5c-0.4,0-0.7-0.1-1.1-0.2c-0.4-0.1-0.7-0.3-0.9-0.6l0.7-0.8c0.2,0.2,0.4,0.3,0.6,0.4
				c0.2,0.1,0.5,0.2,0.7,0.2c0.3,0,0.4,0,0.6-0.1c0.1-0.1,0.2-0.2,0.2-0.4c0-0.1,0-0.2-0.1-0.2c0-0.1-0.1-0.1-0.2-0.2
				c-0.1,0-0.2-0.1-0.2-0.1c-0.1,0-0.2-0.1-0.3-0.1l-0.7-0.3c-0.1-0.1-0.3-0.1-0.4-0.2c-0.1-0.1-0.2-0.2-0.3-0.3
				c-0.1-0.1-0.2-0.3-0.2-0.4c-0.1-0.2-0.1-0.3-0.1-0.5c0-0.2,0-0.4,0.1-0.6c0.1-0.2,0.2-0.4,0.4-0.5c0.2-0.1,0.4-0.3,0.6-0.3
				c0.2-0.1,0.5-0.1,0.8-0.1c0.3,0,0.6,0.1,0.9,0.2c0.3,0.1,0.6,0.3,0.8,0.5l-0.6,0.8c-0.2-0.1-0.4-0.2-0.5-0.3
				c-0.2-0.1-0.4-0.1-0.6-0.1c-0.2,0-0.4,0-0.5,0.1c-0.1,0.1-0.2,0.2-0.2,0.4c0,0.1,0,0.2,0.1,0.2c0,0.1,0.1,0.1,0.2,0.2
				c0.1,0,0.2,0.1,0.3,0.1c0.1,0,0.2,0.1,0.3,0.1l0.7,0.3c0.3,0.1,0.6,0.3,0.8,0.5c0.2,0.2,0.3,0.5,0.3,0.9c0,0.2,0,0.4-0.1,0.6
				c-0.1,0.2-0.2,0.4-0.4,0.5c-0.2,0.2-0.4,0.3-0.6,0.4S515.3,352.5,515,352.5z"/>
		</g>
	</g>
	<text transform="matrix(1 0 0 1 40.8452 359.6124)" class="st1 st2 st3">T</text>
	<rect x="131.8" y="296.2" class="st4" width="146.2" height="79.6"/>
	<text transform="matrix(1 0 0 1 131.7836 305.2908)"><tspan x="0" y="0" class="st1 st5 st6">Competitors have clear primary </tspan><tspan x="0.7" y="13.2" class="st1 st5 st6">and secondary nav with more </tspan><tspan x="0.7" y="26.4" class="st1 st5 st6">descriptive CTAs</tspan><tspan x="0" y="47.4" class="st1 st5 st6">No information where users’ </tspan><tspan x="0.7" y="60.6" class="st1 st5 st6">donations are going</tspan></text>
	<rect x="296.7" y="296.2" class="st4" width="146.2" height="79.6"/>
	<text transform="matrix(1 0 0 1 296.7472 305.2908)"><tspan x="0" y="0" class="st1 st5 st6">Website is out-of-date and has </tspan><tspan x="0.7" y="13.2" class="st1 st5 st6">broken links, is not consistant, </tspan><tspan x="0.7" y="26.4" class="st1 st5 st6">and needs to be accessibility </tspan><tspan x="0.7" y="39.6" class="st1 st5 st6">friendly</tspan></text>
	<circle class="st1" cx="122.4" cy="302.1" r="2.4"/>
	<circle class="st1" cx="287.4" cy="302.1" r="2.4"/>
	<circle class="st1" cx="122.4" cy="348.8" r="2.4"/>
</g>
<g>
	
		<rect x="211.2" y="-191.1" transform="matrix(6.123234e-17 -1 1 6.123234e-17 201.8664 307.819)" class="st9" width="87.3" height="488.1"/>
	<g>
		<g>
			<circle class="st10" cx="499.1" cy="53" r="43.6"/>
		</g>
		<g>
			<path class="st9" d="M499.1,16.5c20.1,0,36.4,16.3,36.4,36.4s-16.3,36.4-36.4,36.4c-20.1,0-36.4-16.3-36.4-36.4
				S479,16.5,499.1,16.5 M499.1,12.4c-22.4,0-40.6,18.2-40.6,40.6s18.2,40.6,40.6,40.6c22.4,0,40.6-18.2,40.6-40.6
				S521.5,12.4,499.1,12.4L499.1,12.4z"/>
		</g>
		<g>
			<path class="st9" d="M481.4,51.7c0.8-0.4,1.6-0.8,2.2-1.6c0-1.4,0-2.9,0-4.3c0-1.1,0.2-2.2,1-3.1c0.1-0.1,0.1-0.3,0.2-0.5
				c-0.7-0.3-1.3-0.8-1.9-1.3c-0.6-0.6-1-1.3-1.5-1.9c-0.2-0.2-0.3-0.6-0.3-0.9c-0.1-1.5,0.1-3,0.9-4.4c0.1,0.1,0.1,0.3,0.2,0.5
				c0.8-1.1,1.6-2,2.8-2.7c-0.1,0.3-0.1,0.6-0.3,0.8c-0.4,0.6-0.5,1.3-0.6,2c-0.2,1-0.1,2.1-0.2,3.1c-0.1,1.3,0.5,2.4,1.1,3.5
				c0.2,0.3,0.4,0.6,0.6,0.8c0.8-0.3,1.5-0.7,2.3-0.9c0.6-0.2,1.2-0.1,1.8-0.3c1.3-0.2,2.7-0.1,4-0.2c0.9-0.1,1.8-0.3,2.7-0.7
				c0.8-0.4,1.7-0.7,2.5-1.1c0.5-0.2,0.9-0.6,1.3-0.8c0.9-0.5,1.8-0.8,2.7-1c0.6-0.2,1.2-0.5,1.6-0.9c0.4-0.5,0.9-0.8,1.2-1.4
				c0.2-0.5,0.4-1,0.7-1.5c0.4-0.8,0.7-1.7,1.5-2.4c-0.7-0.1-1.2-0.1-1.8,0.2c-0.7,0.4-1.3,0.4-1.9,0.2c-0.4-0.1-0.4-0.4-0.3-0.8
				c0.2-0.6,0.9-0.7,1.2-1.2c0.7-0.2,1.3-0.8,2.1-0.9c0.1,0,0.2-0.1,0.4,0c1,0.2,1.3,1.1,1.8,1.8c-0.1,0.4,0.3,0.2,0.5,0.3
				c0.3-0.5,0.5-1,0.7-1.4c0.4-0.7,0.7-0.7,1.5-0.7c0.9,0,1.6,0.4,2.3,0.8c0.6,0.3,0.6,0.3,0.6,1c-0.9,0.5-1.7,0.3-2.6,0
				c-0.2-0.1-0.5-0.1-0.7-0.1c-0.2,0-0.3,0.2-0.5,0.4c0.4,0.2,0.7,0.4,1,0.6c0.8,0.4,0.9,0.5,1.1,1.3c0.2,0.6,0.2,0.5,0.7,0.6
				c0.8,0,1.5,0.1,2.3,0.2c0.2,0,0.5,0.2,0.5,0.3c0,0.6,0.1,1.2-0.1,1.8c-0.2,0.6-0.6,1-1.4,1c0.3,0.1,0.4,0.2,0.6,0.3
				c0,0.7-0.7,0.4-1,0.7c-1.1,0-2.2,0.5-3.2,0.8c-0.5,0.2-1,0.5-1.5,0.8c0,0.7-0.1,1.3,0,1.9c0.4,1.3,0.2,2.7,0.2,4
				c0,1.2-0.2,2.4-0.8,3.4c-0.3,0.6-0.4,1.2-0.6,1.8c-0.3,1.4-0.2,2.8-0.1,4.2c0.1,1.1,0.2,2.3,0.4,3.4c0.1,0.4,0.2,0.7,0.1,1.2
				c0.6,0,1.2,0.3,1.8,0.3c0.1,0,0.4,0.2,0.4,0.3c0,0.3-0.2,0.6-0.2,0.9c0,0.4-0.5,0.4-0.6,0.8c-0.3-0.1-0.6,0.3-0.8,0
				c-0.7,0.1-1.2-0.3-1.7-0.8c-0.3-0.3-0.4-0.7-0.5-1.1c-0.3-1.6-0.7-3.2-1.2-4.7c-0.2-0.8-0.5-1.6-0.7-2.4
				c-0.4,0.1-0.3,0.5-0.4,0.7c-0.3,0.5-0.3,1-0.4,1.6c-0.2,0.8,0,1.5-0.2,2.3c-0.3,1.2-0.1,2.5-0.2,3.7c0,0.6,0,0.6,0.6,0.7
				c0.3,0.1,0.6,0.1,0.8,0.2c0.3,0.1,0.6,0.2,0.7,0.4c0.1,0.2,0.1,0.5,0.1,0.7c-0.2,0-0.3,0.1-0.4,0.1c0,0.2,0.2,0.4,0.1,0.5
				c-0.1,0.1-0.3,0.3-0.5,0.3c-0.3,0-0.3,0.1-0.4,0.4c-0.6,0.3-1.1-0.3-1.7-0.1c-0.3-0.3-0.5-0.5-0.8-0.8c-0.5-0.5-0.6-0.9-0.5-1.6
				c0-0.3,0.2-0.7-0.1-1.1c-0.1-0.1-0.1-0.3-0.1-0.5c0-0.5,0-1.1,0-1.6c0.1-1.5-0.1-2.9-0.3-4.4c-0.1-1-0.2-2.2-0.9-3.2
				c-1.7-0.3-3.5-0.8-5.2-1.4c-0.6-0.2-1.3-0.6-2-0.1c-0.2,0.1-0.5,0-0.7,0c-0.1,0.8-0.2,1.5-0.3,2.2c0,0.5-0.5,1.6-1,2.1
				c-0.6,0.6-1.2,1.3-1.9,1.7c-0.5,0.3-1,0.5-1.5,0.6c-0.4,0.1-0.7,0.2-1.1,0.5c-0.1,0.7,0.2,1.3,0.3,2c0.1,0.4,0.2,0.9,0.3,1.3
				c0,0.3,0.2,0.5,0.4,0.5c0.3,0.1,0.7,0.2,1,0.2c0.5,0,0.8,0.2,1.1,0.6c-0.1,0.1-0.3,0.2-0.4,0.3c0.1,0.2,0.2,0.3,0.3,0.4
				c-0.3,0.3-0.7,0.6-1,0.8c-0.2-0.1-0.5-0.2-0.7-0.2c-0.3,0-0.5-0.1-0.7-0.2c-0.8-0.2-1.1-0.8-1.3-1.4c-0.5-1.4-0.8-2.9-1.3-4.3
				c-0.2-0.5-0.1-1-0.1-1.5c-0.4-0.2-0.9,0.1-1.4-0.2c-0.2-0.1-0.5,0.1-0.8,0.2c0.1,2-0.4,4-0.2,5.9c0,0.2,0,0.4,0,0.7
				c0.3,0.1,0.6,0.1,1,0.2c0.2,0.1,0.5,0.2,0.7,0.3c0.1,0.1,0.2,0.2,0.2,0.3c0,0.1,0,0.3,0,0.3c-0.6,0.1,0.1,0.8-0.4,0.9
				c-0.2,0-0.4,0.2-0.6,0.3c-0.1,0.1-0.3,0.1-0.5,0.1c-0.4-0.2-0.8-0.4-1.3-0.6c-0.5-0.2-0.7-0.6-0.6-1c0.1-1.3-0.3-2.6-0.2-3.9
				c0-1.1,0-2.1,0-3.2c0-0.3,0.1-0.6-0.1-0.9c-0.1-0.1,0-0.5,0.1-0.7C481.3,52.2,481.4,52,481.4,51.7z"/>
		</g>
		<g>
			<path class="st9" d="M478.4,74.5c-0.4,0-0.7-0.1-1.1-0.2c-0.4-0.1-0.7-0.3-1-0.6l0.7-0.9c0.2,0.2,0.4,0.3,0.7,0.4
				c0.2,0.1,0.5,0.2,0.7,0.2c0.3,0,0.5,0,0.6-0.1c0.1-0.1,0.2-0.2,0.2-0.4c0-0.1,0-0.2-0.1-0.2c0-0.1-0.1-0.1-0.2-0.2
				c-0.1,0-0.2-0.1-0.3-0.1c-0.1,0-0.2-0.1-0.3-0.1l-0.7-0.3c-0.1-0.1-0.3-0.1-0.4-0.2c-0.1-0.1-0.3-0.2-0.4-0.3
				c-0.1-0.1-0.2-0.3-0.3-0.4c-0.1-0.2-0.1-0.4-0.1-0.6c0-0.2,0-0.5,0.1-0.7c0.1-0.2,0.2-0.4,0.4-0.5c0.2-0.2,0.4-0.3,0.6-0.4
				c0.2-0.1,0.5-0.1,0.8-0.1c0.3,0,0.7,0.1,1,0.2c0.3,0.1,0.6,0.3,0.8,0.6l-0.7,0.8c-0.2-0.1-0.4-0.3-0.6-0.3
				c-0.2-0.1-0.4-0.1-0.6-0.1c-0.2,0-0.4,0-0.5,0.1c-0.1,0.1-0.2,0.2-0.2,0.4c0,0.1,0,0.2,0.1,0.2c0,0.1,0.1,0.1,0.2,0.2
				c0.1,0,0.2,0.1,0.3,0.1c0.1,0,0.2,0.1,0.3,0.1l0.7,0.3c0.3,0.1,0.6,0.3,0.8,0.6c0.2,0.2,0.3,0.6,0.3,1c0,0.2,0,0.5-0.1,0.7
				c-0.1,0.2-0.2,0.4-0.4,0.6c-0.2,0.2-0.4,0.3-0.7,0.4C479,74.5,478.7,74.5,478.4,74.5z"/>
			<path class="st9" d="M482.4,74.4v-4.6h-1.6v-1.1h4.4v1.1h-1.6v4.6H482.4z"/>
			<path class="st9" d="M486.1,74.4v-5.7h2c0.3,0,0.6,0,0.8,0.1c0.3,0.1,0.5,0.2,0.7,0.3c0.2,0.1,0.4,0.3,0.5,0.5
				c0.1,0.2,0.2,0.5,0.2,0.8c0,0.4-0.1,0.8-0.3,1c-0.2,0.3-0.4,0.5-0.7,0.6l1.3,2.3h-1.4l-1.1-2h-0.7v2H486.1z M487.4,71.4h0.7
				c0.3,0,0.6-0.1,0.8-0.2c0.2-0.1,0.3-0.4,0.3-0.6s-0.1-0.5-0.3-0.6c-0.2-0.1-0.4-0.2-0.8-0.2h-0.7V71.4z"/>
			<path class="st9" d="M491.4,74.4v-5.7h3.5v1.1h-2.3V71h1.9V72h-1.9v1.3h2.4v1.1H491.4z"/>
			<path class="st9" d="M496.2,74.4v-5.7h1.3l1.5,2.8l0.6,1.3h0c0-0.3-0.1-0.6-0.1-1c0-0.4-0.1-0.7-0.1-1.1v-2h1.2v5.7h-1.3
				l-1.5-2.8l-0.6-1.2h0c0,0.3,0.1,0.6,0.1,1s0.1,0.7,0.1,1v2H496.2z"/>
			<path class="st9" d="M504.5,74.5c-0.4,0-0.8-0.1-1.1-0.2c-0.3-0.1-0.6-0.3-0.9-0.6c-0.2-0.2-0.4-0.5-0.6-0.9
				c-0.1-0.4-0.2-0.8-0.2-1.3c0-0.5,0.1-0.9,0.2-1.3c0.1-0.4,0.3-0.7,0.6-0.9c0.3-0.3,0.5-0.4,0.9-0.6c0.3-0.1,0.7-0.2,1.1-0.2
				c0.4,0,0.8,0.1,1.1,0.2c0.3,0.2,0.5,0.3,0.7,0.5l-0.7,0.8c-0.1-0.1-0.3-0.2-0.5-0.3c-0.2-0.1-0.4-0.1-0.6-0.1
				c-0.2,0-0.4,0-0.6,0.1c-0.2,0.1-0.3,0.2-0.5,0.4c-0.1,0.2-0.2,0.3-0.3,0.6c-0.1,0.2-0.1,0.5-0.1,0.8c0,0.6,0.1,1,0.4,1.4
				c0.3,0.3,0.7,0.5,1.2,0.5c0.1,0,0.2,0,0.3,0c0.1,0,0.2-0.1,0.3-0.1v-1h-0.9v-1h2.1v2.6c-0.2,0.2-0.5,0.4-0.8,0.5
				C505.2,74.5,504.9,74.5,504.5,74.5z"/>
			<path class="st9" d="M508.4,74.4v-4.6h-1.6v-1.1h4.4v1.1h-1.6v4.6H508.4z"/>
			<path class="st9" d="M512.2,74.4v-5.7h1.3v2.2h2v-2.2h1.3v5.7h-1.3v-2.4h-2v2.4H512.2z"/>
			<path class="st9" d="M519.7,74.5c-0.4,0-0.7-0.1-1.1-0.2c-0.4-0.1-0.7-0.3-1-0.6l0.7-0.9c0.2,0.2,0.4,0.3,0.7,0.4
				c0.2,0.1,0.5,0.2,0.7,0.2c0.3,0,0.5,0,0.6-0.1c0.1-0.1,0.2-0.2,0.2-0.4c0-0.1,0-0.2-0.1-0.2c0-0.1-0.1-0.1-0.2-0.2
				c-0.1,0-0.2-0.1-0.3-0.1c-0.1,0-0.2-0.1-0.3-0.1l-0.7-0.3c-0.1-0.1-0.3-0.1-0.4-0.2c-0.1-0.1-0.3-0.2-0.4-0.3
				c-0.1-0.1-0.2-0.3-0.3-0.4c-0.1-0.2-0.1-0.4-0.1-0.6c0-0.2,0-0.5,0.1-0.7c0.1-0.2,0.2-0.4,0.4-0.5c0.2-0.2,0.4-0.3,0.6-0.4
				c0.2-0.1,0.5-0.1,0.8-0.1c0.3,0,0.7,0.1,1,0.2c0.3,0.1,0.6,0.3,0.8,0.6l-0.7,0.8c-0.2-0.1-0.4-0.3-0.6-0.3
				c-0.2-0.1-0.4-0.1-0.6-0.1c-0.2,0-0.4,0-0.5,0.1c-0.1,0.1-0.2,0.2-0.2,0.4c0,0.1,0,0.2,0.1,0.2c0,0.1,0.1,0.1,0.2,0.2
				c0.1,0,0.2,0.1,0.3,0.1c0.1,0,0.2,0.1,0.3,0.1l0.7,0.3c0.3,0.1,0.6,0.3,0.8,0.6c0.2,0.2,0.3,0.6,0.3,1c0,0.2,0,0.5-0.1,0.7
				c-0.1,0.2-0.2,0.4-0.4,0.6c-0.2,0.2-0.4,0.3-0.7,0.4C520.4,74.5,520.1,74.5,519.7,74.5z"/>
		</g>
	</g>
	<text transform="matrix(1 0 0 1 39.8456 80.8732)" class="st1 st2 st11">S</text>
	<rect x="131.8" y="20.5" class="st4" width="146.2" height="79.6"/>
	<text transform="matrix(1 0 0 1 131.7836 29.6772)"><tspan x="0" y="0" class="st1 st5 st6">Color contrast is easy for users </tspan><tspan x="0.7" y="13.2" class="st1 st5 st6">to see. CTA is clear</tspan><tspan x="0" y="39.6" class="st1 st5 st6">Images clearly depict animals </tspan><tspan x="0.7" y="52.8" class="st1 st5 st6">grabbing user’s attention</tspan></text>
	<rect x="296.7" y="20.5" class="st4" width="146.2" height="54.9"/>
	<text transform="matrix(1 0 0 1 296.7472 29.6772)"><tspan x="0" y="0" class="st1 st5 st6">Good use of white space, icons, </tspan><tspan x="0.7" y="13.2" class="st1 st5 st6">and hierarchy</tspan></text>
	<circle class="st1" cx="123.2" cy="26.4" r="2.4"/>
	<circle class="st1" cx="288.2" cy="26.4" r="2.4"/>
	<circle class="st1" cx="123.2" cy="65.8" r="2.4"/>
</g>
<g>
	<path class="st9" d="M-95.6,340.7h-19.2c-0.3,0-0.5,0.2-0.5,0.5s0.2,0.5,0.5,0.5h19C-95.7,341.3-95.7,341-95.6,340.7z"/>
	<path class="st9" d="M-135.9,358.4c-0.3,0-0.5,0.2-0.5,0.5c0,0.3,0.2,0.5,0.5,0.5h21.2c-0.1-0.3-0.2-0.6-0.2-1H-135.9z"/>
	<path class="st9" d="M-135.8,334.8c0.1,0.2,0.2,0.4,0.3,0.7c0.1,0.2,0.3,0.4,0.5,0.6c0.2,0.2,0.5,0.3,0.8,0.5
		c0.3,0.1,0.7,0.2,1.1,0.2c1.2,0,2-0.3,2.6-0.8c0.6-0.5,0.8-1.3,0.8-2.2c0-0.4,0-0.7-0.1-1c-0.1-0.3-0.2-0.6-0.3-0.8
		c-0.2-0.2-0.3-0.5-0.6-0.7c-0.2-0.2-0.5-0.4-0.7-0.6l-1.5-1c-0.3-0.2-0.4-0.3-0.6-0.5c-0.1-0.1-0.2-0.3-0.3-0.4
		c-0.1-0.1-0.1-0.3-0.1-0.4c0-0.1,0-0.2,0-0.4c0-0.3,0.1-0.6,0.3-0.8c0.2-0.2,0.5-0.3,0.8-0.3c0.3,0,0.5,0.1,0.7,0.2
		c0.2,0.1,0.3,0.4,0.4,0.8c0,0.2,0,0.4,0.1,0.5c0,0.1,0.1,0.3,0.2,0.4c0.1,0.1,0.2,0.2,0.3,0.2c0.1,0,0.3,0.1,0.5,0.1
		c0.3,0,0.5-0.1,0.7-0.3c0.2-0.2,0.3-0.4,0.3-0.8c0-0.3-0.1-0.6-0.2-0.9c-0.1-0.3-0.3-0.6-0.5-0.9c-0.2-0.3-0.5-0.5-0.9-0.7
		c-0.4-0.2-0.9-0.3-1.4-0.3c-0.4,0-0.8,0.1-1.2,0.2c-0.4,0.1-0.7,0.3-1,0.5c-0.3,0.2-0.5,0.5-0.7,0.9c-0.2,0.4-0.3,0.8-0.3,1.3
		c0,0.6,0.1,1,0.3,1.5c0.2,0.4,0.6,0.8,1.1,1.2l1.9,1.4c0.2,0.1,0.3,0.3,0.5,0.4c0.1,0.1,0.2,0.2,0.3,0.4c0.1,0.1,0.1,0.3,0.2,0.4
		c0,0.1,0.1,0.3,0.1,0.5c0,0.4-0.1,0.7-0.3,0.9c-0.2,0.2-0.5,0.4-0.9,0.4c-0.4,0-0.7-0.1-0.9-0.4c-0.2-0.3-0.3-0.6-0.3-0.9
		c0-0.5-0.1-0.8-0.3-1c-0.2-0.2-0.4-0.3-0.7-0.3c-0.2,0-0.4,0-0.5,0.1c-0.1,0.1-0.2,0.2-0.3,0.3c-0.1,0.1-0.1,0.3-0.2,0.4
		c0,0.2,0,0.3,0,0.5c0,0.1,0,0.2,0,0.4C-136,334.4-135.9,334.6-135.8,334.8z"/>
	<path class="st9" d="M-125.5,331.2l-1.6,0.9c-0.5,0.3-0.8,0.6-1,1c-0.2,0.4-0.3,0.9-0.3,1.5c0,0.4,0,0.7,0.1,1
		c0.1,0.3,0.2,0.5,0.4,0.7c0.2,0.2,0.4,0.3,0.6,0.4c0.2,0.1,0.5,0.1,0.8,0.1c0.3,0,0.7-0.1,1-0.2c0.3-0.2,0.5-0.4,0.7-0.8l0,0
		c0,0.4,0.1,0.7,0.3,0.8c0.2,0.1,0.4,0.2,0.7,0.2c0.6,0,0.9-0.2,0.9-0.7c0-0.1,0-0.3-0.1-0.5c0-0.2-0.1-0.4-0.1-0.7v-4.2
		c0-0.3,0-0.6-0.1-0.9c-0.1-0.3-0.2-0.5-0.4-0.8c-0.2-0.2-0.5-0.4-0.8-0.5c-0.4-0.1-0.8-0.2-1.5-0.2c-0.4,0-0.7,0-1,0.1
		c-0.3,0.1-0.6,0.2-0.8,0.4c-0.2,0.2-0.4,0.4-0.5,0.7c-0.1,0.3-0.2,0.6-0.2,0.9c0,0.1,0,0.3,0.1,0.4c0.1,0.1,0.1,0.2,0.2,0.2
		c0.1,0.1,0.2,0.1,0.3,0.1c0.1,0,0.2,0,0.3,0c0.2,0,0.4-0.1,0.6-0.2c0.2-0.1,0.3-0.2,0.3-0.4c0-0.3,0.1-0.6,0.2-0.7
		c0.1-0.2,0.3-0.2,0.7-0.2c0.2,0,0.4,0.1,0.5,0.2c0.1,0.2,0.2,0.4,0.2,0.6C-124.9,330.7-125.1,331-125.5,331.2z M-124.9,333.7
		c0,0.4-0.1,0.8-0.3,1.1c-0.2,0.3-0.4,0.4-0.7,0.4c-0.2,0-0.4-0.1-0.5-0.2c-0.1-0.2-0.2-0.4-0.2-0.7c0-0.2,0-0.3,0-0.5
		c0-0.1,0.1-0.3,0.1-0.4c0.1-0.1,0.2-0.2,0.3-0.3c0.1-0.1,0.3-0.2,0.5-0.4l0.6-0.5V333.7z"/>
	<path class="st9" d="M-122,329.4l1.4,6.1c0,0.2,0.1,0.4,0.2,0.5c0.1,0.1,0.1,0.3,0.2,0.4c0.1,0.1,0.2,0.2,0.4,0.2
		c0.2,0,0.4,0.1,0.6,0.1c0.5,0,0.8-0.1,0.9-0.2c0.2-0.1,0.3-0.3,0.4-0.6l1.5-6.3c0.1-0.2,0.1-0.4,0.1-0.6c0-0.2-0.1-0.4-0.2-0.5
		c-0.1-0.2-0.4-0.2-0.7-0.2c-0.3,0-0.5,0.1-0.7,0.3c-0.1,0.2-0.2,0.4-0.3,0.7l-0.9,5.3h0l-1-5.3c-0.1-0.4-0.2-0.6-0.3-0.7
		c-0.2-0.1-0.4-0.2-0.7-0.2c-0.2,0-0.5,0.1-0.6,0.2c-0.2,0.1-0.3,0.4-0.3,0.6c0,0.1,0,0.1,0,0.2C-122,329.2-122,329.3-122,329.4z"/>
	<path class="st9" d="M-115.1,335.7c0.2,0.3,0.5,0.5,0.9,0.7c0.4,0.2,0.9,0.2,1.5,0.2c0.8,0,1.4-0.2,1.8-0.6c0.5-0.4,0.7-1,0.7-1.7
		c0-0.4-0.1-0.6-0.3-0.7c-0.2-0.1-0.4-0.2-0.7-0.2c-0.3,0-0.5,0.1-0.6,0.2c-0.2,0.1-0.3,0.4-0.3,0.8c0,0.2-0.1,0.4-0.2,0.6
		c-0.1,0.2-0.3,0.3-0.5,0.3c-0.2,0-0.3,0-0.5-0.1c-0.1-0.1-0.2-0.2-0.2-0.4c-0.1-0.2-0.1-0.3-0.1-0.6c0-0.2,0-0.4,0-0.7v-0.8h2.4
		c0.2,0,0.4,0,0.5-0.1c0.1-0.1,0.2-0.2,0.3-0.3c0.1-0.1,0.1-0.3,0.1-0.4c0-0.2,0-0.3,0-0.5c0-1.1-0.2-1.9-0.6-2.4
		c-0.4-0.5-1-0.8-2-0.8c-0.6,0-1.1,0.1-1.5,0.2c-0.4,0.2-0.7,0.4-0.9,0.7c-0.2,0.3-0.3,0.7-0.4,1.1c-0.1,0.4-0.1,0.9-0.1,1.4v1.7
		c0,0.5,0,1,0.1,1.4C-115.4,335.1-115.3,335.4-115.1,335.7z M-113.6,330.7c0-0.3,0.1-0.6,0.2-0.8c0.1-0.2,0.3-0.3,0.6-0.3
		c0.3,0,0.5,0.1,0.6,0.3c0.1,0.2,0.2,0.5,0.2,0.8v0.7h-1.6V330.7z"/>
	<path class="st9" d="M-104.9,336.7c0.3,0,0.6-0.1,0.7-0.2c0.2-0.1,0.3-0.4,0.3-0.7l0.4-2h2.5l0.3,1.6c0.1,0.5,0.2,0.8,0.4,1
		c0.2,0.2,0.4,0.3,0.8,0.3c0.3,0,0.5-0.1,0.7-0.2c0.2-0.1,0.3-0.4,0.3-0.7c0-0.1,0-0.2,0-0.3c0-0.2-0.1-0.3-0.1-0.5l-1.9-8.1
		c-0.1-0.3-0.1-0.5-0.2-0.7c-0.1-0.2-0.2-0.3-0.3-0.4c-0.1-0.1-0.3-0.2-0.5-0.2c-0.2,0-0.4-0.1-0.6-0.1c-0.3,0-0.5,0-0.7,0.1
		c-0.2,0-0.3,0.1-0.5,0.2c-0.1,0.1-0.2,0.3-0.3,0.4c-0.1,0.2-0.1,0.4-0.2,0.7l-1.9,8.1c0,0.2-0.1,0.3-0.1,0.5c0,0.2,0,0.3,0,0.4
		c0,0.3,0.1,0.5,0.2,0.6C-105.4,336.6-105.2,336.7-104.9,336.7z M-102.2,327.7L-102.2,327.7l0.9,4.5h-1.8L-102.2,327.7z"/>
	<path class="st9" d="M-96.5,336.7c0.3,0,0.5-0.1,0.7-0.3c0.2-0.2,0.2-0.5,0.2-0.8v-4.4c0-0.5,0.1-0.9,0.3-1.1
		c0.2-0.2,0.4-0.3,0.7-0.3c0.2,0,0.4,0.1,0.5,0.2c0.1,0.1,0.2,0.4,0.2,0.7v5c0,0.4,0.1,0.7,0.2,0.8s0.4,0.3,0.7,0.3
		c0.3,0,0.5-0.1,0.7-0.3s0.2-0.5,0.2-0.8v-5.4c0-0.7-0.2-1.2-0.5-1.5c-0.3-0.3-0.8-0.5-1.3-0.5c-0.4,0-0.7,0.1-1,0.3
		c-0.3,0.2-0.6,0.4-0.7,0.8h0c0-0.4-0.1-0.6-0.2-0.8c-0.2-0.2-0.4-0.3-0.7-0.3c-0.3,0-0.5,0.1-0.7,0.3c-0.2,0.2-0.2,0.5-0.2,0.8v6.3
		c0,0.4,0.1,0.7,0.2,0.8C-97,336.6-96.8,336.7-96.5,336.7z"/>
	<path class="st9" d="M-130.7,340.3c-0.4,0-0.7,0-1,0.1c-0.3,0.1-0.5,0.2-0.7,0.3c-0.2,0.2-0.3,0.4-0.4,0.6c-0.1,0.3-0.2,0.6-0.3,1
		l-2.8,11.6c-0.1,0.2-0.1,0.4-0.1,0.7c0,0.2,0,0.4,0,0.5c0,0.4,0.1,0.7,0.4,0.9c0.2,0.2,0.6,0.3,1,0.3c0.5,0,0.8-0.1,1-0.3
		c0.2-0.2,0.4-0.6,0.5-1l0.6-2.8h3.6l0.5,2.3c0.1,0.7,0.3,1.2,0.6,1.5c0.2,0.3,0.6,0.4,1.2,0.4c0.4,0,0.7-0.1,1-0.3
		c0.3-0.2,0.4-0.5,0.4-1c0-0.1,0-0.3-0.1-0.5c0-0.2-0.1-0.4-0.2-0.7l-2.7-11.5c-0.1-0.4-0.2-0.7-0.3-1c-0.1-0.3-0.3-0.5-0.5-0.6
		c-0.2-0.2-0.4-0.3-0.7-0.3C-130.1,340.3-130.4,340.3-130.7,340.3z M-132.1,349.9l1.3-6.4h0l1.3,6.4H-132.1z"/>
	<path class="st9" d="M-118.6,356c0.2,0.3,0.6,0.4,1,0.4c0.4,0,0.7-0.1,1-0.4c0.2-0.3,0.4-0.6,0.4-1.2V347c0-1-0.2-1.7-0.7-2.2
		c-0.5-0.5-1.1-0.7-1.8-0.7c-0.5,0-1,0.1-1.4,0.4c-0.5,0.3-0.8,0.6-1,1.1h0c0-0.5-0.1-0.9-0.4-1.1c-0.2-0.3-0.6-0.4-1-0.4
		c-0.4,0-0.7,0.1-1,0.4c-0.2,0.3-0.4,0.6-0.4,1.2v9.1c0,0.5,0.1,0.9,0.4,1.2c0.2,0.3,0.6,0.4,1,0.4c0.4,0,0.7-0.1,1-0.4
		c0.2-0.3,0.4-0.6,0.4-1.2v-6.3c0-0.7,0.1-1.3,0.4-1.6c0.3-0.3,0.6-0.5,1-0.5c0.3,0,0.5,0.1,0.7,0.3c0.2,0.2,0.3,0.5,0.3,0.9v7.1
		C-119,355.3-118.8,355.7-118.6,356z"/>
	<path class="st9" d="M-107.7,344.1c-0.4,0-0.7,0.1-1,0.4c-0.2,0.3-0.3,0.6-0.3,1.2h0c-0.2-0.5-0.5-0.9-1-1.2
		c-0.5-0.3-0.9-0.4-1.4-0.4c-0.6,0-1,0.1-1.4,0.4c-0.4,0.2-0.6,0.6-0.9,1c-0.2,0.4-0.4,0.9-0.4,1.4c-0.1,0.5-0.1,1.1-0.1,1.6v3
		c0,0.6,0,1.2,0.1,1.7c0.1,0.5,0.2,1,0.4,1.4c0.2,0.4,0.5,0.7,0.9,1c0.4,0.3,0.8,0.4,1.4,0.4c0.3,0,0.5,0,0.7-0.1
		c0.2,0,0.4-0.1,0.6-0.2c0.2-0.1,0.4-0.2,0.5-0.4c0.2-0.2,0.3-0.4,0.5-0.7h0v1.6c0,0.8-0.1,1.4-0.3,1.7c-0.2,0.4-0.5,0.6-1.1,0.6
		c-0.2,0-0.3-0.1-0.5-0.2c-0.2-0.1-0.3-0.3-0.4-0.5c-0.1-0.2-0.2-0.4-0.4-0.5c-0.2-0.2-0.4-0.2-0.7-0.2c-0.4,0-0.7,0.1-0.9,0.3
		c-0.3,0.2-0.4,0.5-0.4,0.9c0,0.4,0.1,0.7,0.3,1c0.2,0.3,0.4,0.5,0.7,0.7c0.3,0.2,0.7,0.3,1.1,0.4c0.4,0.1,0.9,0.1,1.4,0.1
		c1.3,0,2.3-0.3,3-0.9c0.7-0.6,1-1.6,1-2.9v-11c0-0.5-0.1-0.9-0.3-1.2C-107,344.3-107.4,344.1-107.7,344.1z M-109.1,351.2
		c0,0.6,0,1.1-0.1,1.4c-0.1,0.4-0.2,0.7-0.3,0.9c-0.1,0.2-0.3,0.3-0.4,0.4c-0.2,0.1-0.3,0.1-0.5,0.1c-0.2,0-0.4-0.1-0.5-0.2
		c-0.1-0.1-0.3-0.3-0.3-0.5c-0.1-0.3-0.1-0.6-0.2-1c0-0.4-0.1-0.9-0.1-1.6v-1.9c0-0.9,0.1-1.6,0.3-2c0.2-0.4,0.5-0.6,0.9-0.6
		c0.1,0,0.3,0,0.4,0.1c0.1,0.1,0.3,0.2,0.4,0.4c0.1,0.2,0.2,0.5,0.3,0.9c0.1,0.4,0.1,0.8,0.1,1.4V351.2z"/>
	<path class="st9" d="M-98.2,350.6c0.3,0,0.6,0,0.8-0.1c0.2-0.1,0.3-0.2,0.4-0.4c0.1-0.2,0.2-0.4,0.2-0.6c0-0.2,0-0.5,0-0.7
		c0-1.5-0.3-2.7-0.8-3.4c-0.5-0.8-1.5-1.2-2.9-1.2c-0.9,0-1.6,0.1-2.1,0.3c-0.5,0.2-0.9,0.6-1.2,1c-0.3,0.4-0.5,0.9-0.5,1.5
		c-0.1,0.6-0.1,1.3-0.1,2v2.4c0,0.7,0,1.4,0.1,2c0.1,0.6,0.3,1.1,0.5,1.5c0.3,0.4,0.7,0.8,1.2,1c0.5,0.2,1.2,0.3,2.1,0.3
		c1.1,0,1.9-0.3,2.6-0.9c0.7-0.6,1-1.4,1-2.5c0-0.5-0.1-0.9-0.4-1c-0.3-0.2-0.6-0.3-1-0.3c-0.4,0-0.7,0.1-0.9,0.3
		c-0.2,0.2-0.4,0.6-0.4,1.1c0,0.3-0.1,0.6-0.3,0.8c-0.2,0.2-0.4,0.4-0.7,0.4c-0.3,0-0.5-0.1-0.6-0.2c-0.2-0.1-0.3-0.3-0.4-0.5
		c-0.1-0.2-0.1-0.5-0.2-0.8c0-0.3,0-0.6,0-1v-1.2H-98.2z M-101.6,347.8c0-0.4,0.1-0.8,0.2-1.1c0.2-0.3,0.5-0.5,0.9-0.5
		c0.4,0,0.7,0.2,0.9,0.5c0.2,0.3,0.2,0.7,0.2,1.1v1h-2.3V347.8z"/>
	<path class="st9" d="M-93.5,340.3c-0.4,0-0.7,0.1-1,0.4c-0.2,0.3-0.4,0.6-0.4,1.2v12.9c0,0.5,0.1,0.9,0.4,1.2
		c0.2,0.3,0.6,0.4,1,0.4c0.4,0,0.7-0.1,1-0.4c0.2-0.3,0.4-0.6,0.4-1.2v-12.9c0-0.5-0.1-0.9-0.4-1.2
		C-92.7,340.4-93.1,340.3-93.5,340.3z"/>
	<path class="st9" d="M-126.6,340.8c-0.2,0.2-0.4,0.4-0.5,0.7c-0.1,0.3-0.2,0.6-0.1,1c0.1,0.4,0.5,0.6,0.7,0.7
		c0.3,0.1,0.6,0.2,0.8,0.2c0.5,0.1,1.1,0.1,1.6,0c1-0.1,2-0.4,3-0.8c0.9-0.4,1.8-0.9,2.6-1.6c0.4-0.3,0.8-0.7,1.1-1.1
		c0.2-0.2,0.3-0.4,0.4-0.7c0.1-0.2,0.1-0.5,0-0.8c-0.1-0.3-0.3-0.4-0.6-0.5c-0.2-0.1-0.5-0.2-0.7-0.2c-0.5-0.1-1-0.1-1.5,0
		c-1,0.1-2,0.3-3,0.6c-1,0.3-1.9,0.8-2.7,1.3C-125.9,340.1-126.3,340.4-126.6,340.8z M-122.5,339c0.9-0.4,1.8-0.7,2.8-0.9
		c0.5-0.1,1-0.1,1.5-0.1c0.2,0,0.5,0.1,0.7,0.2c0.2,0.1,0.4,0.3,0.5,0.5c0.1,0.2,0,0.5-0.1,0.7c-0.1,0.2-0.3,0.4-0.4,0.6
		c-0.3,0.3-0.8,0.6-1.2,0.8c-0.9,0.4-1.8,0.8-2.7,1.1c-0.9,0.3-1.8,0.6-2.8,0.7c-0.5,0.1-0.9,0.1-1.4,0.1c-0.4,0-0.8-0.2-0.9-0.4
		c-0.1-0.2,0.1-0.6,0.4-1c0.3-0.3,0.7-0.7,1-0.9C-124.3,339.8-123.4,339.3-122.5,339z"/>
	<path class="st9" d="M-11.4,351.7l1.5-0.5l-2,0.5l1.6-0.5l-1.1,0.2l1-0.3l-1.1,0.1l0.9-0.2l-0.9,0.1l0.7-0.2l-1,0.2l0.6-0.2
		l-0.8,0.1l0.6-0.2l-1.8,0.4c0,0,0,0,0,0l1.6-0.3l-1,0.1l-0.8,0.1l-0.1,0c-0.5,0-1.1,0-1.1,0l-7.4,1.6c0,0-0.1,0-0.1,0l-2.4,0.3
		c-0.1-0.1-0.2-0.1-0.3,0c0,0-0.1,0-0.1,0.1l-0.5,0.1c0,0,0.1,0,0-0.1c0,0-0.1,0-0.1,0c-0.1,0-0.3,0.1-0.4,0.1l-0.6,0.1l-4,0.1
		l-1.7-0.1l-1-0.7c-0.3-0.5-0.6-1-0.8-1.5c-0.4-0.9-1.1-1.6-1.5-2.5c-0.8-1.3-1.6-2.6-2.2-4c0,0,0,0,0-0.1l0.1-0.1l-0.2,0l0-0.3
		h-0.2c0,0,0,0,0,0l0-0.2l-0.2,0c0,0-0.1-0.1-0.1-0.1l0.1-0.4l-0.2,0.2l-0.1-0.5l-0.1,0.4c0,0,0,0,0,0l-0.2-0.7l-0.1,0.4
		c-0.5-0.5-1.1-1-1.7-1.5c-0.2-0.2-0.5-0.3-0.7-0.6c-0.2-0.3-0.4-0.5-0.7-0.7c-0.2-0.2-0.4-0.3-0.6-0.5c0,0,0-0.1,0-0.1
		s-0.5,0-0.6-0.4c-0.2-0.5-0.4-1-0.6-1.5c-0.1-0.2-0.2-0.4-0.3-0.5c0,0,0-0.1,0-0.1c0-0.3-0.1-0.6-0.1-1c-0.1-0.5-0.2-0.9-0.5-1.3
		c-0.1-0.2-0.3-0.4-0.5-0.5c-0.1,0-0.1-0.1-0.1-0.2c0-0.1,0.1-0.1,0.2-0.1c0,0,0,0,0.1,0c0,0,0,0-0.1-0.1c-0.2-0.1-0.3-0.1-0.4-0.3
		c0,0-0.1-0.1,0-0.1c0.1,0,0-0.1,0-0.1c-0.1-0.1-0.1-0.2-0.2-0.3c0,0,0-0.1,0-0.1c0.1,0,0,0,0-0.1c-0.1,0-0.1-0.1-0.2-0.1
		c0,0-0.1-0.1,0-0.1c0,0,0,0,0-0.1c0,0-0.1,0-0.1-0.1c-0.1-0.1-0.1-0.1,0-0.2c-0.1,0-0.1,0-0.2,0c-0.2,0-0.2-0.1-0.1-0.3
		c0,0,0,0,0,0c-0.2,0.1-0.4-0.1-0.5-0.2c-0.1-0.2-0.2-0.4-0.3-0.6c-0.1-0.4-0.3-0.7-0.4-1.1c0-0.1-0.1-0.3-0.1-0.5
		c-0.1-0.6-0.3-1.2-0.8-1.6c-0.1-0.1-0.1-0.2-0.1-0.2c-0.1-0.4-0.3-0.8-0.4-1.2c0-0.1-0.1-0.2-0.2-0.3c-0.1-0.2-0.3-0.4-0.3-0.7
		c0-0.1,0-0.2,0-0.4c0-0.6-0.1-1.2-0.3-1.7c-0.1-0.2-0.2-0.4-0.3-0.6c-0.2-0.3-0.4-0.4-0.7-0.1c-0.1,0.1-0.2,0.2-0.2,0.3
		c0,0,0,0.1-0.1,0.1c0,0,0-0.1-0.1-0.1c-0.1-0.1-0.1-0.1-0.2,0c0,0.1-0.1,0.1-0.1,0.2c-0.1,0.3-0.2,0.6-0.3,0.9
		c-0.1,0.2-0.2,0.5-0.4,0.7c-0.1,0.1-0.2,0.2-0.4,0.2c-0.2,0-0.4,0.1-0.5,0.1c-0.1,0-0.1,0-0.1,0c0-0.1-0.1-0.1-0.2-0.1
		c-0.1,0-0.2,0-0.4,0c-0.2,0.1-0.5,0.1-0.7,0c-0.1,0-0.1,0-0.1-0.1c0,0,0,0,0,0c-0.4,0.1-0.7,0.2-1,0.5c-0.1,0.1-0.3,0-0.3,0
		c0-0.1-0.1,0-0.1,0c-0.1,0.2-0.3,0.5-0.4,0.7c-0.2,0.4-0.6,0.7-1,0.9c-0.2,0.1-0.5,0.3-0.8,0.4c-0.3,0.1-0.3,0.3-0.4,0.5
		c0,0.2,0,0.3,0.1,0.4c0,0,0,0.1,0,0.1c-0.1,0.2,0,0.4,0.1,0.6c0,0.1,0.1,0.1,0.1,0.1c0.2,0.1,0.2,0.3,0.1,0.5c-0.1,0.2,0,0.3,0,0.4
		c0.1,0.4,0.4,0.7,0.7,0.8c0.6,0.3,1.1,0.6,1.7,0.9c0.2,0.1,0.5,0.3,0.7,0.4c0.1,0.1,0.2,0.2,0.3,0.3c0.1,0.3,0.2,0.6,0.2,0.9
		c0,0.6,0,1.1-0.1,1.7c-0.1,0.7-0.2,1.4-0.3,2c-0.1,0.4-0.1,0.7-0.1,0.7l-0.6,0c0,0-0.6-0.1-0.9-0.2l-1-0.3l0.1,0.2c0,0-0.1,0-0.1,0
		l-0.3-0.2l0.1,0.2c-0.1,0-0.1,0-0.2,0l-0.3-0.1l0.1,0.1c0,0,0,0-0.1,0c-1,0-2-0.3-3-0.6c-0.3-0.1-0.6-0.3-0.5-0.7
		c0-0.1,0-0.2,0-0.3l0.2-0.6l-0.2,0.3c0,0,0-0.1,0-0.1l0-0.3l-0.1,0.2c0,0-0.1-0.1-0.1-0.1l-0.1-0.3l0,0.2c0,0,0,0-0.1-0.1l-0.1-0.3
		l-0.1,0.2c0,0,0,0,0,0c-0.4-0.2-0.8-0.5-1.3-0.5c-0.1,0-0.2,0-0.2-0.1c0-0.4-0.1-0.7-0.2-1.1l0.1,0.1l-0.1-0.3c0,0,0-0.1,0-0.1
		l0.1,0.1l-0.1-0.4c0,0,0,0,0-0.1l0.2,0.2l-0.1-0.4c0,0,0-0.1-0.1-0.2c0-0.2-0.1-0.4-0.2-0.7c-0.2-0.3-0.5-0.6-0.7-0.9
		c-0.6-0.8-0.9-1.8-1.4-2.7c-0.2-0.3-0.4-0.6-0.3-1c0-0.1,0-0.2,0.1-0.3l0,0l0,0l0-0.2l0-0.9l-0.1,0.4c0,0,0-0.1-0.1-0.1V326
		l-0.1,0.2c0,0,0-0.1-0.1-0.1l-0.2-0.4l0,0.2c-0.4-0.4-0.7-0.7-1.1-1.1c-0.3-0.3-0.7-0.6-0.5-1.1c0.2-0.7-0.2-1.1-0.6-1.6
		c-0.6-0.7-1.6-1.2-2-2c-0.3-0.5-0.6-0.9-1.1-1.3c-0.7-0.6-1.3-1.2-1.8-1.9c-0.5-0.7-1.1-1.4-1.9-1.9c-0.7-0.4-1.3-0.3-1.8,0.4
		c-0.5,0.7-0.7,1.5-0.6,2.4c0.2,2.1,0.7,4.1,1.5,6c0.2,0.5,0.4,1-0.1,1.3c-1.1,0.7-2.1,1.5-3.1,2.3c-0.5,0.4-0.9,0.3-1.3,0.1
		c-0.3-0.1-0.5-0.3-0.8-0.5c-1.6-0.9-3.2-1.6-4.9-2.2c-0.8-0.3-1.6-0.2-2.4,0.1c-0.7,0.3-1,0.8-0.7,1.6c0.1,0.4,0.3,0.7,0.5,1
		c0.5,1,1.3,1.8,1.7,2.9c0.2,0.5,0.4,0.9,0.8,1.3c0.7,0.8,1.3,1.6,1.9,2.5c0.3,0.5,0.8,1,1.5,0.6c0.1-0.1,0.3-0.1,0.4,0.1
		c0.2,0.5,0.7,0.9,0.8,1.5c0,0.1,0,0.1,0.1,0.2l-0.1,0l0.1,0.1c0,0,0,0.1,0.1,0.1h-0.1l0.2,0.2c0,0,0.1,0.1,0.1,0.1l-0.3,0l0.5,0.2
		c0,0,0,0,0,0l-0.4,0.1l0.8,0.1c0.4,0.1,0.8,0.2,1,0.7c0.3,0.9-0.3,2.1-1.2,2.3c-0.4,0.1-0.6,0.2-0.8,0.3l-0.1-0.1l-0.1,0.5
		l-0.1-0.2l0.1,0.5l-0.3-0.5l0.4,1l-0.3-0.4l0.3,1.1c0,0.4,0,0.9-0.1,1.3c0,0,0,0,0,0.1l-0.5,0.5l0.3-0.2l-0.1,0.4l0.2-0.1
		c0,0.2,0,0.4,0,0.6l-0.1,0.2l0.1,0c0,0.4,0.1,0.7,0.2,1.1c0.1,0.4,0.2,0.8,0.1,1.2c-0.6,1.8-0.9,3.8-1.8,5.5
		c-0.2,0.4-0.4,0.8-0.6,1.2l0,0l-0.1,0.2c0,0.1-0.1,0.2-0.1,0.2l0-0.2l-0.1,0.4c0,0,0,0.1-0.1,0.1l-0.1-0.2l-0.1,0.5
		c0,0,0,0-0.1,0.1l0-0.3c0,0,0,0.2-0.2,0.6c0,0,0,0.1-0.1,0.1c0,0,0,0,0,0l0.1-0.3l-0.1,0.3c-0.2,0.2-0.4,0.4-0.7,0.6
		c-0.4,0.3-0.7,0.7-1,1.1l0-0.1l-0.5,1h-17.4c-0.1,0.4-0.2,0.7-0.4,1h17.7c0,1-0.3,1.9-0.8,2.7c-0.2,0.2-0.3,0.4-0.2,0.7l-0.1,0.2
		l0.1-0.1c0,0,0,0.1,0,0.1l-0.2,0.2h0.2l-0.2,0.5l0.2-0.2l0-0.1c0.1,0.4,0.1,0.8,0.1,1.1c-0.2,1,0,1.6,0.1,2c0.1,0.7,0.7,2,0.8,2
		c0.2,0.1,0.3,0.3,0.5,0.8c0.1,0.2,0.4,1,0.6,1.1c0.4,0.1,0-1,0.5-0.3c0.1,0.2,0.7,1.3,0.8,0.8c0.1-0.5,0.1-0.8,0.1-0.9
		c0,0.2,0.1,0.5,0.4,0.9c0.1,0.1,0.5,0.3,0.5,0.1c0.1-0.3,0-1.2,0.2-1.6l0,0l0,0.1l0.1-0.3l0,0.1l0-0.2l0.1,0.1l0-0.1c0,0,0,0,0,0
		l0.1,0.2l0.1-0.2l0,0.1l0-0.1l0,0.1l0-0.1c0.3,0.1,0.4,0.6,0.7,0.7c0.2,0.1,0.5,0.2,0.6,0c0.1-0.2,0.2-0.3,0-0.5
		c-0.2-0.3-0.5-0.8-0.4-1.1l0.3,0.5l-0.3-0.6c0,0,0.1-0.1,0.1-0.1l0.2,0.2l-0.1-0.3c0.1-0.1,0.2-0.2,0.3-0.6
		c0.1-0.5,0.2-0.8,0.1-1.3c-0.1-0.3-0.1-0.7-0.2-1.1l0.2,0.1l-0.1-1.1c0-0.7-0.1-1.3-0.1-1.9l0.2-0.9l-0.1,0.2c0-0.1,0-0.2,0-0.3
		l0.1-0.2l-0.1,0.1c0,0,0-0.1,0-0.1c-0.2-0.5,0-0.7,0.5-0.7c0.5,0,1-0.1,1.4-0.1c0.9-0.1,1.9,0.1,2.6-0.1l0.5,0l-0.2-0.1
		c1.4-0.3,2.2,0.4,3,0.8c0.2,0.1,0.3,0.3,0.2,0.4l-0.6,0.6l-0.3,0.6l-0.4,0.4l0.5-0.2l-0.5,0.4l0.3,0c0,0,0,0,0,0.1l-0.5,0.3h0.2
		c0,0-0.1,0.1-0.1,0.1l-0.2,0.1v0.1c-0.4,0.5-0.8,1-1.1,1.5l0,0l-0.6,0.9l-0.3,0.2l0.3,0l-0.4,0.5l0.2-0.1c0,0,0,0,0,0l-0.4,0.4
		l0.3-0.1c-0.2,0.6-0.5,1.2-0.8,1.7c-0.1,0.2-0.2,0.4-0.3,0.6l-0.4,0.7l0.2-0.1c0,0.1-0.1,0.2-0.1,0.3l-0.4,1.1l0.2-0.5
		c0,0.2-0.1,0.5-0.1,0.8c-0.1,1.4,0,2.1,0.1,2.4c0.2,0.3,0.2-0.6,0.2-0.6c0.1,0.4,0.2,2,0.6,2.1c0.1,0,0.2-0.6,0.4-1l0,0l0,0.1
		l0.1-0.3l0,0.1l0.1-0.2l0,0.1l0-0.1c0,0,0,0,0,0l0,0.1l0-0.1c0.1,0.1,0.1,0.1,0.1,0.3c0,0.5-0.2,1.2,0,1.2c0.4,0,0.7-1,1.1-1.4
		l0,0.1l0.1-0.1c0,0,0,0,0,0c0,0,0,0,0.1,0l0,0.1l0.1-0.1c0,0,0,0,0.1,0l0,0l0-0.1c0,0,0,0,0.1,0l0,0.1l0-0.1c0,0.1,0.1,0.2,0,0.5
		c0,0.3,0,0.5,0.2,0.5c0.3,0,0.5-1.3,0.6-1.5c0.2-0.4,0.4,0.1,1.7-1.8c0.6-0.9,0.8-1.3,1.2-2.3c0.1-0.3,0.2-0.6,0.4-0.9l0.4-0.3
		l-0.2-0.1l0.2-0.1l-0.1-0.1c0,0,0-0.1,0.1-0.1l0.2-0.1l-0.1-0.1l0.1-0.2l-0.1,0c0,0,0-0.1,0.1-0.1l0.2-0.1l-0.1-0.2c0,0,0,0,0-0.1
		l0.2-0.2l-0.1,0c0,0,0-0.1,0.1-0.1l0.3-0.2l-0.2,0c0,0,0-0.1,0-0.1l0.3-0.2l-0.2,0c0-0.1,0.1-0.1,0.1-0.2l0.2-0.1l-0.2,0
		c0,0,0-0.1,0.1-0.1l0.2-0.1l-0.2,0.1c0-0.1,0.1-0.2,0.1-0.2c0.3-0.3,0.5-0.6,0.5-0.6l-0.3,0.2c0,0,0,0,0,0l0.4-0.5l-0.2,0.1
		c0,0,0-0.1,0-0.1l0.4-0.4l-0.1,0c0.1-0.2,0.3-0.3,0.6-0.4c0.3-0.1,0.6-0.3,0.6-0.6c0.1-0.4,0.3-0.7,0.5-0.9c0,0,0,0,0,0
		c0,0,0,0,0,0c0.2-0.2,0.4-0.3,0.6-0.5c0.6-0.5,1.3-0.9,1.9-1.4c1-0.7,1.9-1.3,2.9-2c0.7-0.5,1.5-1,2.1-1.5c0.8-0.6,1.5-1.2,2.3-1.9
		c0.8-0.7,1.6-1.5,2.3-2.4c0.7-0.8,1.2-1.7,1.6-2.7c0.4-0.9,1.7-4-1.2-5.5c-0.8-0.5-3-0.5-5,1.3c-2,1.8-2.1,2-2.3,2.5
		c-0.1,0.2-0.2,0.5-0.2,0.7c-0.2-0.1-0.3-0.3-0.3-0.6c0-0.4,0.2-0.9,0-1.3c-1.3-3.7-4.1-5.5-6.4-5.6c-2.5-0.1-4,1.5-0.9,8.5
		c0.4,0.9,2.7,4.6,3.2,5.7c0,0,0,0.1,0,0.1c0,0,0,0,0,0c0,0,0,0,0-0.1c-0.3-0.4-4.2-6.2-4.6-7c-0.4-0.8-0.8-1.6-1.1-2.5
		c-0.3-0.8-0.5-1.5-0.6-2.4c0-0.7,0-1.3,0.3-1.9c0.3-0.7,0.7-1.2,1.2-1.7c0.7-0.6,1.5-0.9,2.4-0.8c0.8,0.1,1.6,0.3,2.3,0.7
		c0.8,0.5,1.6,1.1,2.2,1.7c0.9,0.9,1.6,1.8,2.2,2.9c0.3,0.7,0.6,1.3,0.7,2.1c0,0.1,0,0.2,0.1,0.3c0.5-0.6,0.9-1.2,1.4-1.8
		c0.6-0.7,1.2-1.4,2-1.9c0.7-0.5,2.9-1.3,5.1-0.3c0.7,0.3,2.2,1.5,2.4,4.1c0.1,1.1-0.2,2.2-0.7,3.2c-0.3,0.5-0.6,0.9-0.9,1.3
		c-0.5,0.6-1.1,1.3-1.7,1.8c-0.6,0.6-1.1,1.1-1.8,1.6c-0.8,0.6-1.6,1.2-2.4,1.8c-1,0.7-2,1.3-3.1,2c-1,0.6-2,1.2-3,1.8
		c-0.5,0.3-1,0.6-1.5,0.9c0.3-0.1,0.6-0.2,0.9-0.3c0.5-0.2,1.1-0.5,1.6-0.2c0,0,0.1,0,0.1,0c0.3-0.6,0.9-0.5,1.4-0.5
		c1,0,1.8-0.4,2.8-0.5c0.8-0.1,1.5-0.5,2.3-0.5c0.4,0,0.8,0,1.2-0.2c0.5-0.2,0.8-0.5,1.4-0.6c-0.1,0.2-0.3,0.7-0.2,0.9
		c0.1,0.2,1.1-0.5,1.1-0.5l0.2,0c0,0-0.1,0.1-0.1,0.3c-0.1,0.4,0.2,0.6,0.5,0.4c0.4-0.3,0.5-0.2,1.1-0.2c0.6,0.1,2.6-0.9,2.6-0.9
		l4.4-1.3c0.2,0,0.5,0,0.8,0l1.1-0.1c0.3,0,0.7,0,1-0.1c0.1,0,0.1,0,0.2,0c0.1,0,0.1,0,0.2,0c0.4,0,0.8,0,1.2,0
		c0.2,0,0.4,0.1,0.5,0.1c0.6,0.1,1.2,0.2,1.9,0.2c0.5,0,1,0.1,1.5,0.1c0,0,0,0,0.1,0c0.6,0.2,1.2-0.3,1.7-0.5c0.5,0,2.6,0.2,3.1,0.2
		c0,0,1,0.1,1.1,0.2c1.8,0,1,0.3,2.9,0.3c0.3,0,0.6,0,0.9-0.1c0.8-0.1,1.7-0.2,2.5-0.3c1.1-0.1,2.1-0.3,3.2-0.5
		c1.1-0.2,2.2-0.5,3.3-0.7c0.5-0.1,1-0.3,1.5-0.4l2-0.6c0,0,0.2-0.2,0.5-0.5c0.1,0,0.2-0.1,0.2-0.1l0.1,0l1.1-0.3l1-0.4l-0.5,0.1
		l0.8-0.3l-0.6,0.1l0.8-0.3l-0.4,0.1l0.8-0.3l-0.4,0l0.7-0.3l-0.6,0.2l0.7-0.3l-0.5,0.1l0.8-0.3l-0.4,0l0.8-0.3l-0.4,0l0.6-0.2
		l-0.6,0.1l1.1-0.3L-11.4,351.7z"/>
</g>
<rect x="-158.2" y="410.2" class="st9" width="92.3" height="74.1"/>
<rect x="-19.8" y="410.2" class="st12" width="92.3" height="74.1"/>
<rect x="96.5" y="410.2" class="st7" width="92.3" height="74.1"/>
<rect x="241.2" y="410.2" class="st0" width="92.3" height="74.1"/>
<rect x="358.2" y="410.2" class="st8" width="92.3" height="74.1"/>
<rect x="478.2" y="410.2" class="st13" width="92.3" height="74.1"/>
<rect x="478.2" y="492.6" class="st14" width="92.3" height="74.1"/>
<rect x="315.6" y="492.6" class="st15" width="92.3" height="74.1"/>
</svg>
