<?xml version="1.0" encoding="utf-8"?>
<!-- Generator: Adobe Illustrator 23.1.1, SVG Export Plug-In . SVG Version: 6.00 Build 0)  -->
<svg version="1.1" xmlns="http://www.w3.org/2000/svg" xmlns:xlink="http://www.w3.org/1999/xlink" x="0px" y="0px"
	 viewBox="0 0 934.2 743.1" style="enable-background:new 0 0 934.2 743.1;" xml:space="preserve">
<style type="text/css">
	.st0{fill:#D7690A;}
	.st1{fill:none;stroke:#232323;stroke-miterlimit:10;}
	.st2{fill:#F2F2F2;}
	.st3{fill:none;stroke:#232323;stroke-width:0.75;stroke-miterlimit:10;}
	.st4{fill:none;stroke:#A7A9AC;stroke-width:0.5;stroke-miterlimit:10;stroke-dasharray:12;}
	.st5{fill:#232323;}
	.st6{font-family:'Montserrat-SemiBold';}
	.st7{font-size:18.8125px;}
	.st8{font-size:14px;}
	.st9{fill:#FFFFFF;}
	.st10{font-family:'Montserrat-Medium';}
	.st11{font-size:16px;}
	.st12{fill:none;}
	.st13{font-family:'Montserrat-Regular';}
	.st14{fill:none;stroke:#162A65;stroke-width:3;stroke-miterlimit:10;}
	.st15{fill:none;stroke:#162A65;stroke-width:2;stroke-miterlimit:10;}
	.st16{fill:none;stroke:#162A65;stroke-width:2;stroke-miterlimit:10;stroke-dasharray:5.6266,5.6266;}
	.st17{fill:#162A65;}
	.st18{font-size:12px;}
</style>
<g id="Layer_2">
	<rect x="292.3" y="498.8" class="st0" width="177.5" height="52.5"/>
	<rect x="509.8" y="498.8" class="st0" width="177.5" height="52.5"/>
	<rect x="727.3" y="498.8" class="st0" width="177.5" height="52.5"/>
	<rect x="74.8" y="498.8" class="st0" width="177.5" height="52.5"/>
	<line class="st1" x1="74.8" y1="594.1" x2="904.8" y2="594.1"/>
	<line class="st1" x1="74.8" y1="35.4" x2="452.6" y2="35.4"/>
	<line class="st1" x1="505.6" y1="35.4" x2="883.4" y2="35.4"/>
	<polygon class="st2" points="74.7,296.2 114.9,295.9 213.8,265.8 311.9,320.8 443.2,249.6 531.3,296.8 656.9,278.6 749.6,258 
		867.5,211.2 903.6,189.8 903.6,482.8 73.9,482.8 	"/>
	<rect x="74.8" y="110.1" class="st3" width="830" height="372.2"/>
	<line class="st4" x1="74.8" y1="296.2" x2="904.8" y2="296.2"/>
</g>
<g id="Layer_3">
</g>
<g id="Layer_1">
	<text transform="matrix(1 0 0 1 74.7596 28.1677)" class="st5 st6 st7">SCENARIO</text>
	<text transform="matrix(1 0 0 1 5.6727 244.7999)" class="st5 st6 st8">HAPPY</text>
	<text transform="matrix(1 0 0 1 16.2289 425.7999)" class="st5 st6 st8">SAD</text>
	<text transform="matrix(1 0 0 1 509.7557 28.1677)" class="st5 st6 st7">GOALS</text>
	<text transform="matrix(1 0 0 1 74.7596 585.6915)" class="st5 st6 st7">OPPORTUNITIES</text>
	<g id="Group_15_1_" transform="translate(0)">
		<g id="Group_3_1_" transform="translate(19.469 29.704)">
			<path id="Path_3_1_" class="st5" d="M14.8,168.2c-0.2,1.8-1.8,3-3.5,2.8c-1.5-0.2-2.7-1.3-2.8-2.8c0-1.2,1.2-1.2,3.2-1.2
				S14.8,167,14.8,168.2z"/>
			<path id="Path_4_1_" class="st5" d="M11.6,172.1c-1.2,0-2.3-0.5-3.1-1.3c-0.7-0.7-1.1-1.6-1.2-2.6c0-1,0.7-1.9,1.7-2.1
				c0.8-0.2,1.7-0.2,2.6-0.2h0.1c0.9,0,1.7,0,2.6,0.2c1,0.2,1.7,1.1,1.7,2.1c0,1-0.5,1.9-1.2,2.6C13.9,171.7,12.8,172.1,11.6,172.1z
				 M9.5,168.2c0.2,1.2,1.3,1.9,2.5,1.7c0.9-0.2,1.6-0.8,1.7-1.7c-0.7-0.1-1.4-0.2-2.1-0.1h-0.1C10.9,168.1,10.2,168.1,9.5,168.2
				L9.5,168.2z"/>
		</g>
		<g id="Group_4_1_" transform="translate(13.882 33.756)">
			<path id="Path_5_1_" class="st5" d="M11.5,172.4c-1.2,0-2.4-0.3-3.5-0.7c-0.6-0.2-0.8-0.9-0.6-1.4c0.2-0.6,0.9-0.8,1.4-0.6l0,0
				c1.8,0.8,3.8,0.7,5.6-0.2c0.6-0.4,1.2-0.8,1.7-1.4V167c0-0.6,0.5-1.1,1.1-1.1s1.1,0.5,1.1,1.1v1.5c0,0.2-0.1,0.4-0.2,0.6
				c-0.7,0.9-1.6,1.7-2.6,2.3C14.2,172.1,12.9,172.4,11.5,172.4z"/>
		</g>
		<g id="Group_5_1_" transform="translate(22.638 33.756)">
			<path id="Path_6_1_" class="st5" d="M14.1,172.4c-1.4,0-2.7-0.4-3.9-1c-1-0.6-1.9-1.3-2.6-2.3c-0.1-0.2-0.2-0.4-0.2-0.6V167
				c0-0.6,0.5-1.1,1.1-1.1s1.1,0.5,1.1,1.1v1.1c1.8,2.1,4.8,2.7,7.3,1.6c0.6-0.2,1.2,0,1.4,0.6c0.2,0.6,0,1.2-0.6,1.4
				C16.5,172.2,15.3,172.4,14.1,172.4z"/>
		</g>
		<g id="Group_6_1_" transform="translate(15.187 35.275)">
			<path id="Path_7_1_" class="st5" d="M15.9,167L15.9,167c-1.8,2.3-4.7,3.3-7.5,2.6v0.2c0,0,1.1,5,7.4,5s7.4-5.1,7.4-5.1v-0.1
				C20.4,170.3,17.6,169.2,15.9,167z"/>
			<path id="Path_8_1_" class="st5" d="M15.8,175.9c-2.6,0.1-5.2-0.9-6.9-2.9c-0.7-0.9-1.3-1.9-1.5-3c0-0.1,0-0.1,0-0.2v-0.2
				c0-0.6,0.5-1.1,1.1-1.1c0.1,0,0.2,0,0.3,0c0.5,0.1,1,0.2,1.5,0.2c1.9,0,3.6-0.9,4.8-2.4c0.2-0.3,0.5-0.5,0.9-0.5l0,0
				c0.3,0,0.7,0.2,0.9,0.5c1.5,1.9,3.9,2.7,6.2,2.2c0.6-0.1,1.2,0.2,1.3,0.8c0,0.1,0,0.2,0,0.2v0.1c0,0.1,0,0.1,0,0.2
				c-0.3,1.1-0.8,2.1-1.5,3C21,175,18.4,176.1,15.8,175.9z M10.1,170.9c0.7,1.2,2.4,2.8,5.7,2.8c2,0.1,3.9-0.7,5.2-2.1
				c0.2-0.2,0.4-0.5,0.5-0.7c-2.1,0-4.1-0.8-5.6-2.3C14.3,170.1,12.2,170.9,10.1,170.9z M15.9,167"/>
		</g>
		<g id="Group_7_1_" transform="translate(28.849 24.281)">
			<circle id="Ellipse_9_1_" class="st5" cx="10.2" cy="168.8" r="1.8"/>
			<path id="Path_9_1_" class="st5" d="M10.2,171.6c-1.6,0-2.8-1.3-2.8-2.8s1.3-2.8,2.8-2.8s2.8,1.3,2.8,2.8c0,0.8-0.3,1.5-0.8,2
				C11.7,171.3,10.9,171.6,10.2,171.6z M10.2,168.1c-0.2,0-0.4,0.1-0.5,0.2l0,0c-0.3,0.3-0.3,0.7,0,1c0.3,0.3,0.7,0.3,1,0
				s0.3-0.7,0-1C10.5,168.2,10.4,168.1,10.2,168.1z M9,167.5"/>
		</g>
		<g id="Group_8_1_" transform="translate(12.928 24.282)">
			<circle id="Ellipse_10_1_" class="st5" cx="10.2" cy="168.8" r="1.8"/>
			<path id="Path_10_1_" class="st5" d="M10.2,171.6c-1.6,0-2.8-1.3-2.8-2.8c0-0.8,0.3-1.5,0.8-2l0,0c1.1-1.1,2.9-1.1,4,0
				c1.1,1.1,1.1,2.9,0,4C11.7,171.3,10.9,171.6,10.2,171.6z M9.7,168.3c-0.3,0.3-0.3,0.7,0,1c0.3,0.3,0.7,0.3,1,0
				c0.3-0.3,0.3-0.7,0-1C10.4,168,10,168,9.7,168.3z"/>
		</g>
		<g id="Group_9_1_" transform="translate(12.312 48.914)">
			<path id="Path_11_1_" class="st5" d="M7.4,165.9"/>
		</g>
		<g id="Group_10_1_" transform="translate(35.002 48.908)">
			<path id="Path_12_1_" class="st5" d="M7.4,165.9"/>
		</g>
		<g id="Group_11_1_" transform="translate(1.088 1.082)">
			<path id="Path_13_1_" class="st5" d="M52.5,196.6L52.5,196.6c0-0.2,0-0.3,0-0.4c0-0.2,0-0.3-0.1-0.5l0,0
				c-0.8-7.4-1.9-29.8-6.4-29.8c-3.2,0-6.7,6.1-8.8,9.9l0,0c0,0-0.4-0.1-1.1-0.2l-0.4-0.1l-0.2,0c-0.2,0-0.5-0.1-0.8-0.1l-0.1,0
				c-0.2,0-0.4-0.1-0.6-0.1l-0.1,0c-1.3-0.2-2.6-0.3-3.9-0.3c-1.3,0-2.6,0.1-3.9,0.3l-0.1,0c-0.2,0-0.4,0.1-0.6,0.1l-0.1,0
				c-0.3,0-0.5,0.1-0.8,0.1l-0.2,0l-0.4,0.1c-0.7,0.1-1.1,0.2-1.1,0.2l0,0c-2.1-3.9-5.5-9.9-8.8-9.9c-4.5,0-5.6,22.4-6.4,29.8l0,0
				c0,0.2,0,0.3-0.1,0.5c0,0.1,0,0.2,0,0.3v0.1c0,0.1,0,0.2,0,0.3v0c0,0.1,0,0.2,0,0.3v0c0,0.1,0,0.2,0,0.3v0c0,0.2,0,0.5,0.1,0.7v0
				c0,0.2,0.1,0.5,0.1,0.8c1.1,5.2,5.8,10.7,10.9,14.5c-4.5-4.7-5.9-9.9-7.3-13c-1.3-3-1.2-6.6,1.2-8.8c0.3-0.3,0.7-0.6,1.2-0.8
				c3.1-1,3.4-1.8,3.6-3.2c0.3-1.8,1.9-2.8,4.1-2.6c1.3,0.1,1.7-1.1,1.9-1.6c0.8-1.9,2.1-1.5,5,0.9c1.6,1.3-1.3-4.2,1.8-4.2l0,0
				c3.1,0,0.2,5.5,1.8,4.2c2.9-2.3,4.2-2.7,5-0.9c0.2,0.4,0.5,1.7,1.9,1.6c2.1-0.2,3.8,0.8,4.1,2.6c0.2,1.4,0.5,2.2,3.6,3.2
				c0.4,0.2,0.9,0.4,1.2,0.8c2.4,2.2,2.6,5.8,1.2,8.8c-1.4,3.2-2.8,8.3-7.3,13c5.1-3.9,9.8-9.4,10.9-14.5l0,0
				c0.1-0.3,0.1-0.5,0.1-0.8v0c0-0.2,0.1-0.5,0.1-0.7v0c0-0.1,0-0.2,0-0.3v-0.4C52.5,196.8,52.5,196.7,52.5,196.6z M10.8,186.6
				c0.5-7,1.5-17.4,3.6-17.4c1.8,0,4.5,5.1,5.9,7.9C16.4,179.4,13.1,182.7,10.8,186.6L10.8,186.6z M39.5,177.1
				c1.4-2.8,4.1-7.9,5.9-7.9c2.1,0,3.1,10.4,3.6,17.4C46.7,182.7,43.4,179.4,39.5,177.1L39.5,177.1z"/>
		</g>
		<g id="Group_12_1_" transform="translate(0 0)">
			<path id="Path_14_1_" class="st5" d="M31,221.1c-4.6,0-12.1-4.4-17.5-10.3c-4.3-4.7-6.5-9.5-6.1-13.6v0l0.1-0.5
				c0.1-1,0.2-2.4,0.4-4c0.4-4.7,0.9-11.2,1.9-16.5c0.4-2.4,0.9-4.7,1.8-6.9c0.3-0.8,1.4-3.4,3.5-3.4c3.6,0,6.8,5,9.8,10.5
				c0.3,0.5,0.1,1.2-0.4,1.5c-0.5,0.3-1.2,0.1-1.5-0.4c0,0,0-0.1,0-0.1c-1.3-2.3-5.1-9.4-7.8-9.4c-0.1,0-1.6,0.1-3.1,8.5
				c-0.9,5.2-1.5,11.6-1.9,16.3c-0.1,1.6-0.2,2.9-0.4,4l-0.1,0.5c-0.3,3.4,1.7,7.6,5.6,11.9c2.5,2.7,5.3,5,8.4,6.9
				c2.9,1.7,5.6,2.7,7.4,2.7c0.6,0,1.1,0.5,1.1,1.1C32.1,220.6,31.6,221.1,31,221.1L31,221.1z"/>
		</g>
		<g id="Group_13_1_" transform="translate(22.559 0)">
			<path id="Path_15_1_" class="st5" d="M8.4,221.1c-0.6,0-1.1-0.5-1.1-1.1c0-0.6,0.5-1.1,1.1-1.1l0,0c1.8,0,4.5-1,7.4-2.7
				c3.1-1.9,6-4.2,8.4-6.9c3.9-4.3,5.9-8.5,5.6-11.9l-0.1-0.5c-0.1-1.1-0.2-2.4-0.4-4c-0.4-4.7-0.9-11.1-1.9-16.3
				c-1.5-8.4-3-8.5-3.1-8.5c-2.8,0-6.6,7-7.9,9.4c-0.3,0.5-0.9,0.8-1.4,0.5c-0.5-0.3-0.8-0.9-0.5-1.4c0,0,0-0.1,0-0.1
				c2.9-5.4,6.2-10.5,9.7-10.5c2.1,0,3.1,2.6,3.5,3.4c0.8,2.2,1.4,4.5,1.8,6.9c0.9,5.3,1.5,11.8,1.9,16.5c0.1,1.6,0.2,2.9,0.4,4
				l0.1,0.5v0c0.4,4-1.8,8.8-6.1,13.6C20.5,216.7,13,221.1,8.4,221.1z"/>
		</g>
		<g id="Group_14_1_" transform="translate(15.276 9.061)">
			<path id="Path_16_1_" class="st5" d="M23,168.9c-0.1,0-0.1,0-0.2,0c-2.3-0.5-4.7-0.7-7.1-0.8c-2.4,0.1-4.7,0.4-7.1,0.8
				c-0.6,0.1-1.2-0.3-1.3-0.9c-0.1-0.6,0.3-1.1,0.8-1.3c2.5-0.5,5-0.8,7.5-0.9c2.5,0.1,5,0.4,7.5,0.9c0.6,0.1,1,0.7,0.8,1.3
				C24,168.6,23.5,168.9,23,168.9L23,168.9z"/>
		</g>
	</g>
	<g>
		<g id="Group_17_1_" transform="translate(12.312 48.914)">
			<path id="Path_17_1_" class="st5" d="M7.4,346.6"/>
		</g>
		<g id="Group_18_1_" transform="translate(35.002 48.908)">
			<path id="Path_18_1_" class="st5" d="M7.4,346.6"/>
		</g>
		<g id="Group_19_1_" transform="translate(1.088 1.082)">
			<path id="Path_19_1_" class="st5" d="M52.5,377.3L52.5,377.3c0-0.2,0-0.3,0-0.4c0-0.2,0-0.3-0.1-0.5l0,0
				c-0.8-7.4-1.9-29.8-6.4-29.8c-3.2,0-6.7,6.1-8.8,9.9l0,0c0,0-0.4-0.1-1.1-0.2l-0.4-0.1l-0.2,0c-0.2,0-0.5-0.1-0.8-0.1l-0.1,0
				c-0.2,0-0.4-0.1-0.6-0.1l-0.1,0c-1.3-0.2-2.6-0.3-3.9-0.3c-1.3,0-2.6,0.1-3.9,0.3l-0.1,0c-0.2,0-0.4,0.1-0.6,0.1l-0.1,0
				c-0.3,0-0.5,0.1-0.8,0.1l-0.2,0l-0.4,0.1c-0.7,0.1-1.1,0.2-1.1,0.2l0,0c-2.1-3.9-5.5-9.9-8.8-9.9c-4.5,0-5.6,22.4-6.4,29.8l0,0
				c0,0.2,0,0.3-0.1,0.5c0,0.1,0,0.2,0,0.3v0.1c0,0.1,0,0.2,0,0.3v0c0,0.1,0,0.2,0,0.3v0c0,0.1,0,0.2,0,0.3v0c0,0.2,0,0.5,0.1,0.7v0
				c0,0.2,0.1,0.5,0.1,0.8c1.1,5.2,5.8,10.7,10.9,14.5c-4.5-4.7-5.9-9.9-7.3-13c-1.3-3-1.2-6.6,1.2-8.8c0.3-0.3,0.7-0.6,1.2-0.8
				c3.1-1,3.4-1.8,3.6-3.2c0.3-1.8,1.9-2.8,4.1-2.6c1.3,0.1,1.7-1.1,1.9-1.6c0.8-1.9,2.1-1.5,5,0.9c1.6,1.3-1.3-4.2,1.8-4.2l0,0
				c3.1,0,0.2,5.5,1.8,4.2c2.9-2.3,4.2-2.7,5-0.9c0.2,0.4,0.5,1.7,1.9,1.6c2.1-0.2,3.8,0.8,4.1,2.6c0.2,1.4,0.5,2.2,3.6,3.2
				c0.4,0.2,0.9,0.4,1.2,0.8c2.4,2.2,2.6,5.8,1.2,8.8c-1.4,3.2-2.8,8.3-7.3,13c5.1-3.9,9.8-9.4,10.9-14.5l0,0
				c0.1-0.3,0.1-0.5,0.1-0.8v0c0-0.2,0.1-0.5,0.1-0.7v0c0-0.1,0-0.2,0-0.3v-0.4C52.5,377.5,52.5,377.4,52.5,377.3z M10.8,367.3
				c0.5-7,1.5-17.4,3.6-17.4c1.8,0,4.5,5.1,5.9,7.9C16.4,360.1,13.1,363.4,10.8,367.3L10.8,367.3z M39.5,357.8
				c1.4-2.8,4.1-7.9,5.9-7.9c2.1,0,3.1,10.4,3.6,17.4C46.7,363.4,43.4,360.1,39.5,357.8L39.5,357.8z"/>
		</g>
		<g id="Group_20_1_" transform="translate(0 0)">
			<path id="Path_20_1_" class="st5" d="M31,401.8c-4.6,0-12.1-4.4-17.5-10.3c-4.3-4.7-6.5-9.5-6.1-13.6v0l0.1-0.5
				c0.1-1,0.2-2.4,0.4-4c0.4-4.7,0.9-11.2,1.9-16.5c0.4-2.4,0.9-4.7,1.8-6.9c0.3-0.8,1.4-3.4,3.5-3.4c3.6,0,6.8,5,9.8,10.5
				c0.3,0.5,0.1,1.2-0.4,1.5s-1.2,0.1-1.5-0.4c0,0,0-0.1,0-0.1c-1.3-2.3-5.1-9.4-7.8-9.4c-0.1,0-1.6,0.1-3.1,8.5
				c-0.9,5.2-1.5,11.6-1.9,16.3c-0.1,1.6-0.2,2.9-0.4,4l-0.1,0.5c-0.3,3.4,1.7,7.6,5.6,11.9c2.5,2.7,5.3,5,8.4,6.9
				c2.9,1.7,5.6,2.7,7.4,2.7c0.6,0,1.1,0.5,1.1,1.1S31.6,401.8,31,401.8L31,401.8z"/>
		</g>
		<g id="Group_21_1_" transform="translate(22.559 0)">
			<path id="Path_21_1_" class="st5" d="M8.4,401.8c-0.6,0-1.1-0.5-1.1-1.1c0-0.6,0.5-1.1,1.1-1.1l0,0c1.8,0,4.5-1,7.4-2.7
				c3.1-1.9,6-4.2,8.4-6.9c3.9-4.3,5.9-8.5,5.6-11.9l-0.1-0.5c-0.1-1.1-0.2-2.4-0.4-4c-0.4-4.7-0.9-11.1-1.9-16.3
				c-1.5-8.4-3-8.5-3.1-8.5c-2.8,0-6.6,7-7.9,9.4c-0.3,0.5-0.9,0.8-1.4,0.5c-0.5-0.3-0.8-0.9-0.5-1.4c0,0,0-0.1,0-0.1
				c2.9-5.4,6.2-10.5,9.7-10.5c2.1,0,3.1,2.6,3.5,3.4c0.8,2.2,1.4,4.5,1.8,6.9c0.9,5.3,1.5,11.8,1.9,16.5c0.1,1.6,0.2,2.9,0.4,4
				l0.1,0.5c0,0,0,0,0,0c0.4,4-1.8,8.8-6.1,13.6C20.5,397.4,13,401.8,8.4,401.8z"/>
		</g>
		<g id="Group_22_1_" transform="translate(15.276 9.061)">
			<path id="Path_22_1_" class="st5" d="M23,349.7c-0.1,0-0.1,0-0.2,0c-2.3-0.5-4.7-0.7-7.1-0.8c-2.4,0.1-4.7,0.4-7.1,0.8
				c-0.6,0.1-1.2-0.3-1.3-0.9c-0.1-0.6,0.3-1.1,0.8-1.3c2.5-0.5,5-0.8,7.5-0.9c2.5,0.1,5,0.4,7.5,0.9c0.6,0.1,1,0.7,0.8,1.3
				C24,349.3,23.5,349.7,23,349.7L23,349.7z"/>
		</g>
		<g id="Group_23_1_" transform="translate(12.928 24.282)">
			<circle id="Ellipse_11_1_" class="st5" cx="10.2" cy="349.5" r="1.8"/>
			<path id="Path_23_1_" class="st5" d="M10.2,352.3c-1.6,0-2.8-1.3-2.8-2.8c0-0.8,0.3-1.5,0.8-2l0,0c1.1-1.1,2.9-1.1,4,0
				c1.1,1.1,1.1,2.9,0,4C11.7,352,10.9,352.3,10.2,352.3z M9.7,349c-0.3,0.3-0.3,0.7,0,1c0.3,0.3,0.7,0.3,1,0c0.3-0.3,0.3-0.7,0-1
				C10.4,348.7,10,348.7,9.7,349z"/>
		</g>
		<g id="Group_24_1_" transform="translate(28.849 24.281)">
			<circle id="Ellipse_12_1_" class="st5" cx="10.2" cy="349.5" r="1.8"/>
			<path id="Path_24_1_" class="st5" d="M10.2,352.3c-1.6,0-2.8-1.3-2.8-2.8s1.3-2.8,2.8-2.8s2.8,1.3,2.8,2.8c0,0.8-0.3,1.5-0.8,2
				C11.7,352,10.9,352.3,10.2,352.3z M10.2,348.8c-0.2,0-0.4,0.1-0.5,0.2l0,0c-0.3,0.3-0.3,0.7,0,1c0.3,0.3,0.7,0.3,1,0s0.3-0.7,0-1
				C10.5,348.9,10.4,348.8,10.2,348.8z M9,348.2"/>
		</g>
		<g id="Group_25_1_" transform="translate(15.703 36.996)">
			<path id="Path_25_1_" class="st5" d="M8.4,352.4c-0.6,0-1.1-0.5-1.1-1.1c0-0.2,0-0.3,0.1-0.5c0.1-0.2,2.1-4.3,7.9-4.3
				s7.8,4.1,7.9,4.3c0.2,0.5,0,1.2-0.5,1.4c-0.5,0.2-1.2,0-1.4-0.5c-0.1-0.1-1.5-3-6-3c-4.5,0-5.9,3-6,3
				C9.2,352.2,8.9,352.4,8.4,352.4z"/>
		</g>
		<g id="Group_26_1_" transform="translate(22.642 34.005)">
			<path id="Path_26_1_" class="st5" d="M8.4,351.8c-0.6,0-1.1-0.5-1.1-1.1l0,0v-3c0-0.6,0.5-1.1,1.1-1.1s1.1,0.5,1.1,1.1v3
				C9.5,351.3,9,351.8,8.4,351.8L8.4,351.8z"/>
		</g>
		<g id="Group_27_1_" transform="translate(19.469 29.704)">
			<path id="Path_27_1_" class="st5" d="M14.8,348.9c-0.2,1.8-1.8,3-3.5,2.8c-1.5-0.2-2.7-1.3-2.8-2.8c0-1.2,1.2-1.2,3.2-1.2
				S14.8,347.7,14.8,348.9z"/>
			<path id="Path_28_1_" class="st5" d="M11.6,352.9c-1.2,0-2.3-0.5-3.1-1.3c-0.7-0.7-1.1-1.6-1.2-2.6c0-1,0.7-1.9,1.7-2.1
				c0.8-0.2,1.7-0.2,2.6-0.2h0.1c0.9,0,1.7,0,2.6,0.2c1,0.2,1.7,1.1,1.7,2.1c0,1-0.5,1.9-1.2,2.6C13.9,352.4,12.8,352.9,11.6,352.9z
				 M9.5,348.9c0.2,1.2,1.3,1.9,2.5,1.7c0.9-0.2,1.6-0.8,1.7-1.7c-0.7-0.1-1.4-0.2-2.1-0.1h-0.1C10.9,348.8,10.2,348.8,9.5,348.9
				L9.5,348.9z"/>
		</g>
	</g>
	<text transform="matrix(1 0 0 1 113.5374 520.092)"><tspan x="0" y="0" class="st9 st10 st11">LOAD S.A.A.</tspan><tspan x="-0.7" y="22" class="st9 st10 st11">HOMEPAGE</tspan></text>
	<text transform="matrix(1 0 0 1 304.7312 520.092)"><tspan x="0" y="0" class="st9 st10 st11">FIND VOLUNTEER</tspan><tspan x="5.9" y="22" class="st9 st10 st11">OPPORTUNITIES</tspan></text>
	<text transform="matrix(1 0 0 1 527.5413 520.092)"><tspan x="0" y="0" class="st9 st10 st11">FIND DONATION</tspan><tspan x="8.7" y="22" class="st9 st10 st11">INFORMATION</tspan></text>
	<text transform="matrix(1 0 0 1 743.8792 520.092)"><tspan x="0" y="0" class="st9 st10 st11">SEARCH RESCUE</tspan><tspan x="33" y="22" class="st9 st10 st11">ANIMALS</tspan></text>
	<rect x="74.8" y="45.7" class="st12" width="377.9" height="59"/>
	<text transform="matrix(1 0 0 1 74.7597 56.099)"><tspan x="0" y="0" class="st5 st13 st8">Nancy finds it difficult to donate and volunteer with </tspan><tspan x="0" y="16.8" class="st5 st13 st8">animal rescue organizations because of long </tspan><tspan x="0" y="33.6" class="st5 st13 st8">application processes and confusing site </tspan></text>
	<rect x="509.8" y="45.7" class="st12" width="373.7" height="59"/>
	<text transform="matrix(1 0 0 1 509.7558 56.0985)"><tspan x="0" y="0" class="st5 st13 st8">Nancy hopes to find an organization that provides </tspan><tspan x="0" y="16.8" class="st5 st13 st8">an easier way to volunteer, donate, and research </tspan><tspan x="0" y="33.6" class="st5 st13 st8">rescue animals.</tspan></text>
	<circle class="st14" cx="114.9" cy="295.9" r="9.1"/>
	<g>
		<g>
			<line class="st15" x1="114.9" y1="285" x2="114.9" y2="282"/>
			<line class="st16" x1="114.9" y1="276.4" x2="114.9" y2="211.7"/>
			<line class="st15" x1="114.9" y1="208.9" x2="114.9" y2="205.9"/>
		</g>
	</g>
	<rect x="92.6" y="155.4" class="st17" width="144.6" height="43.3"/>
	<polygon class="st17" points="114.9,198.4 120.7,198.4 117.8,202.8 114.9,207.1 112,202.8 109.1,198.4 	"/>
	<rect x="99.8" y="165.6" class="st12" width="134.2" height="40.1"/>
	<text transform="matrix(1 0 0 1 99.806 174.459)"><tspan x="0" y="0" class="st9 st13 st18">Loads S.A.A. </tspan><tspan x="0" y="14" class="st9 st13 st18">homepage</tspan></text>
	<rect x="508.7" y="156.1" class="st17" width="144.6" height="43.3"/>
	<rect x="515.9" y="166.3" class="st12" width="134.2" height="40.1"/>
	<text transform="matrix(1 0 0 1 515.8981 175.2032)"><tspan x="0" y="0" class="st9 st13 st18">User finds and clicks </tspan><tspan x="0" y="14" class="st9 st13 st18">on donation link</tspan></text>
	<rect x="86.9" y="606.5" class="st12" width="166.3" height="94"/>
	<text transform="matrix(1 0 0 1 86.9379 615.4427)"><tspan x="0" y="0" class="st5 st13 st18">Mission statement and </tspan><tspan x="0" y="14" class="st5 st13 st18">organization goals can be </tspan><tspan x="0" y="28" class="st5 st13 st18">visible in hero banner </tspan><tspan x="0" y="42" class="st5 st13 st18">instead of hiding inside of </tspan><tspan x="0" y="56" class="st5 st13 st18">links</tspan></text>
	<circle class="st14" cx="311.9" cy="320.8" r="9.1"/>
	<g>
		<g>
			<line class="st15" x1="311.9" y1="310" x2="311.9" y2="307"/>
			<line class="st16" x1="311.9" y1="301.4" x2="311.9" y2="236.7"/>
			<line class="st15" x1="311.9" y1="233.8" x2="311.9" y2="230.8"/>
		</g>
	</g>
	<rect x="289.6" y="169.4" class="st17" width="144.6" height="54.3"/>
	<polygon class="st17" points="311.9,223.4 317.7,223.4 314.8,227.7 311.9,232.1 309,227.7 306.1,223.4 	"/>
	<rect x="296.8" y="177.5" class="st12" width="134.2" height="40.1"/>
	<text transform="matrix(1 0 0 1 296.7791 186.3775)"><tspan x="0" y="0" class="st9 st13 st18">User reads through </tspan><tspan x="0" y="14" class="st9 st13 st18">info about volunteer </tspan><tspan x="0" y="28" class="st9 st13 st18">opportunities</tspan></text>
	<circle class="st14" cx="531.3" cy="296.8" r="9.1"/>
	<g>
		<g>
			<line class="st15" x1="531.3" y1="286" x2="531.3" y2="283"/>
			<line class="st16" x1="531.3" y1="277.4" x2="531.3" y2="212.7"/>
			<line class="st15" x1="531.3" y1="209.8" x2="531.3" y2="206.8"/>
		</g>
	</g>
	<polygon class="st17" points="531.3,199.4 537.1,199.4 534.2,203.7 531.3,208.1 528.4,203.7 525.5,199.4 	"/>
	<circle class="st14" cx="749.6" cy="258" r="9.1"/>
	<g>
		<g>
			<line class="st15" x1="749.6" y1="247.2" x2="749.6" y2="244.2"/>
			<line class="st16" x1="749.6" y1="238.6" x2="749.6" y2="173.9"/>
			<line class="st15" x1="749.6" y1="171.1" x2="749.6" y2="168.1"/>
		</g>
	</g>
	<rect x="727.3" y="117.6" class="st17" width="144.6" height="54.3"/>
	<polygon class="st17" points="749.6,171.6 755.4,171.6 752.5,175.9 749.6,180.3 746.7,175.9 743.8,171.6 	"/>
	<rect x="734.5" y="126.7" class="st12" width="134.2" height="40.1"/>
	<text transform="matrix(1 0 0 1 734.4554 135.5785)"><tspan x="0" y="0" class="st9 st13 st18">User finds and clicks </tspan><tspan x="0" y="14" class="st9 st13 st18">“Meet Our Pets,” to </tspan><tspan x="0" y="28" class="st9 st13 st18">find animals in need</tspan></text>
	<circle class="st14" cx="213.8" cy="265.8" r="9.1"/>
	<g>
		<g>
			<line class="st15" x1="213.8" y1="276.7" x2="213.8" y2="279.7"/>
			<line class="st16" x1="213.8" y1="285.3" x2="213.8" y2="350"/>
			<line class="st15" x1="213.8" y1="352.8" x2="213.8" y2="355.8"/>
		</g>
	</g>
	
		<rect x="91.5" y="363" transform="matrix(-1 -4.488955e-11 4.488955e-11 -1 327.6667 780.2726)" class="st17" width="144.6" height="54.3"/>
	<polygon class="st17" points="213.8,363.3 208,363.3 210.9,358.9 213.8,354.6 216.7,358.9 219.6,363.3 	"/>
	<rect x="97.7" y="371.1" class="st12" width="134.2" height="40.1"/>
	<text transform="matrix(1 0 0 1 97.7483 379.9811)"><tspan x="0" y="0" class="st9 st13 st18">Reads mission </tspan><tspan x="0" y="14" class="st9 st13 st18">statement and clicks </tspan><tspan x="0" y="28" class="st9 st13 st18">on “Volunteer” link</tspan></text>
	<circle class="st14" cx="443.2" cy="249.6" r="9.1"/>
	<g>
		<g>
			<line class="st15" x1="443.2" y1="260.5" x2="443.2" y2="263.5"/>
			<line class="st16" x1="443.2" y1="269.1" x2="443.2" y2="333.8"/>
			<line class="st15" x1="443.2" y1="336.6" x2="443.2" y2="339.6"/>
		</g>
	</g>
	
		<rect x="321" y="346.8" transform="matrix(-1 -5.339430e-11 5.339430e-11 -1 786.5413 758.184)" class="st17" width="144.6" height="64.6"/>
	<polygon class="st17" points="443.2,347.1 437.4,347.1 440.3,342.7 443.2,338.4 446.1,342.7 449,347.1 	"/>
	<rect x="327.2" y="353.9" class="st12" width="134.2" height="57"/>
	<text transform="matrix(1 0 0 1 327.1855 362.7948)"><tspan x="0" y="0" class="st9 st13 st18">User clicks on </tspan><tspan x="0" y="14" class="st9 st13 st18">volunteer sign-up </tspan><tspan x="0" y="28" class="st9 st13 st18">button to register as </tspan><tspan x="0" y="42" class="st9 st13 st18">volunteer</tspan></text>
	<circle class="st14" cx="656.9" cy="278.6" r="9.1"/>
	<g>
		<g>
			<line class="st15" x1="656.9" y1="289.4" x2="656.9" y2="292.4"/>
			<line class="st16" x1="656.9" y1="298" x2="656.9" y2="362.7"/>
			<line class="st15" x1="656.9" y1="365.6" x2="656.9" y2="368.6"/>
		</g>
	</g>
	
		<rect x="534.6" y="375.7" transform="matrix(-1 -4.488955e-11 4.488955e-11 -1 1213.8428 805.7693)" class="st17" width="144.6" height="54.3"/>
	<polygon class="st17" points="656.9,376 651.1,376 654,371.7 656.9,367.3 659.8,371.7 662.7,376 	"/>
	<rect x="540.8" y="383.8" class="st12" width="134.2" height="40.1"/>
	<text transform="matrix(1 0 0 1 540.8368 392.7299)"><tspan x="0" y="0" class="st9 st13 st18">User reads through </tspan><tspan x="0" y="14" class="st9 st13 st18">donation </tspan><tspan x="0" y="28" class="st9 st13 st18">opportunities</tspan><tspan x="80.1" y="28" class="st9 st13 st18"> and </tspan></text>
	<circle class="st14" cx="867.5" cy="211.2" r="9.1"/>
	<g>
		<g>
			<line class="st15" x1="867.5" y1="222" x2="867.5" y2="225"/>
			<line class="st16" x1="867.5" y1="230.7" x2="867.5" y2="295.4"/>
			<line class="st15" x1="867.5" y1="298.2" x2="867.5" y2="301.2"/>
		</g>
	</g>
	
		<rect x="745.3" y="308.4" transform="matrix(-1 -4.488955e-11 4.488955e-11 -1 1635.0977 671.0254)" class="st17" width="144.6" height="54.3"/>
	<polygon class="st17" points="867.5,308.7 861.7,308.7 864.6,304.3 867.5,300 870.4,304.3 873.3,308.7 	"/>
	<rect x="751.5" y="316.5" class="st12" width="134.2" height="48.5"/>
	<text transform="matrix(1 0 0 1 751.4637 325.358)"><tspan x="0" y="0" class="st9 st13 st18">User clicks on a pet </tspan><tspan x="0" y="14" class="st9 st13 st18">to read more info </tspan><tspan x="0" y="28" class="st9 st13 st18">about animal</tspan></text>
	<g>
		<path class="st5" d="M77.8,610.7c0-1.3,1-2.2,2.2-2.2c1.2,0,2.2,0.9,2.2,2.2c0,1.3-1,2.3-2.2,2.3C78.8,613,77.8,612,77.8,610.7z"
			/>
	</g>
	<rect x="301.4" y="606.5" class="st12" width="169.3" height="156"/>
	<text transform="matrix(1 0 0 1 301.4359 615.4427)"><tspan x="0" y="0" class="st5 st13 st18">An interactive map can be </tspan><tspan x="0" y="14" class="st5 st13 st18">used to show where </tspan><tspan x="0" y="28" class="st5 st13 st18">volunteer opportunities </tspan><tspan x="0" y="42" class="st5 st13 st18">are so that potential </tspan><tspan x="0" y="56" class="st5 st13 st18">volunteers can efficiently </tspan><tspan x="0" y="70" class="st5 st13 st18">plan</tspan><tspan x="0" y="98" class="st5 st13 st18">Make registration process </tspan><tspan x="0" y="112" class="st5 st13 st18">short and simple so not to </tspan><tspan x="0" y="126" class="st5 st13 st18">take up user’s time</tspan></text>
	<g>
		<path class="st5" d="M292.3,610.7c0-1.3,1-2.2,2.2-2.2c1.2,0,2.2,0.9,2.2,2.2c0,1.3-1,2.3-2.2,2.3
			C293.3,613,292.3,612,292.3,610.7z"/>
	</g>
	<rect x="518.9" y="606.5" class="st12" width="169.3" height="156"/>
	<text transform="matrix(1 0 0 1 518.9335 615.4427)"><tspan x="0" y="0" class="st5 st13 st18">Add donate link on </tspan><tspan x="0" y="14" class="st5 st13 st18">primary nav bar as-well-as </tspan><tspan x="0" y="28" class="st5 st13 st18">within volunteer page</tspan><tspan x="0" y="56" class="st5 st13 st18">Make sure donation details </tspan><tspan x="0" y="70" class="st5 st13 st18">give users enough info </tspan><tspan x="0" y="84" class="st5 st13 st18">about how to donate and </tspan><tspan x="0" y="98" class="st5 st13 st18">details about how their </tspan><tspan x="0" y="112" class="st5 st13 st18">donation will help animals</tspan></text>
	<g>
		<path class="st5" d="M509.8,610.7c0-1.3,1-2.2,2.2-2.2c1.2,0,2.2,0.9,2.2,2.2c0,1.3-1,2.3-2.2,2.3
			C510.8,613,509.8,612,509.8,610.7z"/>
	</g>
	<rect x="736.9" y="606.5" class="st12" width="169.3" height="156"/>
	<text transform="matrix(1 0 0 1 736.9316 615.4427)"><tspan x="0" y="0" class="st5 st13 st18">Animal listings can be </tspan><tspan x="0" y="14" class="st5 st13 st18">created directly into the </tspan><tspan x="0" y="28" class="st5 st13 st18">website instead of through </tspan><tspan x="0" y="42" class="st5 st13 st18">3rd party like Petfinder</tspan><tspan x="0" y="70" class="st5 st13 st18">Listings should have </tspan><tspan x="0" y="84" class="st5 st13 st18">detailed info about pets </tspan><tspan x="0" y="98" class="st5 st13 st18">like age, breed, behavior, </tspan><tspan x="0" y="112" class="st5 st13 st18">and medical history  </tspan></text>
	<g>
		<path class="st5" d="M727.8,610.7c0-1.3,1-2.2,2.2-2.2c1.2,0,2.2,0.9,2.2,2.2c0,1.3-1,2.3-2.2,2.3
			C728.8,613,727.8,612,727.8,610.7z"/>
	</g>
	<g>
		<path class="st5" d="M727.8,681.4c0-1.3,1-2.2,2.2-2.2c1.2,0,2.2,0.9,2.2,2.2c0,1.3-1,2.3-2.2,2.3
			C728.8,683.7,727.8,682.7,727.8,681.4z"/>
	</g>
	<g>
		<path class="st5" d="M509.8,667.2c0-1.3,1-2.2,2.2-2.2c1.2,0,2.2,0.9,2.2,2.2c0,1.3-1,2.3-2.2,2.3
			C510.8,669.5,509.8,668.5,509.8,667.2z"/>
	</g>
	<g>
		<path class="st5" d="M292.3,695.5c0-1.3,1-2.2,2.2-2.2c1.2,0,2.2,0.9,2.2,2.2c0,1.3-1,2.3-2.2,2.3
			C293.3,697.8,292.3,696.8,292.3,695.5z"/>
	</g>
</g>
</svg>
